<svg width="59" height="59" viewBox="0 0 59 59" fill="none" xmlns="http://www.w3.org/2000/svg">
<path d="M29.23 58.46C45.3733 58.46 58.46 45.3733 58.46 29.23C58.46 13.0867 45.3733 0 29.23 0C13.0867 0 0 13.0867 0 29.23C0 45.3733 13.0867 58.46 29.23 58.46Z" fill="#8F73B3"/>
<path d="M29.23 16.2797C33.45 16.2797 33.95 16.2997 35.62 16.3697C37.16 16.4397 38 16.6997 38.55 16.9097C39.29 17.1997 39.81 17.5397 40.37 18.0897C40.92 18.6397 41.27 19.1697 41.55 19.9097C41.77 20.4697 42.02 21.2997 42.09 22.8397C42.17 24.5097 42.18 25.0097 42.18 29.2297C42.18 33.4497 42.16 33.9497 42.09 35.6197C42.02 37.1597 41.76 37.9997 41.55 38.5497C41.26 39.2897 40.92 39.8097 40.37 40.3697C39.82 40.9197 39.29 41.2697 38.55 41.5497C37.99 41.7697 37.16 42.0197 35.62 42.0897C33.95 42.1697 33.45 42.1797 29.23 42.1797C25.01 42.1797 24.51 42.1597 22.84 42.0897C21.3 42.0197 20.46 41.7597 19.91 41.5497C19.17 41.2597 18.65 40.9197 18.09 40.3697C17.54 39.8197 17.19 39.2897 16.91 38.5497C16.69 37.9897 16.44 37.1597 16.37 35.6197C16.29 33.9497 16.28 33.4497 16.28 29.2297C16.28 25.0097 16.3 24.5097 16.37 22.8397C16.44 21.2997 16.7 20.4597 16.91 19.9097C17.2 19.1697 17.54 18.6497 18.09 18.0897C18.64 17.5397 19.17 17.1897 19.91 16.9097C20.47 16.6897 21.3 16.4397 22.84 16.3697C24.51 16.2897 25.01 16.2797 29.23 16.2797ZM29.23 13.4297C24.94 13.4297 24.4 13.4497 22.71 13.5297C21.03 13.6097 19.88 13.8697 18.87 14.2597C17.83 14.6597 16.95 15.1997 16.07 16.0797C15.19 16.9597 14.65 17.8397 14.25 18.8797C13.86 19.8897 13.59 21.0297 13.52 22.7197C13.44 24.4097 13.42 24.9397 13.42 29.2397C13.42 33.5297 13.44 34.0697 13.52 35.7597C13.6 37.4397 13.86 38.5897 14.25 39.5997C14.65 40.6397 15.19 41.5197 16.07 42.3997C16.95 43.2797 17.83 43.8197 18.87 44.2197C19.88 44.6097 21.02 44.8797 22.71 44.9497C24.4 45.0297 24.93 45.0497 29.23 45.0497C33.53 45.0497 34.06 45.0297 35.75 44.9497C37.43 44.8697 38.58 44.6097 39.59 44.2197C40.63 43.8197 41.51 43.2797 42.39 42.3997C43.27 41.5197 43.81 40.6397 44.21 39.5997C44.6 38.5897 44.87 37.4497 44.94 35.7597C45.02 34.0697 45.04 33.5397 45.04 29.2397C45.04 24.9397 45.02 24.4097 44.94 22.7197C44.86 21.0397 44.6 19.8897 44.21 18.8797C43.81 17.8397 43.27 16.9597 42.39 16.0797C41.51 15.1997 40.63 14.6597 39.59 14.2597C38.58 13.8697 37.44 13.5997 35.75 13.5297C34.06 13.4497 33.53 13.4297 29.23 13.4297Z" fill="#BDCDE4"/>
<path d="M29.23 21.1196C24.75 21.1196 21.11 24.7496 21.11 29.2396C21.11 33.7296 24.74 37.3596 29.23 37.3596C33.72 37.3596 37.35 33.7296 37.35 29.2396C37.35 24.7496 33.72 21.1196 29.23 21.1196ZM29.23 34.4996C26.32 34.4996 23.96 32.1396 23.96 29.2296C23.96 26.3196 26.32 23.9596 29.23 23.9596C32.14 23.9596 34.5 26.3196 34.5 29.2296C34.5 32.1396 32.14 34.4996 29.23 34.4996Z" fill="#BDCDE4"/>
<path d="M37.67 22.6999C38.7194 22.6999 39.57 21.8492 39.57 20.7999C39.57 19.7506 38.7194 18.8999 37.67 18.8999C36.6207 18.8999 35.7701 19.7506 35.7701 20.7999C35.7701 21.8492 36.6207 22.6999 37.67 22.6999Z" fill="#BDCDE4"/>
</svg>
