<?xml version="1.0" encoding="utf-8"?>
<!-- Generator: Adobe Illustrator 23.0.3, SVG Export Plug-In . SVG Version: 6.00 Build 0)  -->
<svg version="1.1" id="Layer_1" xmlns="http://www.w3.org/2000/svg" xmlns:xlink="http://www.w3.org/1999/xlink" x="0px" y="0px"
	 viewBox="0 0 636.89 193.05" style="enable-background:new 0 0 636.89 193.05;" xml:space="preserve">
<style type="text/css">
	.st0{fill:#BECDE4;}
	.st1{fill:#231F20;}
</style>
<path class="st0" d="M559.1,20.14c0.08-0.08,0.12-0.16,0.12-0.25c0-0.08-0.02-0.12-0.06-0.12s-0.06-0.04-0.06-0.12
	c0-0.16,0.14-0.35,0.43-0.56s0.52-0.39,0.68-0.56c0-0.08-0.02-0.14-0.06-0.18s-0.06-0.1-0.06-0.19l0.12-0.12
	c1.16-1.24,2.11-2.23,2.85-2.98c0.74-0.74,1.49-1.43,2.23-2.05s1.36-0.93,1.86-0.93c0.16,0,0.22-0.02,0.19-0.06
	c-0.04-0.04,0.02-0.14,0.18-0.31c1.16-0.66,1.88-1.03,2.17-1.12c0.29-0.08,0.52-0.2,0.68-0.37c0,0.05,0.02,0.08,0.06,0.1
	c-0.2,0.11-0.42,0.27-0.68,0.52c-0.33,0.25-0.81,0.58-1.43,0.99s-1.42,0.99-2.42,1.74c-2.48,1.82-4.76,4.05-6.82,6.7v-0.13
	C559.08,20.14,559.1,20.14,559.1,20.14z M555.93,19.95c0.77,0.74,1.55,1.48,2.35,2.2c0.56,0.37,1.14,0.73,1.71,1.1
	c2.87-0.78,5.77-1.4,8.68-1.82c0.44-0.5,0.86-0.98,1.23-1.41c0.5-0.58,0.78-0.87,0.87-0.87c-0.08,0.17-0.12,0.35-0.12,0.56
	s-0.04,0.39-0.12,0.56c0,0.07,0.02,0.39,0.05,0.92c0.52-0.06,1.04-0.12,1.56-0.17v-0.13c0-0.41,0.08-1.03,0.25-1.86
	c0.16-0.83,0.7-1.57,1.61-2.23c-0.74,1.73-1.16,3.12-1.24,4.15c0,0.01,0,0.01,0,0.02c0.14-0.01,0.28-0.02,0.42-0.03
	c0.95-0.62,1.92-1.22,2.92-1.77c1.37-0.91,2.77-1.78,4.19-2.59c0.77-1.09,1.4-1.89,1.89-2.38c0.17-0.41,0.29-0.85,0.37-1.3
	s0.12-0.89,0.12-1.3c0-0.08-0.08-0.29-0.25-0.62c0-0.83-0.39-1.49-1.18-1.98c-0.78-0.5-1.03-0.87-2.06-1.11
	c-1.03-0.25-1.88-1.27-2.91-1.35c-1.03-0.08-2.65-1.27-3.15-1.27c-0.91,0-2.19,1.69-2.98,1.94c-0.78,0.25-1.28,1.14-2.35,1.8
	c-0.09,0.08-0.15,0.19-0.19,0.31s-0.1,0.19-0.19,0.19l-0.25-0.25c-0.91,0.74-1.66,1.3-2.23,1.67c-0.58,0.37-1.32,0.85-2.23,1.43
	c-0.08,0-0.12-0.02-0.12-0.06s-0.04-0.06-0.12-0.06c0,0.41-0.04,0.62-0.12,0.62c-0.09,0-0.13-0.04-0.13-0.12l-0.12-0.12
	c0,0.25-0.19,0.43-0.56,0.56c-0.37,0.12-0.85,0.39-1.43,0.81c-0.58,0.41-1.2,0.99-1.86,1.73c-0.66,0.74-1.28,1.86-1.86,3.35
	c0.16,0,0.25,0.04,0.25,0.12C556.48,19.22,556.24,19.49,555.93,19.95"/>
<path class="st0" d="M536.41,44.64c0.44-0.33,0.79-0.6,1.07-0.82c0.27-0.22,0.63-0.71,1.06-1.47c-0.44,0-0.63,0.08-0.57,0.25
	c0.05,0.16-0.14,0.24-0.57,0.24c0,0.11,0.03,0.16,0.08,0.16s0.08,0.06,0.08,0.16c-0.66,0.87-1.47,1.78-2.46,2.7
	c-0.98,0.93-1.47,1.5-1.47,1.72h0.33c-0.11,0.11-0.33,0.38-0.66,0.82c-0.33,0.44-1.26,1.42-2.78,2.95
	c-0.77,0.55-1.34,1.04-1.72,1.47c-0.38,0.44-0.74,0.9-1.06,1.39c-0.33,0.49-0.49,0.96-0.49,1.39c0,0.33-0.08,0.47-0.24,0.41
	c-0.16-0.05-0.47,0.09-0.9,0.41c-0.44,0.33-1.01,0.96-1.72,1.88c-0.71,0.93-1.56,2.54-2.54,4.83c-1.86,2.51-3.44,4.64-4.75,6.39
	s-1.96,2.67-1.96,2.78c-0.22,0.44-0.96,1.2-2.21,2.29c-1.26,1.09-2.1,2.35-2.54,3.77c0.22,0,0.35,0.03,0.41,0.08
	c0.05,0.06,0.14,0.09,0.25,0.09h0.16c0-0.33,0.16-0.74,0.49-1.23s0.85-1.17,1.56-2.05c0.71-0.87,1.83-2.07,3.35-3.6
	c-0.11,0.11-0.16,0.22-0.16,0.33c0.55,0,1.04-0.57,1.47-1.72s0.98-2.05,1.64-2.7c0-0.11,0.19-0.35,0.58-0.74
	c0.38-0.38,0.76-0.82,1.15-1.31c0.38-0.49,0.76-0.98,1.15-1.47c0.38-0.49,0.57-0.9,0.57-1.23c0-0.11,0.3-0.6,0.9-1.47
	s1.01-1.31,1.23-1.31c0.33-0.98,0.66-1.61,0.98-1.88c0.33-0.27,0.74-0.6,1.23-0.98s1.07-0.98,1.72-1.8
	c0.66-0.82,1.47-2.21,2.46-4.18c0.66-0.66,1.03-1.12,1.15-1.39c0.11-0.27,0.25-0.58,0.41-0.9c0.16-0.33,0.43-0.79,0.82-1.39
	C534.25,46.91,535.09,45.95,536.41,44.64 M510.78,36.13c0.49-1.09,1.03-2.21,1.64-3.36c0.6-1.15,1.2-2.16,1.8-3.03
	s1.01-1.42,1.23-1.64c0-0.11-0.03-0.19-0.08-0.24c-0.06-0.06-0.08-0.14-0.08-0.25s0.08-0.19,0.25-0.24
	c0.16-0.05,0.24-0.19,0.24-0.41c0-0.11-0.05-0.22-0.16-0.33c-0.22,0.54-0.52,1.04-0.9,1.47c-0.38,0.44-0.74,0.93-1.06,1.47
	c-0.66,0.98-1.2,1.8-1.64,2.46s-0.84,1.31-1.23,1.97c-0.38,0.66-0.57,1.15-0.57,1.47l0.16,0.33c-1.53,3.17-2.76,5.92-3.69,8.27
	c-0.93,2.35-1.72,4.59-2.37,6.72c-0.66,2.13-1.2,4.26-1.64,6.39s-0.82,4.5-1.15,7.12c0.66-3.93,1.39-7.29,2.21-10.07
	s1.58-5.1,2.29-6.96c0.71-1.85,1.34-3.33,1.89-4.42c0.54-1.09,0.87-1.91,0.98-2.46l0.16,0.16c0.11,0,0.16-0.05,0.16-0.16v-0.33
	l0.33-0.16l-0.16-0.33c0-0.11,0.05-0.22,0.16-0.33l0.49-0.49C510.04,38.09,510.29,37.22,510.78,36.13 M505.29,28.1
	c0.76-0.76,1.77-1.69,3.03-2.78c1.25-1.09,2.48-2.18,3.68-3.27c1.2-1.09,2.27-2.1,3.19-3.03c0.93-0.93,1.45-1.61,1.56-2.04
	c-0.33,0-0.82,0.27-1.47,0.82c-0.66,0.55-1.39,1.17-2.21,1.88s-1.64,1.47-2.46,2.29s-1.55,1.5-2.21,2.05c0.11,0,0.16-0.05,0.16-0.16
	c0,0.11-0.3,0.47-0.9,1.06c-0.6,0.6-1.23,1.26-1.88,1.97c-0.66,0.71-1.28,1.37-1.88,1.97s-0.9,0.96-0.9,1.06
	c-3.28,3.28-5.95,6.12-8.02,8.52c-2.08,2.4-3.82,4.5-5.24,6.3s-2.68,3.41-3.77,4.83s-2.29,2.78-3.6,4.09c0,0.44,0.11,0.66,0.33,0.66
	c0.43-0.44,0.68-0.74,0.74-0.9c0.05-0.16,0.14-0.41,0.24-0.74c0.11-0.33,0.41-0.79,0.9-1.39s1.45-1.61,2.87-3.03
	c1.31-1.97,2.34-3.38,3.11-4.26c0.77-0.87,1.45-1.61,2.05-2.21c0.6-0.6,1.2-1.17,1.8-1.72c0.6-0.54,1.39-1.41,2.37-2.62
	c1.74-1.75,3.22-3.36,4.42-4.83C502.4,31.13,503.76,29.63,505.29,28.1 M480.4,31.54c0-0.11,0.11-0.38,0.33-0.82s0.33-0.76,0.33-0.98
	l-0.16-0.16c-0.66,0-1.23,0.55-1.72,1.64s-0.98,2.48-1.47,4.18c-0.49,1.69-1.07,3.52-1.72,5.48c-0.66,1.97-1.42,3.82-2.29,5.57
	c0,0.22-0.03,0.33-0.08,0.33c-0.06,0-0.08,0.06-0.08,0.16c-0.33,0.66-0.66,1.45-0.98,2.37c-0.33,0.93-0.6,1.83-0.82,2.7
	c-0.22,0.88-0.49,1.86-0.82,2.95c0,0.22,0.03,0.39,0.08,0.49c0.05,0.11,0.08,0.22,0.08,0.33c-0.11,1.2-0.28,2.16-0.49,2.87
	c-0.22,0.71-0.41,1.31-0.57,1.8c-0.16,0.49-0.33,0.93-0.49,1.31s-0.25,0.84-0.25,1.39l0.33,0.66c0-1.75,0.19-3.03,0.58-3.85
	c0.38-0.82,0.57-1.5,0.57-2.04c0.22,0,0.27-0.16,0.16-0.49s-0.05-0.49,0.16-0.49c0-0.33,0.43-1.31,1.31-2.95
	c0.87-1.64,1.31-3.49,1.31-5.57c0.11-0.66,0.46-1.74,1.06-3.27s1.25-3.17,1.97-4.91c0.71-1.74,1.42-3.41,2.13-4.99
	C479.56,33.64,480.07,32.41,480.4,31.54 M471.56,29.08c0.76-0.76,1.64-1.64,2.62-2.62c0.98-0.98,1.91-1.91,2.78-2.78
	s1.91-1.91,3.11-3.11l-0.16-0.33c-2.4,1.86-4.66,3.96-6.79,6.31s-4.28,4.61-6.47,6.79c0,0.22-0.22,0.55-0.66,0.98
	c-0.44,0.44-0.9,0.9-1.39,1.39s-1.01,0.96-1.55,1.39c-0.55,0.44-0.88,0.82-0.98,1.15c-1.2,1.31-2.27,2.48-3.19,3.52
	s-1.8,2.1-2.62,3.19s-1.72,2.18-2.7,3.28c-0.98,1.09-2.18,2.35-3.6,3.77c-0.11,0.11-0.35,0.35-0.74,0.74
	c-0.38,0.38-0.79,0.82-1.23,1.31s-0.82,1.01-1.15,1.55c-0.33,0.55-0.49,0.98-0.49,1.31l0.33,0.16c3.93-4.91,8.08-9.8,12.45-14.66
	C463.48,37.57,467.63,33.12,471.56,29.08 M446.5,31.87c0.22-0.54,0.41-1.01,0.58-1.39c0.16-0.38,0.41-0.9,0.73-1.56v-0.33
	c0.22-0.22,0.49-0.63,0.82-1.23s0.66-1.23,0.98-1.89c0.33-0.66,0.6-1.28,0.82-1.88s0.33-0.95,0.33-1.06c0-0.33,0.11-0.6,0.33-0.82
	s0.33-0.43,0.33-0.66c0-0.22-0.06-0.46-0.16-0.74c-0.11-0.27-0.28-0.41-0.49-0.41c-0.22,0.55-0.52,1.2-0.9,1.97
	s-0.74,1.53-1.06,2.29c-0.44,0.88-0.88,1.75-1.31,2.62c0,0.11,0.03,0.19,0.08,0.25s0.08,0.14,0.08,0.24
	c-0.22,0.22-0.41,0.41-0.57,0.58c-0.16,0.16-0.25,0.3-0.25,0.41s0.05,0.16,0.16,0.16v-0.16l-0.33,0.98
	c-0.11,0.22-0.25,0.49-0.41,0.82s-0.36,0.55-0.58,0.66c0,0.44-0.03,0.66-0.08,0.66c-0.06,0-0.3,0.38-0.74,1.15
	c-0.44,0.77-1.12,2.19-2.05,4.26s-2.27,5.46-4.01,10.15c-1.2,3.28-2.4,6.55-3.6,9.83c-1.2,3.27-1.8,6.28-1.8,9.01
	c0.11,0,0.22-0.25,0.33-0.74s0.25-1.07,0.41-1.72c0.16-0.66,0.33-1.34,0.49-2.04c0.16-0.71,0.35-1.28,0.57-1.72
	c0.55-1.31,1.09-2.86,1.64-4.67c0.55-1.8,1.12-3.63,1.72-5.48s1.23-3.57,1.88-5.16c0.66-1.58,1.36-2.76,2.13-3.52
	c0-0.1-0.03-0.19-0.08-0.24c-0.06-0.05-0.08-0.14-0.08-0.25c0.76-1.31,1.36-2.4,1.8-3.27c0.43-0.87,0.84-1.78,1.23-2.7
	c0.38-0.93,0.57-1.56,0.57-1.88L446.5,31.87z M545.58,39.07c0.66,0.66,0.98,1.2,0.98,1.64c0,0.33-0.52,1.04-1.55,2.13
	c-1.04,1.09-2.21,2.35-3.52,3.77c-1.31,1.42-2.48,2.84-3.52,4.26s-1.56,2.57-1.56,3.44v0.33c-0.11,0.22-0.57,0.71-1.39,1.47
	c-0.82,0.76-1.23,1.47-1.23,2.13v0.66c0,0.22-0.11,0.49-0.33,0.82c-0.22,0.33-0.63,0.82-1.23,1.47c-0.6,0.66-1.45,1.53-2.54,2.62
	c0,0.22-0.03,0.44-0.08,0.66c-0.06,0.22-0.3,0.55-0.74,0.98c0-0.22-0.06-0.33-0.16-0.33c-0.66,0.98-1.17,1.78-1.55,2.38
	c-0.39,0.6-0.79,1.23-1.23,1.88c-0.44,0.66-0.82,1.15-1.15,1.47c0,0.22,0.05,0.33,0.16,0.33s0.16,0.11,0.16,0.33
	s-0.25,0.65-0.74,1.31s-1.61,1.86-3.36,3.6c-0.66,1.31-1.12,2.18-1.39,2.62s-0.47,0.68-0.57,0.74c-0.11,0.06-0.16,0.06-0.16,0v0.41
	c-0.65,1.42-1.31,2.54-1.96,3.36c-0.66,0.82-1.5,1.58-2.54,2.29s-2.27,1.06-3.69,1.06c-0.87,0-1.72-0.22-2.54-0.65
	c-0.82-0.44-1.55-0.87-2.21-1.31c-0.22,0-0.77-0.3-1.64-0.9c-0.87-0.6-1.8-1.39-2.78-2.37s-1.89-2.1-2.7-3.36
	c-0.82-1.25-1.23-2.48-1.23-3.68c0.22,0,0.33-0.11,0.33-0.33l-0.33-0.16c0-0.11,0.03-0.3,0.08-0.58c0.05-0.27,0.08-0.52,0.08-0.73
	c0-0.22-0.11-0.33-0.33-0.33c0.11,0,0.16-0.11,0.16-0.33c0-0.11-0.03-0.24-0.08-0.41c-0.06-0.16-0.08-0.35-0.08-0.57l0.16-0.16
	c0-0.22-0.03-0.35-0.08-0.41c-0.06-0.05-0.08-0.25-0.08-0.57c0-0.22,0.03-0.35,0.08-0.41c0.05-0.05,0.08-0.13,0.08-0.24
	c-0.11,0-0.16-0.11-0.16-0.33c-0.11-0.11-0.16-0.44-0.16-0.98c0-0.22,0.05-0.38,0.16-0.49s0.16-0.27,0.16-0.49l-0.16-0.16
	c0-0.11,0.03-0.16,0.08-0.16s0.08-0.11,0.08-0.33c-0.11,0-0.16-0.03-0.16-0.08s-0.06-0.08-0.16-0.08c0-0.22,0.22-1.01,0.66-2.38
	c0.44-1.36,0.66-2.65,0.66-3.85l-0.16-0.33c0-0.11,0.05-0.16,0.16-0.16s0.16-0.05,0.16-0.16s-0.03-0.19-0.08-0.25
	c-0.06-0.05-0.08-0.14-0.08-0.25c0.44-1.2,0.79-2.18,1.06-2.95c0.27-0.76,0.49-1.56,0.66-2.37c0.16-0.82,0.24-1.5,0.24-2.05
	c-0.11-0.11-0.16-0.3-0.16-0.58v-0.24h-0.16h0.16c0-0.11,0.11-0.38,0.33-0.82c0.22-0.33,0.43-0.84,0.66-1.55
	c0.22-0.71,0.49-1.66,0.82-2.87c0.43-0.22,0.74-0.68,0.9-1.39s0.33-1.47,0.49-2.29s0.35-1.58,0.58-2.29
	c0.22-0.71,0.65-1.17,1.31-1.39c0-0.22-0.08-0.3-0.25-0.25c-0.16,0.06-0.25,0.03-0.25-0.08h0.16c0,0.11-0.14,0.41-0.41,0.9
	c-0.28,0.49-1.28,1.61-3.03,3.35c0-0.11-0.52,0.41-1.55,1.56c-1.04,1.15-1.78,2.1-2.21,2.87c-0.33,0-0.66,0.16-0.98,0.49
	c-0.33,0.33-0.93,1.09-1.8,2.29s-2.18,2.98-3.93,5.32c-1.75,2.35-4.21,5.6-7.37,9.74c-0.87,1.53-1.8,2.89-2.78,4.09
	c-0.87,1.09-1.75,2.05-2.62,2.87c-0.88,0.82-1.7,1.23-2.46,1.23h-0.33h-0.49c-0.33,0-0.85-0.19-1.56-0.57s-1.39-0.82-2.05-1.31
	s-1.23-1.01-1.72-1.55c-0.49-0.55-0.74-1.04-0.74-1.47l-0.16,0.16c-0.22,0-0.33-0.16-0.33-0.49c-0.11,0-0.22,0.05-0.33,0.16
	s-0.22,0.16-0.33,0.16c-0.88-0.87-1.31-1.53-1.31-1.97s-0.16-0.87-0.49-1.31l-0.33-0.33c0.11,0,0.16-0.05,0.16-0.16
	s0.05-0.27,0.16-0.49l-0.33-0.16c0.33-0.33,0.44-0.62,0.33-0.9c-0.11-0.27,0-0.46,0.33-0.57c0-0.22-0.06-0.3-0.16-0.25
	c-0.11,0.06-0.16,0.03-0.16-0.08c0-0.87,0.14-1.83,0.41-2.86c0.27-1.04,0.68-2.59,1.23-4.67c0.33-1.42,0.63-2.59,0.9-3.52
	c0.27-0.92,0.57-1.88,0.9-2.86s0.71-1.74,1.15-2.29c0.43-1.2,0.87-2.35,1.31-3.44c0.33-0.87,0.68-1.74,1.06-2.62
	c0.38-0.87,0.68-1.47,0.9-1.8c-0.11,0-0.44,0.25-0.98,0.74c-0.55,0.49-1.2,1.15-1.97,1.97s-1.58,1.72-2.46,2.7s-1.7,1.91-2.46,2.78
	c-0.77,1.2-1.78,2.48-3.03,3.85s-2.51,2.76-3.77,4.18c-1.26,1.42-2.4,2.81-3.44,4.17c-1.04,1.37-1.72,2.7-2.05,4.01
	c-0.11,0-0.16-0.03-0.16-0.08s-0.06-0.08-0.16-0.08c-0.22,0-0.6,0.3-1.15,0.9s-1.58,2.05-3.11,4.34c0,0.22-0.11,0.52-0.33,0.9
	s-0.39,0.63-0.49,0.73c0-0.11,0.05-0.16,0.16-0.16c0,0.66-0.38,1.42-1.15,2.29s-1.64,1.69-2.62,2.46s-1.91,1.42-2.78,1.97
	s-1.47,0.82-1.8,0.82c-0.22,0-0.57-0.14-1.06-0.41c-0.49-0.27-0.98-0.55-1.47-0.82s-1.06-0.63-1.72-1.06l-0.33,0.16
	c-0.11,0-0.33-0.16-0.66-0.49c-0.33-0.33-0.68-0.68-1.06-1.06s-0.84-0.9-1.39-1.56c-0.11,0-0.19,0.03-0.24,0.08
	c-0.06,0.06-0.14,0.08-0.25,0.08c0-0.11-0.25-0.33-0.74-0.66s-0.74-0.6-0.74-0.82v-0.49c0.11,0,0-0.11-0.33-0.33
	s-0.49-1.09-0.49-2.62c0-0.33,0.05-0.55,0.16-0.66c0-0.1,0.06-0.16,0.16-0.16c0-0.11-0.05-0.19-0.16-0.25
	c-0.11-0.05-0.16-0.19-0.16-0.41c0.22,0,0.33-0.05,0.33-0.16l-0.16-0.16c-0.11,0-0.16-0.05-0.16-0.16c0.33-0.22,0.49-0.54,0.49-0.98
	c0-0.43,0.05-0.93,0.16-1.47v0.16c0.11,0,0.16-0.05,0.16-0.16v-0.49c0-0.98,0.03-1.55,0.08-1.72c0.06-0.16,0.16-0.41,0.33-0.74
	c0.16-0.33,0.47-1.06,0.9-2.21c0.44-1.15,1.04-3.25,1.8-6.3c0,0.11,0.06,0.16,0.16,0.16c0.22,0,0.33-0.43,0.33-1.31
	c0-0.87,0.44-1.74,1.31-2.62c0-0.11-0.03-0.19-0.08-0.25c-0.05-0.05-0.08-0.13-0.08-0.24c0.66-1.2,1.17-2.21,1.55-3.03
	c0.39-0.82,0.76-1.58,1.15-2.29c0.38-0.71,0.73-1.47,1.06-2.29s0.71-1.88,1.15-3.19c0-0.11,0.08-0.19,0.25-0.25
	c0.16-0.05,0.24-0.14,0.24-0.24c0.22-0.44,0.33-0.68,0.33-0.74c0-0.05,0.03-0.22,0.08-0.49s0.24-0.82,0.57-1.64s0.98-2.16,1.97-4.01
	v0.16c0.11,0,0.52-0.33,1.23-0.98c0.71-0.66,1.06-1.64,1.06-2.95c0.22-0.43,0.41-0.82,0.57-1.15s0.41-0.82,0.74-1.47
	c0-0.43,0.38-0.95,1.15-1.55c0.76-0.6,1.15-1.61,1.15-3.03c0-0.33,0.33-0.63,0.98-0.9c0.66-0.27,1.42-0.41,2.29-0.41
	c0.11,0,0.71,0.08,1.8,0.25s2.27,0.44,3.52,0.82c1.25,0.38,2.4,0.87,3.44,1.47c1.03,0.6,1.55,1.34,1.55,2.21
	c0,0.22-0.11,0.55-0.33,0.98s-0.49,0.87-0.82,1.31s-0.6,0.85-0.82,1.23c-0.22,0.39-0.33,0.63-0.33,0.74
	c-0.33,0.33-0.49,0.55-0.49,0.66v0.16c0.11,0,0.16-0.05,0.16-0.16c0-0.22,0.05-0.33,0.16-0.33s0.16,0.11,0.16,0.33
	s-0.9,1.69-2.7,4.42c-1.8,2.73-3.68,6.77-5.65,12.12c-0.11,0-0.16,0.05-0.16,0.16v0.49c-0.33,0.55-0.66,1.04-0.98,1.47
	c-0.22,0.44-0.44,0.88-0.66,1.31c-0.22,0.44-0.33,0.82-0.33,1.15c0,0.11,0.03,0.19,0.08,0.25c0.05,0.05,0.08,0.14,0.08,0.25
	c-0.11,0.11-0.25,0.3-0.41,0.57s-0.24,0.47-0.24,0.57c0.11,0,0.43-0.25,0.98-0.74c0.54-0.49,1.22-1.17,2.04-2.05
	c0.82-0.87,1.72-1.85,2.7-2.95c0.98-1.09,1.91-2.24,2.78-3.44c2.4-3.16,5.05-6.03,7.94-8.6c2.89-2.56,5.6-5.1,8.11-7.61l-0.16,0.16
	c0.98-1.2,1.83-2.16,2.54-2.86c0.71-0.71,1.47-1.34,2.29-1.89c0.82-0.54,1.55-0.82,2.21-0.82c0.44,0,0.87,0.19,1.31,0.57
	c0.43,0.38,0.82,0.57,1.15,0.57c0.22,0,0.41-0.08,0.57-0.25c0.16-0.16,0.35-0.24,0.57-0.24V18l0.16-0.16c0.11,0,0.16-0.03,0.16-0.08
	s0.11-0.08,0.33-0.08s1.01,0.44,2.38,1.31c1.36,0.88,2.43,2.08,3.19,3.6l-0.16,0.16c0,0.11,0.08,0.47,0.25,1.06
	c0.16,0.6,0.24,1.28,0.24,2.05c0,1.2-0.16,2.21-0.49,3.03s-0.68,1.61-1.06,2.37c-0.39,0.77-0.74,1.61-1.07,2.54
	c-0.33,0.93-0.49,2.16-0.49,3.69c0,0.11,0.05,0.22,0.16,0.33c-0.22,0.22-0.47,0.66-0.74,1.31c-0.28,0.66-0.55,1.39-0.82,2.21
	c-0.27,0.82-0.55,1.64-0.82,2.46c-0.27,0.82-0.47,1.39-0.57,1.72c0,0.11,0.05,0.16,0.16,0.16c1.09-1.2,1.99-2.21,2.7-3.03
	s1.42-1.64,2.13-2.46s1.28-1.44,1.72-1.88c0.11-0.22,0.38-0.66,0.82-1.31c0.43-0.66,0.98-1.45,1.64-2.38s1.45-1.88,2.37-2.87
	c0.93-0.98,1.99-1.85,3.19-2.62c1.42-1.74,3.41-3.63,5.98-5.65c2.56-2.02,5.76-4.99,9.58-8.92c0.22-0.22,0.76-0.79,1.64-1.72
	c0.87-0.93,1.91-1.39,3.11-1.39c0.54,0,0.98,0.06,1.31,0.16c0.33,0.11,0.49,0.49,0.49,1.15c0.33-0.33,0.76-0.49,1.31-0.49
	c0.87,0,1.61,0.24,2.21,0.74c0.6,0.49,1.78,1.61,3.52,3.36c0,0.11-0.06,0.16-0.16,0.16c0,0.22,0.08,0.49,0.25,0.82
	c0.16,0.33,0.25,0.66,0.25,0.98c0,1.53-0.39,3.05-1.15,4.59c-0.77,1.53-1.42,2.89-1.97,4.09c0,0.22-0.08,0.66-0.24,1.31
	c-0.16,0.66-0.74,1.69-1.72,3.11c-0.11,0-0.3,0.14-0.57,0.41c-0.27,0.28-0.68,0.96-1.23,2.05s-1.26,2.65-2.13,4.66
	c-0.87,2.02-1.91,4.83-3.11,8.43c-0.33,1.09-0.79,1.97-1.39,2.62c-0.6,0.66-0.9,1.97-0.9,3.93c0,0.11-0.47,0.93-1.39,2.46
	c-0.93,1.53-1.39,3.55-1.39,6.06c-0.55,1.86-0.98,3.74-1.31,5.65c-0.33,1.91-0.6,3.96-0.82,6.14v0.33h0.16c0.22,0,0.47-0.3,0.74-0.9
	s0.63-0.9,1.06-0.9c0-0.11-0.03-0.19-0.08-0.24c-0.06-0.05-0.08-0.14-0.08-0.25c0.22,0,0.66-0.3,1.31-0.9s0.98-1.17,0.98-1.72
	c0.33-0.22,0.49-0.3,0.49-0.25c0,0.06,0.1-0.1,0.33-0.49c0.22-0.38,0.71-1.12,1.47-2.21s2.13-2.89,4.09-5.41
	c0.33-0.33,1.01-1.17,2.05-2.54c1.03-1.36,2.24-2.97,3.6-4.83c1.37-1.85,2.89-3.82,4.59-5.9c1.69-2.07,3.36-3.93,5-5.57
	c0.22-0.22,0.46-0.54,0.73-0.98c0.27-0.43,0.52-0.66,0.74-0.66c0.11,0,0.16,0.03,0.16,0.08c0,0.06,0.05,0.08,0.16,0.08
	c0.66,0,1.25-0.41,1.8-1.23c0.54-0.82,1.42-1.23,2.62-1.23l-0.16,0.16c0.33,0,0.71,0.06,1.15,0.16
	C544.32,38.64,545.03,38.85,545.58,39.07"/>
<path class="st0" d="M595.52,39.89c0-0.11-0.06-0.16-0.16-0.16c-0.22,0-0.47,0.14-0.74,0.41s-0.52,0.52-0.73,0.73
	c-1.09,0.77-1.83,1.31-2.21,1.64c-0.38,0.33-0.68,0.68-0.9,1.06c-0.22,0.39-0.47,0.82-0.73,1.31c-0.28,0.49-0.9,1.28-1.89,2.37v0.17
	c0,0.11,0.05,0.22,0.16,0.33c0,0.33-0.25,0.9-0.74,1.72s-1.5,1.99-3.03,3.52c0,0.22-0.25,0.57-0.74,1.06s-0.74,0.85-0.74,1.06
	l0.16,0.16l-0.16,0.16c-0.11,0-0.16-0.05-0.16-0.16l-1.31,1.64c-0.33,0.43-0.63,0.84-0.9,1.22c-0.27,0.39-0.41,0.68-0.41,0.9
	l0.16,0.33c-0.22,0-0.63,0.27-1.23,0.82s-1.28,1.97-2.05,4.26l-0.66,0.66l0.16,0.33c0-0.11-0.06-0.16-0.16-0.16
	c-0.11,0-0.3,0.3-0.57,0.9s-0.68,1.17-1.23,1.72c0,0.43-0.24,1.01-0.73,1.72c-0.49,0.72-1.07,1.42-1.72,2.13
	c-0.66,0.71-1.23,1.39-1.72,2.05s-0.74,1.09-0.74,1.31c0,0.33,0.05,0.49,0.16,0.49c0.43-0.11,0.87-0.38,1.31-0.82
	c0.43-0.44,0.98-1.09,1.64-1.97c0.66-0.87,1.42-2.18,2.29-3.93h-0.16c0.11-0.55,0.33-1.04,0.66-1.47c0.22-0.33,0.46-0.66,0.74-0.98
	c0.27-0.33,0.52-0.49,0.73-0.49c0-0.11-0.05-0.22-0.16-0.33c-0.22-0.11,0.54-1.42,2.29-3.93c1.75-2.51,4.04-5.84,6.88-9.99
	c0.33-0.33,0.74-0.79,1.23-1.39s0.98-1.23,1.47-1.88s0.93-1.31,1.31-1.97s0.57-1.15,0.57-1.47c0,0.11,0.41-0.33,1.23-1.31
	C592.82,42.67,593.99,41.42,595.52,39.89 M564.08,52.01c0-0.11,0.05-0.22,0.16-0.33s0.16-0.27,0.16-0.49c0-0.11-0.05-0.22-0.16-0.33
	c-0.44,0.55-0.79,1.2-1.07,1.97c-0.27,0.77-0.41,1.31-0.41,1.64l0.16,0.16c0.22-0.54,0.46-1.03,0.74-1.47
	C563.94,52.72,564.08,52.34,564.08,52.01 M563.75,40.71c0.54-0.54,1.01-1.01,1.39-1.39s0.74-0.84,1.07-1.39
	c-1.31,0-2.29,0.11-2.95,0.33c-0.66,0.22-1.23,0.49-1.72,0.82c-0.49,0.33-0.9,0.6-1.23,0.82s-0.82,0.33-1.47,0.33
	c0.11,0-0.11,0.22-0.66,0.65c-0.55,0.44-1.15,0.93-1.8,1.47c-0.66,0.55-1.31,1.09-1.97,1.64s-1.04,0.93-1.15,1.15h0.33
	c0,0.11-0.3,0.3-0.9,0.57c-0.6,0.28-0.9,0.68-0.9,1.23l0.16,0.33c-0.98,0.98-1.64,1.75-1.97,2.29c-0.33,0.55-0.88,1.8-1.64,3.77
	c-0.22,0-0.71,0.52-1.47,1.55c-0.77,1.04-1.15,2.16-1.15,3.36c0,0.11,0.05,0.16,0.16,0.16s0.76-0.43,1.97-1.31
	c1.2-0.87,2.56-2.07,4.09-3.6l-0.16-0.33c0-0.11,0.35-0.44,1.07-0.98c0.71-0.54,1.12-0.87,1.22-0.98c0-0.11-0.05-0.22-0.16-0.33
	c0-0.11,0.05-0.16,0.16-0.16c1.31-1.64,2.89-3.27,4.75-4.91C560.69,44.15,562.33,42.46,563.75,40.71 M562.44,45.13
	c0-0.11,0.05-0.19,0.16-0.25c0.11-0.05,0.16-0.14,0.16-0.24s-0.06-0.22-0.16-0.33c-1.75,2.08-3.58,4.15-5.48,6.22
	c-1.91,2.08-3.74,3.83-5.49,5.24c-1.42,1.09-2.67,2.13-3.77,3.11c-0.87,0.87-1.69,1.69-2.46,2.45c-0.77,0.77-1.15,1.26-1.15,1.47
	l0.16,0.16c0.87-0.66,1.69-1.36,2.46-2.13c0.76-0.76,1.53-1.42,2.29-1.96c1.09-1.09,1.72-1.72,1.88-1.89
	c0.16-0.16,0.35-0.33,0.57-0.49s0.74-0.66,1.56-1.47c0.82-0.82,2.43-2.43,4.83-4.83l-0.16-0.33c0-0.33,0.24-0.68,0.73-1.06
	s1.01-0.79,1.56-1.23c0.54-0.43,1.06-0.87,1.55-1.31C562.2,45.84,562.44,45.46,562.44,45.13 M543.45,40.71
	c1.75-1.74,3.41-3.24,4.99-4.5c1.58-1.25,3.14-2.64,4.67-4.17c-0.88,0-1.69,0.25-2.46,0.74s-1.91,1.34-3.44,2.54
	c-0.66,0.66-1.09,0.98-1.31,0.98c-0.11,0-0.16-0.03-0.16-0.09c0-0.05-0.05-0.08-0.16-0.08s-0.25,0.08-0.41,0.25
	c-0.16,0.16-0.44,0.52-0.82,1.06c-0.39,0.55-0.93,1.34-1.64,2.37c-0.71,1.04-1.61,2.43-2.7,4.18c-0.22,0-0.33,0.06-0.33,0.16
	l0.16,0.16c-0.44,0.44-0.71,0.77-0.82,0.98c-0.11,0.22-0.22,0.38-0.33,0.49c0,0.11,0.05,0.22,0.16,0.33c-0.11,0-0.16-0.05-0.16-0.16
	l-0.16,0.16c0,0.11,0.05,0.22,0.16,0.33h-0.33c0,0.55-0.06,0.73-0.16,0.57c-0.11-0.16-0.16-0.14-0.16,0.08l0.16,0.33
	c-0.11,0-0.16-0.06-0.16-0.17c-0.22,0-0.3,0.11-0.25,0.33s-0.03,0.38-0.25,0.49l0.16,0.33c-0.22,0-0.33,0.16-0.33,0.49
	c0,0.55-0.47,1.28-1.39,2.21c-0.93,0.93-1.39,2.81-1.39,5.65c0.55-0.76,0.98-1.42,1.31-1.97c0.33-0.54,0.63-1.2,0.9-1.97
	c0.28-0.76,0.41-1.47,0.41-2.13v0.16c-0.11,0-0.16-0.05-0.16-0.16c0-0.33,0.33-1.01,0.98-2.05c0.65-1.03,1.39-2.07,2.21-3.11
	c0.82-1.03,1.56-1.99,2.21-2.87c0.65-0.87,0.98-1.41,0.98-1.64v-0.3L543.45,40.71L543.45,40.71z M597.98,41.2l-0.16,0.16l0.16,0.16
	c-0.87,0.44-1.45,0.82-1.72,1.14c-0.28,0.33-0.47,0.69-0.57,1.07c-0.11,0.38-0.22,0.79-0.33,1.23s-0.44,0.93-0.98,1.47
	c-0.33,0.87-0.55,1.45-0.66,1.72c-0.11,0.28-0.25,0.49-0.41,0.66c-0.16,0.16-0.41,0.47-0.73,0.9c-0.33,0.44-0.82,1.31-1.47,2.62
	c-0.55,0.33-1.04,0.71-1.47,1.15c-0.33,0.44-0.63,0.93-0.9,1.47c-0.28,0.55-0.41,1.15-0.41,1.8c0,0.87-0.06,1.31-0.16,1.31
	c-0.11,0-0.3,0.06-0.57,0.16c-0.27,0.11-0.63,0.44-1.06,0.98c-0.44,0.55-0.98,1.75-1.64,3.6c-0.88,0.88-1.42,1.5-1.64,1.88
	s-0.33,0.68-0.33,0.9s0.03,0.41,0.08,0.57c0.05,0.16,0.08,0.35,0.08,0.57v-0.16c-0.11,0-0.38,0.41-0.82,1.23s-0.9,1.72-1.39,2.7
	c-0.49,0.98-1.01,1.88-1.56,2.7s-0.98,1.23-1.31,1.23c0,0.33-0.3,0.98-0.9,1.97c-0.6,0.98-1.34,1.97-2.21,2.95
	c-0.88,0.98-1.83,1.88-2.86,2.7c-1.04,0.82-1.94,1.23-2.7,1.23c-0.77,0-1.64-0.49-2.62-1.47s-2.02-2.02-3.11-3.11
	c-0.88-0.66-1.59-1.31-2.13-1.97c-0.55-0.55-1.01-1.09-1.39-1.64c-0.38-0.54-0.57-0.93-0.57-1.15c0-0.11,0.05-0.22,0.16-0.33
	c0.11,0,0.16,0.05,0.16,0.16c-0.33,0-0.6-0.16-0.82-0.49c-0.55-0.33-0.82-1.2-0.82-2.62l-0.16,0.16c-0.11-0.33-0.22-0.71-0.33-1.15
	c-0.11-0.33-0.19-0.71-0.25-1.15c-0.05-0.43-0.14-0.92-0.24-1.47c0-1.75,0.03-3.3,0.08-4.67c0.05-1.36,0.3-2.76,0.73-4.18
	c-0.11,0-0.73,0.47-1.88,1.39c-1.15,0.93-2.48,2.49-4.01,4.67h-0.16l0.16,0.16c0,0.22-0.46,0.76-1.39,1.64s-1.56,1.47-1.88,1.8
	c0,0.43-0.06,0.65-0.16,0.65l-0.33-0.16v0.49v-0.16c-0.11,0-0.27,0.22-0.49,0.66s-0.57,0.93-1.06,1.47
	c-0.49,0.55-1.12,1.04-1.88,1.47c-0.77,0.44-1.7,0.66-2.78,0.66c-1.53,0-2.78-0.57-3.77-1.72c-0.98-1.15-2.4-2.81-4.26-4.99
	c0,0.11-0.22-0.08-0.66-0.57s-0.6-0.74-0.49-0.74c0-0.33-0.11-0.43-0.33-0.33c-0.22,0.11-0.49,0.03-0.82-0.24s-0.6-0.87-0.82-1.8
	s-0.33-2.54-0.33-4.83c0-0.98,0.19-1.83,0.57-2.54s0.57-1.5,0.57-2.37l-0.16-0.16c0-0.66,0.39-1.42,1.15-2.29s1.15-1.85,1.15-2.95
	c0-0.11,0.03-0.3,0.08-0.58c0.06-0.27,0.19-0.41,0.41-0.41l-0.16-0.33l0.16-0.16l0.16,0.16c0.22,0,0.6-0.63,1.15-1.88
	s0.98-2.05,1.31-2.37c0-0.11-0.03-0.16-0.08-0.16s-0.08-0.05-0.08-0.16c0.11-0.33,0.33-0.71,0.66-1.15c0.22-0.43,0.57-0.9,1.07-1.39
	c0.49-0.49,1.17-1.17,2.04-2.04c0.66-0.66,1.42-1.34,2.29-2.05s1.69-1.36,2.46-1.97c0.76-0.6,1.42-1.12,1.97-1.56
	c0.54-0.43,0.82-0.71,0.82-0.82l0.33,0.16c0.22,0,0.27-0.05,0.16-0.16c-0.11-0.11,0.05-0.16,0.49-0.16l-0.16-0.16h0.49v-0.33
	c0.1,0,0.22,0.06,0.33,0.16l0.33-0.33l0.33-0.33c0.11,0,0.22,0.06,0.33,0.16c0.11,0,0.9-0.19,2.37-0.57s2.81-0.57,4.01-0.57
	c1.53,0,2.73,0.11,3.6,0.33s1.74,0.43,2.62,0.65v-0.16c0.11,0,0.49,0.24,1.15,0.74c0.66,0.49,1.36,0.73,2.13,0.73
	c0.11,0,0.22-0.05,0.33-0.16c0,0.44,0.22,0.65,0.66,0.65c0.11,0,0.22-0.05,0.33-0.16c0.22,0.22,0.52,0.41,0.9,0.57
	s0.68,0.35,0.9,0.57c0.54,0,1.06-0.46,1.55-1.39s1.12-1.39,1.89-1.39c0.11,0,0.49,0.11,1.15,0.33s1.39,0.49,2.21,0.82
	s1.61,0.71,2.37,1.15c0.76,0.44,1.25,0.82,1.47,1.15c0.54,0.33,1.2,0.66,1.96,0.98c0.76,0.33,1.15,0.93,1.15,1.8
	c0,0.33-0.19,0.79-0.58,1.39c-0.38,0.6-0.76,1.2-1.15,1.8c-0.38,0.6-0.76,1.17-1.15,1.72c-0.38,0.55-0.57,0.98-0.57,1.31
	c-0.55,0.88-1.04,1.66-1.47,2.37c-0.44,0.71-0.82,1.45-1.15,2.21c-0.33,0.77-0.49,1.36-0.49,1.8c0,0.11,0.05,0.22,0.16,0.33
	c-0.44,0-0.93,1.04-1.47,3.11v-0.16c0,0.22-0.22,0.9-0.66,2.05c-0.44,1.15-0.93,2.43-1.47,3.85c-0.66,1.64-1.37,3.44-2.13,5.41v0.49
	v-0.17l-0.16,1.64c-0.11,0-0.16-0.05-0.16-0.16c-0.33,0.98-0.55,1.97-0.66,2.95s-0.33,1.91-0.66,2.78c0,0.11,0.05,0.16,0.16,0.16
	c0-0.11,0.16-0.3,0.49-0.57s0.54-0.46,0.66-0.57c0-0.11-0.06-0.22-0.16-0.33c0-0.11,0.11-0.22,0.33-0.33
	c0.22-0.11,0.38-0.22,0.49-0.33l-0.16-0.33c0-0.11,0.22-0.3,0.66-0.57s0.6-0.41,0.49-0.41c0-0.11-0.05-0.16-0.16-0.16
	s-0.16-0.05-0.16-0.16c0-0.22,0.16-0.54,0.49-0.98s1.04-1.2,2.13-2.29l-0.16-0.33l0.16-0.16h-0.16c0-0.22,0.43-0.6,1.31-1.15
	c0.87-0.54,1.31-1.31,1.31-2.29c0-0.43,0.08-0.65,0.25-0.65c0.16,0,0.35-0.11,0.57-0.33l-0.16-0.16c0-0.43,0.03-0.79,0.08-1.06
	s0.22-0.57,0.49-0.9s0.68-0.73,1.23-1.23c0.54-0.49,1.31-1.23,2.29-2.21l-0.16-0.33l0.16-0.16l0.16,0.16
	c0.33-0.76,0.66-1.31,0.98-1.64c0.33-0.33,0.87-0.84,1.64-1.56c0.76-0.71,1.78-1.77,3.03-3.19c1.26-1.42,2.87-3.54,4.83-6.39
	c0.22,0,0.52-0.38,0.9-1.15c0.38-0.76,1.34-1.15,2.87-1.15c0.22,0,0.54,0.16,0.98,0.49s0.66,0.6,0.66,0.82s-0.06,0.52-0.16,0.9
	C598.03,40.2,597.98,40.66,597.98,41.2"/>
<path class="st0" d="M613.86,35.64c0.11,0.33,0.19,0.57,0.25,0.73c0.05,0.16,0.08,0.36,0.08,0.58v0.33c0.11,0,0.22-0.68,0.33-2.05
	c0.11-1.36,0.66-3.19,1.64-5.48c-1.2,0.87-1.91,1.86-2.13,2.95c-0.22,1.09-0.33,1.91-0.33,2.46v0.49L613.86,35.64L613.86,35.64z
	 M603.38,78.86c0-0.22-0.06-0.38-0.16-0.49l-2.46,1.64c0.11,0.11,0.19,0.16,0.25,0.16c0.05,0,0.14,0.06,0.25,0.16
	c0.54,0,1.03-0.11,1.47-0.33C603.16,79.8,603.38,79.41,603.38,78.86 M605.51,25.48c1.31-0.98,2.37-1.74,3.19-2.29
	c0.82-0.54,1.45-0.98,1.88-1.31c0.44-0.44,0.82-0.71,1.15-0.82c-0.11,0-0.16,0.06-0.16,0.16c-0.11,0-0.16-0.05-0.16-0.16
	c-0.22,0.22-0.52,0.38-0.9,0.49s-1.34,0.6-2.86,1.47c-0.22,0.22-0.3,0.36-0.25,0.41c0.05,0.06-0.03,0.08-0.25,0.08
	c-0.65,0-1.47,0.41-2.46,1.23c-0.98,0.82-1.97,1.72-2.95,2.7s-2.24,2.29-3.77,3.93l-0.16,0.16c0,0.11,0.03,0.19,0.08,0.24
	c0.05,0.06,0.08,0.14,0.08,0.25c-0.22,0.22-0.52,0.47-0.9,0.74c-0.38,0.28-0.57,0.52-0.57,0.74c0,0.11,0.03,0.16,0.08,0.16
	s0.08,0.06,0.08,0.16s-0.06,0.22-0.16,0.33v0.16C599.23,30.83,602.23,27.88,605.51,25.48 M584.71,72.15
	c0.33-0.22,0.68-0.51,1.07-0.9c0.38-0.38,0.79-0.74,1.23-1.06l1.31-1.31c-0.22,0-0.6,0.19-1.15,0.57s-1.12,0.79-1.72,1.23
	s-1.12,0.85-1.55,1.23c-0.44,0.38-0.66,0.63-0.66,0.74l0.16,0.33c-0.87,0.66-1.31,1.2-1.31,1.64c0,0.22,0.05,0.33,0.16,0.33
	c0.33-0.54,0.74-1.03,1.23-1.47C583.97,73.03,584.38,72.59,584.71,72.15 M627.29,22.04c0.22,0.44,0.33,0.71,0.33,0.82
	c0,0.54-0.06,1.12-0.16,1.72c-0.11,0.6-0.28,1.17-0.49,1.72c-0.66,0.66-1.5,1.72-2.54,3.19s-2.04,3.09-3.03,4.83
	c-0.98,1.75-1.86,3.58-2.62,5.48c-0.77,1.91-1.15,3.63-1.15,5.16c0,0.55,0.05,0.82,0.16,0.82c-0.33,0-1.09-0.19-2.29-0.57
	c-1.2-0.38-1.91-1.07-2.13-2.05c-0.44,0-0.77-0.47-0.98-1.39c-0.22-0.93-0.38-1.91-0.49-2.95s-0.19-2.02-0.25-2.95
	s-0.08-1.45-0.08-1.55c0.11-0.22,0.16-0.47,0.16-0.74s0.05-0.52,0.16-0.74c-0.11,0-0.49,0.38-1.15,1.15s-1.39,1.61-2.21,2.54
	s-1.61,1.75-2.37,2.46c-0.77,0.71-1.31,1.07-1.64,1.07c-0.44,0-0.84,0.35-1.23,1.06c-0.38,0.71-0.73,1.53-1.06,2.46
	s-0.57,1.8-0.74,2.62c-0.16,0.82-0.24,1.34-0.24,1.56c0,0.98,0.13,1.78,0.41,2.37c0.27,0.6,0.6,1.17,0.98,1.72s0.79,1.15,1.23,1.8
	c0.43,0.66,0.82,1.53,1.15,2.62c0.22,0.22,0.35,0.47,0.41,0.73c0.05,0.28,0.19,0.52,0.41,0.74c0.33,1.53,0.84,3.09,1.55,4.67
	c0.71,1.58,1.39,3.25,2.05,4.99s1.23,3.6,1.72,5.57s0.74,3.99,0.74,6.06c0,1.53-0.16,3-0.49,4.42s-0.96,2.68-1.88,3.77
	c-0.93,1.09-2.16,1.97-3.68,2.62c-1.53,0.66-3.44,0.98-5.73,0.98c-0.76,0-1.5-0.05-2.21-0.16s-1.5-0.16-2.37-0.16
	c-0.22,0-0.41,0.03-0.57,0.08c-0.16,0.06-0.36,0.08-0.58,0.08c-1.86-0.22-3.41-0.6-4.66-1.15s-2.29-1.12-3.11-1.72
	s-1.56-1.39-2.21-2.37c-0.22-0.22-0.68-0.74-1.39-1.56s-1.06-1.34-1.06-1.55l0.16-0.16l0.16-0.16c-0.98-1.09-1.61-1.83-1.88-2.21
	s-0.41-0.68-0.41-0.9c0-0.11,0.06-0.19,0.16-0.25c0.11-0.05,0.16-0.13,0.16-0.24s-0.08-0.35-0.24-0.74
	c-0.16-0.38-0.35-0.82-0.58-1.31c-0.22-0.49-0.41-0.96-0.57-1.39c-0.16-0.43-0.25-0.71-0.25-0.82c0.11-0.55,0.55-1.17,1.31-1.88
	s1.58-1.39,2.46-2.05s2.08-1.42,3.6-2.29c0.55-0.43,1.34-0.92,2.38-1.47c1.04-0.54,1.94-0.98,2.7-1.31
	c-0.77,1.86-1.39,3.79-1.89,5.81c-0.49,2.02-0.73,4.01-0.73,5.97c0,0.88,0.22,1.31,0.65,1.31c0.22,0,0.39-0.05,0.49-0.16
	c1.2,0.22,2.26,0.33,3.19,0.33h2.37c1.09,0,1.85-0.05,2.29-0.16c0.43-0.11,0.71-0.22,0.82-0.33c0.11-0.1,0.19-0.22,0.25-0.33
	c0.05-0.11,0.19-0.16,0.41-0.16l-0.16-0.16v0.16c0.33,0,1.04-0.52,2.13-1.56s1.69-1.99,1.8-2.87l-0.16-0.16
	c-0.11,0-0.16-0.05-0.16-0.16h0.33c0-1.64-0.16-3.06-0.49-4.26s-0.68-2.26-1.06-3.19c-0.39-0.93-0.74-1.8-1.07-2.62
	s-0.49-1.78-0.49-2.87c-0.44-0.76-0.74-1.39-0.9-1.88s-0.36-0.84-0.58-1.06c-0.22-0.33-0.38-0.49-0.49-0.49l0.16,0.16v-0.16
	l0.16-0.33c0-0.33-0.25-0.74-0.74-1.23c-0.49-0.49-0.74-0.96-0.74-1.39c0-0.11,0.05-0.22,0.16-0.33h-0.33v-0.16l0.16-0.33
	c-0.88-1.64-1.58-3-2.13-4.09s-1.04-2.16-1.47-3.19c-0.44-1.04-0.71-1.66-0.82-1.88h0.16c-0.11-0.11-0.3-0.68-0.58-1.72
	c-0.27-1.03-0.41-2.15-0.41-3.36c0-1.85,0.28-3.19,0.82-4.01s0.93-1.28,1.15-1.39c0-0.11-0.11-0.16-0.33-0.16
	c0.76-1.97,1.58-3.44,2.46-4.42c0.87-0.98,1.69-1.74,2.46-2.29c0.76-0.55,1.39-0.9,1.88-1.07s0.74-0.41,0.74-0.74l0.16,0.16
	c0,0.11,0.05,0.16,0.16,0.16s0.16-0.27,0.16-0.82c0.11,0,0.16,0.03,0.16,0.08c0,0.06,0.05,0.08,0.16,0.08
	c1.2-0.76,2.18-1.39,2.95-1.88c0.76-0.49,1.75-1.23,2.95-2.21l0.33,0.33c0.11,0,0.19-0.08,0.24-0.25s0.14-0.3,0.25-0.41
	c1.42-0.87,2.65-1.47,3.68-1.8c1.04-0.33,2.16-0.49,3.36-0.49c0.66,0,1.66,0.06,3.03,0.16c1.36,0.11,2.73,0.33,4.09,0.66
	c1.36,0.33,2.56,0.82,3.6,1.47C626.77,20.08,627.29,20.95,627.29,22.04"/>
<rect x="582.03" y="161.13" class="st0" width="12.59" height="12.43"/>
<polygon class="st0" points="55.64,17.22 40.73,41.86 26.09,17.22 10.3,17.22 33.9,54.4 33.9,78.61 47.4,78.61 47.4,54.14 
	70.99,17.22 "/>
<path class="st0" d="M131.33,47.91c0-10.53-7.72-19.29-18.59-19.29s-18.42,8.6-18.42,19.11v0.18c0,10.52,7.72,19.29,18.6,19.29
	c10.87,0,18.41-8.6,18.41-19.12V47.91L131.33,47.91z M112.73,79.66c-18.94,0-32.54-14.12-32.54-31.57v-0.17
	c0-17.45,13.77-31.75,32.71-31.75s32.53,14.12,32.53,31.57v0.18C145.44,65.37,131.68,79.66,112.73,79.66"/>
<path class="st0" d="M223.15,79.48c-9.29,0-18.68-3.24-26.04-9.82l7.98-9.56c5.52,4.56,11.31,7.46,18.33,7.46
	c5.53,0,8.86-2.19,8.86-5.79V61.6c0-3.42-2.1-5.17-12.36-7.8c-12.37-3.16-20.35-6.58-20.35-18.77v-0.17
	c0-11.14,8.94-18.5,21.48-18.5c8.94,0,16.58,2.8,22.8,7.8l-7.02,10.17c-5.44-3.77-10.79-6.05-15.96-6.05
	c-5.17,0-7.89,2.37-7.89,5.35v0.17c0,4.03,2.63,5.35,13.24,8.07c12.45,3.24,19.47,7.72,19.47,18.41v0.17
	C245.69,72.64,236.39,79.48,223.15,79.48"/>
<path class="st0" d="M314.62,47.91c0-10.53-7.72-19.29-18.59-19.29c-10.88,0-18.41,8.6-18.41,19.11v0.18
	c0,10.52,7.72,19.29,18.59,19.29c10.88,0,18.42-8.6,18.42-19.12v-0.17C314.63,47.91,314.62,47.91,314.62,47.91z M296.03,79.66
	c-18.94,0-32.54-14.12-32.54-31.57v-0.17c0-17.45,13.77-31.75,32.71-31.75s32.54,14.12,32.54,31.57v0.18
	C328.74,65.37,314.97,79.66,296.03,79.66"/>
<polygon class="st0" points="375.05,54.14 375.05,78.61 361.54,78.61 361.54,54.4 337.95,17.22 353.73,17.22 368.38,41.86 
	383.29,17.22 398.64,17.22 "/>
<path class="st0" d="M65.03,145.9c0-10.53-7.72-19.29-18.59-19.29s-18.41,8.6-18.41,19.12v0.17c0,10.52,7.72,19.29,18.59,19.29
	c2.98,0,5.7-0.61,8.07-1.67l-10-8.51l8.6-9.65l10.08,9.12c1.14-2.54,1.67-5.35,1.67-8.42v-0.16L65.03,145.9L65.03,145.9z
	 M71.43,178.43l-6.75-6.05c-5.17,3.33-11.4,5.26-18.24,5.26c-18.94,0-32.54-14.12-32.54-31.57v-0.17
	c0-17.45,13.77-31.75,32.71-31.75s32.53,14.12,32.53,31.57v0.17c0,6.4-1.93,12.54-5.43,17.63l6.31,5.35L71.43,178.43z"/>
<path class="st0" d="M125.54,177.55c-16.49,0-26.57-9.21-26.57-27.27V115.2h13.5v34.73c0,10,5,15.17,13.24,15.17
	s13.24-5,13.24-14.73V115.2h13.51v34.64C152.46,168.43,142.03,177.55,125.54,177.55"/>
<polygon class="st0" points="175,176.59 175,115.2 221.31,115.2 221.31,127.21 188.42,127.21 188.42,139.67 217.36,139.67 
	217.36,151.68 188.42,151.68 188.42,164.58 221.74,164.58 221.74,176.59 "/>
<rect x="240.96" y="173.57" class="st0" width="326.69" height="3.03"/>
<g>
	<path class="st1" d="M320.36,140.36c0,0.2-0.07,0.37-0.2,0.5c-0.2,0-0.57,0.42-1.1,1.25s-1.12,1.8-1.75,2.9
		c-0.63,1.1-1.28,2.22-1.95,3.35s-1.23,2-1.7,2.6c-0.73,0.73-1.25,1.5-1.55,2.3s-0.88,1.63-1.75,2.5c0-0.07-0.27,0.18-0.8,0.75
		s-0.8,1.08-0.8,1.55c0-0.07-0.03-0.1-0.1-0.1s-0.22,0.13-0.45,0.4c-0.23,0.27-0.47,0.6-0.7,1s-0.48,0.78-0.75,1.15
		s-0.47,0.65-0.6,0.85c-0.53,0.73-0.88,1.18-1.05,1.35c-0.17,0.17-0.32,0.3-0.45,0.4c-0.13,0.1-0.32,0.27-0.55,0.5
		c-0.23,0.23-0.68,0.75-1.35,1.55l-0.3,0.3c-0.07,0.13-0.13,0.23-0.2,0.3c-0.27,0.33-0.58,0.6-0.95,0.8c-0.37,0.2-0.65,0.3-0.85,0.3
		c-0.93,0-1.78-0.42-2.55-1.25s-1.38-1.48-1.85-1.95c-0.13-0.07-0.45-0.2-0.95-0.4s-0.75-0.77-0.75-1.7c0-0.07,0.03-0.1,0.1-0.1
		s0.1-0.03,0.1-0.1c-0.33-0.26-0.53-0.73-0.6-1.4s-0.1-1.26-0.1-1.8c0-0.73,0.08-1.51,0.25-2.35c0.17-0.83,0.25-1.65,0.25-2.45
		l-0.1-0.1c0-0.07,0.05-0.18,0.15-0.35c0.1-0.17,0.18-0.25,0.25-0.25c0-0.07-0.02-0.12-0.05-0.15s-0.05-0.08-0.05-0.15
		c0-0.13,0.12-0.58,0.35-1.35s0.42-1.38,0.55-1.85c-0.07-0.07-0.13-0.1-0.2-0.1c0.07,0-0.12,0.27-0.55,0.8s-0.68,0.87-0.75,1
		c-0.07,0.07-0.15,0.1-0.25,0.1s-0.15,0.03-0.15,0.1s0.02,0.1,0.05,0.1s0.05,0.03,0.05,0.1c-0.13,0.13-0.23,0.2-0.3,0.2
		c-0.07,0-0.1,0.07-0.1,0.2l0.1,0.2c-0.47,0.47-0.95,1-1.45,1.6s-1.02,1.17-1.55,1.7c0,0.07,0.02,0.1,0.05,0.1s0.05,0.04,0.05,0.1
		c-0.13,0.2-0.28,0.37-0.45,0.5s-0.32,0.27-0.45,0.4c-0.27,0.33-0.67,0.85-1.2,1.55s-1.12,1.4-1.75,2.1c-0.63,0.7-1.3,1.32-2,1.85
		s-1.32,0.8-1.85,0.8c-0.13,0-0.33,0-0.6,0c-0.27,0-0.57-0.17-0.9-0.5c-0.07,0-0.17,0-0.3,0c-0.13,0-0.35-0.1-0.65-0.3
		s-0.68-0.53-1.15-1c-0.47-0.46-1.03-1.16-1.7-2.1c0-0.2-0.03-0.28-0.1-0.25s-0.1-0.02-0.1-0.15c0-0.07,0.03-0.13,0.1-0.2
		c-0.13,0-0.2-0.03-0.2-0.1c0.07,0.07,0.1,0.13,0.1,0.2c0-0.07-0.12-0.45-0.35-1.15s-0.35-1.25-0.35-1.65c0-0.07,0.03-0.1,0.1-0.1
		l0.1-0.1h-0.1c-0.07,0-0.1-0.03-0.1-0.1s0.03-0.1,0.1-0.1l0.1-0.1h-0.1c-0.07,0-0.1-0.03-0.1-0.1c0-0.33,0.07-0.5,0.2-0.5
		c0-0.07-0.03-0.1-0.1-0.1h-0.1c0-0.13,0.03-0.2,0.1-0.2h0.1c0-0.13-0.03-0.18-0.1-0.15s-0.1,0.02-0.1-0.05
		c0.07-0.07,0.1-0.17,0.1-0.3c0-0.2,0.03-0.37,0.1-0.5c0-0.07-0.02-0.13-0.05-0.2c-0.03-0.07-0.05-0.17-0.05-0.3l0.2-1
		c0.07-0.27,0.13-0.53,0.2-0.8s0.1-0.47,0.1-0.6h-0.1c0-0.33,0-0.55,0-0.65c0-0.1,0.02-0.23,0.05-0.4s0.12-0.4,0.25-0.7
		s0.3-0.82,0.5-1.55c0.13-0.07,0.3-0.23,0.5-0.5c0.13-0.2,0.27-0.48,0.4-0.85c0.13-0.37,0.2-0.85,0.2-1.45
		c0.4-0.8,0.6-1.25,0.6-1.35s0.03-0.25,0.1-0.45s0.27-0.7,0.6-1.5c0.33-0.8,1.06-2.3,2.2-4.5c0,0.13,0.03,0.2,0.1,0.2
		s0.28-0.33,0.65-1s0.8-1.41,1.3-2.25c0.5-0.83,1.03-1.58,1.6-2.25s1.12-1,1.65-1h0.7c0.73,0.13,1.35,0.27,1.85,0.4
		c0.5,0.13,0.95,0.32,1.35,0.55s0.6,0.55,0.6,0.95c0,0.27,0.17,0.47,0.5,0.6c0,0.07-0.02,0.13-0.05,0.2
		c-0.03,0.07-0.05,0.13-0.05,0.2l0.1,0.1l0.1-0.1c0.13,0.13,0.2,0.27,0.2,0.4c0,0.27-0.13,0.53-0.4,0.8s-0.55,0.55-0.85,0.85
		s-0.57,0.63-0.8,1c-0.23,0.37-0.35,0.75-0.35,1.15c0,0.07,0.03,0.13,0.1,0.2c-0.2,0-0.3,0.03-0.3,0.1v0.1c0,0.07,0.02,0.1,0.05,0.1
		s0.05,0.03,0.05,0.1c0,0.27-0.3,0.67-0.9,1.2c0,0.13,0.02,0.22,0.05,0.25c0.03,0.04,0.05,0.08,0.05,0.15c-0.2,0-0.48,0.4-0.85,1.2
		s-0.75,1.72-1.15,2.75s-0.78,2.03-1.15,3s-0.65,1.62-0.85,1.95c0,0.2-0.1,0.52-0.3,0.95c-0.2,0.43-0.42,0.93-0.65,1.5
		c-0.23,0.57-0.45,1.18-0.65,1.85c-0.2,0.67-0.3,1.3-0.3,1.9c1.06-0.93,1.88-1.75,2.45-2.45c0.56-0.7,1.2-1.51,1.9-2.45
		c0.7-0.93,1.63-2.1,2.8-3.5c1.16-1.4,2.91-3.26,5.25-5.6l-0.2,0.2c0-0.07,0.15-0.33,0.45-0.8c0.3-0.46,0.75-1.03,1.35-1.7
		c0.47-0.4,0.93-0.87,1.4-1.4c0.4-0.46,0.81-0.96,1.25-1.5c0.43-0.53,0.81-1.13,1.15-1.8v0.1c0.07,0,0.22-0.33,0.45-1s0.52-1,0.85-1
		c1.53,0,2.85,0.2,3.95,0.6c1.1,0.4,1.65,1.27,1.65,2.6c0,0.6-0.18,1.23-0.55,1.9s-0.55,1.27-0.55,1.8l0.1,0.2
		c-0.2,0-0.33,0.07-0.4,0.2c-0.07,0.13-0.15,0.37-0.25,0.7s-0.25,0.83-0.45,1.5s-0.57,1.5-1.1,2.5c0,0.13,0.02,0.22,0.05,0.25
		c0.03,0.04,0.05,0.08,0.05,0.15c0,0.13-0.22,0.5-0.65,1.1s-0.65,1.17-0.65,1.7l0.1,0.2c0,0.07-0.25,0.47-0.75,1.2
		s-0.75,1.7-0.75,2.9c-0.13,0-0.32,0.35-0.55,1.05c-0.23,0.7-0.48,1.53-0.75,2.5s-0.52,1.98-0.75,3.05s-0.38,1.97-0.45,2.7
		c0,0.07,0.03,0.1,0.1,0.1c0.13,0,0.38-0.2,0.75-0.6c0.37-0.4,0.77-0.85,1.2-1.35c0.43-0.5,0.83-1,1.2-1.5
		c0.37-0.5,0.65-0.85,0.85-1.05v0.1c0.4-0.46,0.98-1.23,1.75-2.3c0.77-1.06,1.63-2.3,2.6-3.7c0.96-1.4,2-2.88,3.1-4.45
		c1.1-1.56,2.15-3.05,3.15-4.45c0.33-0.4,0.67-0.77,1-1.1c0.33-0.27,0.63-0.51,0.9-0.75c0.27-0.23,0.53-0.35,0.8-0.35
		c0.4,0,0.93,0.18,1.6,0.55C319.93,139.67,320.3,140.02,320.36,140.36z M283.09,140.06c0-0.07,0.03-0.12,0.1-0.15s0.1-0.08,0.1-0.15
		c0.2-0.67,0.38-1.18,0.55-1.55c0.17-0.37,0.35-0.72,0.55-1.05c0.2-0.33,0.43-0.5,0.7-0.5c0-0.07-0.03-0.13-0.1-0.2v0.1
		c0.07,0,0.18-0.27,0.35-0.8s0.48-0.8,0.95-0.8c0-0.07-0.03-0.13-0.1-0.2c0-0.13,0.03-0.2,0.1-0.2s0.17-0.07,0.3-0.2
		c0-0.07-0.02-0.1-0.05-0.1s-0.05-0.03-0.05-0.1c0-0.13,0.03-0.18,0.1-0.15s0.17-0.02,0.3-0.15l-0.1-0.2c0,0.07,0.2-0.07,0.6-0.4
		c0.4-0.33,0.6-0.76,0.6-1.3c0-0.33-0.07-0.5-0.2-0.5c0,0.13-0.17,0.35-0.5,0.65c-0.33,0.3-0.5,0.52-0.5,0.65
		c0,0.13,0.07,0.2,0.2,0.2c0,0.07-0.22,0.2-0.65,0.4s-0.65,0.57-0.65,1.1c-0.67,1.27-1.3,2.47-1.9,3.6
		c-0.53,0.93-1.02,1.85-1.45,2.75c-0.43,0.9-0.72,1.52-0.85,1.85v-0.1c-0.47,0.73-0.87,1.5-1.2,2.3c-0.33,0.73-0.6,1.53-0.8,2.4
		c-0.2,0.87-0.3,1.8-0.3,2.8c0.07-0.07,0.1-0.23,0.1-0.5c0.53-1.73,1.12-3.38,1.75-4.95C281.67,143.04,282.36,141.52,283.09,140.06z
		 M299.08,139.16c0.07-0.07,0.13-0.2,0.2-0.4s0.1-0.33,0.1-0.4c0-0.07-0.03-0.1-0.1-0.1c-0.6,0.8-1.3,1.67-2.1,2.6
		c-0.8,0.93-1.55,1.78-2.25,2.55s-1.3,1.43-1.8,2s-0.78,0.92-0.85,1.05c-1.07,1.33-1.98,2.46-2.75,3.4
		c-0.77,0.93-1.62,1.87-2.55,2.8c0.13,0,0.2,0.03,0.2,0.1c-0.73,0.6-1.35,1.12-1.85,1.55c-0.5,0.43-0.95,0.88-1.35,1.35
		s-0.6,0.9-0.6,1.3c0.33,0,0.77-0.28,1.3-0.85s1.18-1.35,1.95-2.35c0.77-1,1.7-2.15,2.8-3.45c1.1-1.3,2.35-2.65,3.75-4.05
		c-0.07,0.07-0.1,0.13-0.1,0.2c0.6-0.67,1.26-1.4,2-2.2C296.41,142.85,297.75,141.15,299.08,139.16z M298.88,145.45
		c0.07-0.13,0.13-0.27,0.2-0.4c0.07-0.13,0.1-0.27,0.1-0.4c0-0.13-0.03-0.2-0.1-0.2c-0.13,0.2-0.37,0.65-0.7,1.35
		c-0.33,0.7-0.67,1.48-1,2.35c-0.33,0.87-0.62,1.77-0.85,2.7s-0.35,1.73-0.35,2.4c0,0.07,0.03,0.13,0.1,0.2
		c0.13,0,0.42-0.82,0.85-2.45C297.56,149.37,298.15,147.52,298.88,145.45z M316.47,141.35c-2.07,2.6-3.9,4.91-5.5,6.95
		c-1.6,2.03-3.35,4.3-5.25,6.79s-3.75,4.95-5.55,7.34c0.86-0.33,2-1.5,3.4-3.5c0.33-0.33,0.6-0.67,0.8-1
		c0.2-0.33,0.43-0.68,0.7-1.05c0.27-0.37,0.6-0.82,1-1.35s1-1.16,1.8-1.9c0-0.2,0.3-0.5,0.9-0.9s0.9-0.86,0.9-1.4
		c0-0.2,0.32-0.78,0.95-1.75c0.63-0.96,1.35-2.03,2.15-3.2s1.56-2.25,2.3-3.25C315.8,142.15,316.27,141.55,316.47,141.35z"/>
	<path class="st1" d="M355.54,138.36c0.07,0.13,0.13,0.22,0.2,0.25s0.13,0.12,0.2,0.25s0.1,0.23,0.1,0.3c0,0.2-0.42,0.82-1.25,1.85
		s-1.75,2.18-2.75,3.45s-1.92,2.48-2.75,3.65s-1.25,1.98-1.25,2.45c0,0.07,0.03,0.13,0.1,0.2c-0.2,0.13-0.5,0.4-0.9,0.8
		c-0.4,0.4-0.6,0.83-0.6,1.3c0,0.07-0.13,0.37-0.4,0.9s-1.03,1.43-2.3,2.7c0-0.13-0.03-0.2-0.1-0.2c-0.33,0.53-0.6,0.98-0.8,1.35
		c-0.2,0.37-0.42,0.72-0.65,1.05c-0.23,0.33-0.42,0.57-0.55,0.7c0,0.13,0.02,0.2,0.05,0.2s0.05,0.07,0.05,0.2
		c0,0.13-0.12,0.38-0.35,0.75s-0.82,1.02-1.75,1.95c-0.53,1.13-0.87,1.7-1,1.7s-0.2,0.07-0.2,0.2c-0.33,0.73-0.67,1.33-1,1.8
		s-0.78,0.88-1.35,1.25s-1.28,0.55-2.15,0.55c-0.4,0-0.82-0.1-1.25-0.3s-0.82-0.43-1.15-0.7c-0.13,0-0.43-0.17-0.9-0.5
		s-0.98-0.75-1.55-1.25c-0.57-0.5-1.07-1.08-1.5-1.75s-0.65-1.33-0.65-2c0.13,0,0.2-0.07,0.2-0.2l-0.2-0.1
		c0-0.07,0.02-0.15,0.05-0.25s0.05-0.22,0.05-0.35c0-0.2-0.07-0.3-0.2-0.3c0.07,0,0.1-0.07,0.1-0.2c0-0.07-0.02-0.13-0.05-0.2
		c-0.03-0.07-0.05-0.17-0.05-0.3l0.1-0.1c0-0.07-0.02-0.12-0.05-0.15s-0.05-0.15-0.05-0.35c0-0.07,0.02-0.12,0.05-0.15
		s0.05-0.08,0.05-0.15c-0.07-0.07-0.1-0.17-0.1-0.3c-0.07-0.07-0.1-0.2-0.1-0.4c0-0.13,0.03-0.23,0.1-0.3s0.1-0.17,0.1-0.3l-0.1-0.1
		c0-0.07,0.02-0.08,0.05-0.05s0.05-0.02,0.05-0.15c-0.07,0-0.1-0.02-0.1-0.05s-0.03-0.05-0.1-0.05c0-0.13,0.12-0.57,0.35-1.3
		s0.35-1.43,0.35-2.1l-0.1-0.1c0-0.07,0.03-0.1,0.1-0.1s0.1-0.03,0.1-0.1s-0.02-0.12-0.05-0.15s-0.05-0.08-0.05-0.15
		c0.27-0.67,0.46-1.21,0.6-1.65c0.13-0.43,0.25-0.87,0.35-1.3c0.1-0.43,0.15-0.75,0.15-0.95c-0.07,0-0.1-0.1-0.1-0.3v-0.2l-0.1,0.1
		v-0.3v0.5c0.07,0,0.18-0.2,0.35-0.6c0.17-0.4,0.42-1.23,0.75-2.5c0.2-0.13,0.35-0.4,0.45-0.8s0.2-0.82,0.3-1.25
		c0.1-0.43,0.22-0.83,0.35-1.2s0.37-0.62,0.7-0.75c0-0.13-0.05-0.18-0.15-0.15s-0.15,0.02-0.15-0.05c0,0.07-0.15,0.32-0.45,0.75
		c-0.3,0.43-1.12,1.35-2.45,2.75l0.1-0.2c0-0.07,0.03-0.13,0.1-0.2l-1.5,2c-0.6,0.8-1.47,1.93-2.6,3.4s-2.67,3.4-4.6,5.79
		c-0.53,0.87-1.03,1.63-1.5,2.3c-0.4,0.53-0.85,1.03-1.35,1.5s-0.95,0.7-1.35,0.7c-0.07,0-0.13-0.03-0.2-0.1
		c-0.07,0.07-0.17,0.1-0.3,0.1c-0.2,0-0.47-0.1-0.8-0.3s-0.68-0.45-1.05-0.75s-0.68-0.6-0.95-0.9c-0.27-0.3-0.4-0.55-0.4-0.75
		l-0.1,0.1c-0.13,0-0.2-0.1-0.2-0.3c-0.07,0-0.1,0.03-0.1,0.1s-0.03,0.1-0.1,0.1c-0.53-0.53-0.81-0.92-0.85-1.15
		c-0.03-0.23-0.15-0.48-0.35-0.75v-0.1c0-0.07,0.02-0.1,0.05-0.1s0.05-0.07,0.05-0.2l-0.1-0.1c0.13-0.13,0.18-0.28,0.15-0.45
		s0.02-0.28,0.15-0.35c0-0.07-0.03-0.08-0.1-0.05s-0.1,0.02-0.1-0.05c0-0.47,0.07-0.98,0.2-1.55s0.37-1.42,0.7-2.55
		c0.2-0.8,0.37-1.45,0.5-1.95s0.28-1.01,0.45-1.55c0.17-0.53,0.35-0.93,0.55-1.2c0.93-1.73,1.65-3.55,2.15-5.45s0.9-3.65,1.2-5.25
		c0.3-1.6,0.57-2.91,0.8-3.95c0.23-1.03,0.55-1.55,0.95-1.55c0.13,0,0.33-0.03,0.6-0.1c0.27-0.07,0.63-0.03,1.1,0.1
		c0.13,0.07,0.4,0.22,0.8,0.45s0.86,0.42,1.4,0.55c0.13,0.07,0.55,0.4,1.25,1s1.25,1.3,1.65,2.1c0,0.53-0.07,0.88-0.2,1.05
		s-0.27,0.42-0.4,0.75c-0.53,1.2-0.9,2.17-1.1,2.9s-0.43,1.83-0.7,3.3l0.1,0.1c-0.07,0.13-0.17,0.38-0.3,0.75
		c-0.13,0.37-0.28,0.77-0.45,1.2s-0.32,0.87-0.45,1.3c-0.13,0.43-0.23,0.75-0.3,0.95c0,0.07,0.03,0.1,0.1,0.1
		c0.6-0.8,1.1-1.46,1.5-2c0.4-0.53,0.81-1.06,1.25-1.6c0.43-0.53,0.75-0.93,0.95-1.2c1-1.2,1.9-2.25,2.7-3.15
		c0.8-0.9,1.63-1.76,2.5-2.6c0.87-0.83,1.86-1.73,3-2.7c1.13-0.96,2.56-2.11,4.3-3.45c0.13-0.13,0.43-0.45,0.9-0.95
		c0.46-0.5,1-0.75,1.6-0.75c0.33,0,0.58,0.04,0.75,0.1c0.17,0.07,0.25,0.27,0.25,0.6c0.2-0.2,0.43-0.3,0.7-0.3
		c0.53,0,0.95,0.13,1.25,0.4c0.3,0.27,0.92,0.87,1.85,1.8c0,0.07-0.03,0.1-0.1,0.1c0,0.13,0.05,0.28,0.15,0.45s0.15,0.32,0.15,0.45
		c0,0.87-0.2,1.7-0.6,2.5s-0.77,1.53-1.1,2.2c0,0.13-0.03,0.38-0.1,0.75s-0.37,0.92-0.9,1.65c-0.07,0-0.18,0.08-0.35,0.25
		s-0.4,0.53-0.7,1.1c-0.3,0.57-0.68,1.4-1.15,2.5s-1,2.58-1.6,4.45c-0.2,0.6-0.47,1.08-0.8,1.45s-0.5,1.05-0.5,2.05
		c0,0.07-0.23,0.52-0.7,1.35s-0.7,1.92-0.7,3.25c-0.33,1-0.6,2.03-0.8,3.1c-0.2,1.07-0.37,2.17-0.5,3.3v0.2h0.1
		c0.13,0,0.28-0.17,0.45-0.5s0.38-0.5,0.65-0.5c0-0.07-0.02-0.12-0.05-0.15s-0.05-0.08-0.05-0.15c0.13,0,0.37-0.15,0.7-0.45
		c0.33-0.3,0.5-0.62,0.5-0.95c0.2-0.07,0.3-0.08,0.3-0.05s0.07-0.05,0.2-0.25s0.4-0.6,0.8-1.2c0.4-0.6,1.13-1.56,2.2-2.9
		c1.06-1.53,1.98-2.85,2.75-3.95c0.76-1.1,1.61-2.3,2.55-3.6c0.93-1.3,1.81-2.5,2.65-3.6c0.83-1.1,1.56-2.01,2.2-2.75
		c0.63-0.73,1.05-1.1,1.25-1.1c0.07,0,0.1,0.02,0.1,0.05s0.03,0.05,0.1,0.05c0.33,0,0.67-0.23,1-0.7s0.8-0.7,1.4-0.7l-0.1,0.1
		c0,0.07,0.2,0.1,0.6,0.1C354.74,137.96,355.14,138.09,355.54,138.36z M317.96,138.26c0-0.27,0.07-0.65,0.2-1.15s0.28-0.96,0.45-1.4
		c0.17-0.43,0.38-1.02,0.65-1.75v-0.1c-0.4,0-0.78,0.47-1.15,1.4s-0.77,2.07-1.2,3.4c-0.43,1.33-0.87,2.7-1.3,4.1
		c-0.43,1.4-0.88,2.57-1.35,3.5c0,0.13-0.02,0.18-0.05,0.15s-0.05-0.02-0.05,0.05c-0.13,0.4-0.28,0.85-0.45,1.35
		s-0.32,0.98-0.45,1.45s-0.3,1-0.5,1.6c0,0.07,0.02,0.13,0.05,0.2c0.03,0.07,0.05,0.13,0.05,0.2c-0.07,0.67-0.15,1.18-0.25,1.55
		c-0.1,0.37-0.2,0.68-0.3,0.95c-0.1,0.27-0.18,0.52-0.25,0.75s-0.1,0.48-0.1,0.75l0.2,0.4c0-0.93,0.08-1.61,0.25-2.05
		c0.17-0.43,0.25-0.81,0.25-1.15c0.13,0,0.18-0.1,0.15-0.3s0.02-0.3,0.15-0.3h-0.1c0-0.13,0.23-0.63,0.7-1.5s0.7-1.86,0.7-3
		c0.07-0.33,0.27-0.92,0.6-1.75c0.33-0.83,0.7-1.71,1.1-2.65c0.4-0.93,0.78-1.83,1.15-2.7S317.76,138.72,317.96,138.26z
		 M331.25,136.46c0.4-0.46,0.95-1,1.65-1.6c0.7-0.6,1.37-1.18,2-1.75s1.2-1.1,1.7-1.6s0.78-0.85,0.85-1.05
		c-0.13,0-0.38,0.13-0.75,0.4c-0.37,0.27-0.78,0.6-1.25,1s-0.92,0.82-1.35,1.25s-0.82,0.82-1.15,1.15c0.07,0,0.1-0.03,0.1-0.1
		c0,0.07-0.15,0.25-0.45,0.55s-0.63,0.65-1,1.05c-0.37,0.4-0.7,0.75-1,1.05s-0.45,0.48-0.45,0.55c-1.8,1.8-3.25,3.33-4.35,4.6
		s-2.03,2.38-2.8,3.35s-1.45,1.83-2.05,2.6c-0.6,0.77-1.27,1.48-2,2.15c0,0.33,0.07,0.5,0.2,0.5c0.27-0.27,0.4-0.45,0.4-0.55
		s0.03-0.21,0.1-0.35c0.07-0.13,0.23-0.38,0.5-0.75s0.8-0.92,1.6-1.65c0.73-1,1.3-1.75,1.7-2.25c0.4-0.5,0.75-0.92,1.05-1.25
		s0.62-0.65,0.95-0.95c0.33-0.3,0.76-0.75,1.3-1.35c0.87-0.93,1.61-1.8,2.25-2.6C329.64,138.06,330.39,137.26,331.25,136.46z
		 M333.85,142.15c0-0.33,0.13-0.82,0.4-1.45c0.26-0.63,0.56-1.25,0.9-1.85c0.33-0.6,0.65-1.13,0.95-1.6c0.3-0.47,0.51-0.73,0.65-0.8
		c0-0.07-0.02-0.12-0.05-0.15s-0.05-0.08-0.05-0.15c0-0.07,0.05-0.12,0.15-0.15s0.15-0.12,0.15-0.25c0-0.07-0.03-0.13-0.1-0.2
		c-0.13,0.33-0.3,0.62-0.5,0.85c-0.2,0.23-0.4,0.52-0.6,0.85c-0.33,0.53-0.62,0.97-0.85,1.3s-0.45,0.67-0.65,1
		c-0.2,0.33-0.3,0.6-0.3,0.8l0.1,0.2c-0.8,1.73-1.47,3.23-2,4.5s-0.95,2.47-1.25,3.6s-0.57,2.27-0.8,3.4
		c-0.23,1.13-0.45,2.4-0.65,3.8c0.33-2.13,0.7-3.93,1.1-5.4c0.4-1.46,0.8-2.7,1.2-3.7c0.4-1,0.75-1.8,1.05-2.4s0.48-1.07,0.55-1.4
		l0.1,0.1c0.13,0,0.15-0.05,0.05-0.15s-0.02-0.15,0.25-0.15l-0.1-0.1c0-0.07,0.03-0.13,0.1-0.2
		C333.85,142.25,333.92,142.15,333.85,142.15z M350.64,141.35c0.27-0.2,0.45-0.35,0.55-0.45c0.1-0.1,0.28-0.38,0.55-0.85
		c-0.27,0-0.38,0.05-0.35,0.15c0.03,0.1-0.05,0.15-0.25,0.15c0,0.07,0.02,0.1,0.05,0.1s0.05,0.03,0.05,0.1
		c-0.4,0.47-0.85,0.95-1.35,1.45s-0.75,0.78-0.75,0.85h0.2c0,0.4-0.32,1.02-0.95,1.85s-1.35,1.67-2.15,2.5s-1.52,1.63-2.15,2.4
		c-0.63,0.77-0.95,1.28-0.95,1.55c0,0.13-0.05,0.2-0.15,0.2s-0.27,0.08-0.5,0.25s-0.53,0.52-0.9,1.05s-0.85,1.4-1.45,2.6
		c-0.93,1.33-1.77,2.47-2.5,3.4s-1.1,1.43-1.1,1.5c-0.13,0.27-0.53,0.7-1.2,1.3s-1.1,1.27-1.3,2c0.27,0,0.4-0.02,0.4-0.05
		s0.05-0.15,0.15-0.35c0.1-0.2,0.35-0.55,0.75-1.05s1.1-1.21,2.1-2.15c-0.07,0-0.1,0.03-0.1,0.1c0.27,0,0.51-0.3,0.75-0.9
		c0.23-0.6,0.52-1.07,0.85-1.4c0-0.13,0.17-0.42,0.5-0.85c0.33-0.43,0.68-0.9,1.05-1.4s0.85-1.11,1.45-1.85
		c0.2-0.46,0.38-0.78,0.55-0.95c0.17-0.17,0.38-0.35,0.65-0.55s0.58-0.51,0.95-0.95c0.37-0.43,0.82-1.18,1.35-2.25
		c0.73-0.73,1.43-1.81,2.1-3.25C348.21,144.17,349.24,142.75,350.64,141.35z"/>
	<path class="st1" d="M410.48,139.46c0.53,0,0.95,0.1,1.25,0.3s0.58,0.47,0.85,0.8c-0.33,0.8-0.82,1.7-1.45,2.7s-1.25,1.93-1.85,2.8
		c-0.6,0.87-1.12,1.62-1.55,2.25s-0.62,0.98-0.55,1.05c-0.8,1-1.32,1.73-1.55,2.2c-0.23,0.47-0.38,0.82-0.45,1.05
		s-0.15,0.48-0.25,0.75s-0.45,0.7-1.05,1.3c0,0.47-0.08,0.8-0.25,1s-0.32,0.37-0.45,0.5c-0.2,0.13-0.4,0.23-0.6,0.3l0.1,0.2
		c0,0.13-0.07,0.18-0.2,0.15s-0.2,0.12-0.2,0.45c0,0.07,0.03,0.13,0.1,0.2c-0.93,0.93-1.52,1.87-1.75,2.8
		c-0.23,0.93-0.48,1.4-0.75,1.4c-0.07,0-0.13-0.03-0.2-0.1c0,0.07,0.03,0.13,0.1,0.2l-0.1,0.1l-0.1-0.1c0,1.13-0.28,1.92-0.85,2.35
		c-0.57,0.43-0.85,0.82-0.85,1.15c-0.73,0.73-1.17,1.28-1.3,1.65c-0.13,0.37-0.2,0.62-0.2,0.75l0.1-0.2c0,0.2-0.08,0.47-0.25,0.8
		s-0.37,0.68-0.6,1.05c-0.23,0.37-0.43,0.7-0.6,1s-0.25,0.52-0.25,0.65c-1.33,2.67-2.23,4.36-2.7,5.1c-0.47,0.73-0.73,1.1-0.8,1.1
		v-0.2c-0.13,0-0.3,0.21-0.5,0.65c-0.2,0.43-0.48,0.9-0.85,1.4s-0.8,0.95-1.3,1.35c-0.5,0.4-1.08,0.6-1.75,0.6
		c-1.53,0-2.53-0.17-3-0.5s-0.7-0.57-0.7-0.7l0.1,0.1c0-0.2-0.12-0.3-0.35-0.3s-0.53-0.05-0.9-0.15c-0.37-0.1-0.8-0.37-1.3-0.8
		c-0.5-0.43-1.01-1.15-1.55-2.15c-0.2,0-0.4-0.38-0.6-1.15c-0.2-0.76-0.3-1.71-0.3-2.85c0-0.4,0.07-0.6,0.2-0.6
		c0-0.13-0.03-0.18-0.1-0.15c-0.07,0.04-0.1,0.02-0.1-0.05c0-0.13,0.03-0.2,0.1-0.2h0.1c-0.07-0.13-0.1-0.23-0.1-0.3
		c0-0.13,0.03-0.3,0.1-0.5c0-0.13-0.02-0.25-0.05-0.35s-0.05-0.22-0.05-0.35c0-0.33,0.1-0.5,0.3-0.5c0-0.13-0.05-0.22-0.15-0.25
		s-0.15-0.12-0.15-0.25c0-0.33,0.13-1.05,0.4-2.15c0.27-1.1,0.62-2.4,1.05-3.9s0.92-3.06,1.45-4.7c0.53-1.63,1.01-3.15,1.45-4.55
		c0.43-1.4,0.82-2.55,1.15-3.45s0.53-1.35,0.6-1.35c0.4-0.33,0.83-1.13,1.3-2.4c0.47-1.26,1.03-2.66,1.7-4.2
		c-0.73-0.13-1.42-0.2-2.05-0.2c-0.63,0-1.27-0.07-1.9-0.2c-0.63-0.13-1.3-0.38-2-0.75s-1.48-0.98-2.35-1.85
		c-1.33-0.67-2.13-1.31-2.4-1.95c-0.27-0.63-0.4-1.28-0.4-1.95c0-0.26,0.03-0.53,0.1-0.8s0.1-0.47,0.1-0.6l-0.2-0.1
		c0-1.33,0.2-2.16,0.6-2.5c0.4-0.33,0.6-0.63,0.6-0.9c0-1.06,0.33-1.96,1-2.7c0.67-0.73,1.03-1.1,1.1-1.1c0-0.13-0.02-0.2-0.05-0.2
		s-0.05-0.03-0.05-0.1c0-0.2,0.22-0.42,0.65-0.65s0.65-0.65,0.65-1.25c0.47-1.07,1.3-1.65,2.5-1.75s2.36,0.03,3.5,0.4
		c1.13,0.37,2.06,0.83,2.8,1.4c0.73,0.57,0.9,0.95,0.5,1.15c-0.07,0-0.3,0.3-0.7,0.9c-0.4,0.6-0.6,0.93-0.6,1
		c-0.13,0.13-0.33,0.33-0.6,0.6c-0.27,0.27-0.4,0.6-0.4,1l-0.1-0.1c0,0.27-0.03,0.4-0.1,0.4s-0.1,0.03-0.1,0.1s0.03,0.13,0.1,0.2
		c-0.27,0-0.48,0.22-0.65,0.65c-0.17,0.43-0.33,0.92-0.5,1.45s-0.32,1.02-0.45,1.45s-0.3,0.65-0.5,0.65c-0.33,0.2-0.5,0.55-0.5,1.05
		s-0.2,1.18-0.6,2.05c0.13,0.13,0.57,0.2,1.3,0.2c1.07,0,1.8-0.07,2.2-0.2c0.4-0.13,1.16-0.2,2.3-0.2c0.53,0,1.13,0.08,1.8,0.25
		c0.67,0.17,1.26,0.35,1.8,0.55c0.67,0.27,1.3,0.53,1.9,0.8c0.33,0.33,0.62,0.68,0.85,1.05c0.23,0.37,0.35,0.85,0.35,1.45
		c0,0.93-0.15,1.82-0.45,2.65c-0.3,0.83-0.45,1.22-0.45,1.15c0,0.07-0.12,0.38-0.35,0.95c-0.23,0.57-0.55,1.42-0.95,2.55
		c-0.33,0.33-0.6,0.72-0.8,1.15c-0.2,0.43-0.35,0.87-0.45,1.3c-0.1,0.43-0.22,0.95-0.35,1.55c0,0.13-0.08,0.37-0.25,0.7
		s-0.32,0.67-0.45,1c-0.27,0.4-0.5,0.87-0.7,1.4c0,0.13-0.05,0.32-0.15,0.55s-0.22,0.45-0.35,0.65c-1.13,3.06-2.1,5.96-2.9,8.69
		s-1.43,5.6-1.9,8.59c0.07,0,0.1-0.03,0.1-0.1c0-0.33,0.23-0.68,0.7-1.05c0.47-0.37,0.7-0.78,0.7-1.25
		c0.93-1.67,1.58-2.78,1.95-3.35c0.37-0.57,0.65-0.95,0.85-1.15s0.38-0.42,0.55-0.65c0.17-0.23,0.48-0.92,0.95-2.05
		c1.2-1.2,1.85-2.05,1.95-2.55s0.28-0.92,0.55-1.25c0.46-0.86,0.85-1.56,1.15-2.1s0.51-0.97,0.65-1.3c0.2-0.33,0.33-0.56,0.4-0.7
		v0.2c0-0.07,0.03-0.17,0.1-0.3s0.33-0.43,0.8-0.9l-0.1-0.2c0-0.07,0.13-0.3,0.4-0.7s0.63-0.83,1.1-1.3c0-0.07-0.02-0.12-0.05-0.15
		c-0.04-0.03-0.05-0.08-0.05-0.15c0-0.33,0.18-0.63,0.55-0.9c0.37-0.27,0.55-0.43,0.55-0.5h-0.2c1.26-1.8,2.06-2.96,2.4-3.5
		c0.33-0.53,0.53-0.87,0.6-1s0.18-0.28,0.35-0.45s0.68-0.78,1.55-1.85c0-0.07-0.03-0.13-0.1-0.2c0-0.07,0.18-0.37,0.55-0.9
		s0.8-1.1,1.3-1.7c0.5-0.6,1-1.15,1.5-1.65s0.85-0.75,1.05-0.75c0.13,0,0.18,0.03,0.15,0.1s0.02,0.1,0.15,0.1
		c0.07,0,0.2-0.03,0.4-0.1C410.18,139.49,410.35,139.46,410.48,139.46z M379.7,132.16c0-0.4,0.22-0.87,0.65-1.4s0.65-0.87,0.65-1
		c0-0.07-0.03-0.1-0.1-0.1h0.2c1.2-2,1.86-3.26,2-3.8c0.13-0.53,0.02-0.65-0.35-0.35s-0.82,0.83-1.35,1.6s-0.87,1.42-1,1.95
		c-0.07,0-0.17,0.17-0.3,0.5c-0.07,0.2-0.1,0.37-0.1,0.5v-0.2c0,0.07,0.02,0.12,0.05,0.15s0.05,0.08,0.05,0.15
		c-0.2,0-0.3,0.03-0.3,0.1s0.03,0.13,0.1,0.2c-0.07,0-0.15,0.18-0.25,0.55c-0.1,0.37-0.2,0.77-0.3,1.2c-0.1,0.43-0.21,0.83-0.35,1.2
		c-0.13,0.37-0.27,0.55-0.4,0.55v-0.2c0,0.13,0.02,0.25,0.05,0.35s0.05,0.22,0.05,0.35c0,0.07-0.03,0.15-0.1,0.25
		s-0.1,0.18-0.1,0.25c0,0.13,0.07,0.2,0.2,0.2c0.13-0.53,0.28-1.03,0.45-1.5S379.5,132.7,379.7,132.16z M381.6,167.14
		c1.06-3.33,1.68-5.63,1.85-6.89s0.35-1.9,0.55-1.9c0.67-1.26,1.03-2.23,1.1-2.9s0.3-1.2,0.7-1.6c0-0.07-0.02-0.12-0.05-0.15
		s-0.05-0.08-0.05-0.15c0-0.2,0.08-0.48,0.25-0.85c0.17-0.37,0.33-0.7,0.5-1s0.32-0.55,0.45-0.75s0.17-0.27,0.1-0.2
		c0-0.07-0.02-0.12-0.05-0.15s-0.05-0.08-0.05-0.15c0,0.07,0.08-0.08,0.25-0.45s0.35-0.76,0.55-1.2c0.2-0.43,0.38-0.85,0.55-1.25
		c0.17-0.4,0.25-0.63,0.25-0.7v-0.3c0.4-0.4,0.72-0.87,0.95-1.4s0.43-1.03,0.6-1.5s0.27-0.85,0.3-1.15c0.03-0.3,0.05-0.42,0.05-0.35
		c0-0.07-0.13-0.1-0.4-0.1s-0.48,0.17-0.65,0.5c-0.17,0.33-0.3,0.72-0.4,1.15s-0.18,0.82-0.25,1.15c-0.07,0.33-0.2,0.5-0.4,0.5v-0.1
		c0,0.07,0.02,0.12,0.05,0.15c0.03,0.04,0.05,0.08,0.05,0.15c-0.2,0.2-0.38,0.45-0.55,0.75c-0.17,0.3-0.25,0.52-0.25,0.65
		c0,0.07,0.02,0.12,0.05,0.15s0.05,0.08,0.05,0.15c-1,1-1.85,2.48-2.55,4.45c-0.7,1.97-1.33,4.01-1.9,6.15
		c-0.57,2.13-1.05,4.16-1.45,6.1c-0.4,1.93-0.76,3.33-1.1,4.2c0,0.4-0.03,0.6-0.1,0.6s-0.1,0.07-0.1,0.2c0,0.07,0.02,0.12,0.05,0.15
		s0.05,0.08,0.05,0.15c-0.13,0.73-0.2,1.35-0.2,1.85s0,1.08,0,1.75c0,0.93,0.07,1.4,0.2,1.4c0.13-1.2,0.28-2.45,0.45-3.75
		C381.22,169.18,381.4,168.07,381.6,167.14z M387.3,175.63c0.4-0.86,0.72-1.43,0.95-1.7s0.43-0.47,0.6-0.6s0.3-0.27,0.4-0.4
		c0.1-0.13,0.25-0.5,0.45-1.1l0.4-0.4c0-0.07-0.02-0.1-0.05-0.1s-0.05-0.03-0.05-0.1c0-0.13,0.07-0.2,0.2-0.2s0.2-0.03,0.2-0.1
		c0.8-1.66,1.46-2.98,2-3.95c0.53-0.96,0.96-1.7,1.3-2.2c0.33-0.5,0.57-0.83,0.7-1s0.26-0.31,0.4-0.45c0-0.07-0.02-0.12-0.05-0.15
		s-0.05-0.08-0.05-0.15c0-0.07,0.05-0.1,0.15-0.1s0.18-0.03,0.25-0.1c0.6-1.2,1.01-1.96,1.25-2.3c0.23-0.33,0.38-0.5,0.45-0.5
		c0,0.07-0.04,0.1-0.1,0.1c0.87-1.6,1.5-2.75,1.9-3.45s0.75-1.28,1.05-1.75s0.65-1.02,1.05-1.65c0.4-0.63,1.07-1.68,2-3.15
		c0-0.27,0.03-0.38,0.1-0.35s0.17-0.02,0.3-0.15l-0.1-0.2c0-0.13,0.08-0.23,0.25-0.3s0.25-0.13,0.25-0.2l-0.1-0.1
		c0.73-0.73,1.2-1.25,1.4-1.55c0.2-0.3,0.32-0.5,0.35-0.6s0.05-0.18,0.05-0.25s0.17-0.27,0.5-0.6l-0.1-0.2
		c0-0.13,0.12-0.28,0.35-0.45s0.35-0.32,0.35-0.45l-0.1-0.1c-1.87,2.67-3.08,4.41-3.65,5.25c-0.57,0.83-0.85,1.28-0.85,1.35l0.5-0.7
		c-0.4,1-0.9,1.82-1.5,2.45c-0.6,0.63-0.9,1.02-0.9,1.15c-0.33,0.67-0.77,1.48-1.3,2.45s-1.05,1.87-1.55,2.7s-0.93,1.53-1.3,2.1
		s-0.55,0.82-0.55,0.75c0,0.13-0.02,0.18-0.05,0.15s-0.08-0.02-0.15,0.05c-0.8,1.2-1.37,2.2-1.7,3c-0.33,0.8-0.57,1.43-0.7,1.9
		s-0.27,0.8-0.4,1s-0.4,0.3-0.8,0.3c-0.73,0.73-1.2,1.33-1.4,1.8c-0.2,0.47-0.32,0.85-0.35,1.15c-0.03,0.3-0.05,0.52-0.05,0.65
		c0,0.13-0.17,0.2-0.5,0.2c0,0.33-0.22,0.73-0.65,1.2s-0.65,0.77-0.65,0.9c0,0.07,0.03,0.1,0.1,0.1c-0.27,0-0.5,0.25-0.7,0.75
		s-0.33,0.75-0.4,0.75v-0.1l0.1,0.2c-0.07,0.07-0.13,0.1-0.2,0.1s-0.1,0.04-0.1,0.1c0,0.07,0.03,0.1,0.1,0.1
		c0.13-0.13,0.25-0.27,0.35-0.4C387.05,175.9,387.17,175.76,387.3,175.63z M407.58,142.95c0.07,0,0.1-0.07,0.1-0.2
		c-0.13,0-0.33,0.18-0.6,0.55c-0.27,0.37-0.43,0.55-0.5,0.55c0,0.07,0.02,0.12,0.05,0.15s0.05,0.08,0.05,0.15
		c-0.07,0.07-0.13,0.1-0.2,0.1s-0.1,0.03-0.1,0.1s0.03,0.1,0.1,0.1c0.13-0.27,0.32-0.5,0.55-0.7
		C407.27,143.55,407.45,143.29,407.58,142.95z M408.58,141.55c-0.13,0.07-0.27,0.13-0.4,0.2c-0.13,0.07-0.2,0.13-0.2,0.2
		c0,0.07,0.02,0.12,0.05,0.15s0.05,0.08,0.05,0.15c-0.07,0.07-0.13,0.1-0.2,0.1s-0.1,0.04-0.1,0.1c0,0.07,0.03,0.1,0.1,0.1
		c0.13-0.2,0.28-0.38,0.45-0.55C408.5,141.84,408.58,141.69,408.58,141.55z"/>
	<path class="st1" d="M426.47,132.26c0.2-0.13,0.82-0.21,1.85-0.25c1.03-0.03,2.15-0.03,3.35,0c1.2,0.04,2.33,0.07,3.4,0.1
		c1.06,0.03,1.76,0.05,2.1,0.05c0.4,0,0.9,0.07,1.5,0.2c0.6,0.13,1.18,0.33,1.75,0.6s1.03,0.55,1.4,0.85s0.55,0.62,0.55,0.95
		s-0.37,0.62-1.1,0.85c-0.73,0.23-1.58,0.43-2.55,0.6c-0.97,0.17-1.9,0.28-2.8,0.35s-1.48,0.1-1.75,0.1c-0.4,0-1.22,0.1-2.45,0.3
		s-2.25,0.3-3.05,0.3c-0.07,0.07-0.1,0.13-0.1,0.2c0,0.4,0.1,0.9,0.3,1.5c0.2,0.6,0.3,1.63,0.3,3.1c0,1.67-0.07,2.67-0.2,3
		s-0.2,0.57-0.2,0.7c0,0.13,0.02,0.23,0.05,0.3s0.05,0.17,0.05,0.3s-0.07,0.37-0.2,0.7s-0.28,0.68-0.45,1.05
		c-0.17,0.37-0.32,0.73-0.45,1.1c-0.13,0.37-0.2,0.58-0.2,0.65c0,0.07,0.03,0.1,0.1,0.1l-0.1-0.1c-0.4,0.73-0.63,1.2-0.7,1.4
		s-0.1,0.4-0.1,0.6c0,0.07,0.02,0.12,0.05,0.15s0.05,0.08,0.05,0.15c-0.87,0.87-1.33,1.45-1.4,1.75s-0.1,0.58-0.1,0.85l-0.6,0.8
		c-0.4,0.53-0.6,0.87-0.6,1c0,0.07,0.03,0.13,0.1,0.2l-0.1,0.1l-0.1-0.1c-0.6,1.33-1.12,2.33-1.55,3s-0.77,1.13-1,1.4
		c-0.23,0.27-0.42,0.43-0.55,0.5c-0.13,0.07-0.2,0.2-0.2,0.4c-0.07,0-0.1-0.02-0.1-0.05s-0.03-0.05-0.1-0.05
		c0,0.67-0.27,1.37-0.8,2.1c-0.53,0.73-1.12,1.4-1.75,2s-1.52,1.3-2.65,2.1l0.2-0.1h-0.1c-0.13,0-0.47,0.28-1,0.85
		s-1.63,0.85-3.3,0.85c-1.47,0-2.52-0.42-3.15-1.25s-1.28-1.61-1.95-2.35c0-0.07-0.07-0.1-0.2-0.1s-0.2-0.07-0.2-0.2
		c0-0.07,0.03-0.13,0.1-0.2c-0.6-0.6-1.23-1.28-1.9-2.05c-0.67-0.77-0.96-1.21-0.9-1.35c0.13,0,0.2-0.1,0.2-0.3
		c-0.2-0.13-0.4-0.63-0.6-1.5c-0.2-0.86-0.3-1.8-0.3-2.8c0-1.53,0.1-2.75,0.3-3.65c0.2-0.9,0.42-1.6,0.65-2.1
		c0.23-0.5,0.45-0.9,0.65-1.2c0.2-0.3,0.3-0.62,0.3-0.95c0-0.13,0.05-0.22,0.15-0.25s0.18-0.08,0.25-0.15c0-0.07-0.02-0.1-0.05-0.1
		s-0.05-0.03-0.05-0.1c0.07-0.2,0.17-0.43,0.3-0.7c0.13-0.26,0.23-0.43,0.3-0.5c0.07-0.07,0.1-0.13,0.1-0.2
		c0-0.07-0.02-0.12-0.05-0.15s-0.05-0.08-0.05-0.15c0-0.4,0.25-0.87,0.75-1.4s0.72-0.8,0.65-0.8c0.27-1.26,0.76-2.51,1.5-3.75
		c0.73-1.23,1.48-2.35,2.25-3.35c0.76-1,1.75-2.1,2.95-3.3c0.27-0.47,0.6-0.95,1-1.45s0.82-0.93,1.25-1.3
		c0.43-0.37,0.82-0.67,1.15-0.9s0.53-0.35,0.6-0.35c0.8-0.8,1.36-1.23,1.7-1.3c0.33-0.07,0.5-0.17,0.5-0.3
		c0.2-0.13,0.4-0.25,0.6-0.35s0.53-0.15,1-0.15c1.13,0,1.92,0.12,2.35,0.35c0.43,0.23,0.73,0.47,0.9,0.7
		c0.17,0.23,0.32,0.47,0.45,0.7s0.47,0.35,1,0.35c0,0.07-0.02,0.12-0.05,0.15c-0.04,0.03-0.05,0.08-0.05,0.15l0.4,0.6
		C426.1,131.96,426.27,132.13,426.47,132.26z M412.88,139.86c0-0.13,0.05-0.23,0.15-0.3s0.15-0.2,0.15-0.4
		c1.06-1.07,1.76-1.78,2.1-2.15c0.33-0.37,0.5-0.62,0.5-0.75l-0.1-0.1h-0.1c0-0.07,0.07-0.17,0.2-0.3c1.86-1.86,3.1-3.1,3.7-3.7
		s0.93-0.9,1-0.9c0,0.07-0.07,0.17-0.2,0.3l-0.2,0.2c0-0.07,0.25-0.33,0.75-0.8s0.81-0.7,0.95-0.7h0.1c0-0.07-0.07-0.1-0.2-0.1
		c-0.4,0-0.75,0.15-1.05,0.45s-0.52,0.45-0.65,0.45v-0.1c-0.4,0.13-0.72,0.33-0.95,0.6s-0.38,0.4-0.45,0.4v-0.1
		c0-0.07-0.25,0.27-0.75,1s-1.08,1.53-1.75,2.4s-1.32,1.67-1.95,2.4s-1.05,1.1-1.25,1.1c-0.33,0.8-0.62,1.32-0.85,1.55
		s-0.42,0.42-0.55,0.55c-0.8,1.27-1.38,2.27-1.75,3s-0.65,1.32-0.85,1.75s-0.35,0.77-0.45,1s-0.25,0.45-0.45,0.65
		c0,0.13-0.07,0.23-0.2,0.3s-0.2,0.13-0.2,0.2c0,0.07,0.02,0.13,0.05,0.2c0.03,0.07,0.05,0.13,0.05,0.2c-0.4,0.4-0.7,0.82-0.9,1.25
		c-0.2,0.43-0.37,0.82-0.5,1.15c-0.13,0.4-0.2,0.8-0.2,1.2v-0.1c0,0.13,0.07,0.23,0.2,0.3c0.87-2.26,1.85-4.4,2.95-6.4
		C410.33,143.55,411.55,141.65,412.88,139.86z M411.08,163.34c0.13,0,0.18-0.02,0.15-0.05s-0.02-0.08,0.05-0.15
		c0.07,0,0.12,0.02,0.15,0.05s0.08,0.05,0.15,0.05c0.33,0,0.65-0.12,0.95-0.35s0.55-0.48,0.75-0.75s0.4-0.6,0.6-1
		c0.73-0.73,1.25-1.28,1.55-1.65s0.52-0.65,0.65-0.85c0.13-0.2,0.2-0.35,0.2-0.45s0.07-0.22,0.2-0.35c1.33-2,2.23-3.3,2.7-3.9
		c0.47-0.6,0.73-0.9,0.8-0.9c0,0.07-0.02,0.12-0.05,0.15s-0.05,0.08-0.05,0.15c-0.07,0.07-0.1,0.13-0.1,0.2l-0.1-0.1
		c0-0.2,0.12-0.48,0.35-0.85c0.23-0.37,0.47-0.71,0.7-1.05c0.23-0.33,0.47-0.65,0.7-0.95s0.35-0.51,0.35-0.65l-0.1-0.1
		c0-0.53,0.2-1.06,0.6-1.6c0.4-0.53,0.6-0.83,0.6-0.9c-0.13,0-0.17-0.03-0.1-0.1s0.03-0.1-0.1-0.1c-0.27,0.67-0.7,1.45-1.3,2.35
		s-1.2,1.77-1.8,2.6c-0.6,0.83-1.12,1.58-1.55,2.25s-0.65,1.07-0.65,1.2c-0.4,0.8-0.75,1.28-1.05,1.45s-0.45,0.32-0.45,0.45l0.1,0.2
		c-1.2,1.2-2.17,2.17-2.9,2.9c-0.73,0.73-1.3,1.28-1.7,1.65c-0.4,0.37-0.65,0.62-0.75,0.75s-0.15,0.23-0.15,0.3
		c0.07,0.07,0.1,0.13,0.1,0.2c0,0.07,0.03,0.1,0.1,0.1s0.13-0.03,0.2-0.1C410.95,163.37,411.01,163.34,411.08,163.34z
		 M412.98,158.24c0-0.27,0.25-0.67,0.75-1.2s1.02-1.06,1.55-1.6c0-0.07-0.02-0.12-0.05-0.15s-0.05-0.08-0.05-0.15
		c0-0.13,0.18-0.42,0.55-0.85c0.37-0.43,0.78-0.9,1.25-1.4s0.88-0.98,1.25-1.45c0.37-0.46,0.55-0.76,0.55-0.9
		c0-0.07-0.03-0.1-0.1-0.1c0-0.13,0.07-0.27,0.2-0.4c0.13-0.13,0.27-0.23,0.4-0.3c0-0.07-0.02-0.12-0.05-0.15
		c-0.04-0.03-0.05-0.08-0.05-0.15c0-0.73,0.27-1.26,0.8-1.6c0.53-0.33,0.8-0.7,0.8-1.1c0.73-1.73,1.26-3.11,1.6-4.15
		c0.33-1.03,0.5-1.61,0.5-1.75c0-0.33,0.03-0.68,0.1-1.05c0.07-0.37,0.1-0.71,0.1-1.05c0-0.2-0.02-0.5-0.05-0.9s-0.12-0.6-0.25-0.6
		c-0.2,0-0.47,0.22-0.8,0.65s-0.65,0.93-0.95,1.5c-0.3,0.57-0.57,1.07-0.8,1.5c-0.23,0.43-0.38,0.65-0.45,0.65v-0.1
		c0,0.27-0.1,0.53-0.3,0.8c-0.2,0.27-0.4,0.5-0.6,0.7c-0.27,0.27-0.53,0.53-0.8,0.8l0.1-0.1v0.2c0,0.13-0.17,0.43-0.5,0.9
		s-0.53,0.7-0.6,0.7c0,0.07,0.02,0.12,0.05,0.15s0.05,0.08,0.05,0.15c-0.13,0.13-0.25,0.3-0.35,0.5s-0.22,0.37-0.35,0.5l-0.4,0.6
		c-0.07,0-0.1-0.03-0.1-0.1l-0.1,0.1c0,0.07,0.02,0.12,0.05,0.15s0.05,0.08,0.05,0.15c-1.07,1.07-1.72,1.88-1.95,2.45
		c-0.23,0.57-0.35,1.02-0.35,1.35v0.4c0,0.33-0.12,0.8-0.35,1.4c-0.23,0.6-0.5,1.18-0.8,1.75s-0.65,1.28-1.05,2.15
		c0.07,0,0.1,0.1,0.1,0.3c0,0.73-0.13,1.23-0.4,1.5s-0.4,0.73-0.4,1.4c0,0.2,0.07,0.3,0.2,0.3c0.6-0.93,1.27-1.7,2-2.3V158.24z"/>
	<path class="st1" d="M456.35,130.06c0.13,0.27,0.2,0.43,0.2,0.5c0,0.33-0.03,0.68-0.1,1.05c-0.07,0.37-0.17,0.72-0.3,1.05
		c-0.4,0.4-0.92,1.05-1.55,1.95c-0.63,0.9-1.25,1.88-1.85,2.95c-0.6,1.07-1.13,2.18-1.6,3.35c-0.47,1.17-0.7,2.21-0.7,3.15
		c0,0.33,0.03,0.5,0.1,0.5c-0.2,0-0.67-0.12-1.4-0.35c-0.73-0.23-1.17-0.65-1.3-1.25c-0.27,0-0.47-0.28-0.6-0.85s-0.23-1.17-0.3-1.8
		c-0.07-0.63-0.12-1.23-0.15-1.8s-0.05-0.88-0.05-0.95c0.07-0.13,0.1-0.28,0.1-0.45s0.03-0.32,0.1-0.45c-0.07,0-0.3,0.23-0.7,0.7
		c-0.4,0.47-0.85,0.98-1.35,1.55s-0.98,1.07-1.45,1.5s-0.8,0.65-1,0.65c-0.27,0-0.52,0.22-0.75,0.65s-0.45,0.93-0.65,1.5
		c-0.2,0.57-0.35,1.1-0.45,1.6s-0.15,0.82-0.15,0.95c0,0.6,0.08,1.08,0.25,1.45s0.37,0.72,0.6,1.05s0.48,0.7,0.75,1.1
		c0.27,0.4,0.5,0.93,0.7,1.6c0.13,0.13,0.21,0.28,0.25,0.45c0.03,0.17,0.12,0.32,0.25,0.45c0.2,0.93,0.52,1.88,0.95,2.85
		c0.43,0.97,0.85,1.98,1.25,3.05s0.75,2.2,1.05,3.4s0.45,2.43,0.45,3.7c0,0.93-0.1,1.83-0.3,2.7c-0.2,0.87-0.58,1.63-1.15,2.3
		s-1.32,1.2-2.25,1.6c-0.93,0.4-2.1,0.6-3.5,0.6c-0.47,0-0.92-0.03-1.35-0.1s-0.92-0.1-1.45-0.1c-0.13,0-0.25,0.02-0.35,0.05
		s-0.22,0.05-0.35,0.05c-1.13-0.13-2.08-0.37-2.85-0.7c-0.77-0.33-1.4-0.68-1.9-1.05c-0.5-0.37-0.95-0.85-1.35-1.45
		c-0.13-0.13-0.42-0.45-0.85-0.95s-0.65-0.82-0.65-0.95l0.1-0.1l0.1-0.1c-0.6-0.67-0.98-1.12-1.15-1.35
		c-0.17-0.23-0.25-0.42-0.25-0.55c0-0.07,0.04-0.12,0.1-0.15c0.07-0.03,0.1-0.08,0.1-0.15s-0.05-0.22-0.15-0.45s-0.22-0.5-0.35-0.8
		s-0.25-0.58-0.35-0.85s-0.15-0.43-0.15-0.5c0.07-0.33,0.33-0.71,0.8-1.15c0.47-0.43,0.97-0.85,1.5-1.25s1.27-0.87,2.2-1.4
		c0.33-0.27,0.82-0.57,1.45-0.9c0.63-0.33,1.18-0.6,1.65-0.8c-0.47,1.13-0.85,2.32-1.15,3.55s-0.45,2.45-0.45,3.65
		c0,0.53,0.13,0.8,0.4,0.8c0.13,0,0.23-0.03,0.3-0.1c0.73,0.13,1.38,0.2,1.95,0.2s1.05,0,1.45,0c0.67,0,1.13-0.03,1.4-0.1
		s0.43-0.13,0.5-0.2c0.07-0.07,0.12-0.13,0.15-0.2c0.03-0.07,0.12-0.1,0.25-0.1l-0.1-0.1v0.1c0.2,0,0.63-0.32,1.3-0.95
		c0.67-0.63,1.03-1.21,1.1-1.75l-0.1-0.1c-0.07,0-0.1-0.03-0.1-0.1h0.2c0-1-0.1-1.86-0.3-2.6c-0.2-0.73-0.42-1.38-0.65-1.95
		c-0.23-0.57-0.45-1.1-0.65-1.6c-0.2-0.5-0.3-1.08-0.3-1.75c-0.27-0.46-0.45-0.85-0.55-1.15s-0.22-0.52-0.35-0.65
		c-0.13-0.2-0.23-0.3-0.3-0.3l0.1,0.1v-0.1l0.1-0.2c0-0.2-0.15-0.45-0.45-0.75s-0.45-0.58-0.45-0.85c0-0.07,0.03-0.13,0.1-0.2h-0.2
		v-0.1l0.1-0.2c-0.53-1-0.97-1.83-1.3-2.5s-0.63-1.31-0.9-1.95c-0.27-0.63-0.43-1.01-0.5-1.15h0.1c-0.07-0.07-0.18-0.42-0.35-1.05
		s-0.25-1.31-0.25-2.05c0-1.13,0.17-1.95,0.5-2.45s0.56-0.78,0.7-0.85c0-0.07-0.07-0.1-0.2-0.1c0.47-1.2,0.96-2.1,1.5-2.7
		c0.53-0.6,1.03-1.06,1.5-1.4c0.47-0.33,0.85-0.55,1.15-0.65c0.3-0.1,0.45-0.25,0.45-0.45l0.1,0.1c0,0.07,0.03,0.1,0.1,0.1
		s0.1-0.17,0.1-0.5c0.07,0,0.1,0.02,0.1,0.05c0,0.04,0.03,0.05,0.1,0.05c0.73-0.47,1.33-0.85,1.8-1.15c0.46-0.3,1.06-0.75,1.8-1.35
		l0.2,0.2c0.07,0,0.12-0.05,0.15-0.15c0.03-0.1,0.08-0.18,0.15-0.25c0.87-0.53,1.62-0.9,2.25-1.1s1.31-0.3,2.05-0.3
		c0.4,0,1.01,0.03,1.85,0.1c0.83,0.07,1.66,0.2,2.5,0.4c0.83,0.2,1.56,0.5,2.2,0.9C456.03,128.86,456.35,129.4,456.35,130.06z
		 M430.37,160.64c0.2-0.13,0.42-0.32,0.65-0.55c0.23-0.23,0.48-0.45,0.75-0.65l0.8-0.8c-0.13,0-0.37,0.12-0.7,0.35
		c-0.33,0.23-0.68,0.48-1.05,0.75s-0.68,0.52-0.95,0.75c-0.27,0.23-0.4,0.38-0.4,0.45l0.1,0.2c-0.53,0.4-0.8,0.73-0.8,1
		c0,0.13,0.03,0.2,0.1,0.2c0.2-0.33,0.45-0.63,0.75-0.9C429.92,161.17,430.17,160.91,430.37,160.64z M443.06,132.16
		c0.8-0.6,1.45-1.07,1.95-1.4c0.5-0.33,0.88-0.6,1.15-0.8c0.27-0.27,0.5-0.43,0.7-0.5c-0.07,0-0.1,0.03-0.1,0.1
		c-0.07,0-0.1-0.03-0.1-0.1c-0.13,0.13-0.32,0.23-0.55,0.3c-0.23,0.07-0.82,0.37-1.75,0.9c-0.13,0.13-0.18,0.22-0.15,0.25
		s-0.02,0.05-0.15,0.05c-0.4,0-0.9,0.25-1.5,0.75s-1.2,1.05-1.8,1.65s-1.37,1.4-2.3,2.4l-0.1,0.1c0,0.07,0.02,0.12,0.05,0.15
		c0.03,0.04,0.05,0.08,0.05,0.15c-0.13,0.13-0.32,0.28-0.55,0.45c-0.23,0.17-0.35,0.32-0.35,0.45c0,0.07,0.02,0.1,0.05,0.1
		s0.05,0.03,0.05,0.1s-0.03,0.13-0.1,0.2v0.1C439.23,135.43,441.06,133.63,443.06,132.16z M441.76,164.74c0-0.13-0.03-0.23-0.1-0.3
		l-1.5,1c0.07,0.07,0.12,0.1,0.15,0.1s0.08,0.03,0.15,0.1c0.33,0,0.63-0.07,0.9-0.2C441.63,165.3,441.76,165.07,441.76,164.74z
		 M448.16,138.36c0.07,0.2,0.12,0.35,0.15,0.45c0.03,0.1,0.05,0.22,0.05,0.35v0.2c0.07,0,0.13-0.42,0.2-1.25s0.4-1.95,1-3.35
		c-0.73,0.53-1.17,1.13-1.3,1.8c-0.13,0.67-0.2,1.17-0.2,1.5v0.3H448.16z"/>
	<path class="st1" d="M486.63,103.38c-0.87,1.13-1.55,1.98-2.05,2.55s-0.92,1.03-1.25,1.4s-0.65,0.73-0.95,1.1
		c-0.3,0.37-0.72,0.95-1.25,1.75c-0.13,0.2-0.32,0.47-0.55,0.8c-0.23,0.33-0.45,0.67-0.65,1c-0.27,0.4-0.53,0.8-0.8,1.2
		c-0.07,0.07-0.1,0.17-0.1,0.3c-0.07,0.13-0.1,0.23-0.1,0.3s-0.13,0.37-0.4,0.9c-0.13,0.27-0.27,0.57-0.4,0.9
		c-0.2,0.2-0.38,0.47-0.55,0.8c-0.17,0.33-0.25,0.77-0.25,1.3c0.07,0.13,0.68,0.12,1.85-0.05c1.17-0.17,2.41-0.32,3.75-0.45
		c1.33-0.13,2.56-0.17,3.7-0.1c1.13,0.07,1.67,0.4,1.6,1c0,0.2,0.35,0.45,1.05,0.75s1.37,0.6,2,0.9s1,0.62,1.1,0.95
		c0.1,0.33-0.48,0.63-1.75,0.9c-0.33,0.07-1.08,0.2-2.25,0.4c-1.17,0.2-2.45,0.4-3.85,0.6s-2.72,0.4-3.95,0.6s-2.02,0.33-2.35,0.4
		c-0.07,0-0.27,0.05-0.6,0.15c-0.33,0.1-0.6,0.15-0.8,0.15c-0.47,0-1.08,0.17-1.85,0.5c-0.77,0.33-1.18,0.57-1.25,0.7
		c0,0.13-0.07,0.2-0.2,0.2s-0.2,0.07-0.2,0.2c0,0.07,0.02,0.12,0.05,0.15c0.03,0.04,0.05,0.08,0.05,0.15c-1,1-1.52,1.78-1.55,2.35
		s-0.18,0.98-0.45,1.25c-0.13,0.07-0.32,0.3-0.55,0.7c-0.23,0.4-0.45,0.83-0.65,1.3c-0.2,0.47-0.37,0.92-0.5,1.35
		c-0.13,0.43-0.2,0.75-0.2,0.95c-0.53,1.47-1.1,2.8-1.7,4s-0.9,1.97-0.9,2.3c-0.07,0.13-0.32,0.85-0.75,2.15
		c-0.43,1.3-0.92,2.73-1.45,4.3s-1.02,3.01-1.45,4.35c-0.43,1.33-0.65,2.1-0.65,2.3c-0.13,1.73-0.43,3.1-0.9,4.1s-0.67,1.47-0.6,1.4
		c0,0.53-0.05,1.12-0.15,1.75s-0.23,1.22-0.4,1.75c-0.17,0.53-0.38,1.17-0.65,1.9v-0.2l0.1,0.1c-0.07,0.2-0.1,0.43-0.1,0.7
		c0,0.2-0.02,0.38-0.05,0.55c-0.04,0.17-0.05,0.32-0.05,0.45c0.13-0.13,0.35-0.43,0.65-0.9c0.3-0.46,0.6-0.95,0.9-1.45
		s0.56-0.95,0.8-1.35c0.23-0.4,0.35-0.63,0.35-0.7h-0.1c0.67-1.26,1.55-2.71,2.65-4.35c1.1-1.63,2.16-3.23,3.2-4.8
		c1.03-1.56,1.91-2.95,2.65-4.15c0.73-1.2,1.1-2,1.1-2.4c1.13-2,1.83-3.25,2.1-3.75c0.27-0.5,0.4-0.71,0.4-0.65
		c-0.07,0-0.1,0.03-0.1,0.1v0.2l0.4-0.8c0.2-0.2,0.4-0.46,0.6-0.8c0.2-0.33,0.45-0.68,0.75-1.05c0.3-0.37,0.68-0.67,1.15-0.9
		c0.46-0.23,1.06-0.35,1.8-0.35c0.46,0,1.01,0.12,1.65,0.35c0.63,0.23,0.95,0.62,0.95,1.15c0,0.2-0.03,0.37-0.1,0.5
		s-0.2,0.3-0.4,0.5c-0.2,0.2-0.47,0.52-0.8,0.95s-0.8,1.08-1.4,1.95c-0.93,0.93-1.48,1.67-1.65,2.2c-0.17,0.53-0.25,0.83-0.25,0.9
		c0,0.07-0.13,0.27-0.4,0.6s-0.55,0.72-0.85,1.15c-0.3,0.43-0.57,0.87-0.8,1.3c-0.23,0.43-0.35,0.78-0.35,1.05l0.1-0.1
		c-0.6,0.6-0.9,1.03-0.9,1.3v0.1v-0.1c0,0.07,0.03,0.13,0.1,0.2c-0.53,0.47-0.95,0.9-1.25,1.3c-0.3,0.4-0.52,0.77-0.65,1.1
		c-0.2,0.4-0.3,0.77-0.3,1.1v-0.2c0,0.07,0.03,0.13,0.1,0.2c-0.2,0.27-0.38,0.52-0.55,0.75c-0.17,0.23-0.32,0.45-0.45,0.65l-0.3,0.6
		c0,0.07,0.02,0.12,0.05,0.15c0.03,0.04,0.05,0.08,0.05,0.15c-0.33,0.2-0.57,0.48-0.7,0.85c-0.13,0.37-0.23,0.55-0.3,0.55v-0.1
		l0.1,0.2c-0.13,0.07-0.28,0.23-0.45,0.5s-0.32,0.53-0.45,0.8s-0.3,0.6-0.5,1c0,0.13-0.07,0.2-0.2,0.2s-0.2,0.07-0.2,0.2
		c0,0.07,0.02,0.12,0.05,0.15s0.05,0.08,0.05,0.15c-0.2,0-0.27,0.05-0.2,0.15c0.07,0.1,0.03,0.15-0.1,0.15h-0.1
		c-0.2,0.33-0.35,0.62-0.45,0.85s-0.25,0.52-0.45,0.85c0,0.07,0.03,0.13,0.1,0.2c-0.2,0-0.3,0.03-0.3,0.1s0.03,0.13,0.1,0.2
		c-0.53,0.53-1.15,1.53-1.85,3s-1.38,2.87-2.05,4.2c0,0.07,0.02,0.12,0.05,0.15s0.05,0.08,0.05,0.15c-0.2,0.13-0.37,0.3-0.5,0.5
		c-0.07,0.13-0.1,0.27-0.1,0.4v-0.1c0,0.07,0.03,0.13,0.1,0.2c-0.2,0-0.38,0.28-0.55,0.85c-0.17,0.57-0.28,0.85-0.35,0.85v-0.1
		c0,1.27-0.28,2.08-0.85,2.45s-0.85,0.58-0.85,0.65h0.2h-0.1v0.4c-0.07,0-0.1-0.04-0.1-0.1l-0.1,0.1c0,0.07,0.02,0.12,0.05,0.15
		s0.05,0.08,0.05,0.15c-0.4,0.26-0.7,0.48-0.9,0.65c-0.2,0.17-0.67,0.25-1.4,0.25c0-0.27-0.23-0.47-0.7-0.6
		c-0.27-0.07-0.5-0.1-0.7-0.1h0.3c-0.46,0-0.7-0.1-0.7-0.3c0-0.07,0.03-0.1,0.1-0.1c-0.07,0-0.12,0.02-0.15,0.05
		s-0.08,0.05-0.15,0.05c-0.26,0-0.43-0.15-0.5-0.45s-0.17-0.45-0.3-0.45c-0.07,0-0.12,0.02-0.15,0.05s-0.08,0.05-0.15,0.05
		c-0.47,0-0.75-0.25-0.85-0.75s-0.52-1.11-1.25-1.85v-0.2c0-0.07-0.05-0.17-0.15-0.3s-0.15-0.3-0.15-0.5c0-0.07,0.03-0.1,0.1-0.1
		l0.1-0.1c-0.2-0.13-0.28-0.32-0.25-0.55s-0.08-0.51-0.35-0.85c0-0.07,0.03-0.1,0.1-0.1s0.1-0.07,0.1-0.2
		c0-0.53-0.05-1.12-0.15-1.75s-0.15-1.31-0.15-2.05c0-0.93,0.05-1.88,0.15-2.85c0.1-0.96,0.15-1.88,0.15-2.75h-0.1
		c-0.07,0-0.1-0.03-0.1-0.1c0.07,0,0.17-0.23,0.3-0.7c0.07-0.2,0.1-0.43,0.1-0.7c-0.13,0-0.2-0.07-0.2-0.2c0-0.07,0.02-0.2,0.05-0.4
		c0.04-0.2,0.15-0.57,0.35-1.1c0-0.07-0.02-0.13-0.05-0.2c-0.03-0.07-0.05-0.13-0.05-0.2c0-0.07,0.02-0.1,0.05-0.1
		c0.04,0,0.05-0.03,0.05-0.1c0-0.27,0.03-0.5,0.1-0.7s0.13-0.37,0.2-0.5l-0.1-0.1h0.1c0.07-0.33,0.13-0.63,0.2-0.9l0.2-1v0.2
		l-0.2-0.2c0-0.47,0.07-1.05,0.2-1.75s0.28-1.38,0.45-2.05s0.35-1.27,0.55-1.8s0.37-0.87,0.5-1l0.2-0.2c0-0.07-0.03-0.12-0.1-0.15
		s-0.1-0.08-0.1-0.15c0.47-0.73,0.82-1.58,1.05-2.55c0.23-0.96,0.35-1.61,0.35-1.95c0-0.2,0.05-0.5,0.15-0.9s0.22-0.78,0.35-1.15
		s0.25-0.68,0.35-0.95s0.15-0.37,0.15-0.3c0.33-0.33,0.53-0.6,0.6-0.8s0.1-0.4,0.1-0.6c0-0.13-0.02-0.22-0.05-0.25
		s-0.05-0.08-0.05-0.15v-0.2l0.1,0.1c1-2.13,1.6-3.56,1.8-4.3c0.2-0.73,0.3-1.13,0.3-1.2v0.1c0-0.27,0.12-0.68,0.35-1.25
		s0.5-1.15,0.8-1.75s0.56-1.16,0.8-1.7c0.23-0.53,0.35-0.9,0.35-1.1c0.27-0.46,0.45-0.78,0.55-0.95c0.1-0.17,0.15-0.42,0.15-0.75
		c-0.6,0.07-1.33,0.13-2.2,0.2c-0.87,0.07-1.8,0.12-2.8,0.15s-1.96,0.07-2.9,0.1c-0.93,0.03-1.73,0.05-2.4,0.05
		c-0.47,0-0.93-0.23-1.4-0.7c-0.07,0-0.12,0.02-0.15,0.05c-0.03,0.03-0.08,0.05-0.15,0.05c-0.73-0.73-1.08-1.13-1.05-1.2
		s0.02-0.17-0.05-0.3c-0.07,0-0.12,0.02-0.15,0.05c-0.03,0.04-0.08,0.05-0.15,0.05c-0.13,0-0.27-0.12-0.4-0.35
		c-0.13-0.23-0.2-0.42-0.2-0.55c0.93-0.53,1.92-0.83,2.95-0.9s2.18-0.37,3.45-0.9c0.07,0,0.12,0.02,0.15,0.05
		c0.03,0.03,0.08,0.05,0.15,0.05c0.93,0,2.21-0.17,3.85-0.5c1.63-0.33,3.71-0.76,6.25-1.3c0.4-0.33,0.78-0.9,1.15-1.7
		c0.37-0.8,0.62-1.2,0.75-1.2c0.53-1.13,1-2.05,1.4-2.75s0.63-1.12,0.7-1.25c0.53-1,1.13-2.26,1.8-3.8c0.67-1.53,1.36-3.03,2.1-4.5
		c0.73-1.46,1.53-2.73,2.4-3.8c0.86-1.07,1.8-1.6,2.8-1.6s2.05,0.13,3.15,0.4c1.1,0.27,2.06,0.62,2.9,1.05
		c0.83,0.43,1.46,0.9,1.9,1.4C486.91,102.53,486.96,102.98,486.63,103.38z M463.25,129.66c-1.93,4.46-3.4,8.09-4.4,10.89
		s-1.72,4.98-2.15,6.55s-0.71,2.95-0.85,4.15c0,0.73-0.1,1.28-0.3,1.65c-0.2,0.37-0.3,0.62-0.3,0.75s0.02,0.23,0.05,0.3
		s0.05,0.17,0.05,0.3c0,0.33-0.08,0.82-0.25,1.45c-0.17,0.63-0.32,1.18-0.45,1.65c-0.33,1.53-0.6,3.1-0.8,4.7
		c-0.2,1.6-0.3,3.26-0.3,5c0,0.07,0.03,0.1,0.1,0.1c0-0.07,0.03-0.35,0.1-0.85s0.12-1.05,0.15-1.65c0.03-0.6,0.08-1.13,0.15-1.6
		c0.07-0.46,0.1-0.73,0.1-0.8c0-0.67,0.1-1.41,0.3-2.25c0.2-0.83,0.43-1.66,0.7-2.5c0.27-0.83,0.5-1.65,0.7-2.45s0.3-1.53,0.3-2.2
		c0.6-2,1.07-3.65,1.4-4.95s0.6-2.31,0.8-3.05c0.2-0.73,0.37-1.4,0.5-2c-0.07,0.07-0.1,0.17-0.1,0.3c-0.07,0.07-0.1,0.17-0.1,0.3
		v0.1c0.46-1.26,0.81-2.33,1.05-3.2c0.23-0.87,0.43-1.58,0.6-2.15c0.17-0.57,0.35-1.05,0.55-1.45c0.2-0.4,0.5-0.8,0.9-1.2
		c0.6-1.33,1.01-2.28,1.25-2.85c0.23-0.57,0.38-0.96,0.45-1.2c0.07-0.23,0.12-0.43,0.15-0.6c0.03-0.17,0.15-0.52,0.35-1.05
		c0.4-2.06,0.67-3.4,0.8-4c0.13-0.6,0.15-0.76,0.05-0.5c-0.1,0.27-0.3,0.83-0.6,1.7C463.89,127.93,463.58,128.8,463.25,129.66z
		 M468.44,154.05c0.46-0.87,0.85-1.53,1.15-2c0.3-0.46,0.62-0.87,0.95-1.2c0-0.07-0.02-0.12-0.05-0.15s-0.05-0.08-0.05-0.15
		c0-0.13,0.07-0.2,0.2-0.2s0.2-0.03,0.2-0.1c0.2-0.2,0.37-0.5,0.5-0.9s0.33-0.67,0.6-0.8l-0.1-0.2c0-0.6,0.23-1.2,0.7-1.8
		s0.77-0.9,0.9-0.9v0.1c0.2,0,0.38-0.13,0.55-0.4c0.17-0.27,0.33-0.57,0.5-0.9c0.17-0.33,0.28-0.63,0.35-0.9
		c0.07-0.27,0.1-0.43,0.1-0.5c-0.07,0-0.1,0.03-0.1,0.1c0.13-0.07,0.32-0.27,0.55-0.6c0.23-0.33,0.42-0.57,0.55-0.7
		c0-0.07-0.02-0.12-0.05-0.15s-0.05-0.08-0.05-0.15c0-0.67,0.08-1.12,0.25-1.35c0.17-0.23,0.37-0.38,0.6-0.45
		c0.23-0.07,0.43-0.1,0.6-0.1s0.25-0.1,0.25-0.3l-0.1-0.1c-1,1.2-1.72,2.12-2.15,2.75s-0.7,1.1-0.8,1.4c-0.1,0.3-0.13,0.47-0.1,0.5
		c0.03,0.04-0.02,0.02-0.15-0.05c-0.13,0-0.27,0.12-0.4,0.35c-0.13,0.23-0.27,0.48-0.4,0.75c-0.13,0.33-0.27,0.7-0.4,1.1l0.1-0.1
		c-0.67,0.67-1.15,1.2-1.45,1.6c-0.3,0.4-0.5,0.73-0.6,1s-0.15,0.47-0.15,0.6s-0.03,0.23-0.1,0.3c0,1-0.3,1.73-0.9,2.2
		s-0.93,0.7-1,0.7c0,0.6-0.17,1.15-0.5,1.65s-0.57,0.75-0.7,0.75v-0.1c-0.67,0.67-1.13,1.25-1.4,1.75s-0.4,0.82-0.4,0.95l0.1,0.2
		c-0.8,0.8-1.32,1.38-1.55,1.75c-0.23,0.37-0.35,0.62-0.35,0.75s0.03,0.22,0.1,0.25s0.1,0.12,0.1,0.25s-0.07,0.3-0.2,0.5
		s-0.43,0.53-0.9,1s-0.8,0.88-1,1.25s-0.33,0.67-0.4,0.9s-0.1,0.42-0.1,0.55s-0.07,0.2-0.2,0.2c-0.53,0.93-0.95,1.67-1.25,2.2
		s-0.53,0.97-0.7,1.3s-0.28,0.62-0.35,0.85c-0.07,0.23-0.1,0.48-0.1,0.75c0,0.07,0.03,0.1,0.1,0.1c1.33-2.8,2.8-5.51,4.4-8.14
		S466.84,156.71,468.44,154.05z M469.24,118.87c0.07,0,0.2-0.27,0.4-0.8c0.2-0.53,0.4-0.8,0.6-0.8v-0.3c0.53-0.53,1-1.12,1.4-1.75
		s0.71-1.23,0.95-1.8c0.23-0.56,0.48-1.21,0.75-1.95c0-0.27,0.13-0.65,0.4-1.15s0.58-0.98,0.95-1.45c0.37-0.46,0.82-1.06,1.35-1.8
		c0.2-0.46,0.38-0.8,0.55-1c0.17-0.2,0.25-0.5,0.25-0.9c0-0.2-0.03-0.33-0.1-0.4c-0.33,0.53-0.77,1.25-1.3,2.15s-1.07,1.8-1.6,2.7
		s-1,1.65-1.4,2.25s-0.6,0.87-0.6,0.8c0,0.07,0.02,0.12,0.05,0.15c0.03,0.04,0.05,0.08,0.05,0.15c-0.13,0.13-0.38,0.5-0.75,1.1
		s-0.73,1.25-1.1,1.95s-0.7,1.35-1,1.95s-0.45,0.93-0.45,1s0.03,0.1,0.1,0.1C468.74,118.94,468.91,118.87,469.24,118.87z"/>
	<path class="st1" d="M506.51,139.46c0.53,0,0.95,0.1,1.25,0.3s0.58,0.47,0.85,0.8c-0.33,0.8-0.82,1.7-1.45,2.7s-1.25,1.93-1.85,2.8
		c-0.6,0.87-1.12,1.62-1.55,2.25s-0.62,0.98-0.55,1.05c-0.8,1-1.32,1.73-1.55,2.2c-0.23,0.47-0.38,0.82-0.45,1.05
		s-0.15,0.48-0.25,0.75s-0.45,0.7-1.05,1.3c0,0.47-0.08,0.8-0.25,1s-0.32,0.37-0.45,0.5c-0.2,0.13-0.4,0.23-0.6,0.3l0.1,0.2
		c0,0.13-0.07,0.18-0.2,0.15s-0.2,0.12-0.2,0.45c0,0.07,0.03,0.13,0.1,0.2c-0.93,0.93-1.52,1.87-1.75,2.8
		c-0.23,0.93-0.48,1.4-0.75,1.4c-0.07,0-0.13-0.03-0.2-0.1c0,0.07,0.03,0.13,0.1,0.2l-0.1,0.1l-0.1-0.1c0,1.13-0.28,1.92-0.85,2.35
		c-0.57,0.43-0.85,0.82-0.85,1.15c-0.73,0.73-1.17,1.28-1.3,1.65c-0.13,0.37-0.2,0.62-0.2,0.75l0.1-0.2c0,0.2-0.08,0.47-0.25,0.8
		s-0.37,0.68-0.6,1.05c-0.23,0.37-0.43,0.7-0.6,1s-0.25,0.52-0.25,0.65c-1.33,2.67-2.23,4.36-2.7,5.1c-0.47,0.73-0.73,1.1-0.8,1.1
		v-0.2c-0.13,0-0.3,0.21-0.5,0.65c-0.2,0.43-0.48,0.9-0.85,1.4s-0.8,0.95-1.3,1.35c-0.5,0.4-1.08,0.6-1.75,0.6
		c-1.53,0-2.53-0.17-3-0.5s-0.7-0.57-0.7-0.7l0.1,0.1c0-0.2-0.12-0.3-0.35-0.3s-0.53-0.05-0.9-0.15c-0.37-0.1-0.8-0.37-1.3-0.8
		c-0.5-0.43-1.01-1.15-1.55-2.15c-0.2,0-0.4-0.38-0.6-1.15c-0.2-0.76-0.3-1.71-0.3-2.85c0-0.4,0.07-0.6,0.2-0.6
		c0-0.13-0.03-0.18-0.1-0.15c-0.07,0.04-0.1,0.02-0.1-0.05c0-0.13,0.03-0.2,0.1-0.2h0.1c-0.07-0.13-0.1-0.23-0.1-0.3
		c0-0.13,0.03-0.3,0.1-0.5c0-0.13-0.02-0.25-0.05-0.35s-0.05-0.22-0.05-0.35c0-0.33,0.1-0.5,0.3-0.5c0-0.13-0.05-0.22-0.15-0.25
		s-0.15-0.12-0.15-0.25c0-0.33,0.13-1.05,0.4-2.15c0.27-1.1,0.62-2.4,1.05-3.9s0.92-3.06,1.45-4.7c0.53-1.63,1.01-3.15,1.45-4.55
		c0.43-1.4,0.82-2.55,1.15-3.45s0.53-1.35,0.6-1.35c0.4-0.33,0.83-1.13,1.3-2.4c0.47-1.26,1.03-2.66,1.7-4.2
		c-0.73-0.13-1.42-0.2-2.05-0.2c-0.63,0-1.27-0.07-1.9-0.2c-0.63-0.13-1.3-0.38-2-0.75s-1.48-0.98-2.35-1.85
		c-1.33-0.67-2.13-1.31-2.4-1.95c-0.27-0.63-0.4-1.28-0.4-1.95c0-0.26,0.03-0.53,0.1-0.8s0.1-0.47,0.1-0.6l-0.2-0.1
		c0-1.33,0.2-2.16,0.6-2.5c0.4-0.33,0.6-0.63,0.6-0.9c0-1.06,0.33-1.96,1-2.7c0.67-0.73,1.03-1.1,1.1-1.1c0-0.13-0.02-0.2-0.05-0.2
		s-0.05-0.03-0.05-0.1c0-0.2,0.22-0.42,0.65-0.65s0.65-0.65,0.65-1.25c0.47-1.07,1.3-1.65,2.5-1.75s2.36,0.03,3.5,0.4
		c1.13,0.37,2.06,0.83,2.8,1.4c0.73,0.57,0.9,0.95,0.5,1.15c-0.07,0-0.3,0.3-0.7,0.9c-0.4,0.6-0.6,0.93-0.6,1
		c-0.13,0.13-0.33,0.33-0.6,0.6c-0.27,0.27-0.4,0.6-0.4,1l-0.1-0.1c0,0.27-0.03,0.4-0.1,0.4s-0.1,0.03-0.1,0.1s0.03,0.13,0.1,0.2
		c-0.27,0-0.48,0.22-0.65,0.65c-0.17,0.43-0.33,0.92-0.5,1.45s-0.32,1.02-0.45,1.45s-0.3,0.65-0.5,0.65c-0.33,0.2-0.5,0.55-0.5,1.05
		s-0.2,1.18-0.6,2.05c0.13,0.13,0.57,0.2,1.3,0.2c1.07,0,1.8-0.07,2.2-0.2c0.4-0.13,1.16-0.2,2.3-0.2c0.53,0,1.13,0.08,1.8,0.25
		c0.67,0.17,1.26,0.35,1.8,0.55c0.67,0.27,1.3,0.53,1.9,0.8c0.33,0.33,0.62,0.68,0.85,1.05c0.23,0.37,0.35,0.85,0.35,1.45
		c0,0.93-0.15,1.82-0.45,2.65c-0.3,0.83-0.45,1.22-0.45,1.15c0,0.07-0.12,0.38-0.35,0.95c-0.23,0.57-0.55,1.42-0.95,2.55
		c-0.33,0.33-0.6,0.72-0.8,1.15c-0.2,0.43-0.35,0.87-0.45,1.3c-0.1,0.43-0.22,0.95-0.35,1.55c0,0.13-0.08,0.37-0.25,0.7
		s-0.32,0.67-0.45,1c-0.27,0.4-0.5,0.87-0.7,1.4c0,0.13-0.05,0.32-0.15,0.55s-0.22,0.45-0.35,0.65c-1.13,3.06-2.1,5.96-2.9,8.69
		s-1.43,5.6-1.9,8.59c0.07,0,0.1-0.03,0.1-0.1c0-0.33,0.23-0.68,0.7-1.05c0.47-0.37,0.7-0.78,0.7-1.25
		c0.93-1.67,1.58-2.78,1.95-3.35c0.37-0.57,0.65-0.95,0.85-1.15s0.38-0.42,0.55-0.65c0.17-0.23,0.48-0.92,0.95-2.05
		c1.2-1.2,1.85-2.05,1.95-2.55s0.28-0.92,0.55-1.25c0.46-0.86,0.85-1.56,1.15-2.1s0.51-0.97,0.65-1.3c0.2-0.33,0.33-0.56,0.4-0.7
		v0.2c0-0.07,0.03-0.17,0.1-0.3s0.33-0.43,0.8-0.9l-0.1-0.2c0-0.07,0.13-0.3,0.4-0.7s0.63-0.83,1.1-1.3c0-0.07-0.02-0.12-0.05-0.15
		c-0.04-0.03-0.05-0.08-0.05-0.15c0-0.33,0.18-0.63,0.55-0.9c0.37-0.27,0.55-0.43,0.55-0.5h-0.2c1.26-1.8,2.06-2.96,2.4-3.5
		c0.33-0.53,0.53-0.87,0.6-1s0.18-0.28,0.35-0.45s0.68-0.78,1.55-1.85c0-0.07-0.03-0.13-0.1-0.2c0-0.07,0.18-0.37,0.55-0.9
		s0.8-1.1,1.3-1.7c0.5-0.6,1-1.15,1.5-1.65s0.85-0.75,1.05-0.75c0.13,0,0.18,0.03,0.15,0.1c-0.03,0.07,0.02,0.1,0.15,0.1
		c0.07,0,0.2-0.03,0.4-0.1C506.21,139.49,506.38,139.46,506.51,139.46z M475.73,132.16c0-0.4,0.22-0.87,0.65-1.4s0.65-0.87,0.65-1
		c0-0.07-0.03-0.1-0.1-0.1h0.2c1.2-2,1.86-3.26,2-3.8c0.13-0.53,0.02-0.65-0.35-0.35s-0.82,0.83-1.35,1.6s-0.87,1.42-1,1.95
		c-0.07,0-0.17,0.17-0.3,0.5c-0.07,0.2-0.1,0.37-0.1,0.5v-0.2c0,0.07,0.02,0.12,0.05,0.15s0.05,0.08,0.05,0.15
		c-0.2,0-0.3,0.03-0.3,0.1s0.03,0.13,0.1,0.2c-0.07,0-0.15,0.18-0.25,0.55c-0.1,0.37-0.2,0.77-0.3,1.2c-0.1,0.43-0.21,0.83-0.35,1.2
		c-0.13,0.37-0.27,0.55-0.4,0.55v-0.2c0,0.13,0.02,0.25,0.05,0.35s0.05,0.22,0.05,0.35c0,0.07-0.03,0.15-0.1,0.25
		s-0.1,0.18-0.1,0.25c0,0.13,0.07,0.2,0.2,0.2c0.13-0.53,0.28-1.03,0.45-1.5S475.53,132.7,475.73,132.16z M477.63,167.14
		c1.06-3.33,1.68-5.63,1.85-6.89s0.35-1.9,0.55-1.9c0.67-1.26,1.03-2.23,1.1-2.9s0.3-1.2,0.7-1.6c0-0.07-0.02-0.12-0.05-0.15
		s-0.05-0.08-0.05-0.15c0-0.2,0.08-0.48,0.25-0.85c0.17-0.37,0.33-0.7,0.5-1s0.32-0.55,0.45-0.75s0.17-0.27,0.1-0.2
		c0-0.07-0.02-0.12-0.05-0.15s-0.05-0.08-0.05-0.15c0,0.07,0.08-0.08,0.25-0.45s0.35-0.76,0.55-1.2c0.2-0.43,0.38-0.85,0.55-1.25
		c0.17-0.4,0.25-0.63,0.25-0.7v-0.3c0.4-0.4,0.72-0.87,0.95-1.4s0.43-1.03,0.6-1.5s0.27-0.85,0.3-1.15c0.03-0.3,0.05-0.42,0.05-0.35
		c0-0.07-0.13-0.1-0.4-0.1s-0.48,0.17-0.65,0.5c-0.17,0.33-0.3,0.72-0.4,1.15s-0.18,0.82-0.25,1.15c-0.07,0.33-0.2,0.5-0.4,0.5v-0.1
		c0,0.07,0.02,0.12,0.05,0.15c0.03,0.04,0.05,0.08,0.05,0.15c-0.2,0.2-0.38,0.45-0.55,0.75c-0.17,0.3-0.25,0.52-0.25,0.65
		c0,0.07,0.02,0.12,0.05,0.15s0.05,0.08,0.05,0.15c-1,1-1.85,2.48-2.55,4.45c-0.7,1.97-1.33,4.01-1.9,6.15
		c-0.57,2.13-1.05,4.16-1.45,6.1c-0.4,1.93-0.76,3.33-1.1,4.2c0,0.4-0.03,0.6-0.1,0.6s-0.1,0.07-0.1,0.2c0,0.07,0.02,0.12,0.05,0.15
		s0.05,0.08,0.05,0.15c-0.13,0.73-0.2,1.35-0.2,1.85s0,1.08,0,1.75c0,0.93,0.07,1.4,0.2,1.4c0.13-1.2,0.28-2.45,0.45-3.75
		C477.25,169.18,477.43,168.07,477.63,167.14z M483.33,175.63c0.4-0.86,0.72-1.43,0.95-1.7s0.43-0.47,0.6-0.6s0.3-0.27,0.4-0.4
		c0.1-0.13,0.25-0.5,0.45-1.1l0.4-0.4c0-0.07-0.02-0.1-0.05-0.1s-0.05-0.03-0.05-0.1c0-0.13,0.07-0.2,0.2-0.2s0.2-0.03,0.2-0.1
		c0.8-1.66,1.46-2.98,2-3.95c0.53-0.96,0.96-1.7,1.3-2.2c0.33-0.5,0.57-0.83,0.7-1s0.26-0.31,0.4-0.45c0-0.07-0.02-0.12-0.05-0.15
		s-0.05-0.08-0.05-0.15c0-0.07,0.05-0.1,0.15-0.1s0.18-0.03,0.25-0.1c0.6-1.2,1.01-1.96,1.25-2.3c0.23-0.33,0.38-0.5,0.45-0.5
		c0,0.07-0.04,0.1-0.1,0.1c0.87-1.6,1.5-2.75,1.9-3.45s0.75-1.28,1.05-1.75s0.65-1.02,1.05-1.65c0.4-0.63,1.07-1.68,2-3.15
		c0-0.27,0.03-0.38,0.1-0.35s0.17-0.02,0.3-0.15l-0.1-0.2c0-0.13,0.08-0.23,0.25-0.3s0.25-0.13,0.25-0.2l-0.1-0.1
		c0.73-0.73,1.2-1.25,1.4-1.55c0.2-0.3,0.32-0.5,0.35-0.6s0.05-0.18,0.05-0.25s0.17-0.27,0.5-0.6l-0.1-0.2
		c0-0.13,0.12-0.28,0.35-0.45s0.35-0.32,0.35-0.45l-0.1-0.1c-1.87,2.67-3.08,4.41-3.65,5.25c-0.57,0.83-0.85,1.28-0.85,1.35l0.5-0.7
		c-0.4,1-0.9,1.82-1.5,2.45c-0.6,0.63-0.9,1.02-0.9,1.15c-0.33,0.67-0.77,1.48-1.3,2.45s-1.05,1.87-1.55,2.7s-0.93,1.53-1.3,2.1
		s-0.55,0.82-0.55,0.75c0,0.13-0.02,0.18-0.05,0.15s-0.08-0.02-0.15,0.05c-0.8,1.2-1.37,2.2-1.7,3c-0.33,0.8-0.57,1.43-0.7,1.9
		s-0.27,0.8-0.4,1s-0.4,0.3-0.8,0.3c-0.73,0.73-1.2,1.33-1.4,1.8c-0.2,0.47-0.32,0.85-0.35,1.15c-0.03,0.3-0.05,0.52-0.05,0.65
		c0,0.13-0.17,0.2-0.5,0.2c0,0.33-0.22,0.73-0.65,1.2s-0.65,0.77-0.65,0.9c0,0.07,0.03,0.1,0.1,0.1c-0.27,0-0.5,0.25-0.7,0.75
		s-0.33,0.75-0.4,0.75v-0.1l0.1,0.2c-0.07,0.07-0.13,0.1-0.2,0.1s-0.1,0.04-0.1,0.1c0,0.07,0.03,0.1,0.1,0.1
		c0.13-0.13,0.25-0.27,0.35-0.4C483.08,175.9,483.19,175.76,483.33,175.63z M503.61,142.95c0.07,0,0.1-0.07,0.1-0.2
		c-0.13,0-0.33,0.18-0.6,0.55c-0.27,0.37-0.43,0.55-0.5,0.55c0,0.07,0.02,0.12,0.05,0.15c0.03,0.03,0.05,0.08,0.05,0.15
		c-0.07,0.07-0.13,0.1-0.2,0.1s-0.1,0.03-0.1,0.1s0.03,0.1,0.1,0.1c0.13-0.27,0.32-0.5,0.55-0.7
		C503.3,143.55,503.48,143.29,503.61,142.95z M504.61,141.55c-0.13,0.07-0.27,0.13-0.4,0.2c-0.13,0.07-0.2,0.13-0.2,0.2
		c0,0.07,0.02,0.12,0.05,0.15c0.03,0.03,0.05,0.08,0.05,0.15c-0.07,0.07-0.13,0.1-0.2,0.1s-0.1,0.04-0.1,0.1
		c0,0.07,0.03,0.1,0.1,0.1c0.13-0.2,0.28-0.38,0.45-0.55C504.53,141.84,504.61,141.69,504.61,141.55z"/>
	<path class="st1" d="M522.5,132.26c0.2-0.13,0.82-0.21,1.85-0.25c1.03-0.03,2.15-0.03,3.35,0c1.2,0.04,2.33,0.07,3.4,0.1
		c1.06,0.03,1.76,0.05,2.1,0.05c0.4,0,0.9,0.07,1.5,0.2c0.6,0.13,1.18,0.33,1.75,0.6s1.03,0.55,1.4,0.85s0.55,0.62,0.55,0.95
		s-0.37,0.62-1.1,0.85c-0.73,0.23-1.58,0.43-2.55,0.6c-0.97,0.17-1.9,0.28-2.8,0.35c-0.9,0.07-1.48,0.1-1.75,0.1
		c-0.4,0-1.22,0.1-2.45,0.3c-1.23,0.2-2.25,0.3-3.05,0.3c-0.07,0.07-0.1,0.13-0.1,0.2c0,0.4,0.1,0.9,0.3,1.5s0.3,1.63,0.3,3.1
		c0,1.67-0.07,2.67-0.2,3s-0.2,0.57-0.2,0.7c0,0.13,0.02,0.23,0.05,0.3c0.03,0.07,0.05,0.17,0.05,0.3s-0.07,0.37-0.2,0.7
		s-0.28,0.68-0.45,1.05c-0.17,0.37-0.32,0.73-0.45,1.1c-0.13,0.37-0.2,0.58-0.2,0.65c0,0.07,0.03,0.1,0.1,0.1l-0.1-0.1
		c-0.4,0.73-0.63,1.2-0.7,1.4s-0.1,0.4-0.1,0.6c0,0.07,0.02,0.12,0.05,0.15c0.03,0.03,0.05,0.08,0.05,0.15
		c-0.87,0.87-1.33,1.45-1.4,1.75s-0.1,0.58-0.1,0.85l-0.6,0.8c-0.4,0.53-0.6,0.87-0.6,1c0,0.07,0.03,0.13,0.1,0.2l-0.1,0.1l-0.1-0.1
		c-0.6,1.33-1.12,2.33-1.55,3s-0.77,1.13-1,1.4c-0.23,0.27-0.42,0.43-0.55,0.5s-0.2,0.2-0.2,0.4c-0.07,0-0.1-0.02-0.1-0.05
		s-0.03-0.05-0.1-0.05c0,0.67-0.27,1.37-0.8,2.1c-0.53,0.73-1.12,1.4-1.75,2s-1.52,1.3-2.65,2.1l0.2-0.1h-0.1
		c-0.13,0-0.47,0.28-1,0.85s-1.63,0.85-3.3,0.85c-1.47,0-2.52-0.42-3.15-1.25s-1.28-1.61-1.95-2.35c0-0.07-0.07-0.1-0.2-0.1
		s-0.2-0.07-0.2-0.2c0-0.07,0.03-0.13,0.1-0.2c-0.6-0.6-1.23-1.28-1.9-2.05c-0.67-0.77-0.96-1.21-0.9-1.35c0.13,0,0.2-0.1,0.2-0.3
		c-0.2-0.13-0.4-0.63-0.6-1.5c-0.2-0.86-0.3-1.8-0.3-2.8c0-1.53,0.1-2.75,0.3-3.65c0.2-0.9,0.42-1.6,0.65-2.1
		c0.23-0.5,0.45-0.9,0.65-1.2c0.2-0.3,0.3-0.62,0.3-0.95c0-0.13,0.05-0.22,0.15-0.25s0.18-0.08,0.25-0.15c0-0.07-0.02-0.1-0.05-0.1
		s-0.05-0.03-0.05-0.1c0.07-0.2,0.17-0.43,0.3-0.7c0.13-0.26,0.23-0.43,0.3-0.5c0.07-0.07,0.1-0.13,0.1-0.2
		c0-0.07-0.02-0.12-0.05-0.15s-0.05-0.08-0.05-0.15c0-0.4,0.25-0.87,0.75-1.4s0.72-0.8,0.65-0.8c0.27-1.26,0.76-2.51,1.5-3.75
		c0.73-1.23,1.48-2.35,2.25-3.35c0.76-1,1.75-2.1,2.95-3.3c0.27-0.47,0.6-0.95,1-1.45s0.82-0.93,1.25-1.3
		c0.43-0.37,0.82-0.67,1.15-0.9s0.53-0.35,0.6-0.35c0.8-0.8,1.36-1.23,1.7-1.3c0.33-0.07,0.5-0.17,0.5-0.3
		c0.2-0.13,0.4-0.25,0.6-0.35c0.2-0.1,0.53-0.15,1-0.15c1.13,0,1.92,0.12,2.35,0.35c0.43,0.23,0.73,0.47,0.9,0.7
		c0.17,0.23,0.32,0.47,0.45,0.7s0.47,0.35,1,0.35c0,0.07-0.02,0.12-0.05,0.15c-0.04,0.03-0.05,0.08-0.05,0.15l0.4,0.6
		C522.13,131.96,522.3,132.13,522.5,132.26z M508.91,139.86c0-0.13,0.05-0.23,0.15-0.3c0.1-0.07,0.15-0.2,0.15-0.4
		c1.06-1.07,1.76-1.78,2.1-2.15c0.33-0.37,0.5-0.62,0.5-0.75l-0.1-0.1h-0.1c0-0.07,0.07-0.17,0.2-0.3c1.86-1.86,3.1-3.1,3.7-3.7
		s0.93-0.9,1-0.9c0,0.07-0.07,0.17-0.2,0.3l-0.2,0.2c0-0.07,0.25-0.33,0.75-0.8s0.81-0.7,0.95-0.7h0.1c0-0.07-0.07-0.1-0.2-0.1
		c-0.4,0-0.75,0.15-1.05,0.45s-0.52,0.45-0.65,0.45v-0.1c-0.4,0.13-0.72,0.33-0.95,0.6c-0.23,0.27-0.38,0.4-0.45,0.4v-0.1
		c0-0.07-0.25,0.27-0.75,1s-1.08,1.53-1.75,2.4s-1.32,1.67-1.95,2.4s-1.05,1.1-1.25,1.1c-0.33,0.8-0.62,1.32-0.85,1.55
		s-0.42,0.42-0.55,0.55c-0.8,1.27-1.38,2.27-1.75,3s-0.65,1.32-0.85,1.75c-0.2,0.43-0.35,0.77-0.45,1c-0.1,0.23-0.25,0.45-0.45,0.65
		c0,0.13-0.07,0.23-0.2,0.3s-0.2,0.13-0.2,0.2c0,0.07,0.02,0.13,0.05,0.2c0.03,0.07,0.05,0.13,0.05,0.2c-0.4,0.4-0.7,0.82-0.9,1.25
		s-0.37,0.82-0.5,1.15c-0.13,0.4-0.2,0.8-0.2,1.2v-0.1c0,0.13,0.07,0.23,0.2,0.3c0.87-2.26,1.85-4.4,2.95-6.4
		C506.36,143.55,507.58,141.65,508.91,139.86z M507.11,163.34c0.13,0,0.18-0.02,0.15-0.05c-0.03-0.03-0.02-0.08,0.05-0.15
		c0.07,0,0.12,0.02,0.15,0.05s0.08,0.05,0.15,0.05c0.33,0,0.65-0.12,0.95-0.35s0.55-0.48,0.75-0.75s0.4-0.6,0.6-1
		c0.73-0.73,1.25-1.28,1.55-1.65s0.52-0.65,0.65-0.85c0.13-0.2,0.2-0.35,0.2-0.45s0.07-0.22,0.2-0.35c1.33-2,2.23-3.3,2.7-3.9
		c0.47-0.6,0.73-0.9,0.8-0.9c0,0.07-0.02,0.12-0.05,0.15c-0.03,0.03-0.05,0.08-0.05,0.15c-0.07,0.07-0.1,0.13-0.1,0.2l-0.1-0.1
		c0-0.2,0.12-0.48,0.35-0.85c0.23-0.37,0.47-0.71,0.7-1.05c0.23-0.33,0.47-0.65,0.7-0.95c0.23-0.3,0.35-0.51,0.35-0.65l-0.1-0.1
		c0-0.53,0.2-1.06,0.6-1.6c0.4-0.53,0.6-0.83,0.6-0.9c-0.13,0-0.17-0.03-0.1-0.1s0.03-0.1-0.1-0.1c-0.27,0.67-0.7,1.45-1.3,2.35
		s-1.2,1.77-1.8,2.6s-1.12,1.58-1.55,2.25s-0.65,1.07-0.65,1.2c-0.4,0.8-0.75,1.28-1.05,1.45s-0.45,0.32-0.45,0.45l0.1,0.2
		c-1.2,1.2-2.17,2.17-2.9,2.9c-0.73,0.73-1.3,1.28-1.7,1.65s-0.65,0.62-0.75,0.75s-0.15,0.23-0.15,0.3c0.07,0.07,0.1,0.13,0.1,0.2
		c0,0.07,0.03,0.1,0.1,0.1s0.13-0.03,0.2-0.1C506.98,163.37,507.04,163.34,507.11,163.34z M509.01,158.24c0-0.27,0.25-0.67,0.75-1.2
		s1.02-1.06,1.55-1.6c0-0.07-0.02-0.12-0.05-0.15c-0.03-0.03-0.05-0.08-0.05-0.15c0-0.13,0.18-0.42,0.55-0.85
		c0.37-0.43,0.78-0.9,1.25-1.4s0.88-0.98,1.25-1.45c0.37-0.46,0.55-0.76,0.55-0.9c0-0.07-0.03-0.1-0.1-0.1c0-0.13,0.07-0.27,0.2-0.4
		c0.13-0.13,0.27-0.23,0.4-0.3c0-0.07-0.02-0.12-0.05-0.15c-0.04-0.03-0.05-0.08-0.05-0.15c0-0.73,0.27-1.26,0.8-1.6
		c0.53-0.33,0.8-0.7,0.8-1.1c0.73-1.73,1.26-3.11,1.6-4.15c0.33-1.03,0.5-1.61,0.5-1.75c0-0.33,0.03-0.68,0.1-1.05
		c0.07-0.37,0.1-0.71,0.1-1.05c0-0.2-0.02-0.5-0.05-0.9c-0.03-0.4-0.12-0.6-0.25-0.6c-0.2,0-0.47,0.22-0.8,0.65s-0.65,0.93-0.95,1.5
		s-0.57,1.07-0.8,1.5s-0.38,0.65-0.45,0.65v-0.1c0,0.27-0.1,0.53-0.3,0.8s-0.4,0.5-0.6,0.7c-0.27,0.27-0.53,0.53-0.8,0.8l0.1-0.1
		v0.2c0,0.13-0.17,0.43-0.5,0.9s-0.53,0.7-0.6,0.7c0,0.07,0.02,0.12,0.05,0.15c0.03,0.03,0.05,0.08,0.05,0.15
		c-0.13,0.13-0.25,0.3-0.35,0.5s-0.22,0.37-0.35,0.5l-0.4,0.6c-0.07,0-0.1-0.03-0.1-0.1l-0.1,0.1c0,0.07,0.02,0.12,0.05,0.15
		c0.03,0.03,0.05,0.08,0.05,0.15c-1.07,1.07-1.72,1.88-1.95,2.45c-0.23,0.57-0.35,1.02-0.35,1.35v0.4c0,0.33-0.12,0.8-0.35,1.4
		c-0.23,0.6-0.5,1.18-0.8,1.75s-0.65,1.28-1.05,2.15c0.07,0,0.1,0.1,0.1,0.3c0,0.73-0.13,1.23-0.4,1.5s-0.4,0.73-0.4,1.4
		c0,0.2,0.07,0.3,0.2,0.3c0.6-0.93,1.27-1.7,2-2.3L509.01,158.24L509.01,158.24z"/>
</g>
</svg>
