<?xml version="1.0" encoding="utf-8"?>
<!-- Generator: Adobe Illustrator 23.0.3, SVG Export Plug-In . SVG Version: 6.00 Build 0)  -->
<svg version="1.1" id="Layer_1" xmlns="http://www.w3.org/2000/svg" xmlns:xlink="http://www.w3.org/1999/xlink" x="0px" y="0px"
	 viewBox="0 0 606.14 199.47" style="enable-background:new 0 0 606.14 199.47;" xml:space="preserve">
<style type="text/css">
	.st0{fill:#BECDE4;}
	.st1{fill:#231F20;}
</style>
<g>
	<g>
		<path class="st0" d="M509.49,46.45c0.41-0.31,0.75-0.57,1.01-0.78c0.26-0.2,0.59-0.67,1.01-1.4c-0.41,0-0.6,0.08-0.54,0.23
			c0.05,0.15-0.13,0.23-0.54,0.23c0,0.11,0.02,0.16,0.08,0.16c0.05,0,0.08,0.05,0.08,0.16c-0.62,0.83-1.4,1.68-2.33,2.56
			c-0.93,0.88-1.4,1.43-1.4,1.63h0.31c-0.11,0.11-0.31,0.36-0.62,0.77c-0.31,0.42-1.19,1.35-2.64,2.8c-0.73,0.52-1.27,0.98-1.63,1.4
			s-0.7,0.85-1.01,1.32s-0.47,0.91-0.47,1.32c0,0.31-0.08,0.44-0.23,0.39c-0.16-0.05-0.44,0.08-0.86,0.39
			c-0.41,0.31-0.96,0.91-1.63,1.79c-0.68,0.88-1.48,2.41-2.41,4.58c-1.76,2.38-3.26,4.4-4.51,6.06c-1.24,1.66-1.86,2.54-1.86,2.64
			c-0.21,0.42-0.91,1.14-2.1,2.18s-2,2.23-2.41,3.57c0.21,0,0.33,0.03,0.39,0.08c0.05,0.05,0.13,0.08,0.23,0.08h0.16
			c0-0.31,0.15-0.7,0.47-1.16c0.31-0.47,0.8-1.11,1.48-1.94c0.67-0.83,1.73-1.97,3.18-3.42c-0.1,0.11-0.16,0.21-0.16,0.31
			c0.52,0,0.98-0.54,1.4-1.63c0.41-1.09,0.93-1.94,1.55-2.56c0-0.1,0.18-0.34,0.55-0.7c0.36-0.36,0.72-0.78,1.09-1.24
			c0.36-0.47,0.72-0.93,1.09-1.4c0.36-0.47,0.54-0.86,0.54-1.16c0-0.1,0.29-0.57,0.86-1.4s0.95-1.24,1.16-1.24
			c0.31-0.93,0.62-1.53,0.93-1.79s0.7-0.57,1.16-0.93c0.47-0.36,1.01-0.93,1.63-1.71s1.4-2.1,2.33-3.96
			c0.62-0.62,0.98-1.06,1.09-1.32c0.1-0.26,0.23-0.55,0.39-0.86c0.15-0.31,0.41-0.75,0.77-1.32
			C507.45,48.61,508.25,47.7,509.49,46.45 M485.18,38.38c0.47-1.03,0.98-2.1,1.56-3.19c0.57-1.09,1.14-2.04,1.71-2.87
			c0.57-0.83,0.95-1.35,1.16-1.56c0-0.1-0.03-0.18-0.08-0.23c-0.05-0.05-0.08-0.13-0.08-0.23s0.08-0.18,0.23-0.23
			c0.15-0.05,0.23-0.18,0.23-0.39c0-0.1-0.05-0.21-0.15-0.31c-0.21,0.52-0.49,0.98-0.86,1.4c-0.36,0.41-0.7,0.88-1.01,1.4
			c-0.62,0.93-1.14,1.71-1.56,2.33c-0.41,0.62-0.8,1.24-1.16,1.86s-0.54,1.09-0.54,1.4l0.16,0.31c-1.45,3.01-2.62,5.62-3.5,7.84
			c-0.88,2.23-1.63,4.35-2.25,6.37s-1.14,4.04-1.55,6.06s-0.78,4.27-1.09,6.76c0.62-3.73,1.32-6.91,2.1-9.56
			c0.78-2.64,1.5-4.84,2.17-6.6c0.68-1.76,1.27-3.16,1.79-4.19s0.83-1.81,0.93-2.33l0.16,0.16c0.1,0,0.16-0.05,0.16-0.16v-0.31
			l0.31-0.15l-0.16-0.31c0-0.11,0.05-0.21,0.16-0.31l0.47-0.47C484.48,40.24,484.72,39.41,485.18,38.38 M479.98,30.76
			c0.72-0.72,1.68-1.6,2.87-2.64c1.19-1.03,2.35-2.07,3.49-3.1c1.14-1.04,2.15-1.99,3.03-2.88c0.88-0.88,1.37-1.53,1.48-1.94
			c-0.31,0-0.78,0.26-1.4,0.77c-0.62,0.52-1.32,1.11-2.1,1.79c-0.78,0.68-1.56,1.4-2.33,2.18c-0.77,0.78-1.47,1.42-2.1,1.94
			c0.1,0,0.16-0.05,0.16-0.16c0,0.11-0.29,0.44-0.86,1.01s-1.16,1.19-1.79,1.86c-0.62,0.68-1.22,1.3-1.79,1.86
			c-0.57,0.57-0.86,0.91-0.86,1.01c-3.11,3.11-5.64,5.8-7.61,8.08s-3.63,4.27-4.97,5.98c-1.35,1.71-2.54,3.24-3.57,4.58
			c-1.04,1.35-2.18,2.64-3.42,3.88c0,0.42,0.1,0.62,0.31,0.62c0.41-0.41,0.65-0.7,0.7-0.86c0.05-0.16,0.13-0.39,0.23-0.7
			s0.39-0.75,0.86-1.32s1.37-1.53,2.72-2.87c1.24-1.86,2.22-3.21,2.95-4.04c0.73-0.83,1.37-1.53,1.94-2.1s1.14-1.11,1.71-1.63
			c0.57-0.52,1.32-1.34,2.25-2.48c1.65-1.66,3.05-3.19,4.19-4.58C477.23,33.64,478.53,32.22,479.98,30.76 M456.36,34.03
			c0-0.1,0.1-0.36,0.31-0.78c0.21-0.41,0.31-0.72,0.31-0.93l-0.15-0.16c-0.62,0-1.16,0.52-1.63,1.55c-0.47,1.04-0.93,2.36-1.4,3.96
			c-0.47,1.61-1.01,3.34-1.63,5.2c-0.62,1.86-1.35,3.63-2.17,5.28c0,0.21-0.03,0.31-0.08,0.31c-0.05,0-0.08,0.05-0.08,0.16
			c-0.31,0.62-0.62,1.37-0.93,2.25s-0.57,1.74-0.78,2.56c-0.21,0.83-0.47,1.76-0.78,2.8c0,0.21,0.02,0.37,0.08,0.47
			c0.05,0.11,0.08,0.21,0.08,0.31c-0.11,1.14-0.26,2.05-0.47,2.72s-0.39,1.24-0.54,1.71c-0.16,0.47-0.31,0.88-0.47,1.24
			c-0.16,0.36-0.23,0.8-0.23,1.32l0.31,0.62c0-1.66,0.18-2.87,0.55-3.65c0.36-0.77,0.54-1.42,0.54-1.94c0.2,0,0.26-0.16,0.15-0.47
			s-0.05-0.47,0.16-0.47c0-0.31,0.41-1.24,1.24-2.8s1.24-3.31,1.24-5.28c0.1-0.62,0.44-1.65,1.01-3.1s1.19-3.01,1.86-4.66
			s1.35-3.23,2.02-4.74C455.56,36.02,456.05,34.86,456.36,34.03 M447.97,31.69c0.72-0.72,1.56-1.55,2.49-2.48
			c0.93-0.93,1.81-1.81,2.64-2.64c0.83-0.83,1.81-1.81,2.95-2.95l-0.16-0.31c-2.28,1.77-4.43,3.76-6.45,5.98s-4.07,4.37-6.14,6.45
			c0,0.21-0.21,0.52-0.62,0.93s-0.86,0.85-1.32,1.32s-0.96,0.91-1.47,1.32c-0.52,0.42-0.83,0.78-0.93,1.09
			c-1.14,1.25-2.15,2.36-3.03,3.34s-1.71,2-2.49,3.03c-0.77,1.04-1.63,2.07-2.56,3.11c-0.93,1.04-2.07,2.23-3.42,3.57
			c-0.11,0.11-0.34,0.34-0.7,0.7s-0.75,0.78-1.16,1.24s-0.78,0.96-1.09,1.47c-0.31,0.52-0.47,0.93-0.47,1.24l0.31,0.16
			c3.73-4.66,7.66-9.3,11.81-13.9C440.31,39.75,444.25,35.53,447.97,31.69 M424.21,34.34c0.21-0.52,0.39-0.95,0.55-1.32
			c0.15-0.36,0.39-0.86,0.7-1.48v-0.31c0.21-0.21,0.47-0.6,0.78-1.16c0.31-0.57,0.62-1.17,0.93-1.79s0.57-1.22,0.77-1.79
			c0.21-0.57,0.31-0.9,0.31-1.01c0-0.31,0.1-0.57,0.31-0.78c0.21-0.21,0.31-0.41,0.31-0.62c0-0.2-0.05-0.44-0.16-0.7
			s-0.26-0.39-0.47-0.39c-0.21,0.52-0.5,1.14-0.86,1.86c-0.36,0.73-0.7,1.45-1.01,2.17c-0.41,0.83-0.83,1.66-1.24,2.49
			c0,0.11,0.02,0.18,0.08,0.23c0.05,0.05,0.08,0.13,0.08,0.23c-0.21,0.21-0.39,0.39-0.54,0.55c-0.16,0.15-0.23,0.29-0.23,0.39
			c0,0.11,0.05,0.16,0.15,0.16v-0.16l-0.31,0.93c-0.1,0.21-0.23,0.47-0.39,0.78s-0.34,0.52-0.55,0.62c0,0.41-0.03,0.62-0.08,0.62
			c-0.05,0-0.29,0.36-0.7,1.09c-0.41,0.73-1.06,2.07-1.94,4.04c-0.88,1.97-2.15,5.18-3.81,9.63c-1.14,3.11-2.28,6.21-3.42,9.32
			c-1.14,3.1-1.71,5.96-1.71,8.54c0.11,0,0.21-0.23,0.31-0.7c0.11-0.47,0.23-1.01,0.39-1.63c0.15-0.62,0.31-1.27,0.47-1.94
			c0.16-0.67,0.34-1.22,0.54-1.63c0.52-1.24,1.04-2.72,1.55-4.43c0.52-1.71,1.06-3.44,1.63-5.2s1.16-3.39,1.79-4.89
			c0.62-1.5,1.29-2.61,2.02-3.34c0-0.1-0.02-0.18-0.08-0.23c-0.05-0.05-0.08-0.13-0.08-0.23c0.72-1.24,1.29-2.28,1.71-3.1
			c0.41-0.83,0.8-1.68,1.16-2.56s0.54-1.48,0.54-1.79L424.21,34.34z M518.19,41.17c0.62,0.62,0.93,1.14,0.93,1.55
			c0,0.31-0.49,0.99-1.47,2.02c-0.98,1.04-2.1,2.23-3.34,3.57c-1.24,1.35-2.36,2.7-3.34,4.04c-0.99,1.35-1.48,2.43-1.48,3.26v0.31
			c-0.1,0.21-0.54,0.68-1.32,1.4c-0.77,0.72-1.16,1.4-1.16,2.02v0.62c0,0.21-0.1,0.47-0.31,0.78c-0.21,0.31-0.6,0.78-1.16,1.4
			c-0.57,0.62-1.38,1.45-2.41,2.49c0,0.21-0.03,0.41-0.08,0.62c-0.05,0.21-0.29,0.52-0.7,0.93c0-0.21-0.05-0.31-0.16-0.31
			c-0.62,0.93-1.11,1.69-1.47,2.25c-0.37,0.57-0.75,1.16-1.16,1.79c-0.42,0.62-0.78,1.09-1.09,1.4c0,0.21,0.05,0.31,0.16,0.31
			c0.1,0,0.16,0.11,0.16,0.31c0,0.21-0.23,0.62-0.7,1.24s-1.53,1.76-3.19,3.42c-0.62,1.24-1.06,2.07-1.32,2.49
			c-0.26,0.41-0.44,0.65-0.54,0.7c-0.11,0.05-0.16,0.05-0.16,0v0.39c-0.62,1.35-1.24,2.41-1.86,3.19c-0.62,0.77-1.43,1.5-2.41,2.17
			c-0.99,0.68-2.15,1.01-3.5,1.01c-0.83,0-1.63-0.2-2.41-0.62c-0.78-0.41-1.47-0.83-2.1-1.25c-0.21,0-0.73-0.28-1.56-0.85
			c-0.83-0.57-1.71-1.32-2.64-2.25s-1.79-1.99-2.56-3.19c-0.78-1.19-1.16-2.35-1.16-3.49c0.2,0,0.31-0.1,0.31-0.31l-0.31-0.15
			c0-0.1,0.02-0.29,0.08-0.55c0.05-0.26,0.08-0.49,0.08-0.7s-0.1-0.31-0.31-0.31c0.1,0,0.16-0.1,0.16-0.31
			c0-0.1-0.03-0.23-0.08-0.39c-0.05-0.16-0.08-0.34-0.08-0.54l0.16-0.16c0-0.2-0.03-0.33-0.08-0.39c-0.05-0.05-0.08-0.23-0.08-0.54
			c0-0.21,0.02-0.33,0.08-0.39c0.05-0.05,0.08-0.13,0.08-0.23c-0.11,0-0.16-0.1-0.16-0.31c-0.11-0.1-0.16-0.41-0.16-0.93
			c0-0.21,0.05-0.36,0.16-0.47c0.1-0.1,0.16-0.26,0.16-0.47l-0.16-0.15c0-0.1,0.02-0.16,0.08-0.16c0.05,0,0.08-0.1,0.08-0.31
			c-0.11,0-0.16-0.02-0.16-0.08c0-0.05-0.05-0.08-0.16-0.08c0-0.21,0.21-0.96,0.62-2.25s0.62-2.51,0.62-3.65l-0.16-0.31
			c0-0.1,0.05-0.16,0.16-0.16c0.1,0,0.16-0.05,0.16-0.15s-0.03-0.18-0.08-0.23c-0.05-0.05-0.08-0.13-0.08-0.23
			c0.41-1.14,0.75-2.07,1.01-2.8c0.26-0.72,0.47-1.48,0.62-2.25c0.15-0.78,0.23-1.42,0.23-1.94c-0.11-0.1-0.16-0.29-0.16-0.55v-0.23
			h-0.15h0.15c0-0.1,0.1-0.36,0.31-0.78c0.21-0.31,0.41-0.8,0.62-1.47s0.47-1.58,0.78-2.72c0.41-0.21,0.7-0.65,0.85-1.32
			c0.16-0.67,0.31-1.4,0.47-2.17c0.16-0.78,0.34-1.5,0.55-2.18c0.2-0.67,0.62-1.11,1.24-1.32c0-0.21-0.08-0.29-0.23-0.23
			c-0.16,0.05-0.23,0.03-0.23-0.08h0.16c0,0.11-0.13,0.39-0.39,0.86c-0.26,0.47-1.22,1.53-2.88,3.18c0-0.1-0.49,0.39-1.47,1.48
			s-1.68,2-2.1,2.72c-0.31,0-0.62,0.15-0.93,0.47c-0.31,0.31-0.88,1.04-1.71,2.17c-0.83,1.14-2.07,2.83-3.73,5.05
			c-1.66,2.23-3.99,5.31-6.99,9.24c-0.83,1.45-1.71,2.74-2.64,3.88c-0.83,1.04-1.66,1.94-2.48,2.72c-0.83,0.78-1.61,1.16-2.33,1.16
			h-0.31h-0.47c-0.31,0-0.8-0.18-1.48-0.54c-0.68-0.36-1.32-0.78-1.94-1.24s-1.16-0.96-1.63-1.47c-0.47-0.52-0.7-0.98-0.7-1.4
			l-0.16,0.16c-0.21,0-0.31-0.16-0.31-0.47c-0.11,0-0.21,0.05-0.31,0.15c-0.1,0.11-0.21,0.16-0.31,0.16
			c-0.83-0.83-1.24-1.45-1.24-1.86s-0.16-0.83-0.47-1.24l-0.31-0.31c0.1,0,0.16-0.05,0.16-0.15c0-0.11,0.05-0.26,0.16-0.47
			l-0.31-0.16c0.31-0.31,0.41-0.59,0.31-0.85c-0.11-0.26,0-0.44,0.31-0.54c0-0.21-0.05-0.29-0.16-0.23
			c-0.1,0.05-0.15,0.03-0.15-0.08c0-0.83,0.13-1.73,0.39-2.72c0.26-0.98,0.65-2.46,1.16-4.43c0.31-1.35,0.59-2.46,0.86-3.34
			c0.26-0.88,0.54-1.79,0.85-2.72c0.31-0.93,0.67-1.65,1.09-2.17c0.41-1.14,0.83-2.23,1.24-3.26c0.31-0.83,0.65-1.65,1.01-2.49
			c0.36-0.83,0.65-1.4,0.85-1.71c-0.1,0-0.41,0.23-0.93,0.7s-1.14,1.09-1.86,1.86c-0.73,0.77-1.5,1.63-2.33,2.56
			s-1.61,1.82-2.33,2.64c-0.73,1.14-1.68,2.36-2.88,3.65c-1.19,1.3-2.38,2.62-3.57,3.96c-1.19,1.35-2.28,2.67-3.26,3.96
			c-0.99,1.3-1.63,2.56-1.94,3.81c-0.11,0-0.16-0.02-0.16-0.08c0-0.05-0.05-0.08-0.16-0.08c-0.21,0-0.57,0.29-1.09,0.86
			c-0.52,0.57-1.5,1.94-2.95,4.12c0,0.21-0.11,0.49-0.31,0.86c-0.21,0.36-0.37,0.59-0.47,0.7c0-0.1,0.05-0.15,0.16-0.15
			c0,0.62-0.36,1.35-1.09,2.17c-0.73,0.83-1.56,1.61-2.49,2.33c-0.93,0.73-1.81,1.35-2.64,1.86c-0.83,0.52-1.4,0.78-1.71,0.78
			c-0.21,0-0.54-0.13-1.01-0.39s-0.93-0.52-1.4-0.78s-1.01-0.59-1.63-1.01l-0.31,0.15c-0.1,0-0.31-0.15-0.62-0.47
			c-0.31-0.31-0.65-0.65-1.01-1.01s-0.8-0.86-1.32-1.48c-0.1,0-0.18,0.03-0.23,0.08c-0.05,0.05-0.13,0.08-0.23,0.08
			c0-0.1-0.23-0.31-0.7-0.62s-0.7-0.57-0.7-0.78V69.3c0.11,0,0-0.1-0.31-0.31c-0.31-0.2-0.47-1.03-0.47-2.48
			c0-0.31,0.05-0.52,0.15-0.62c0-0.1,0.05-0.15,0.16-0.15c0-0.1-0.05-0.18-0.16-0.23c-0.1-0.05-0.15-0.18-0.15-0.39
			c0.21,0,0.31-0.05,0.31-0.16l-0.16-0.16c-0.1,0-0.15-0.05-0.15-0.15c0.31-0.21,0.47-0.52,0.47-0.93s0.05-0.88,0.15-1.4v0.16
			c0.1,0,0.16-0.05,0.16-0.16v-0.47c0-0.93,0.03-1.47,0.08-1.63c0.05-0.16,0.16-0.39,0.31-0.7s0.44-1.01,0.85-2.1
			s0.98-3.08,1.71-5.98c0,0.11,0.05,0.16,0.16,0.16c0.21,0,0.31-0.41,0.31-1.24s0.41-1.65,1.24-2.49c0-0.1-0.02-0.18-0.08-0.23
			c-0.05-0.05-0.08-0.13-0.08-0.23c0.62-1.14,1.11-2.1,1.47-2.87c0.37-0.78,0.72-1.5,1.09-2.18c0.36-0.67,0.7-1.4,1.01-2.17
			c0.31-0.78,0.67-1.79,1.09-3.03c0-0.1,0.08-0.18,0.23-0.23c0.15-0.05,0.23-0.13,0.23-0.23c0.21-0.41,0.31-0.65,0.31-0.7
			c0-0.05,0.02-0.2,0.08-0.46c0.05-0.26,0.23-0.78,0.54-1.56s0.93-2.04,1.86-3.81v0.16c0.1,0,0.49-0.31,1.16-0.93
			s1.01-1.56,1.01-2.8c0.21-0.41,0.39-0.77,0.54-1.09c0.16-0.31,0.39-0.78,0.7-1.4c0-0.41,0.36-0.9,1.09-1.47
			c0.72-0.57,1.09-1.53,1.09-2.88c0-0.31,0.31-0.59,0.93-0.85s1.34-0.39,2.17-0.39c0.1,0,0.67,0.08,1.71,0.23
			c1.04,0.16,2.15,0.41,3.34,0.78c1.19,0.36,2.28,0.83,3.26,1.4s1.47,1.27,1.47,2.1c0,0.21-0.1,0.52-0.31,0.93
			c-0.21,0.41-0.47,0.83-0.78,1.24c-0.31,0.42-0.57,0.8-0.78,1.16c-0.21,0.37-0.31,0.6-0.31,0.7c-0.31,0.31-0.47,0.52-0.47,0.62
			v0.16c0.1,0,0.15-0.05,0.15-0.16c0-0.2,0.05-0.31,0.16-0.31c0.1,0,0.16,0.11,0.16,0.31c0,0.21-0.86,1.61-2.56,4.19
			c-1.71,2.59-3.49,6.42-5.36,11.5c-0.11,0-0.16,0.05-0.16,0.15v0.47c-0.31,0.52-0.62,0.99-0.93,1.4c-0.21,0.42-0.42,0.83-0.62,1.24
			c-0.21,0.41-0.31,0.78-0.31,1.09c0,0.11,0.02,0.18,0.08,0.23c0.05,0.05,0.08,0.13,0.08,0.23c-0.11,0.1-0.23,0.29-0.39,0.54
			c-0.15,0.26-0.23,0.44-0.23,0.54c0.1,0,0.41-0.23,0.93-0.7s1.16-1.11,1.94-1.94c0.78-0.83,1.63-1.76,2.56-2.8
			c0.93-1.04,1.81-2.12,2.64-3.26c2.28-3,4.79-5.72,7.53-8.16c2.74-2.43,5.31-4.84,7.69-7.22l-0.16,0.16
			c0.93-1.14,1.73-2.04,2.41-2.72c0.67-0.67,1.4-1.27,2.18-1.79c0.77-0.52,1.47-0.77,2.1-0.77c0.41,0,0.83,0.18,1.24,0.54
			c0.41,0.36,0.78,0.54,1.09,0.54c0.21,0,0.39-0.08,0.54-0.23c0.16-0.15,0.34-0.23,0.54-0.23v0.47l0.16-0.16
			c0.1,0,0.16-0.02,0.16-0.08c0-0.05,0.1-0.08,0.31-0.08s0.96,0.42,2.25,1.24c1.29,0.83,2.3,1.97,3.03,3.42l-0.16,0.16
			c0,0.1,0.08,0.44,0.23,1.01s0.23,1.22,0.23,1.94c0,1.14-0.16,2.1-0.47,2.87c-0.31,0.78-0.65,1.53-1.01,2.25
			c-0.37,0.73-0.7,1.53-1.01,2.41s-0.47,2.05-0.47,3.5c0,0.11,0.05,0.21,0.16,0.31c-0.21,0.21-0.44,0.62-0.7,1.24
			s-0.52,1.32-0.78,2.1s-0.52,1.56-0.78,2.33s-0.44,1.32-0.54,1.63c0,0.11,0.05,0.16,0.16,0.16c1.04-1.14,1.89-2.1,2.56-2.87
			c0.67-0.78,1.34-1.56,2.02-2.33c0.67-0.77,1.22-1.37,1.63-1.79c0.1-0.21,0.36-0.62,0.78-1.24c0.41-0.62,0.93-1.38,1.55-2.25
			s1.37-1.79,2.25-2.72s1.89-1.76,3.03-2.49c1.34-1.65,3.24-3.44,5.67-5.36c2.43-1.92,5.46-4.74,9.09-8.47
			c0.21-0.2,0.72-0.75,1.56-1.63c0.83-0.88,1.81-1.32,2.95-1.32c0.52,0,0.93,0.05,1.24,0.16c0.31,0.11,0.47,0.47,0.47,1.09
			c0.31-0.31,0.72-0.47,1.24-0.47c0.83,0,1.53,0.23,2.1,0.7s1.68,1.53,3.34,3.19c0,0.1-0.05,0.15-0.16,0.15
			c0,0.21,0.08,0.47,0.23,0.78s0.23,0.62,0.23,0.93c0,1.45-0.37,2.9-1.09,4.35c-0.73,1.45-1.35,2.74-1.86,3.88
			c0,0.21-0.08,0.62-0.23,1.24c-0.16,0.62-0.7,1.61-1.63,2.95c-0.1,0-0.29,0.13-0.54,0.39c-0.26,0.26-0.65,0.91-1.16,1.95
			c-0.52,1.04-1.19,2.51-2.02,4.43c-0.83,1.92-1.81,4.58-2.95,8c-0.31,1.04-0.75,1.86-1.32,2.49s-0.85,1.86-0.85,3.73
			c0,0.1-0.44,0.88-1.32,2.33c-0.88,1.45-1.32,3.37-1.32,5.75c-0.52,1.76-0.93,3.55-1.24,5.36c-0.31,1.81-0.57,3.75-0.78,5.82v0.31
			h0.16c0.21,0,0.44-0.29,0.7-0.86s0.59-0.86,1.01-0.86c0-0.1-0.02-0.18-0.08-0.23c-0.05-0.05-0.08-0.13-0.08-0.23
			c0.2,0,0.62-0.28,1.24-0.85c0.62-0.57,0.93-1.11,0.93-1.63c0.31-0.2,0.47-0.29,0.47-0.23c0,0.05,0.1-0.1,0.31-0.47
			c0.21-0.36,0.67-1.06,1.4-2.1c0.72-1.04,2.02-2.74,3.88-5.13c0.31-0.31,0.96-1.11,1.94-2.41c0.98-1.29,2.12-2.82,3.42-4.58
			c1.3-1.76,2.74-3.62,4.35-5.59s3.19-3.73,4.74-5.28c0.2-0.2,0.44-0.52,0.7-0.93s0.49-0.62,0.7-0.62c0.1,0,0.16,0.03,0.16,0.08
			s0.05,0.08,0.16,0.08c0.62,0,1.19-0.39,1.71-1.16c0.52-0.78,1.35-1.16,2.49-1.16l-0.16,0.15c0.31,0,0.67,0.05,1.09,0.16
			C517,40.76,517.68,40.96,518.19,41.17"/>
	</g>
	<g>
		<path class="st0" d="M565.58,41.95c0-0.1-0.05-0.15-0.16-0.15c-0.21,0-0.44,0.13-0.7,0.39s-0.49,0.49-0.7,0.7
			c-1.04,0.73-1.74,1.24-2.1,1.56c-0.36,0.31-0.65,0.65-0.86,1.01c-0.21,0.37-0.44,0.78-0.7,1.24c-0.26,0.47-0.86,1.22-1.79,2.25
			v0.16c0,0.1,0.05,0.21,0.16,0.31c0,0.31-0.23,0.85-0.7,1.63s-1.42,1.89-2.87,3.34c0,0.21-0.23,0.54-0.7,1.01s-0.7,0.8-0.7,1.01
			l0.16,0.16l-0.16,0.16c-0.11,0-0.15-0.05-0.15-0.16l-1.24,1.56c-0.31,0.41-0.6,0.8-0.86,1.16c-0.26,0.37-0.39,0.65-0.39,0.86
			l0.16,0.31c-0.21,0-0.6,0.26-1.17,0.77c-0.57,0.52-1.22,1.87-1.94,4.04l-0.62,0.62l0.16,0.31c0-0.1-0.05-0.15-0.16-0.15
			s-0.29,0.29-0.54,0.85c-0.26,0.57-0.65,1.11-1.16,1.63c0,0.41-0.23,0.96-0.7,1.63c-0.47,0.68-1.01,1.35-1.63,2.02
			c-0.62,0.68-1.16,1.32-1.63,1.94s-0.7,1.04-0.7,1.24c0,0.31,0.05,0.47,0.16,0.47c0.41-0.11,0.83-0.36,1.24-0.78
			c0.41-0.41,0.93-1.04,1.55-1.86s1.35-2.07,2.17-3.73h-0.15c0.1-0.52,0.31-0.98,0.62-1.4c0.21-0.31,0.44-0.62,0.7-0.93
			s0.49-0.47,0.7-0.47c0-0.1-0.05-0.2-0.15-0.31c-0.21-0.1,0.52-1.35,2.17-3.73c1.66-2.38,3.83-5.54,6.52-9.48
			c0.31-0.31,0.7-0.75,1.17-1.32c0.47-0.57,0.93-1.16,1.4-1.79c0.47-0.62,0.88-1.24,1.24-1.86s0.54-1.09,0.54-1.4
			c0,0.11,0.39-0.31,1.16-1.24C563.01,44.59,564.12,43.4,565.58,41.95 M535.75,53.44c0-0.1,0.05-0.21,0.16-0.31
			c0.1-0.1,0.15-0.26,0.15-0.47c0-0.1-0.05-0.2-0.15-0.31c-0.42,0.52-0.75,1.14-1.01,1.86c-0.26,0.73-0.39,1.24-0.39,1.55l0.16,0.16
			c0.2-0.52,0.44-0.98,0.7-1.4C535.62,54.12,535.75,53.76,535.75,53.44 M535.44,42.72c0.52-0.52,0.95-0.95,1.32-1.32
			c0.36-0.36,0.7-0.8,1.01-1.32c-1.24,0-2.18,0.11-2.8,0.31s-1.16,0.47-1.63,0.77c-0.47,0.31-0.86,0.57-1.16,0.78
			c-0.31,0.21-0.78,0.31-1.4,0.31c0.1,0-0.11,0.21-0.62,0.62c-0.52,0.42-1.09,0.88-1.71,1.4s-1.24,1.04-1.86,1.56
			s-0.98,0.88-1.09,1.09h0.31c0,0.11-0.29,0.29-0.85,0.54c-0.57,0.26-0.86,0.65-0.86,1.16l0.16,0.31c-0.93,0.93-1.56,1.66-1.86,2.18
			c-0.31,0.52-0.83,1.71-1.56,3.57c-0.21,0-0.67,0.49-1.4,1.47c-0.73,0.99-1.09,2.05-1.09,3.19c0,0.11,0.05,0.16,0.16,0.16
			c0.1,0,0.72-0.41,1.86-1.24s2.43-1.97,3.88-3.42l-0.16-0.31c0-0.11,0.34-0.41,1.01-0.93s1.06-0.83,1.16-0.93
			c0-0.1-0.05-0.2-0.15-0.31c0-0.1,0.05-0.16,0.15-0.16c1.25-1.55,2.74-3.1,4.51-4.66C532.54,45.99,534.09,44.38,535.44,42.72
			 M534.19,46.92c0-0.1,0.05-0.18,0.16-0.23c0.1-0.05,0.16-0.13,0.16-0.23s-0.05-0.21-0.16-0.31c-1.66,1.97-3.39,3.94-5.2,5.9
			c-1.81,1.97-3.55,3.63-5.21,4.97c-1.34,1.04-2.54,2.02-3.57,2.95c-0.83,0.83-1.61,1.61-2.33,2.33c-0.73,0.73-1.09,1.19-1.09,1.4
			l0.15,0.16c0.83-0.62,1.61-1.29,2.33-2.02c0.72-0.72,1.45-1.35,2.17-1.86c1.04-1.04,1.63-1.63,1.79-1.79
			c0.16-0.15,0.34-0.31,0.54-0.47c0.21-0.16,0.7-0.62,1.48-1.4s2.3-2.31,4.58-4.58l-0.15-0.31c0-0.31,0.23-0.64,0.7-1.01
			c0.47-0.36,0.96-0.75,1.48-1.16s1.01-0.83,1.47-1.24C533.96,47.6,534.19,47.23,534.19,46.92 M516.17,42.72
			c1.66-1.65,3.24-3.08,4.74-4.27s2.98-2.51,4.43-3.96c-0.83,0-1.61,0.23-2.33,0.7c-0.73,0.47-1.81,1.27-3.26,2.41
			c-0.62,0.62-1.04,0.93-1.24,0.93c-0.11,0-0.16-0.02-0.16-0.08c0-0.05-0.05-0.08-0.15-0.08s-0.23,0.08-0.39,0.23
			c-0.15,0.15-0.41,0.49-0.77,1.01c-0.37,0.52-0.88,1.27-1.56,2.25c-0.67,0.98-1.53,2.31-2.56,3.96c-0.21,0-0.31,0.05-0.31,0.15
			l0.16,0.16c-0.42,0.41-0.68,0.73-0.78,0.93c-0.11,0.21-0.21,0.36-0.31,0.47c0,0.1,0.05,0.21,0.16,0.31
			c-0.11,0-0.16-0.05-0.16-0.16l-0.15,0.16c0,0.11,0.05,0.21,0.15,0.31h-0.31c0,0.52-0.05,0.7-0.16,0.54s-0.15-0.13-0.15,0.08
			l0.15,0.31c-0.11,0-0.15-0.05-0.15-0.16c-0.21,0-0.29,0.11-0.23,0.31c0.05,0.21-0.02,0.36-0.23,0.47l0.16,0.31
			c-0.21,0-0.31,0.16-0.31,0.47c0,0.52-0.44,1.22-1.32,2.1s-1.32,2.67-1.32,5.36c0.52-0.72,0.93-1.35,1.24-1.86
			c0.31-0.52,0.6-1.14,0.85-1.86c0.26-0.72,0.39-1.4,0.39-2.02v0.16c-0.1,0-0.16-0.05-0.16-0.16c0-0.31,0.31-0.95,0.93-1.94
			c0.62-0.98,1.32-1.97,2.1-2.95s1.48-1.89,2.1-2.72s0.93-1.34,0.93-1.55v-0.32H516.17z M567.91,43.19l-0.16,0.16l0.16,0.16
			c-0.83,0.41-1.37,0.77-1.63,1.08s-0.44,0.65-0.54,1.01c-0.11,0.36-0.21,0.75-0.31,1.16c-0.11,0.41-0.41,0.88-0.93,1.4
			c-0.31,0.83-0.52,1.38-0.62,1.63c-0.11,0.26-0.23,0.47-0.39,0.62c-0.15,0.16-0.39,0.44-0.7,0.86c-0.31,0.41-0.78,1.24-1.4,2.49
			c-0.52,0.31-0.98,0.67-1.4,1.09c-0.31,0.41-0.6,0.88-0.85,1.4c-0.26,0.52-0.39,1.09-0.39,1.71c0,0.83-0.05,1.24-0.16,1.24
			s-0.29,0.05-0.54,0.15c-0.26,0.11-0.6,0.42-1.01,0.93c-0.41,0.52-0.93,1.66-1.55,3.42c-0.83,0.83-1.35,1.43-1.56,1.79
			c-0.21,0.36-0.31,0.65-0.31,0.86s0.02,0.39,0.08,0.54c0.05,0.16,0.08,0.34,0.08,0.54v-0.16c-0.11,0-0.36,0.39-0.77,1.16
			c-0.42,0.78-0.86,1.63-1.32,2.56c-0.47,0.93-0.96,1.79-1.48,2.56c-0.52,0.78-0.93,1.16-1.24,1.16c0,0.31-0.29,0.93-0.85,1.86
			c-0.57,0.93-1.27,1.86-2.1,2.8c-0.83,0.93-1.74,1.79-2.72,2.56c-0.99,0.78-1.84,1.16-2.56,1.16c-0.73,0-1.56-0.47-2.49-1.4
			c-0.93-0.93-1.92-1.92-2.95-2.95c-0.83-0.62-1.5-1.24-2.02-1.86c-0.52-0.52-0.96-1.04-1.32-1.56s-0.54-0.88-0.54-1.09
			c0-0.1,0.05-0.21,0.16-0.31c0.1,0,0.16,0.05,0.16,0.15c-0.31,0-0.57-0.15-0.78-0.47c-0.52-0.31-0.78-1.14-0.78-2.49l-0.16,0.16
			c-0.11-0.31-0.21-0.67-0.31-1.09c-0.1-0.31-0.18-0.67-0.23-1.09c-0.05-0.41-0.13-0.88-0.23-1.4c0-1.66,0.02-3.13,0.08-4.43
			c0.05-1.29,0.28-2.61,0.7-3.96c-0.11,0-0.7,0.44-1.79,1.32c-1.09,0.88-2.36,2.36-3.81,4.43h-0.15l0.15,0.16
			c0,0.21-0.44,0.72-1.32,1.55s-1.48,1.4-1.79,1.71c0,0.41-0.05,0.62-0.16,0.62l-0.31-0.15v0.47v-0.16c-0.1,0-0.26,0.21-0.47,0.62
			s-0.54,0.88-1.01,1.4s-1.06,0.98-1.79,1.4s-1.61,0.62-2.64,0.62c-1.45,0-2.64-0.54-3.57-1.63c-0.93-1.09-2.28-2.67-4.04-4.74
			c0,0.11-0.21-0.08-0.62-0.54c-0.41-0.47-0.57-0.7-0.47-0.7c0-0.31-0.1-0.41-0.31-0.31c-0.21,0.11-0.47,0.03-0.78-0.23
			s-0.57-0.83-0.78-1.71c-0.2-0.88-0.31-2.41-0.31-4.58c0-0.93,0.18-1.73,0.54-2.41c0.36-0.67,0.54-1.42,0.54-2.25l-0.16-0.16
			c0-0.62,0.37-1.35,1.09-2.17c0.72-0.83,1.09-1.76,1.09-2.8c0-0.11,0.03-0.29,0.08-0.55c0.05-0.26,0.18-0.39,0.39-0.39l-0.16-0.31
			l0.16-0.16l0.16,0.16c0.21,0,0.57-0.59,1.09-1.79c0.52-1.19,0.93-1.94,1.24-2.25c0-0.1-0.02-0.16-0.08-0.16
			c-0.05,0-0.08-0.05-0.08-0.15c0.11-0.31,0.31-0.68,0.62-1.09c0.21-0.41,0.54-0.85,1.01-1.32s1.11-1.11,1.94-1.94
			c0.62-0.62,1.34-1.27,2.18-1.94c0.83-0.67,1.6-1.29,2.33-1.86c0.72-0.57,1.35-1.06,1.86-1.48c0.52-0.41,0.78-0.67,0.78-0.77
			l0.31,0.15c0.21,0,0.26-0.05,0.16-0.15c-0.11-0.1,0.05-0.16,0.47-0.16l-0.16-0.16h0.47v-0.31c0.1,0,0.2,0.05,0.31,0.15l0.31-0.31
			l0.31-0.31c0.1,0,0.21,0.05,0.31,0.16c0.1,0,0.85-0.18,2.25-0.54c1.4-0.36,2.67-0.54,3.81-0.54c1.45,0,2.59,0.11,3.42,0.31
			s1.65,0.41,2.49,0.62v-0.15c0.1,0,0.47,0.23,1.09,0.7s1.29,0.7,2.02,0.7c0.1,0,0.2-0.05,0.31-0.15c0,0.41,0.21,0.62,0.62,0.62
			c0.1,0,0.21-0.05,0.31-0.15c0.2,0.21,0.49,0.39,0.85,0.54c0.36,0.16,0.65,0.34,0.86,0.54c0.52,0,1.01-0.44,1.47-1.32
			c0.47-0.88,1.06-1.32,1.79-1.32c0.1,0,0.47,0.11,1.09,0.31c0.62,0.21,1.32,0.47,2.1,0.78c0.77,0.31,1.53,0.67,2.25,1.09
			c0.72,0.41,1.19,0.77,1.4,1.09c0.52,0.31,1.13,0.62,1.86,0.93c0.72,0.31,1.09,0.88,1.09,1.71c0,0.31-0.18,0.75-0.55,1.32
			c-0.36,0.57-0.72,1.14-1.09,1.71c-0.36,0.57-0.72,1.11-1.09,1.63c-0.36,0.52-0.54,0.93-0.54,1.24c-0.52,0.83-0.98,1.58-1.4,2.25
			c-0.41,0.68-0.78,1.38-1.09,2.1c-0.31,0.73-0.47,1.29-0.47,1.71c0,0.11,0.05,0.21,0.15,0.31c-0.41,0-0.88,0.98-1.4,2.95v-0.16
			c0,0.21-0.21,0.85-0.62,1.94s-0.88,2.31-1.4,3.65c-0.62,1.56-1.3,3.26-2.02,5.13v0.47v-0.16l-0.15,1.56
			c-0.11,0-0.16-0.05-0.16-0.16c-0.31,0.93-0.52,1.86-0.62,2.8c-0.11,0.93-0.31,1.81-0.62,2.64c0,0.11,0.05,0.16,0.16,0.16
			c0-0.1,0.16-0.28,0.47-0.54c0.31-0.26,0.52-0.44,0.62-0.54c0-0.1-0.05-0.21-0.16-0.31c0-0.1,0.1-0.21,0.31-0.31
			c0.2-0.1,0.36-0.21,0.47-0.31l-0.16-0.31c0-0.1,0.21-0.29,0.62-0.54s0.57-0.39,0.47-0.39c0-0.1-0.05-0.16-0.15-0.16
			c-0.11,0-0.16-0.05-0.16-0.16c0-0.21,0.16-0.52,0.47-0.93c0.31-0.41,0.98-1.14,2.02-2.18L546,63.99l0.16-0.15H546
			c0-0.21,0.41-0.57,1.24-1.09s1.24-1.24,1.24-2.18c0-0.41,0.08-0.62,0.23-0.62s0.33-0.11,0.54-0.31l-0.16-0.16
			c0-0.41,0.02-0.75,0.08-1.01c0.05-0.26,0.21-0.54,0.47-0.86c0.26-0.31,0.65-0.7,1.16-1.16c0.52-0.47,1.24-1.16,2.18-2.1
			l-0.16-0.31l0.16-0.16l0.15,0.16c0.31-0.72,0.62-1.24,0.93-1.55s0.83-0.8,1.55-1.48c0.72-0.67,1.68-1.68,2.87-3.03
			s2.72-3.36,4.58-6.06c0.21,0,0.49-0.36,0.85-1.09c0.36-0.72,1.27-1.09,2.72-1.09c0.21,0,0.52,0.15,0.93,0.47
			c0.41,0.31,0.62,0.57,0.62,0.77c0,0.21-0.05,0.5-0.16,0.86C567.96,42.24,567.91,42.68,567.91,43.19"/>
	</g>
	<g>
		<path class="st0" d="M582.98,37.91c0.1,0.31,0.18,0.54,0.23,0.7c0.05,0.16,0.07,0.34,0.07,0.55v0.31c0.1,0,0.21-0.65,0.31-1.94
			c0.1-1.29,0.62-3.03,1.55-5.2c-1.14,0.83-1.81,1.76-2.02,2.8c-0.21,1.04-0.31,1.81-0.31,2.33v0.47h0.17V37.91z M573.03,78.92
			c0-0.2-0.05-0.36-0.15-0.47L570.55,80c0.1,0.11,0.18,0.16,0.23,0.16c0.05,0,0.13,0.05,0.23,0.16c0.52,0,0.98-0.1,1.4-0.31
			C572.82,79.81,573.03,79.44,573.03,78.92 M575.05,28.28c1.24-0.93,2.25-1.65,3.03-2.17c0.78-0.52,1.37-0.93,1.79-1.24
			c0.41-0.41,0.78-0.67,1.09-0.78c-0.11,0-0.16,0.05-0.16,0.16c-0.1,0-0.15-0.05-0.15-0.16c-0.21,0.21-0.49,0.36-0.86,0.47
			c-0.36,0.11-1.27,0.57-2.72,1.4c-0.21,0.21-0.29,0.34-0.23,0.39c0.05,0.05-0.03,0.08-0.23,0.08c-0.62,0-1.4,0.39-2.33,1.16
			c-0.93,0.78-1.86,1.63-2.8,2.56c-0.93,0.93-2.13,2.18-3.57,3.73l-0.16,0.16c0,0.11,0.02,0.18,0.08,0.23
			c0.05,0.05,0.08,0.13,0.08,0.23c-0.21,0.21-0.49,0.44-0.86,0.7c-0.36,0.26-0.54,0.49-0.54,0.7c0,0.1,0.02,0.16,0.08,0.16
			c0.05,0,0.08,0.05,0.08,0.16s-0.05,0.21-0.16,0.31v0.16C569.1,33.35,571.94,30.56,575.05,28.28 M555.32,72.55
			c0.31-0.2,0.65-0.49,1.01-0.85c0.36-0.36,0.75-0.7,1.16-1.01l1.24-1.24c-0.21,0-0.57,0.18-1.09,0.54
			c-0.52,0.36-1.06,0.75-1.63,1.16s-1.06,0.8-1.47,1.16c-0.41,0.36-0.62,0.6-0.62,0.7l0.15,0.31c-0.83,0.62-1.24,1.14-1.24,1.56
			c0,0.21,0.05,0.31,0.15,0.31c0.31-0.52,0.7-0.98,1.16-1.4C554.62,73.38,555.01,72.97,555.32,72.55 M595.71,25.02
			c0.21,0.41,0.31,0.67,0.31,0.78c0,0.52-0.05,1.06-0.16,1.63c-0.1,0.57-0.26,1.11-0.47,1.63c-0.62,0.62-1.43,1.63-2.41,3.03
			c-0.98,1.4-1.94,2.93-2.87,4.58c-0.93,1.66-1.76,3.39-2.49,5.2s-1.09,3.44-1.09,4.89c0,0.52,0.05,0.78,0.16,0.78
			c-0.31,0-1.04-0.18-2.18-0.54c-1.14-0.36-1.81-1.01-2.02-1.94c-0.42,0-0.73-0.44-0.93-1.32s-0.36-1.81-0.47-2.8
			c-0.11-0.98-0.18-1.92-0.23-2.8c-0.05-0.88-0.08-1.37-0.08-1.47c0.1-0.21,0.16-0.44,0.16-0.7s0.05-0.49,0.16-0.7
			c-0.11,0-0.47,0.36-1.09,1.09s-1.32,1.53-2.1,2.41s-1.53,1.66-2.25,2.33c-0.73,0.68-1.24,1.01-1.56,1.01
			c-0.41,0-0.8,0.34-1.16,1.01c-0.36,0.68-0.7,1.45-1.01,2.33c-0.31,0.88-0.54,1.71-0.7,2.49c-0.15,0.78-0.23,1.27-0.23,1.48
			c0,0.93,0.13,1.68,0.39,2.25s0.57,1.11,0.93,1.63c0.36,0.52,0.75,1.09,1.17,1.71c0.41,0.62,0.77,1.45,1.09,2.49
			c0.2,0.21,0.33,0.44,0.39,0.7c0.05,0.26,0.18,0.49,0.39,0.7c0.31,1.45,0.8,2.93,1.47,4.43c0.67,1.5,1.32,3.08,1.94,4.74
			s1.16,3.42,1.63,5.28s0.7,3.78,0.7,5.75c0,1.45-0.16,2.85-0.47,4.19c-0.31,1.35-0.91,2.54-1.79,3.57
			c-0.88,1.04-2.05,1.86-3.49,2.49c-1.45,0.62-3.26,0.93-5.44,0.93c-0.72,0-1.42-0.05-2.1-0.15c-0.68-0.1-1.43-0.16-2.25-0.16
			c-0.21,0-0.39,0.03-0.54,0.08c-0.16,0.05-0.34,0.08-0.55,0.08c-1.76-0.21-3.23-0.57-4.43-1.09c-1.19-0.52-2.18-1.06-2.95-1.63
			c-0.78-0.57-1.48-1.32-2.1-2.25c-0.21-0.21-0.65-0.7-1.32-1.48c-0.67-0.77-1.01-1.27-1.01-1.47l0.16-0.16l0.15-0.16
			c-0.93-1.03-1.53-1.73-1.79-2.1c-0.26-0.36-0.39-0.65-0.39-0.86c0-0.1,0.05-0.18,0.16-0.23c0.1-0.05,0.15-0.13,0.15-0.23
			s-0.08-0.34-0.23-0.7c-0.16-0.36-0.34-0.78-0.55-1.24c-0.2-0.47-0.39-0.91-0.54-1.32c-0.16-0.41-0.23-0.67-0.23-0.77
			c0.11-0.52,0.52-1.11,1.24-1.79c0.72-0.67,1.5-1.32,2.33-1.94s1.97-1.35,3.42-2.18c0.52-0.41,1.27-0.88,2.25-1.4
			s1.84-0.93,2.56-1.24c-0.73,1.76-1.32,3.6-1.79,5.52c-0.47,1.92-0.7,3.8-0.7,5.67c0,0.83,0.21,1.24,0.62,1.24
			c0.21,0,0.37-0.05,0.47-0.15c1.14,0.21,2.15,0.31,3.03,0.31h2.25c1.04,0,1.76-0.05,2.18-0.16c0.41-0.1,0.67-0.2,0.77-0.31
			c0.1-0.1,0.18-0.2,0.23-0.31c0.05-0.1,0.18-0.15,0.39-0.15l-0.16-0.16v0.16c0.31,0,0.98-0.49,2.02-1.48s1.6-1.89,1.71-2.72
			l-0.15-0.15c-0.11,0-0.16-0.05-0.16-0.16h0.31c0-1.56-0.15-2.9-0.47-4.04c-0.31-1.13-0.65-2.15-1.01-3.03
			c-0.37-0.88-0.7-1.71-1.01-2.49s-0.47-1.68-0.47-2.72c-0.41-0.72-0.7-1.32-0.85-1.79c-0.16-0.47-0.34-0.8-0.55-1.01
			c-0.21-0.31-0.36-0.47-0.47-0.47l0.16,0.15v-0.15l0.16-0.31c0-0.31-0.23-0.7-0.7-1.16c-0.47-0.47-0.7-0.91-0.7-1.32
			c0-0.1,0.05-0.21,0.16-0.31h-0.31v-0.16l0.16-0.31c-0.83-1.55-1.5-2.85-2.02-3.88s-0.98-2.04-1.4-3.03
			c-0.42-0.98-0.68-1.58-0.78-1.79h0.16c-0.1-0.1-0.29-0.65-0.55-1.63s-0.39-2.04-0.39-3.19c0-1.76,0.26-3.03,0.78-3.8
			c0.52-0.78,0.88-1.22,1.09-1.32c0-0.1-0.11-0.16-0.31-0.16c0.72-1.86,1.5-3.26,2.33-4.19s1.6-1.65,2.33-2.17
			c0.72-0.52,1.32-0.86,1.79-1.01c0.47-0.16,0.7-0.39,0.7-0.7l0.16,0.16c0,0.11,0.05,0.16,0.15,0.16s0.16-0.26,0.16-0.78
			c0.1,0,0.16,0.03,0.16,0.08s0.05,0.08,0.16,0.08c1.14-0.72,2.07-1.32,2.8-1.79c0.72-0.47,1.66-1.16,2.8-2.1l0.31,0.31
			c0.1,0,0.18-0.08,0.23-0.23s0.13-0.29,0.23-0.39c1.35-0.83,2.51-1.4,3.49-1.71s2.04-0.47,3.19-0.47c0.62,0,1.58,0.05,2.87,0.16
			c1.29,0.11,2.59,0.31,3.88,0.62s2.43,0.78,3.42,1.4C595.22,23.15,595.71,23.98,595.71,25.02"/>
	</g>
	<g>
		<rect x="584.08" y="156.97" class="st0" width="11.94" height="11.8"/>
	</g>
	<g>
		<polygon class="st0" points="53.39,20.44 39.25,43.82 25.35,20.44 10.38,20.44 32.76,55.72 32.76,78.68 45.57,78.68 45.57,55.47 
			67.95,20.44 		"/>
	</g>
	<g>
		<path class="st0" d="M125.19,49.56c0-9.99-7.32-18.3-17.64-18.3s-17.47,8.15-17.47,18.13v0.17c0,9.98,7.32,18.3,17.64,18.3
			s17.47-8.15,17.47-18.14V49.56z M107.56,79.68c-17.97,0-30.87-13.4-30.87-29.95v-0.17c0-16.55,13.06-30.12,31.03-30.12
			c17.97,0,30.86,13.4,30.86,29.95v0.17C138.59,66.12,125.53,79.68,107.56,79.68"/>
	</g>
	<g>
		<path class="st0" d="M212.31,79.51c-8.82,0-17.72-3.08-24.71-9.32l7.57-9.07c5.24,4.33,10.73,7.07,17.39,7.07
			c5.24,0,8.4-2.08,8.4-5.49v-0.17c0-3.25-2-4.91-11.73-7.4c-11.73-3-19.3-6.24-19.3-17.81v-0.17c0-10.57,8.48-17.55,20.38-17.55
			c8.48,0,15.73,2.66,21.63,7.4l-6.66,9.65c-5.16-3.58-10.23-5.74-15.14-5.74c-4.91,0-7.48,2.25-7.48,5.08v0.17
			c0,3.83,2.49,5.07,12.56,7.66c11.81,3.08,18.47,7.32,18.47,17.47v0.17C233.69,73.02,224.87,79.51,212.31,79.51"/>
	</g>
	<g>
		<path class="st0" d="M299.09,49.56c0-9.99-7.32-18.3-17.64-18.3s-17.47,8.15-17.47,18.13v0.17c0,9.98,7.32,18.3,17.64,18.3
			s17.47-8.15,17.47-18.14V49.56z M281.45,79.68c-17.97,0-30.87-13.4-30.87-29.95v-0.17c0-16.55,13.06-30.12,31.03-30.12
			c17.97,0,30.87,13.4,30.87,29.95v0.17C312.48,66.12,299.42,79.68,281.45,79.68"/>
	</g>
	<g>
		<polygon class="st0" points="356.41,55.47 356.41,78.68 343.6,78.68 343.6,55.71 321.22,20.44 336.19,20.44 350.09,43.82 
			364.23,20.44 378.79,20.44 		"/>
	</g>
	<g>
		<path class="st0" d="M62.29,142.51c0-9.99-7.32-18.3-17.64-18.3s-17.47,8.15-17.47,18.14v0.17c0,9.98,7.32,18.3,17.64,18.3
			c2.83,0,5.41-0.58,7.65-1.58l-9.48-8.07l8.15-9.15l9.57,8.65c1.08-2.41,1.58-5.08,1.58-7.99L62.29,142.51L62.29,142.51z
			 M68.37,173.38l-6.41-5.74c-4.91,3.16-10.81,4.99-17.31,4.99c-17.97,0-30.87-13.39-30.87-29.95v-0.17
			c0-16.56,13.06-30.12,31.03-30.12c17.97,0,30.86,13.4,30.86,29.95v0.17c0,6.07-1.83,11.9-5.15,16.72l5.99,5.07L68.37,173.38z"/>
	</g>
	<g>
		<path class="st0" d="M119.7,172.55c-15.64,0-25.21-8.74-25.21-25.87V113.4h12.81v32.95c0,9.48,4.74,14.39,12.56,14.39
			s12.56-4.74,12.56-13.98V113.4h12.81v32.86C145.25,163.9,135.35,172.55,119.7,172.55"/>
	</g>
	<g>
		<polygon class="st0" points="166.63,171.63 166.63,113.4 210.56,113.4 210.56,124.79 179.36,124.79 179.36,136.61 206.82,136.61 
			206.82,148.01 179.36,148.01 179.36,160.24 210.97,160.24 210.97,171.63 		"/>
	</g>
	<g>
		<rect x="229.2" y="168.77" class="st0" width="341.24" height="2.88"/>
	</g>
	<g>
		<path class="st1" d="M297.38,139.67c0,0.19-0.06,0.35-0.19,0.48c-0.19,0-0.55,0.4-1.06,1.21c-0.52,0.81-1.08,1.74-1.69,2.8
			s-1.24,2.14-1.88,3.23c-0.64,1.09-1.19,1.93-1.64,2.51c-0.71,0.71-1.21,1.45-1.5,2.22c-0.29,0.77-0.85,1.58-1.69,2.41
			c0-0.06-0.26,0.18-0.77,0.72c-0.52,0.55-0.77,1.05-0.77,1.5c0-0.06-0.03-0.1-0.1-0.1c-0.06,0-0.21,0.13-0.43,0.39
			c-0.23,0.26-0.45,0.58-0.68,0.96c-0.23,0.39-0.47,0.76-0.72,1.11c-0.26,0.35-0.45,0.63-0.58,0.82c-0.52,0.71-0.85,1.14-1.01,1.3
			c-0.16,0.16-0.31,0.29-0.43,0.39c-0.13,0.1-0.31,0.26-0.53,0.48c-0.23,0.23-0.66,0.72-1.3,1.5l-0.29,0.29
			c-0.06,0.13-0.13,0.23-0.19,0.29c-0.26,0.32-0.56,0.58-0.92,0.77c-0.35,0.19-0.63,0.29-0.82,0.29c-0.9,0-1.72-0.4-2.46-1.21
			c-0.74-0.8-1.34-1.43-1.78-1.88c-0.13-0.06-0.43-0.19-0.92-0.39c-0.48-0.19-0.72-0.74-0.72-1.64c0-0.06,0.03-0.1,0.1-0.1
			c0.06,0,0.1-0.03,0.1-0.1c-0.32-0.26-0.52-0.71-0.58-1.35c-0.06-0.64-0.1-1.22-0.1-1.74c0-0.71,0.08-1.46,0.24-2.27
			c0.16-0.8,0.24-1.59,0.24-2.36l-0.1-0.1c0-0.06,0.05-0.18,0.14-0.34c0.1-0.16,0.18-0.24,0.24-0.24c0-0.06-0.02-0.11-0.05-0.14
			c-0.03-0.03-0.05-0.08-0.05-0.14c0-0.13,0.11-0.56,0.34-1.3c0.22-0.74,0.4-1.33,0.53-1.78c-0.06-0.06-0.13-0.1-0.19-0.1
			c0.06,0-0.11,0.26-0.53,0.77c-0.42,0.52-0.66,0.84-0.72,0.96c-0.06,0.06-0.14,0.1-0.24,0.1s-0.14,0.03-0.14,0.1
			c0,0.07,0.02,0.1,0.05,0.1c0.03,0,0.05,0.03,0.05,0.1c-0.13,0.13-0.23,0.19-0.29,0.19s-0.1,0.06-0.1,0.19l0.1,0.19
			c-0.45,0.45-0.92,0.96-1.4,1.54s-0.98,1.13-1.5,1.64c0,0.07,0.02,0.1,0.05,0.1c0.03,0,0.05,0.03,0.05,0.1
			c-0.13,0.19-0.27,0.35-0.43,0.48s-0.31,0.26-0.43,0.39c-0.26,0.32-0.64,0.82-1.16,1.5c-0.52,0.68-1.08,1.35-1.69,2.03
			c-0.61,0.67-1.25,1.27-1.93,1.78c-0.68,0.52-1.27,0.77-1.78,0.77c-0.13,0-0.32,0-0.58,0s-0.55-0.16-0.87-0.48
			c-0.06,0-0.16,0-0.29,0s-0.34-0.1-0.63-0.29s-0.66-0.51-1.11-0.96s-1-1.12-1.64-2.03c0-0.19-0.03-0.27-0.1-0.24
			c-0.06,0.03-0.1-0.02-0.1-0.14c0-0.06,0.03-0.13,0.1-0.19c-0.13,0-0.19-0.03-0.19-0.1c0.06,0.07,0.1,0.13,0.1,0.19
			c0-0.06-0.11-0.43-0.34-1.11c-0.22-0.68-0.34-1.21-0.34-1.59c0-0.06,0.03-0.1,0.1-0.1l0.1-0.1h-0.1c-0.06,0-0.1-0.03-0.1-0.1
			c0-0.06,0.03-0.1,0.1-0.1l0.1-0.1h-0.1c-0.06,0-0.1-0.03-0.1-0.1c0-0.32,0.06-0.48,0.19-0.48c0-0.06-0.03-0.1-0.1-0.1h-0.1
			c0-0.13,0.03-0.19,0.1-0.19h0.1c0-0.13-0.03-0.18-0.1-0.14c-0.06,0.03-0.1,0.02-0.1-0.05c0.06-0.06,0.1-0.16,0.1-0.29
			c0-0.19,0.03-0.35,0.1-0.48c0-0.06-0.02-0.13-0.05-0.19c-0.03-0.06-0.05-0.16-0.05-0.29l0.19-0.96c0.06-0.26,0.13-0.51,0.19-0.77
			s0.1-0.45,0.1-0.58h-0.1c0-0.32,0-0.53,0-0.63s0.02-0.22,0.05-0.39c0.03-0.16,0.11-0.39,0.24-0.67c0.13-0.29,0.29-0.79,0.48-1.5
			c0.13-0.06,0.29-0.22,0.48-0.48c0.13-0.19,0.26-0.47,0.39-0.82c0.13-0.35,0.19-0.82,0.19-1.4c0.39-0.77,0.58-1.21,0.58-1.3
			c0-0.1,0.03-0.24,0.1-0.43c0.06-0.19,0.26-0.68,0.58-1.45s1.03-2.22,2.12-4.34c0,0.13,0.03,0.19,0.1,0.19
			c0.06,0,0.27-0.32,0.63-0.96c0.35-0.64,0.77-1.37,1.25-2.17s1-1.53,1.54-2.17c0.55-0.64,1.08-0.96,1.59-0.96h0.68
			c0.71,0.13,1.3,0.26,1.78,0.39c0.48,0.13,0.92,0.31,1.3,0.53c0.39,0.23,0.58,0.53,0.58,0.92c0,0.26,0.16,0.45,0.48,0.58
			c0,0.07-0.02,0.13-0.05,0.19c-0.03,0.06-0.05,0.13-0.05,0.19l0.1,0.1l0.1-0.1c0.13,0.13,0.19,0.26,0.19,0.39
			c0,0.26-0.13,0.52-0.39,0.77c-0.26,0.26-0.53,0.53-0.82,0.82s-0.55,0.61-0.77,0.96c-0.23,0.35-0.34,0.72-0.34,1.11
			c0,0.07,0.03,0.13,0.1,0.19c-0.19,0-0.29,0.03-0.29,0.1v0.1c0,0.07,0.02,0.1,0.05,0.1c0.03,0,0.05,0.03,0.05,0.1
			c0,0.26-0.29,0.64-0.87,1.16c0,0.13,0.02,0.21,0.05,0.24c0.03,0.03,0.05,0.08,0.05,0.14c-0.19,0-0.47,0.39-0.82,1.16
			c-0.35,0.77-0.72,1.66-1.11,2.65c-0.39,1-0.76,1.96-1.11,2.89s-0.63,1.56-0.82,1.88c0,0.19-0.1,0.5-0.29,0.92s-0.4,0.9-0.63,1.45
			s-0.43,1.14-0.63,1.79c-0.19,0.64-0.29,1.25-0.29,1.83c1.03-0.9,1.82-1.69,2.36-2.36c0.55-0.67,1.16-1.46,1.83-2.36
			c0.68-0.9,1.58-2.03,2.7-3.38s2.81-3.15,5.06-5.4l-0.19,0.19c0-0.06,0.14-0.32,0.43-0.77s0.72-1,1.3-1.64
			c0.45-0.39,0.9-0.83,1.35-1.35c0.39-0.45,0.79-0.93,1.21-1.45c0.42-0.51,0.79-1.09,1.11-1.74v0.1c0.06,0,0.21-0.32,0.43-0.96
			s0.5-0.96,0.82-0.96c1.48,0,2.75,0.19,3.81,0.58s1.59,1.22,1.59,2.51c0,0.58-0.18,1.19-0.53,1.83c-0.35,0.64-0.53,1.22-0.53,1.74
			l0.1,0.19c-0.19,0-0.32,0.06-0.39,0.19c-0.06,0.13-0.14,0.35-0.24,0.68c-0.1,0.32-0.24,0.8-0.43,1.45
			c-0.19,0.64-0.55,1.45-1.06,2.41c0,0.13,0.02,0.21,0.05,0.24c0.03,0.03,0.05,0.08,0.05,0.14c0,0.13-0.21,0.48-0.63,1.06
			s-0.63,1.13-0.63,1.64l0.1,0.19c0,0.06-0.24,0.45-0.72,1.16c-0.48,0.71-0.72,1.64-0.72,2.8c-0.13,0-0.31,0.34-0.53,1.01
			c-0.23,0.68-0.47,1.48-0.72,2.41c-0.26,0.93-0.5,1.91-0.72,2.94c-0.23,1.03-0.37,1.9-0.43,2.61c0,0.06,0.03,0.1,0.1,0.1
			c0.13,0,0.37-0.19,0.72-0.58s0.74-0.82,1.16-1.3s0.8-0.96,1.16-1.45c0.35-0.48,0.63-0.82,0.82-1.01v0.1
			c0.39-0.45,0.95-1.19,1.69-2.22c0.74-1.03,1.58-2.22,2.51-3.57c0.93-1.35,1.93-2.78,2.99-4.29c1.06-1.51,2.07-2.94,3.04-4.29
			c0.32-0.39,0.64-0.74,0.96-1.06c0.32-0.26,0.61-0.5,0.87-0.72s0.51-0.34,0.77-0.34c0.39,0,0.9,0.18,1.54,0.53
			C296.96,139.01,297.32,139.35,297.38,139.67z M261.4,139.38c0-0.06,0.03-0.11,0.1-0.14c0.06-0.03,0.1-0.08,0.1-0.14
			c0.19-0.64,0.37-1.14,0.53-1.5c0.16-0.35,0.34-0.69,0.53-1.01s0.42-0.48,0.68-0.48c0-0.06-0.03-0.13-0.1-0.19v0.1
			c0.06,0,0.18-0.26,0.34-0.77c0.16-0.51,0.47-0.77,0.92-0.77c0-0.06-0.03-0.13-0.1-0.19c0-0.13,0.03-0.19,0.1-0.19
			c0.06,0,0.16-0.06,0.29-0.19c0-0.06-0.02-0.1-0.05-0.1c-0.03,0-0.05-0.03-0.05-0.1c0-0.13,0.03-0.18,0.1-0.14
			c0.06,0.03,0.16-0.01,0.29-0.14l-0.1-0.19c0,0.07,0.19-0.06,0.58-0.39c0.39-0.32,0.58-0.74,0.58-1.25c0-0.32-0.06-0.48-0.19-0.48
			c0,0.13-0.16,0.34-0.48,0.63s-0.48,0.5-0.48,0.63s0.06,0.19,0.19,0.19c0,0.06-0.21,0.19-0.63,0.39c-0.42,0.19-0.63,0.55-0.63,1.06
			c-0.64,1.22-1.25,2.38-1.83,3.47c-0.52,0.9-0.98,1.78-1.4,2.65c-0.42,0.87-0.69,1.46-0.82,1.79v-0.1
			c-0.45,0.71-0.84,1.45-1.16,2.22c-0.32,0.71-0.58,1.48-0.77,2.32s-0.29,1.74-0.29,2.7c0.06-0.06,0.1-0.22,0.1-0.48
			c0.52-1.67,1.08-3.26,1.69-4.78C260.03,142.26,260.69,140.8,261.4,139.38z M276.84,138.51c0.06-0.06,0.13-0.19,0.19-0.39
			c0.06-0.19,0.1-0.32,0.1-0.39c0-0.06-0.03-0.1-0.1-0.1c-0.58,0.77-1.25,1.61-2.03,2.51c-0.77,0.9-1.5,1.72-2.17,2.46
			s-1.25,1.38-1.74,1.93c-0.48,0.55-0.76,0.88-0.82,1.01c-1.03,1.29-1.91,2.38-2.65,3.28c-0.74,0.9-1.56,1.8-2.46,2.7
			c0.13,0,0.19,0.03,0.19,0.1c-0.71,0.58-1.3,1.08-1.78,1.5c-0.48,0.42-0.92,0.85-1.3,1.3c-0.39,0.45-0.58,0.87-0.58,1.25
			c0.32,0,0.74-0.27,1.25-0.82s1.14-1.3,1.88-2.27c0.74-0.96,1.64-2.07,2.7-3.33c1.06-1.25,2.27-2.56,3.62-3.91
			c-0.06,0.06-0.1,0.13-0.1,0.19c0.58-0.64,1.22-1.35,1.93-2.12C274.26,142.08,275.55,140.44,276.84,138.51z M276.64,144.59
			c0.06-0.13,0.13-0.26,0.19-0.39s0.1-0.26,0.1-0.39s-0.03-0.19-0.1-0.19c-0.13,0.19-0.35,0.63-0.68,1.3
			c-0.32,0.68-0.64,1.43-0.96,2.27s-0.6,1.7-0.82,2.6c-0.23,0.9-0.34,1.67-0.34,2.32c0,0.06,0.03,0.13,0.1,0.19
			c0.13,0,0.4-0.79,0.82-2.36C275.37,148.37,275.93,146.59,276.64,144.59z M293.62,140.64c-1.99,2.51-3.76,4.74-5.31,6.7
			c-1.54,1.96-3.23,4.15-5.06,6.56s-3.62,4.78-5.35,7.09c0.83-0.32,1.93-1.45,3.28-3.38c0.32-0.32,0.58-0.64,0.77-0.96
			s0.42-0.66,0.68-1.01c0.26-0.35,0.58-0.79,0.96-1.3s0.96-1.12,1.74-1.83c0-0.19,0.29-0.48,0.87-0.87s0.87-0.83,0.87-1.35
			c0-0.19,0.3-0.76,0.92-1.69c0.61-0.93,1.3-1.96,2.07-3.09c0.77-1.12,1.51-2.17,2.22-3.13
			C292.98,141.41,293.43,140.83,293.62,140.64z"/>
		<path class="st1" d="M331.34,137.74c0.06,0.13,0.13,0.21,0.19,0.24c0.06,0.03,0.13,0.11,0.19,0.24s0.1,0.23,0.1,0.29
			c0,0.19-0.4,0.79-1.21,1.79c-0.8,1-1.69,2.11-2.65,3.33c-0.96,1.22-1.85,2.4-2.65,3.52c-0.8,1.13-1.21,1.92-1.21,2.36
			c0,0.07,0.03,0.13,0.1,0.19c-0.19,0.13-0.48,0.39-0.87,0.77s-0.58,0.81-0.58,1.25c0,0.07-0.13,0.35-0.39,0.87
			c-0.26,0.51-1,1.38-2.22,2.6c0-0.13-0.03-0.19-0.1-0.19c-0.32,0.52-0.58,0.95-0.77,1.3s-0.4,0.69-0.63,1.01s-0.4,0.55-0.53,0.67
			c0,0.13,0.01,0.19,0.05,0.19c0.03,0,0.05,0.06,0.05,0.19s-0.11,0.37-0.34,0.72c-0.23,0.35-0.79,0.98-1.69,1.88
			c-0.52,1.09-0.84,1.64-0.96,1.64c-0.13,0-0.19,0.06-0.19,0.19c-0.32,0.71-0.64,1.29-0.96,1.74s-0.76,0.85-1.3,1.21
			c-0.55,0.35-1.24,0.53-2.07,0.53c-0.39,0-0.79-0.1-1.21-0.29c-0.42-0.19-0.79-0.42-1.11-0.67c-0.13,0-0.42-0.16-0.87-0.48
			s-0.95-0.72-1.5-1.21c-0.55-0.48-1.03-1.04-1.45-1.69c-0.42-0.64-0.63-1.29-0.63-1.93c0.13,0,0.19-0.06,0.19-0.19l-0.19-0.1
			c0-0.06,0.02-0.14,0.05-0.24c0.03-0.1,0.05-0.21,0.05-0.34c0-0.19-0.06-0.29-0.19-0.29c0.06,0,0.1-0.06,0.1-0.19
			c0-0.06-0.02-0.13-0.05-0.19c-0.03-0.06-0.05-0.16-0.05-0.29l0.1-0.1c0-0.06-0.02-0.11-0.05-0.14c-0.03-0.03-0.05-0.14-0.05-0.34
			c0-0.06,0.02-0.11,0.05-0.14c0.03-0.03,0.05-0.08,0.05-0.14c-0.06-0.06-0.1-0.16-0.1-0.29c-0.06-0.06-0.1-0.19-0.1-0.39
			c0-0.13,0.03-0.22,0.1-0.29c0.06-0.06,0.1-0.16,0.1-0.29l-0.1-0.1c0-0.06,0.02-0.08,0.05-0.05c0.03,0.03,0.05-0.01,0.05-0.14
			c-0.06,0-0.1-0.01-0.1-0.05c0-0.03-0.03-0.05-0.1-0.05c0-0.13,0.11-0.55,0.34-1.25c0.22-0.71,0.34-1.38,0.34-2.03l-0.1-0.1
			c0-0.06,0.03-0.1,0.1-0.1c0.06,0,0.1-0.03,0.1-0.1c0-0.06-0.02-0.11-0.05-0.15c-0.03-0.03-0.05-0.08-0.05-0.14
			c0.26-0.64,0.45-1.17,0.58-1.59c0.13-0.42,0.24-0.83,0.34-1.25c0.1-0.42,0.15-0.72,0.15-0.92c-0.06,0-0.1-0.1-0.1-0.29v-0.19
			l-0.1,0.1v-0.29v0.48c0.06,0,0.18-0.19,0.34-0.58c0.16-0.39,0.4-1.19,0.72-2.41c0.19-0.13,0.34-0.39,0.43-0.77
			c0.1-0.39,0.19-0.79,0.29-1.21c0.1-0.42,0.21-0.8,0.34-1.16c0.13-0.35,0.35-0.59,0.68-0.72c0-0.13-0.05-0.18-0.14-0.14
			c-0.1,0.03-0.15,0.02-0.15-0.05c0,0.06-0.14,0.31-0.43,0.72c-0.29,0.42-1.08,1.3-2.36,2.65l0.1-0.19c0-0.06,0.03-0.13,0.1-0.19
			l-1.45,1.93c-0.58,0.77-1.42,1.87-2.51,3.28c-1.09,1.42-2.57,3.28-4.44,5.59c-0.52,0.84-1,1.58-1.45,2.22
			c-0.39,0.52-0.82,1-1.3,1.45s-0.92,0.67-1.3,0.67c-0.06,0-0.13-0.03-0.19-0.1c-0.06,0.07-0.16,0.1-0.29,0.1
			c-0.19,0-0.45-0.1-0.77-0.29s-0.66-0.43-1.01-0.72c-0.35-0.29-0.66-0.58-0.92-0.87s-0.39-0.53-0.39-0.72l-0.1,0.1
			c-0.13,0-0.19-0.1-0.19-0.29c-0.06,0-0.1,0.03-0.1,0.1c0,0.07-0.03,0.1-0.1,0.1c-0.51-0.51-0.79-0.88-0.82-1.11
			c-0.03-0.22-0.14-0.47-0.34-0.72v-0.1c0-0.06,0.02-0.1,0.05-0.1c0.03,0,0.05-0.06,0.05-0.19l-0.1-0.1
			c0.13-0.13,0.18-0.27,0.14-0.43c-0.03-0.16,0.02-0.27,0.15-0.34c0-0.06-0.03-0.08-0.1-0.05c-0.06,0.03-0.1,0.02-0.1-0.05
			c0-0.45,0.06-0.95,0.19-1.5s0.35-1.37,0.68-2.46c0.19-0.77,0.35-1.4,0.48-1.88s0.27-0.98,0.43-1.5c0.16-0.51,0.34-0.9,0.53-1.16
			c0.9-1.67,1.59-3.42,2.07-5.26c0.48-1.83,0.87-3.52,1.16-5.06s0.55-2.81,0.77-3.81c0.22-1,0.53-1.5,0.92-1.5
			c0.13,0,0.32-0.03,0.58-0.1c0.26-0.06,0.61-0.03,1.06,0.1c0.13,0.06,0.39,0.21,0.77,0.43c0.39,0.23,0.83,0.4,1.35,0.53
			c0.13,0.06,0.53,0.39,1.21,0.96c0.68,0.58,1.21,1.25,1.59,2.03c0,0.52-0.06,0.85-0.19,1.01c-0.13,0.16-0.26,0.4-0.39,0.72
			c-0.52,1.16-0.87,2.09-1.06,2.8c-0.19,0.71-0.42,1.77-0.67,3.18l0.1,0.1c-0.06,0.13-0.16,0.37-0.29,0.72s-0.27,0.74-0.43,1.16
			s-0.31,0.84-0.43,1.25c-0.13,0.42-0.23,0.72-0.29,0.92c0,0.06,0.03,0.1,0.1,0.1c0.58-0.77,1.06-1.41,1.45-1.93
			c0.39-0.51,0.79-1.03,1.21-1.54c0.42-0.51,0.72-0.9,0.92-1.16c0.96-1.16,1.83-2.17,2.6-3.04c0.77-0.87,1.58-1.7,2.41-2.51
			c0.84-0.8,1.8-1.67,2.89-2.6s2.48-2.04,4.15-3.33c0.13-0.13,0.42-0.43,0.87-0.92c0.45-0.48,0.96-0.72,1.54-0.72
			c0.32,0,0.56,0.03,0.72,0.1c0.16,0.06,0.24,0.26,0.24,0.58c0.19-0.19,0.42-0.29,0.68-0.29c0.51,0,0.92,0.13,1.21,0.39
			c0.29,0.26,0.88,0.84,1.78,1.74c0,0.07-0.03,0.1-0.1,0.1c0,0.13,0.05,0.27,0.14,0.43c0.1,0.16,0.15,0.31,0.15,0.43
			c0,0.84-0.19,1.64-0.58,2.41c-0.39,0.77-0.74,1.48-1.06,2.12c0,0.13-0.03,0.37-0.1,0.72c-0.06,0.35-0.35,0.88-0.87,1.59
			c-0.06,0-0.18,0.08-0.34,0.24c-0.16,0.16-0.39,0.52-0.68,1.06c-0.29,0.55-0.66,1.35-1.11,2.41s-0.96,2.49-1.54,4.29
			c-0.19,0.58-0.45,1.05-0.77,1.4c-0.32,0.35-0.48,1.01-0.48,1.98c0,0.06-0.23,0.5-0.68,1.3c-0.45,0.81-0.68,1.85-0.68,3.14
			c-0.32,0.96-0.58,1.96-0.77,2.99c-0.19,1.03-0.35,2.09-0.48,3.18v0.25h0.1c0.13,0,0.27-0.16,0.43-0.48s0.37-0.48,0.63-0.48
			c0-0.06-0.02-0.11-0.05-0.15c-0.03-0.03-0.05-0.08-0.05-0.14c0.13,0,0.35-0.14,0.68-0.43c0.32-0.29,0.48-0.59,0.48-0.92
			c0.19-0.06,0.29-0.08,0.29-0.05s0.06-0.05,0.19-0.24s0.39-0.58,0.77-1.16c0.39-0.58,1.09-1.51,2.12-2.8
			c1.03-1.48,1.91-2.75,2.65-3.81c0.74-1.06,1.56-2.22,2.46-3.47s1.75-2.41,2.56-3.47c0.8-1.06,1.51-1.94,2.12-2.65
			s1.01-1.06,1.21-1.06c0.06,0,0.1,0.02,0.1,0.05c0,0.03,0.03,0.05,0.1,0.05c0.32,0,0.64-0.22,0.96-0.67s0.77-0.68,1.35-0.68
			l-0.1,0.1c0,0.07,0.19,0.1,0.58,0.1S330.95,137.49,331.34,137.74z M295.07,137.65c0-0.26,0.06-0.63,0.19-1.11s0.27-0.93,0.43-1.35
			s0.37-0.98,0.63-1.69v-0.1c-0.39,0-0.76,0.45-1.11,1.35c-0.35,0.9-0.74,1.99-1.16,3.28c-0.42,1.29-0.84,2.61-1.25,3.96
			c-0.42,1.35-0.85,2.48-1.3,3.38c0,0.13-0.02,0.18-0.05,0.14c-0.03-0.03-0.05-0.01-0.05,0.05c-0.13,0.39-0.27,0.82-0.43,1.3
			s-0.3,0.95-0.43,1.4s-0.29,0.96-0.48,1.54c0,0.06,0.02,0.13,0.05,0.19c0.03,0.07,0.05,0.13,0.05,0.19
			c-0.06,0.64-0.14,1.14-0.24,1.5c-0.1,0.35-0.19,0.66-0.29,0.92s-0.18,0.5-0.24,0.72c-0.06,0.23-0.1,0.47-0.1,0.72l0.19,0.39
			c0-0.9,0.08-1.56,0.24-1.98s0.24-0.79,0.24-1.11c0.13,0,0.18-0.1,0.14-0.29c-0.03-0.19,0.02-0.29,0.15-0.29h-0.1
			c0-0.13,0.23-0.61,0.68-1.45c0.45-0.83,0.68-1.8,0.68-2.89c0.06-0.32,0.26-0.88,0.58-1.69c0.32-0.8,0.68-1.66,1.06-2.56
			c0.39-0.9,0.75-1.77,1.11-2.6C294.6,138.74,294.87,138.1,295.07,137.65z M307.9,135.91c0.39-0.45,0.92-0.96,1.59-1.54
			c0.68-0.58,1.32-1.14,1.93-1.69s1.16-1.06,1.64-1.54c0.48-0.48,0.75-0.82,0.82-1.01c-0.13,0-0.37,0.13-0.72,0.39
			s-0.76,0.58-1.21,0.96c-0.45,0.39-0.89,0.79-1.3,1.21c-0.42,0.42-0.79,0.79-1.11,1.11c0.06,0,0.1-0.03,0.1-0.1
			c0,0.07-0.14,0.24-0.43,0.53c-0.29,0.29-0.61,0.63-0.96,1.01c-0.35,0.39-0.68,0.72-0.96,1.01c-0.29,0.29-0.43,0.47-0.43,0.53
			c-1.74,1.74-3.14,3.22-4.2,4.44c-1.06,1.22-1.96,2.3-2.7,3.23s-1.4,1.77-1.98,2.51c-0.58,0.74-1.22,1.43-1.93,2.07
			c0,0.32,0.06,0.48,0.19,0.48c0.26-0.26,0.39-0.43,0.39-0.53s0.03-0.21,0.1-0.34c0.06-0.13,0.22-0.37,0.48-0.72
			s0.77-0.88,1.54-1.59c0.71-0.96,1.25-1.69,1.64-2.17s0.72-0.88,1.01-1.21c0.29-0.32,0.59-0.63,0.92-0.92
			c0.32-0.29,0.74-0.72,1.25-1.3c0.84-0.9,1.56-1.74,2.17-2.51C306.34,137.45,307.06,136.68,307.9,135.91z M310.4,141.41
			c0-0.32,0.13-0.79,0.39-1.4c0.26-0.61,0.55-1.21,0.87-1.78c0.32-0.58,0.63-1.09,0.92-1.54c0.29-0.45,0.5-0.71,0.63-0.77
			c0-0.06-0.02-0.11-0.05-0.14c-0.03-0.03-0.05-0.08-0.05-0.14s0.05-0.11,0.15-0.14c0.1-0.03,0.14-0.11,0.14-0.24
			c0-0.06-0.03-0.13-0.1-0.19c-0.13,0.32-0.29,0.6-0.48,0.82c-0.19,0.23-0.39,0.5-0.58,0.82c-0.32,0.51-0.6,0.93-0.82,1.25
			c-0.23,0.32-0.43,0.64-0.63,0.96c-0.19,0.32-0.29,0.58-0.29,0.77l0.1,0.19c-0.77,1.67-1.42,3.12-1.93,4.34
			c-0.52,1.22-0.92,2.38-1.21,3.47c-0.29,1.09-0.55,2.19-0.77,3.28c-0.23,1.09-0.43,2.32-0.63,3.67c0.32-2.06,0.68-3.79,1.06-5.21
			c0.39-1.41,0.77-2.6,1.16-3.57s0.72-1.74,1.01-2.32c0.29-0.58,0.47-1.03,0.53-1.35l0.1,0.1c0.13,0,0.14-0.05,0.05-0.14
			c-0.1-0.1-0.02-0.14,0.24-0.14l-0.1-0.1c0-0.06,0.03-0.13,0.1-0.19C310.4,141.51,310.47,141.41,310.4,141.41z M326.61,140.64
			c0.26-0.19,0.43-0.34,0.53-0.43c0.1-0.1,0.27-0.37,0.53-0.82c-0.26,0-0.37,0.05-0.34,0.15c0.03,0.1-0.05,0.14-0.24,0.14
			c0,0.06,0.02,0.1,0.05,0.1c0.03,0,0.05,0.03,0.05,0.1c-0.39,0.45-0.82,0.92-1.3,1.4c-0.48,0.48-0.72,0.76-0.72,0.82h0.19
			c0,0.39-0.31,0.98-0.92,1.79c-0.61,0.8-1.3,1.61-2.07,2.41c-0.77,0.81-1.46,1.58-2.07,2.32s-0.92,1.24-0.92,1.5
			c0,0.13-0.05,0.19-0.14,0.19c-0.1,0-0.26,0.08-0.48,0.24c-0.23,0.16-0.52,0.5-0.87,1.01c-0.35,0.52-0.82,1.35-1.4,2.51
			c-0.9,1.29-1.7,2.38-2.41,3.28c-0.71,0.9-1.06,1.38-1.06,1.45c-0.13,0.26-0.52,0.67-1.16,1.25c-0.64,0.58-1.06,1.22-1.25,1.93
			c0.26,0,0.39-0.01,0.39-0.05c0-0.03,0.05-0.14,0.14-0.34c0.1-0.19,0.34-0.53,0.72-1.01s1.06-1.17,2.03-2.07
			c-0.06,0-0.1,0.03-0.1,0.1c0.26,0,0.5-0.29,0.72-0.87s0.5-1.03,0.82-1.35c0-0.13,0.16-0.4,0.48-0.82s0.66-0.87,1.01-1.35
			c0.35-0.48,0.82-1.08,1.4-1.78c0.19-0.45,0.37-0.75,0.53-0.92c0.16-0.16,0.37-0.34,0.63-0.53s0.56-0.5,0.92-0.92
			c0.35-0.42,0.79-1.14,1.3-2.17c0.71-0.71,1.38-1.75,2.03-3.13C324.26,143.35,325.26,141.99,326.61,140.64z"/>
		<path class="st1" d="M359.99,141.02l-0.1,0.1l0.1,0.1c-0.52,0.26-0.85,0.48-1.01,0.68c-0.16,0.19-0.27,0.4-0.34,0.63
			c-0.06,0.23-0.13,0.47-0.19,0.72c-0.06,0.26-0.26,0.55-0.58,0.87c-0.19,0.52-0.32,0.85-0.39,1.01c-0.06,0.16-0.14,0.29-0.24,0.39
			c-0.1,0.1-0.24,0.27-0.43,0.53s-0.48,0.77-0.87,1.54c-0.32,0.19-0.61,0.42-0.87,0.67c-0.19,0.26-0.37,0.55-0.53,0.87
			c-0.16,0.32-0.24,0.68-0.24,1.06c0,0.52-0.03,0.77-0.1,0.77c-0.06,0-0.18,0.03-0.34,0.1c-0.16,0.06-0.37,0.26-0.63,0.58
			s-0.58,1.03-0.96,2.12c-0.52,0.52-0.84,0.88-0.96,1.11c-0.13,0.23-0.19,0.4-0.19,0.53s0.02,0.24,0.05,0.34
			c0.03,0.1,0.05,0.21,0.05,0.34v-0.1c-0.06,0-0.23,0.24-0.48,0.72c-0.26,0.48-0.53,1.01-0.82,1.59s-0.6,1.11-0.92,1.59
			c-0.32,0.48-0.58,0.72-0.77,0.72c0,0.19-0.18,0.58-0.53,1.16c-0.35,0.58-0.79,1.16-1.3,1.74c-0.52,0.58-1.08,1.11-1.69,1.59
			c-0.61,0.48-1.14,0.72-1.59,0.72s-0.96-0.29-1.54-0.87c-0.58-0.58-1.19-1.19-1.83-1.83c-0.52-0.39-0.93-0.77-1.25-1.16
			c-0.32-0.32-0.6-0.64-0.82-0.96c-0.23-0.32-0.34-0.55-0.34-0.68c0-0.06,0.03-0.13,0.1-0.19c0.06,0,0.1,0.03,0.1,0.1
			c-0.19,0-0.35-0.1-0.48-0.29c-0.32-0.19-0.48-0.71-0.48-1.54l-0.1,0.1c-0.06-0.19-0.13-0.42-0.19-0.67
			c-0.06-0.19-0.11-0.42-0.14-0.68s-0.08-0.54-0.14-0.87c0-1.03,0.01-1.94,0.05-2.75c0.03-0.8,0.18-1.62,0.43-2.46
			c-0.06,0-0.43,0.27-1.11,0.82s-1.46,1.46-2.36,2.75h-0.1l0.1,0.1c0,0.13-0.27,0.45-0.82,0.96s-0.92,0.87-1.11,1.06
			c0,0.26-0.03,0.39-0.1,0.39l-0.19-0.1v0.29v-0.1c-0.06,0-0.16,0.13-0.29,0.39s-0.34,0.55-0.63,0.87s-0.66,0.61-1.11,0.87
			s-1,0.39-1.64,0.39c-0.9,0-1.64-0.34-2.22-1.01c-0.58-0.67-1.41-1.66-2.51-2.94c0,0.07-0.13-0.05-0.39-0.34
			c-0.26-0.29-0.35-0.43-0.29-0.43c0-0.19-0.06-0.26-0.19-0.19s-0.29,0.02-0.48-0.14c-0.19-0.16-0.35-0.51-0.48-1.06
			s-0.19-1.5-0.19-2.85c0-0.58,0.11-1.08,0.34-1.5c0.23-0.42,0.34-0.88,0.34-1.4l-0.1-0.1c0-0.39,0.23-0.83,0.68-1.35
			c0.45-0.51,0.67-1.09,0.67-1.74c0-0.06,0.02-0.18,0.05-0.34c0.03-0.16,0.11-0.24,0.24-0.24l-0.1-0.19l0.1-0.1l0.1,0.1
			c0.13,0,0.35-0.37,0.68-1.11c0.32-0.74,0.58-1.21,0.77-1.4c0-0.06-0.02-0.1-0.05-0.1c-0.03,0-0.05-0.03-0.05-0.1
			c0.06-0.19,0.19-0.42,0.39-0.67c0.13-0.26,0.34-0.53,0.63-0.82s0.69-0.69,1.21-1.21c0.39-0.39,0.83-0.79,1.35-1.21
			c0.51-0.42,1-0.8,1.45-1.16c0.45-0.35,0.83-0.66,1.16-0.92c0.32-0.26,0.48-0.42,0.48-0.48l0.19,0.1c0.13,0,0.16-0.03,0.1-0.1
			c-0.06-0.06,0.03-0.1,0.29-0.1l-0.1-0.1h0.29v-0.19c0.06,0,0.13,0.03,0.19,0.1l0.19-0.19l0.19-0.19c0.06,0,0.13,0.03,0.19,0.1
			c0.06,0,0.53-0.11,1.4-0.34c0.87-0.22,1.66-0.34,2.36-0.34c0.9,0,1.61,0.06,2.12,0.19s1.03,0.26,1.54,0.39v-0.1
			c0.06,0,0.29,0.14,0.68,0.43s0.8,0.43,1.25,0.43c0.06,0,0.13-0.03,0.19-0.1c0,0.26,0.13,0.39,0.39,0.39c0.06,0,0.13-0.03,0.19-0.1
			c0.13,0.13,0.3,0.24,0.53,0.34c0.22,0.1,0.4,0.21,0.53,0.34c0.32,0,0.63-0.27,0.92-0.82s0.66-0.82,1.11-0.82
			c0.06,0,0.29,0.07,0.68,0.19c0.39,0.13,0.82,0.29,1.3,0.48s0.95,0.42,1.4,0.67c0.45,0.26,0.74,0.48,0.87,0.68
			c0.32,0.19,0.71,0.39,1.16,0.58c0.45,0.19,0.68,0.55,0.68,1.06c0,0.19-0.11,0.47-0.34,0.82c-0.23,0.35-0.45,0.71-0.68,1.06
			s-0.45,0.69-0.68,1.01s-0.34,0.58-0.34,0.77c-0.32,0.52-0.61,0.98-0.87,1.4c-0.26,0.42-0.48,0.85-0.68,1.3
			c-0.19,0.45-0.29,0.8-0.29,1.06c0,0.07,0.03,0.13,0.1,0.19c-0.26,0-0.55,0.61-0.87,1.83v-0.1c0,0.13-0.13,0.53-0.39,1.21
			c-0.26,0.67-0.55,1.43-0.87,2.27c-0.39,0.96-0.81,2.03-1.25,3.18v0.29v-0.1l-0.1,0.96c-0.06,0-0.1-0.03-0.1-0.1
			c-0.19,0.58-0.32,1.16-0.39,1.74c-0.06,0.58-0.19,1.13-0.39,1.64c0,0.06,0.03,0.1,0.1,0.1c0-0.06,0.1-0.18,0.29-0.34
			c0.19-0.16,0.32-0.27,0.39-0.34c0-0.06-0.03-0.13-0.1-0.19c0-0.06,0.06-0.13,0.19-0.19s0.22-0.13,0.29-0.19l-0.1-0.19
			c0-0.06,0.13-0.18,0.39-0.34c0.26-0.16,0.35-0.24,0.29-0.24c0-0.06-0.03-0.1-0.1-0.1c-0.06,0-0.1-0.03-0.1-0.1
			c0-0.13,0.1-0.32,0.29-0.58s0.61-0.71,1.25-1.35l-0.1-0.19l0.1-0.1h-0.1c0-0.13,0.26-0.35,0.77-0.68
			c0.51-0.32,0.77-0.77,0.77-1.35c0-0.26,0.05-0.39,0.15-0.39c0.1,0,0.21-0.06,0.34-0.19l-0.1-0.1c0-0.26,0.02-0.47,0.05-0.63
			c0.03-0.16,0.13-0.34,0.29-0.53s0.4-0.43,0.72-0.72c0.32-0.29,0.77-0.72,1.35-1.3l-0.1-0.19l0.1-0.1l0.1,0.1
			c0.19-0.45,0.39-0.77,0.58-0.96s0.51-0.5,0.96-0.92s1.04-1.04,1.78-1.88c0.74-0.83,1.69-2.09,2.85-3.76c0.13,0,0.3-0.22,0.53-0.67
			c0.22-0.45,0.79-0.68,1.69-0.68c0.13,0,0.32,0.1,0.58,0.29s0.39,0.35,0.39,0.48s-0.03,0.31-0.1,0.53
			C360.02,140.43,359.99,140.7,359.99,141.02z M327.86,140.73c1.03-1.03,2.01-1.91,2.94-2.65c0.93-0.74,1.85-1.56,2.75-2.46
			c-0.52,0-1,0.14-1.45,0.43s-1.13,0.79-2.03,1.5c-0.39,0.39-0.64,0.58-0.77,0.58c-0.06,0-0.1-0.01-0.1-0.05
			c0-0.03-0.03-0.05-0.1-0.05c-0.06,0-0.14,0.05-0.24,0.15c-0.1,0.1-0.26,0.31-0.48,0.63c-0.23,0.32-0.55,0.79-0.96,1.4
			c-0.42,0.61-0.95,1.43-1.59,2.46c-0.13,0-0.19,0.03-0.19,0.1l0.1,0.1c-0.26,0.26-0.42,0.45-0.48,0.58s-0.13,0.23-0.19,0.29
			c0,0.06,0.03,0.13,0.1,0.19c-0.06,0-0.1-0.03-0.1-0.1l-0.1,0.1c0,0.07,0.03,0.13,0.1,0.19h-0.19c0,0.32-0.03,0.43-0.1,0.34
			c-0.06-0.1-0.1-0.08-0.1,0.05l0.1,0.19c-0.06,0-0.1-0.03-0.1-0.1c-0.13,0-0.18,0.06-0.15,0.19c0.03,0.13-0.02,0.23-0.14,0.29
			l0.1,0.19c-0.13,0-0.19,0.1-0.19,0.29c0,0.32-0.27,0.76-0.82,1.3c-0.55,0.55-0.82,1.66-0.82,3.33c0.32-0.45,0.58-0.83,0.77-1.16
			c0.19-0.32,0.37-0.71,0.53-1.16c0.16-0.45,0.24-0.87,0.24-1.25v0.1c-0.06,0-0.1-0.03-0.1-0.1c0-0.19,0.19-0.59,0.58-1.21
			c0.39-0.61,0.82-1.22,1.3-1.83c0.48-0.61,0.92-1.17,1.3-1.69c0.39-0.51,0.58-0.83,0.58-0.96V140.73z M339.05,143.34
			c0-0.06,0.03-0.11,0.1-0.14c0.06-0.03,0.1-0.08,0.1-0.14s-0.03-0.13-0.1-0.19c-1.03,1.22-2.11,2.44-3.23,3.67
			c-1.13,1.22-2.2,2.25-3.23,3.09c-0.84,0.64-1.58,1.25-2.22,1.83c-0.52,0.52-1,1-1.45,1.45s-0.68,0.74-0.68,0.87l0.1,0.1
			c0.51-0.39,1-0.8,1.45-1.25s0.9-0.84,1.35-1.16c0.64-0.64,1.01-1.01,1.11-1.11s0.21-0.19,0.34-0.29s0.43-0.39,0.92-0.87
			s1.43-1.43,2.85-2.85l-0.1-0.19c0-0.19,0.14-0.4,0.43-0.63c0.29-0.22,0.59-0.47,0.92-0.72c0.32-0.26,0.63-0.51,0.92-0.77
			C338.91,143.76,339.05,143.53,339.05,143.34z M339.83,140.73c0.32-0.32,0.59-0.59,0.82-0.82c0.22-0.22,0.43-0.5,0.63-0.82
			c-0.77,0-1.35,0.06-1.74,0.19s-0.72,0.29-1.01,0.48c-0.29,0.19-0.53,0.35-0.72,0.48c-0.19,0.13-0.48,0.19-0.87,0.19
			c0.06,0-0.06,0.13-0.39,0.39c-0.32,0.26-0.68,0.55-1.06,0.87c-0.39,0.32-0.77,0.64-1.16,0.96c-0.39,0.32-0.61,0.55-0.68,0.67h0.19
			c0,0.07-0.18,0.18-0.53,0.34c-0.35,0.16-0.53,0.4-0.53,0.72l0.1,0.19c-0.58,0.58-0.96,1.03-1.16,1.35
			c-0.19,0.32-0.52,1.06-0.96,2.22c-0.13,0-0.42,0.31-0.87,0.92s-0.68,1.27-0.68,1.98c0,0.06,0.03,0.1,0.1,0.1
			c0.06,0,0.45-0.26,1.16-0.77c0.71-0.51,1.51-1.22,2.41-2.12l-0.1-0.19c0-0.06,0.21-0.26,0.63-0.58s0.66-0.51,0.72-0.58
			c0-0.06-0.03-0.13-0.1-0.19c0-0.06,0.03-0.1,0.1-0.1c0.77-0.96,1.7-1.93,2.8-2.89C338.02,142.76,338.99,141.76,339.83,140.73z
			 M340.02,147.39c0-0.06,0.03-0.13,0.1-0.19c0.06-0.06,0.1-0.16,0.1-0.29c0-0.06-0.03-0.13-0.1-0.19
			c-0.26,0.32-0.47,0.71-0.63,1.16c-0.16,0.45-0.24,0.77-0.24,0.96l0.1,0.1c0.13-0.32,0.27-0.61,0.43-0.87
			C339.94,147.81,340.02,147.58,340.02,147.39z M358.54,140.25c0-0.06-0.03-0.1-0.1-0.1c-0.13,0-0.27,0.08-0.43,0.24
			s-0.31,0.31-0.43,0.43c-0.64,0.45-1.08,0.77-1.3,0.96c-0.23,0.19-0.4,0.4-0.53,0.63s-0.27,0.48-0.43,0.77
			c-0.16,0.29-0.53,0.76-1.11,1.4v0.1c0,0.07,0.03,0.13,0.1,0.19c0,0.19-0.15,0.53-0.43,1.01c-0.29,0.48-0.88,1.17-1.78,2.07
			c0,0.13-0.15,0.34-0.43,0.63c-0.29,0.29-0.43,0.5-0.43,0.63l0.1,0.1l-0.1,0.1c-0.06,0-0.1-0.03-0.1-0.1l-0.77,0.96
			c-0.19,0.26-0.37,0.5-0.53,0.72c-0.16,0.23-0.24,0.4-0.24,0.53l0.1,0.19c-0.13,0-0.37,0.16-0.72,0.48s-0.76,1.16-1.21,2.51
			l-0.39,0.39l0.1,0.19c0-0.06-0.03-0.1-0.1-0.1c-0.06,0-0.18,0.18-0.34,0.53c-0.16,0.35-0.4,0.69-0.72,1.01
			c0,0.26-0.14,0.6-0.43,1.01c-0.29,0.42-0.63,0.84-1.01,1.25c-0.39,0.42-0.72,0.82-1.01,1.21s-0.43,0.64-0.43,0.77
			c0,0.19,0.03,0.29,0.1,0.29c0.26-0.06,0.51-0.22,0.77-0.48s0.58-0.64,0.96-1.16c0.39-0.51,0.83-1.29,1.35-2.32h-0.1
			c0.06-0.32,0.19-0.61,0.39-0.87c0.13-0.19,0.27-0.39,0.43-0.58s0.3-0.29,0.43-0.29c0-0.06-0.03-0.13-0.1-0.19
			c-0.13-0.06,0.32-0.83,1.35-2.32c1.03-1.48,2.38-3.44,4.05-5.88c0.19-0.19,0.43-0.47,0.72-0.82c0.29-0.35,0.58-0.72,0.87-1.11
			s0.55-0.77,0.77-1.16c0.22-0.39,0.34-0.68,0.34-0.87c0,0.06,0.24-0.19,0.72-0.77C356.95,141.89,357.64,141.15,358.54,140.25z"/>
		<path class="st1" d="M411.79,139c0.45,0.07,0.76,0.18,0.92,0.34c0.16,0.16,0.37,0.4,0.63,0.72c-0.06,0.26-0.13,0.52-0.19,0.77
			c-0.06,0.26-0.21,0.58-0.43,0.96c-0.23,0.39-0.55,0.84-0.96,1.35c-0.42,0.52-1.01,1.16-1.78,1.93c-0.52,0.26-1.48,1.12-2.89,2.6
			c-1.42,1.48-3.63,3.83-6.66,7.04v-0.1c-0.06,0.26-0.19,0.52-0.39,0.77c-0.39,0.52-1.03,0.9-1.93,1.16c-0.06,0-0.1,0.06-0.1,0.19
			s-0.06,0.19-0.19,0.19c-0.06,0-0.13-0.03-0.19-0.1c-0.13,0.26-0.19,0.35-0.19,0.29v0.1c0-0.13-0.03-0.19-0.1-0.19
			c-0.19,0-0.32,0.02-0.39,0.05c-0.06,0.03-0.26,0.18-0.58,0.43c-0.32,0.26-0.9,0.72-1.74,1.4c-0.84,0.67-2.16,1.62-3.96,2.85
			c-0.06,0-0.13-0.03-0.19-0.1l-0.1,0.1c0,0.06,0.03,0.1,0.1,0.1c-0.32,0-0.45,0.03-0.39,0.1c0.06,0.07-0.06,0.1-0.39,0.1
			c0,0.07,0.02,0.1,0.05,0.1s0.05,0.03,0.05,0.1c-0.32,0-0.45,0.03-0.39,0.1c0.06,0.07,0.03,0.1-0.1,0.1c-0.06,0-0.13-0.03-0.19-0.1
			c0,0.19-0.08,0.26-0.24,0.19c-0.16-0.06-0.24-0.03-0.24,0.1l0.1,0.1h-0.19c-0.06,0-0.29,0.08-0.68,0.24s-0.84,0.32-1.35,0.48
			c-0.52,0.16-1.08,0.32-1.69,0.48s-1.14,0.24-1.59,0.24s-1.2-0.14-2.26-0.43s-2.12-0.98-3.2-2.07c-0.51-0.39-1.02-0.8-1.53-1.25
			c-0.45-0.32-0.87-0.71-1.29-1.16c-0.41-0.45-0.75-0.87-1-1.25l0.19-0.1c-0.25,0-0.48-0.13-0.67-0.39
			c-0.44-0.45-0.67-1.51-0.67-3.18c0.06,0,0.13-0.03,0.19-0.1c-0.06,0-0.1-0.03-0.1-0.1l0.1-0.1c0-0.06-0.03-0.16-0.1-0.29
			c-0.06-0.13-0.09-0.26-0.09-0.39s0.03-0.21,0.09-0.24c0.06-0.03,0.1-0.11,0.1-0.24c-0.13,0-0.19-0.16-0.19-0.48
			c0-0.26,0.06-0.39,0.19-0.39c0-0.06-0.03-0.11-0.1-0.14c-0.06-0.03-0.09-0.08-0.09-0.15c0-0.06,0.03-0.1,0.09-0.1
			c0.06,0,0.1-0.03,0.1-0.1h-0.1c-0.06,0-0.1-0.06-0.1-0.19c0.06,0,0.13-0.03,0.19-0.1c0-0.06-0.02-0.11-0.05-0.15
			c-0.03-0.03-0.05-0.08-0.05-0.14c0-0.32,0.1-0.96,0.29-1.93c0.19-0.96,0.35-1.64,0.48-2.03l-0.1-0.19c0-0.58,0.08-1.03,0.24-1.35
			c0.16-0.32,0.35-0.66,0.57-1.01c0.22-0.35,0.46-0.79,0.71-1.3s0.48-1.22,0.67-2.12c0-0.13,0.06-0.48,0.19-1.06
			c0.13-0.58,0.73-1.41,1.81-2.51l-0.1-0.19v-0.1l0.1,0.1c0.06,0,0.16-0.08,0.28-0.24c0.13-0.16,0.32-0.5,0.57-1.01
			c0-0.39,0.3-0.77,0.9-1.16c0.6-0.39,1.29-1.22,2.05-2.51c0,0.07-0.03,0.1-0.1,0.1c0-0.06,0.18-0.27,0.53-0.63
			c0.35-0.35,0.87-0.77,1.54-1.25s1.43-0.96,2.27-1.45c0.83-0.48,1.74-0.85,2.7-1.11l-0.1-0.1c0-0.13,0.16-0.22,0.48-0.29
			c0.32-0.06,1.03-0.1,2.12-0.1c1.22,0,2.41,0.16,3.57,0.48c0.19,0.07,0.48,0.18,0.87,0.34c0.39,0.16,0.8,0.32,1.25,0.48
			s0.87,0.31,1.25,0.43c0.39,0.13,0.64,0.19,0.77,0.19h-0.1c0.06,0,0.22,0.05,0.48,0.14c0.26,0.1,0.55,0.27,0.87,0.53
			s0.61,0.58,0.87,0.96c0.26,0.39,0.39,0.87,0.39,1.45c0,0.52-0.1,0.9-0.29,1.16c0.13,0.32,0.29,0.69,0.48,1.11s0.29,0.88,0.29,1.4
			c0,0.39-0.05,0.72-0.15,1.01c-0.1,0.29-0.23,0.59-0.39,0.92c-0.16,0.32-0.35,0.72-0.58,1.21c-0.23,0.48-0.47,1.11-0.72,1.88
			c-0.13,0-0.42,0.26-0.87,0.77s-0.68,1-0.68,1.45c0,0.07,0.02,0.11,0.05,0.14s0.05,0.08,0.05,0.15c-0.13,0-0.27,0.14-0.43,0.43
			s-0.35,0.6-0.58,0.92s-0.47,0.63-0.72,0.92c-0.26,0.29-0.55,0.43-0.87,0.43c-0.06,0-0.11-0.01-0.14-0.05
			c-0.03-0.03-0.08-0.05-0.14-0.05c-0.06,0.13-0.15,0.21-0.24,0.24c-0.1,0.03-0.15,0.11-0.15,0.24c0,0.06,0.03,0.13,0.1,0.19
			c-0.45,0.26-0.76,0.43-0.92,0.53c-0.16,0.1-0.53,0.43-1.11,1.01c-0.13,0-0.64,0.32-1.54,0.96s-1.9,0.96-2.99,0.96
			c-0.96,0-1.64-0.19-2.03-0.58s-0.77-0.68-1.16-0.87l0.1,0.1c-0.45-0.32-0.93-0.74-1.45-1.25c-0.52-0.51-0.77-0.8-0.77-0.87
			c-0.71,1.67-1.29,3.44-1.74,5.31s-0.68,3.89-0.68,6.08c0,0.19,0.03,0.39,0.1,0.58c0.06,0.19,0.26,0.29,0.58,0.29
			c0.06,0,0.24-0.11,0.53-0.34c0.29-0.22,1.01-0.34,2.17-0.34c0.19-0.06,0.39-0.16,0.58-0.29c0.39-0.26,0.77-0.39,1.16-0.39
			c0-0.06-0.02-0.1-0.05-0.1s-0.05-0.03-0.05-0.1c0.45-0.32,1.01-0.61,1.69-0.87c0.68-0.26,1.01-0.42,1.01-0.48h-0.19
			c0.06,0,0.11,0.02,0.14,0.05c0.03,0.03,0.08,0.05,0.14,0.05c0.13,0,0.19-0.06,0.19-0.19s0.1-0.19,0.29-0.19
			c0.06,0,0.26-0.13,0.58-0.39s0.71-0.55,1.16-0.87c0.45-0.32,0.88-0.61,1.3-0.87s0.79-0.39,1.11-0.39c0-0.06-0.02-0.1-0.05-0.1
			s-0.05-0.03-0.05-0.1c0.64-0.39,1.22-0.77,1.74-1.16c0.45-0.32,0.87-0.63,1.25-0.92s0.64-0.5,0.77-0.63
			c0.06-0.06,0.27-0.21,0.63-0.43c0.35-0.22,0.72-0.51,1.11-0.87c0.39-0.35,0.74-0.69,1.06-1.01c0.32-0.32,0.48-0.61,0.48-0.87
			c0.06,0,0.11,0.02,0.14,0.05c0.03,0.03,0.08,0.05,0.15,0.05c0.13,0,0.34-0.14,0.63-0.43s0.58-0.61,0.87-0.96s0.58-0.69,0.87-1.01
			s0.53-0.54,0.72-0.67c0.06,0,0.13,0.03,0.19,0.1c-0.06,0,0.43-0.5,1.5-1.5c1.06-1,2.17-2.07,3.33-3.23
			c0.71-0.71,1.14-1.16,1.3-1.35s0.24-0.27,0.24-0.24s-0.02,0.11-0.05,0.24s0.11,0.19,0.43,0.19c0.13,0,0.35,0.05,0.68,0.14
			C411.72,138.95,411.85,139,411.79,139z M379.18,140.64c0.26-0.45,0.45-0.84,0.58-1.16c0.13-0.32,0.32-0.67,0.58-1.06
			s0.63-0.85,1.11-1.4c0.48-0.54,1.17-1.27,2.07-2.17c0.9-0.9,1.78-1.85,2.65-2.85s1.53-1.5,1.98-1.5c0-0.19,0.1-0.27,0.29-0.24
			s0.29-0.02,0.29-0.15l-0.19-0.1c-0.13,0.13-0.32,0.29-0.58,0.48s-0.55,0.42-0.87,0.68s-0.63,0.47-0.92,0.63
			c-0.29,0.16-0.53,0.24-0.72,0.24c-0.06,0-0.1-0.03-0.1-0.1c0,0.07-0.23,0.27-0.68,0.63c-0.45,0.35-1.03,0.9-1.74,1.64
			s-1.5,1.7-2.36,2.89c-0.87,1.19-1.72,2.65-2.56,4.39c-0.13,0.19-0.29,0.51-0.48,0.96s-0.42,0.93-0.68,1.45s-0.47,1.08-0.63,1.69
			s-0.24,1.14-0.24,1.59v-0.19c0,0.52-0.1,1.06-0.29,1.64c-0.19,0.58-0.26,0.9-0.19,0.96c0.39-1.29,0.76-2.39,1.11-3.33
			c0.35-0.93,0.76-1.91,1.21-2.94C378.28,142.31,378.73,141.41,379.18,140.64z M389.22,138.03c-0.19,0.13-0.37,0.31-0.53,0.53
			c-0.16,0.23-0.27,0.34-0.34,0.34c-0.06,0-0.1-0.03-0.1-0.1h0.1c0,0.06-0.29,0.39-0.87,0.96c-0.58,0.58-1.42,1.93-2.51,4.05
			c0,0.32,0.1,0.53,0.29,0.63c0.19,0.1,0.39,0.15,0.58,0.15c0.13,0,0.19-0.06,0.19-0.19s0.06-0.19,0.19-0.19
			c0.32-0.26,0.64-0.45,0.96-0.58s0.71-0.32,1.16-0.58c0.45-0.26,1-0.66,1.64-1.21c0.64-0.54,1.45-1.43,2.41-2.65
			c0,0.06-0.03,0.1-0.1,0.1c0.19-0.51,0.42-0.96,0.67-1.35c0.19-0.32,0.4-0.64,0.63-0.96c0.22-0.32,0.43-0.48,0.63-0.48l-0.1-0.19
			c0.13,0,0.47-0.39,1.01-1.16c0.55-0.77,0.82-1.41,0.82-1.93c-1.48,0.64-2.28,1.03-2.41,1.16c-0.71,0.45-1.3,0.85-1.78,1.21
			s-0.96,0.74-1.45,1.16C389.84,137.15,389.47,137.58,389.22,138.03z M396.26,135.81c-0.06,0-0.21,0.13-0.43,0.39
			c-0.23,0.26-0.45,0.56-0.68,0.92c-0.23,0.35-0.43,0.74-0.63,1.16c-0.19,0.42-0.29,0.82-0.29,1.21c0,0.19,0,0.31,0,0.34
			s-0.11,0.16-0.34,0.39c-0.23,0.23-0.63,0.6-1.21,1.11c-0.58,0.52-1.42,1.32-2.51,2.41l0.1-0.1c-0.26,0.26-0.52,0.48-0.77,0.67
			c-0.45,0.45-0.84,0.68-1.16,0.68c-0.06,0-0.1,0.03-0.1,0.1c0,0.06,0.06,0.1,0.19,0.1c1.29-0.77,2.28-1.45,2.99-2.03
			s1.27-1.08,1.69-1.5c0.42-0.42,0.74-0.8,0.96-1.16c0.22-0.35,0.5-0.69,0.82-1.01v0.1c0.06,0,0.18-0.27,0.34-0.82
			c0.16-0.54,0.43-0.92,0.82-1.11l-0.1-0.19c0-0.06,0.02-0.1,0.05-0.1s0.11-0.13,0.24-0.39h-0.19c0-0.06,0.24-0.24,0.72-0.53
			c0.48-0.29,0.72-0.95,0.72-1.98l-0.19-0.1c-0.19,0.19-0.42,0.48-0.68,0.87c-0.13,0.19-0.23,0.39-0.29,0.58L396.26,135.81
			L396.26,135.81z M408.8,142.18c0-0.13-0.47,0.24-1.4,1.11s-2.49,2.27-4.68,4.2v-0.1c-0.13,0-0.69,0.37-1.69,1.11
			s-2.24,2.01-3.71,3.81c0.77-0.51,1.51-1.09,2.22-1.74c0.71-0.64,1.41-1.32,2.12-2.03c1.16-1.16,1.9-1.85,2.22-2.07
			c0.32-0.22,0.58-0.4,0.77-0.53s0.55-0.4,1.06-0.82C406.23,144.7,407.25,143.72,408.8,142.18z"/>
		<path class="st1" d="M428.96,129.74c0.13,0.26,0.19,0.42,0.19,0.48c0,0.32-0.03,0.66-0.1,1.01c-0.06,0.35-0.16,0.69-0.29,1.01
			c-0.39,0.39-0.88,1.01-1.5,1.88c-0.61,0.87-1.21,1.82-1.78,2.85c-0.58,1.03-1.09,2.11-1.54,3.23c-0.45,1.13-0.68,2.14-0.68,3.04
			c0,0.32,0.03,0.48,0.1,0.48c-0.19,0-0.64-0.11-1.35-0.34c-0.71-0.22-1.13-0.63-1.25-1.21c-0.26,0-0.45-0.27-0.58-0.82
			c-0.13-0.54-0.23-1.12-0.29-1.74c-0.06-0.61-0.11-1.19-0.14-1.74c-0.03-0.54-0.05-0.85-0.05-0.92c0.06-0.13,0.1-0.27,0.1-0.43
			s0.03-0.3,0.1-0.43c-0.06,0-0.29,0.23-0.68,0.67c-0.39,0.45-0.82,0.95-1.3,1.5c-0.48,0.55-0.95,1.03-1.4,1.45
			c-0.45,0.42-0.77,0.63-0.96,0.63c-0.26,0-0.5,0.21-0.72,0.63c-0.23,0.42-0.43,0.9-0.63,1.45c-0.19,0.55-0.34,1.06-0.43,1.54
			c-0.1,0.48-0.14,0.79-0.14,0.92c0,0.58,0.08,1.05,0.24,1.4c0.16,0.35,0.35,0.69,0.58,1.01c0.22,0.32,0.47,0.67,0.72,1.06
			c0.26,0.39,0.48,0.9,0.68,1.54c0.13,0.13,0.21,0.27,0.24,0.43s0.11,0.31,0.24,0.43c0.19,0.9,0.5,1.82,0.92,2.75
			s0.82,1.91,1.21,2.94s0.72,2.12,1.01,3.28c0.29,1.16,0.43,2.35,0.43,3.57c0,0.9-0.1,1.77-0.29,2.6c-0.19,0.84-0.56,1.58-1.11,2.22
			c-0.55,0.64-1.27,1.16-2.17,1.54c-0.9,0.39-2.03,0.58-3.38,0.58c-0.45,0-0.88-0.03-1.3-0.1c-0.42-0.06-0.88-0.1-1.4-0.1
			c-0.13,0-0.24,0.02-0.34,0.05c-0.1,0.03-0.21,0.05-0.34,0.05c-1.09-0.13-2.01-0.35-2.75-0.68c-0.74-0.32-1.35-0.66-1.83-1.01
			c-0.48-0.35-0.92-0.82-1.3-1.4c-0.13-0.13-0.4-0.43-0.82-0.92c-0.42-0.48-0.63-0.79-0.63-0.92l0.1-0.1l0.1-0.1
			c-0.58-0.64-0.95-1.08-1.11-1.3s-0.24-0.4-0.24-0.53c0-0.06,0.03-0.11,0.1-0.15c0.06-0.03,0.1-0.08,0.1-0.14s-0.05-0.21-0.15-0.43
			s-0.21-0.48-0.34-0.77c-0.13-0.29-0.24-0.56-0.34-0.82s-0.14-0.42-0.14-0.48c0.06-0.32,0.32-0.69,0.77-1.11
			c0.45-0.42,0.93-0.82,1.45-1.21c0.52-0.39,1.22-0.83,2.12-1.35c0.32-0.26,0.79-0.55,1.4-0.87s1.14-0.58,1.59-0.77
			c-0.45,1.09-0.82,2.24-1.11,3.42c-0.29,1.19-0.43,2.36-0.43,3.52c0,0.52,0.13,0.77,0.39,0.77c0.13,0,0.23-0.03,0.29-0.1
			c0.71,0.13,1.33,0.19,1.88,0.19s1.01,0,1.4,0c0.64,0,1.09-0.03,1.35-0.1c0.26-0.06,0.42-0.13,0.48-0.19
			c0.06-0.06,0.11-0.13,0.14-0.19s0.11-0.1,0.24-0.1l-0.1-0.1v0.1c0.19,0,0.61-0.3,1.25-0.92c0.64-0.61,1-1.17,1.06-1.69l-0.1-0.1
			c-0.06,0-0.1-0.03-0.1-0.1h0.19c0-0.96-0.1-1.8-0.29-2.51c-0.19-0.71-0.4-1.33-0.63-1.88s-0.43-1.06-0.63-1.54
			s-0.29-1.04-0.29-1.69c-0.26-0.45-0.43-0.82-0.53-1.11s-0.21-0.5-0.34-0.63c-0.13-0.19-0.23-0.29-0.29-0.29l0.1,0.1v-0.1l0.1-0.19
			c0-0.19-0.14-0.43-0.43-0.72s-0.43-0.56-0.43-0.82c0-0.06,0.03-0.13,0.1-0.19h-0.19v-0.1l0.1-0.19c-0.52-0.96-0.93-1.77-1.25-2.41
			c-0.32-0.64-0.61-1.27-0.87-1.88s-0.42-0.98-0.48-1.11h0.1c-0.06-0.06-0.18-0.4-0.34-1.01c-0.16-0.61-0.24-1.27-0.24-1.98
			c0-1.09,0.16-1.88,0.48-2.36s0.55-0.75,0.68-0.82c0-0.06-0.06-0.1-0.19-0.1c0.45-1.16,0.93-2.03,1.45-2.6
			c0.51-0.58,1-1.03,1.45-1.35c0.45-0.32,0.82-0.53,1.11-0.63s0.43-0.24,0.43-0.43l0.1,0.1c0,0.07,0.03,0.1,0.1,0.1
			c0.06,0,0.1-0.16,0.1-0.48c0.06,0,0.1,0.02,0.1,0.05c0,0.03,0.03,0.05,0.1,0.05c0.71-0.45,1.29-0.82,1.74-1.11s1.03-0.72,1.74-1.3
			l0.19,0.19c0.06,0,0.11-0.05,0.14-0.14c0.03-0.1,0.08-0.18,0.15-0.24c0.83-0.51,1.56-0.87,2.17-1.06s1.27-0.29,1.98-0.29
			c0.39,0,0.98,0.03,1.78,0.1c0.8,0.06,1.61,0.19,2.41,0.39c0.8,0.19,1.51,0.48,2.12,0.87
			C428.65,128.58,428.96,129.09,428.96,129.74z M403.88,159.25c0.19-0.13,0.4-0.3,0.63-0.53c0.23-0.22,0.47-0.43,0.72-0.63
			l0.77-0.77c-0.13,0-0.35,0.11-0.68,0.34c-0.32,0.23-0.66,0.47-1.01,0.72c-0.35,0.26-0.66,0.5-0.92,0.72
			c-0.26,0.23-0.39,0.37-0.39,0.43l0.1,0.19c-0.51,0.39-0.77,0.71-0.77,0.96c0,0.13,0.03,0.19,0.1,0.19
			c0.19-0.32,0.43-0.61,0.72-0.87C403.44,159.77,403.69,159.51,403.88,159.25z M416.13,131.76c0.77-0.58,1.4-1.03,1.88-1.35
			c0.48-0.32,0.85-0.58,1.11-0.77c0.26-0.26,0.48-0.42,0.68-0.48c-0.06,0-0.1,0.03-0.1,0.1c-0.06,0-0.1-0.03-0.1-0.1
			c-0.13,0.13-0.31,0.23-0.53,0.29c-0.23,0.06-0.79,0.35-1.69,0.87c-0.13,0.13-0.18,0.21-0.15,0.24c0.03,0.03-0.02,0.05-0.14,0.05
			c-0.39,0-0.87,0.24-1.45,0.72s-1.16,1.01-1.74,1.59s-1.32,1.35-2.22,2.32l-0.1,0.1c0,0.06,0.02,0.11,0.05,0.14
			s0.05,0.08,0.05,0.14c-0.13,0.13-0.31,0.27-0.53,0.43c-0.23,0.16-0.34,0.31-0.34,0.43c0,0.06,0.02,0.1,0.05,0.1
			s0.05,0.03,0.05,0.1c0,0.06-0.03,0.13-0.1,0.19v0.1C412.43,134.91,414.2,133.18,416.13,131.76z M414.88,163.21
			c0-0.13-0.03-0.22-0.1-0.29l-1.45,0.96c0.06,0.06,0.11,0.1,0.14,0.1s0.08,0.03,0.15,0.1c0.32,0,0.61-0.06,0.87-0.19
			C414.75,163.76,414.88,163.53,414.88,163.21z M421.05,137.74c0.06,0.19,0.11,0.34,0.14,0.43c0.03,0.1,0.05,0.21,0.05,0.34v0.19
			c0.06,0,0.13-0.4,0.19-1.21c0.06-0.8,0.39-1.88,0.96-3.23c-0.71,0.52-1.13,1.09-1.25,1.74c-0.13,0.64-0.19,1.13-0.19,1.45v0.29
			H421.05z"/>
		<path class="st1" d="M437.26,143.63c0.58-0.32,1.09-0.74,1.54-1.25c0.45-0.51,0.83-1.01,1.16-1.5c0.32-0.48,0.63-0.9,0.92-1.25
			s0.53-0.53,0.72-0.53c0.58-0.45,1.03-0.8,1.35-1.06s0.64-0.5,0.96-0.72s0.51-0.34,0.58-0.34c0-0.06-0.02-0.11-0.05-0.14
			s-0.05-0.08-0.05-0.14c0.45-0.19,0.92-0.47,1.4-0.82c0.48-0.35,0.82-0.69,1.01-1.01l0.19,0.1c0.13,0,0.32-0.16,0.58-0.48
			s0.87-0.74,1.83-1.25l0.19,0.1c-0.06,0,0.19-0.14,0.77-0.43c0.58-0.29,1.19-0.43,1.83-0.43c0.26,0,0.53,0.06,0.82,0.19
			s0.56,0.26,0.82,0.39c0.26,0.19,0.51,0.39,0.77,0.58v-0.1c0.13,0.06,0.21,0.11,0.24,0.14s0.1,0.08,0.19,0.14
			c0.1,0.06,0.26,0.16,0.48,0.29s0.63,0.32,1.21,0.58c0.32,0.32,0.63,0.71,0.92,1.16c0.29,0.45,0.63,0.87,1.01,1.25
			c0,0.06-0.02,0.11-0.05,0.14s-0.05,0.08-0.05,0.14c0.06,0,0.14,0.19,0.24,0.58s0.19,0.84,0.29,1.35c0.1,0.51,0.18,1.06,0.24,1.64
			c0.06,0.58,0.1,1.09,0.1,1.54c0,1.74-0.29,3.47-0.87,5.21s-1.24,3.36-1.98,4.87s-1.4,2.8-1.98,3.86s-0.87,1.79-0.87,2.17v-0.1
			c-0.06,0.13-0.13,0.19-0.19,0.19c-0.06,0-0.1,0.03-0.1,0.1c0,0.06,0.02,0.11,0.05,0.14s0.05,0.08,0.05,0.14
			c-0.19,0-0.6,0.34-1.21,1.01c-0.61,0.68-1.25,1.4-1.93,2.17c-0.68,0.77-1.32,1.5-1.93,2.17c-0.61,0.68-0.98,1.01-1.11,1.01v-0.1
			c-0.9,0.39-1.87,0.58-2.89,0.58c-0.64,0-1.38-0.13-2.22-0.39s-1.35-0.48-1.54-0.67l-0.19,0.1c-0.26,0-0.6-0.11-1.01-0.34
			c-0.42-0.22-0.84-0.48-1.25-0.77c-0.42-0.29-0.77-0.56-1.06-0.82s-0.43-0.42-0.43-0.48h0.1c-1.09-1.35-1.88-2.51-2.36-3.47
			s-0.88-1.51-1.21-1.64c-0.13,0-0.26,0.19-0.39,0.58c-0.06,0.19-0.1,0.39-0.1,0.58c-0.19,0.52-0.56,1.38-1.11,2.6
			c-0.55,1.22-1.08,2.49-1.59,3.81c-0.52,1.32-0.93,2.48-1.25,3.47c-0.32,1-0.42,1.5-0.29,1.5c-0.13,0-0.21,0.29-0.24,0.87
			s-0.08,0.87-0.15,0.87l-0.29-0.19c0,0.06,0.06,0.1,0.19,0.1h0.1v0.1c-0.26,0.26-0.43,0.48-0.53,0.68
			c-0.1,0.19-0.21,0.39-0.34,0.58c-0.13,0.26-0.19,0.48-0.19,0.68v-0.1c0,0.07,0.03,0.13,0.1,0.19l-0.1,0.1
			c-0.06,0-0.1-0.03-0.1-0.1c-0.19,0.58-0.37,1.14-0.53,1.69s-0.27,0.82-0.34,0.82v-0.1c0.06,0.13,0.1,0.26,0.1,0.39
			s-0.03,0.22-0.1,0.29c-0.06,0.06-0.1,0.13-0.1,0.19s0.03,0.13,0.1,0.19c-0.19,0.13-0.43,0.53-0.72,1.21
			c-0.29,0.67-0.59,1.4-0.92,2.17c-0.32,0.9-0.68,1.93-1.06,3.09c0,0.26-0.13,0.61-0.39,1.06s-0.42,0.74-0.48,0.87
			c-0.26,1.29-0.58,2.3-0.96,3.04c-0.39,0.74-0.61,1.11-0.68,1.11c-0.32,0-0.77-0.19-1.35-0.58s-1.16-0.82-1.74-1.3
			s-1.09-0.96-1.54-1.45c-0.45-0.48-0.68-0.82-0.68-1.01s-0.16-0.42-0.48-0.67c-0.32-0.26-0.48-0.55-0.48-0.87v-0.19
			c0,0.06-0.06,0.1-0.19,0.1l0.1-0.19c0-0.13-0.03-0.24-0.1-0.34c-0.06-0.1-0.1-0.21-0.1-0.34c0-0.39,0.13-0.92,0.39-1.59
			c0.26-0.67,0.53-1.38,0.82-2.12c0.29-0.74,0.56-1.45,0.82-2.12c0.26-0.68,0.39-1.24,0.39-1.69v0.1c0.13,0,0.27-0.32,0.43-0.96
			s0.37-1.38,0.63-2.22c0.26-0.9,0.55-1.96,0.87-3.18v0.1c0.77-1.93,1.4-3.52,1.88-4.78s0.92-2.44,1.3-3.57
			c0.39-1.12,0.58-1.82,0.58-2.07c0-0.9,0.19-1.59,0.58-2.07s0.58-0.79,0.58-0.92h-0.1c0.19-0.45,0.32-0.82,0.39-1.11
			c0.06-0.29,0.13-0.59,0.19-0.92l-0.1-0.19c0-0.45,0.11-0.74,0.34-0.87s0.4-0.32,0.53-0.58c0-0.06-0.03-0.11-0.1-0.15
			c-0.06-0.03-0.1-0.11-0.1-0.24c0-0.32,0.18-0.8,0.53-1.45c0.35-0.64,0.6-0.96,0.72-0.96c-0.06-0.06-0.1-0.19-0.1-0.39
			c0-0.13,0.05-0.37,0.14-0.72c0.1-0.35,0.37-0.92,0.82-1.69l-0.1-0.1c0.19-0.51,0.34-0.96,0.43-1.35c0.1-0.39,0.23-0.77,0.39-1.16
			c0.16-0.39,0.34-0.67,0.53-0.87l-0.1-0.1c0-0.13,0.1-0.43,0.29-0.92s0.45-1.08,0.77-1.79c0.32-0.71,0.69-1.46,1.11-2.27
			c0.42-0.8,0.85-1.59,1.3-2.36c0-0.06-0.02-0.13-0.05-0.19s-0.05-0.13-0.05-0.19c0.06-0.13,0.16-0.26,0.29-0.39
			c0.26-0.26,0.39-0.45,0.39-0.58l-0.1-0.19c0-0.32,0.19-0.67,0.58-1.06s0.58-0.64,0.58-0.77v-0.1v0.1v-0.29
			c0.06,0,0.1,0.02,0.1,0.05c0,0.03,0.03,0.05,0.1,0.05c0.06-0.19,0.16-0.39,0.29-0.58c0.13-0.13,0.22-0.27,0.29-0.43
			c0.06-0.16,0.16-0.24,0.29-0.24s0.53,0.1,1.21,0.29c0.68,0.19,1.41,0.48,2.22,0.87c0.8,0.39,1.56,0.88,2.27,1.5
			c0.71,0.61,1.12,1.37,1.25,2.27c0,0.19-0.19,0.69-0.58,1.5c-0.39,0.8-0.82,1.67-1.3,2.6c-0.48,0.93-1.14,2.14-1.98,3.62v0.14
			H437.26z M420.18,174.98c0.13-0.13,0.16-0.24,0.1-0.34c-0.06-0.1-0.03-0.21,0.1-0.34l-0.1-0.1c0.39-2.12,0.87-4.08,1.45-5.88
			s1.14-3.34,1.69-4.63c0.55-1.29,1-2.33,1.35-3.13s0.53-1.27,0.53-1.4l0.1,0.1c0.06-0.13,0.13-0.32,0.19-0.58
			c0.06-0.19,0.16-0.61,0.29-1.25c0.13-0.51,0.26-1.12,0.39-1.83c0.39-0.77,0.63-1.35,0.72-1.74s0.16-0.68,0.19-0.87
			c0.03-0.19,0.05-0.3,0.05-0.34c0-0.03,0.06-0.08,0.19-0.14c0-0.06-0.03-0.14-0.1-0.24c-0.06-0.1-0.1-0.18-0.1-0.24
			c0-0.13,0.03-0.16,0.1-0.1c0.06,0.06,0.1-0.06,0.1-0.39c0.19,0,0.35-0.19,0.48-0.58s0.24-0.82,0.34-1.3s0.21-0.92,0.34-1.3
			c0.13-0.39,0.29-0.58,0.48-0.58l-0.1-0.19c0.51-2.06,1.16-3.67,1.93-4.82c0.77-1.16,1.16-1.99,1.16-2.51
			c0-0.26,0.06-0.58,0.19-0.96c0.06-0.19,0.16-0.32,0.29-0.39c0-0.06-0.03-0.13-0.1-0.19l0.1-0.1l0.1,0.1c0-0.19,0.03-0.39,0.1-0.58
			c0.06-0.26,0.35-0.64,0.87-1.16l-0.19-0.29l0.1-0.1v-0.1l-0.1-0.19c0.06,0,0.1,0.02,0.1,0.05c0,0.03,0.03,0.05,0.1,0.05
			c0-0.39,0.1-0.58,0.29-0.58c0-0.06-0.02-0.11-0.05-0.14s-0.05-0.08-0.05-0.14c0-0.32,0.06-0.43,0.19-0.34
			c0.13,0.1,0.26-0.01,0.39-0.34l-0.1-0.19c0-0.13,0.1-0.34,0.29-0.63s0.29-0.63,0.29-1.01c0-0.06-0.03-0.1-0.1-0.1
			c-0.26,0.58-0.53,1.22-0.82,1.93c-0.29,0.71-0.58,1.37-0.87,1.98s-0.63,1.3-1.01,2.07c0,0.52-0.19,1.08-0.58,1.69
			s-0.58,0.88-0.58,0.82l0.1,0.19l-0.87,1.74c0,0.07,0.02,0.11,0.05,0.15c0.03,0.03,0.05,0.08,0.05,0.14c-0.13,0-0.23,0.1-0.29,0.29
			s-0.13,0.35-0.19,0.48c0,0.06,0.01,0.11,0.05,0.14c0.03,0.03,0.05,0.08,0.05,0.14c-0.13,0-0.23,0.03-0.29,0.1
			c-0.13,0.13-0.19,0.32-0.19,0.58l0.1,0.19c-0.19,0-0.29,0.03-0.29,0.1l0.1,0.1l-0.1,0.1l-0.1-0.1c0,0.32-0.08,0.79-0.24,1.4
			c-0.16,0.61-0.34,1.21-0.53,1.79c-0.19,0.58-0.4,1.09-0.63,1.54c-0.22,0.45-0.4,0.68-0.53,0.68v-0.1
			c-0.06,0.26-0.13,0.53-0.19,0.82c-0.06,0.29-0.1,0.47-0.1,0.53c0,0.06,0.03,0.13,0.1,0.19c-0.06,0.06-0.16,0.21-0.29,0.43
			c-0.13,0.23-0.19,0.31-0.19,0.24c0,0.06,0.03,0.13,0.1,0.19c-1.03,3.02-1.99,5.88-2.89,8.58s-1.7,5.06-2.41,7.09
			c-0.71,2.03-1.29,3.65-1.74,4.87s-0.71,1.83-0.77,1.83c0,0.06,0.03,0.13,0.1,0.19c0,0.13-0.05,0.35-0.15,0.67
			s-0.18,0.69-0.24,1.11c-0.06,0.42-0.13,0.82-0.19,1.21c-0.06,0.39-0.1,0.67-0.1,0.87c0,0.13,0.06,0.19,0.19,0.19
			c0-0.19,0.08-0.56,0.24-1.11s0.34-1.09,0.53-1.64c0.19-0.55,0.39-1.05,0.58-1.5C419.89,175.4,420.05,175.11,420.18,174.98z
			 M436.97,147c0.96-1.09,1.59-1.94,1.88-2.56c0.29-0.61,0.76-1.08,1.4-1.4c0.13,0,0.29-0.11,0.48-0.34
			c0.19-0.22,0.4-0.48,0.63-0.77c0.22-0.29,0.45-0.56,0.68-0.82c0.22-0.26,0.43-0.39,0.63-0.39c0.39-0.13,0.77-0.35,1.16-0.67
			s0.72-0.64,1.01-0.96s0.66-0.74,1.11-1.25c0.77-0.45,1.25-0.72,1.45-0.82s0.32-0.14,0.39-0.14c-0.06,0-0.19-0.06-0.39-0.19
			c0.26,0,0.61-0.15,1.06-0.43c0.45-0.29,0.93-0.59,1.45-0.92c0.58-0.39,1.16-0.84,1.74-1.35c-0.84,0-1.51,0.21-2.03,0.63
			s-0.77,0.66-0.77,0.72c-0.06,0-0.11-0.02-0.14-0.05c-0.03-0.03-0.08-0.05-0.15-0.05c-0.9,0.96-1.61,1.62-2.12,1.98
			c-0.52,0.35-0.92,0.58-1.21,0.67c-0.29,0.1-0.47,0.16-0.53,0.19s-0.1,0.18-0.1,0.43c0,0.07,0.03,0.1,0.1,0.1
			c-0.58,0-1.37,0.5-2.36,1.5c-1,1-1.98,2.07-2.94,3.23s-1.82,2.24-2.56,3.23c-0.74,1-1.14,1.5-1.21,1.5c0,0.19-0.06,0.35-0.19,0.48
			c-0.13,0.13-0.19,0.26-0.19,0.39c0,0.19,0.1,0.29,0.29,0.29c0.13-0.39,0.32-0.75,0.58-1.11
			C436.35,147.76,436.64,147.39,436.97,147z M452.01,138.71c-0.19,0.26-0.42,0.47-0.68,0.63c-0.26,0.16-0.35,0.24-0.29,0.24
			c-1.09,0.58-1.82,0.98-2.17,1.21c-0.35,0.23-0.53,0.37-0.53,0.43h0.19l0.1-0.1l-0.1,0.1l0.29-0.1c-0.52,0-0.96,0.19-1.35,0.58
			s-0.58,0.64-0.58,0.77l0.1-0.1c0.06,0,0,0.1-0.19,0.29c-0.58,0.32-1.01,0.61-1.3,0.87s-0.48,0.48-0.58,0.67s-0.16,0.34-0.19,0.43
			c-0.03,0.1-0.15,0.14-0.34,0.14c-0.52,0-1.22,0.55-2.12,1.64s-1.82,2.3-2.75,3.62s-1.75,2.52-2.46,3.62
			c-0.71,1.09-1.09,1.64-1.16,1.64c0.45,0.84,0.82,1.51,1.11,2.03s0.59,1,0.92,1.45c0.32,0.45,0.55,0.67,0.68,0.67
			c0.64,0,1.12-0.11,1.45-0.34c0.32-0.22,0.64-0.5,0.96-0.82c0.06,0,0.13,0.03,0.19,0.1c0.19,0,0.29-0.13,0.29-0.39
			c0.19-0.19,0.53-0.56,1.01-1.11c0.48-0.54,0.79-0.82,0.92-0.82c1.03-0.64,1.83-1.48,2.41-2.51c0.58-1.03,1.06-2.01,1.45-2.94
			c0.39-0.93,0.74-1.74,1.06-2.41c0.32-0.68,0.74-1.01,1.25-1.01l-0.1-0.19c0.06-0.06,0.1-0.13,0.1-0.19s-0.06-0.16-0.19-0.29
			c0.26-0.19,0.56-0.54,0.92-1.06c0.35-0.51,0.53-0.8,0.53-0.87c-0.06-0.06-0.13-0.1-0.19-0.1c0.06-0.06,0.24-0.34,0.53-0.82
			s0.5-0.98,0.63-1.5l-0.19-0.1c0-0.06,0.13-0.16,0.39-0.29c-0.26-0.06-0.39-0.16-0.39-0.29c0-0.71,0.16-1.22,0.48-1.54
			c0.13-0.19,0.29-0.32,0.48-0.39h-0.19c0.13,0,0.19-0.03,0.19-0.1c0-0.13-0.03-0.26-0.1-0.39c-0.13-0.26-0.19-0.42-0.19-0.48
			C452.3,138.68,452.21,138.71,452.01,138.71z M443.82,159.93c0.19,0,0.5-0.22,0.92-0.68c0.42-0.45,0.75-0.77,1.01-0.96
			c1.03-1.16,1.77-2.07,2.22-2.75c0.45-0.67,0.77-1.19,0.96-1.54s0.29-0.61,0.29-0.77c0-0.16,0.1-0.34,0.29-0.53
			c0.96-1.48,1.64-2.73,2.03-3.76s0.55-1.61,0.48-1.74c-0.45,1.48-0.84,2.41-1.16,2.8c-0.32,0.39-0.52,0.58-0.58,0.58
			c-0.06,0-0.1-0.03-0.1-0.1c0,0.32-0.13,0.6-0.39,0.82c-0.26,0.23-0.39,0.4-0.39,0.53c0,0.07,0.01,0.1,0.05,0.1
			c0.03,0,0.05,0.06,0.05,0.19s-0.1,0.32-0.29,0.58c-0.19,0.26-0.42,0.55-0.68,0.87s-0.55,0.68-0.87,1.06l0.1-0.1
			c-0.13,0.19-0.35,0.5-0.68,0.92c-0.32,0.42-0.68,0.84-1.06,1.25c-0.39,0.42-0.74,0.8-1.06,1.16c-0.32,0.35-0.52,0.53-0.58,0.53
			c-0.06,0-0.13-0.03-0.19-0.1c-0.26,0.19-0.42,0.43-0.48,0.72c-0.06,0.29-0.16,0.43-0.29,0.43c-0.06,0-0.1-0.03-0.1-0.1
			c-0.13,0.07-0.21,0.16-0.24,0.29s-0.11,0.19-0.24,0.19c-0.06,0-0.13-0.03-0.19-0.1l-0.77,0.68c0.32,0,0.66-0.05,1.01-0.14
			C443.25,160.17,443.56,160.06,443.82,159.93z"/>
		<path class="st1" d="M483.17,131.86c0.19-0.13,0.79-0.21,1.78-0.24c1-0.03,2.07-0.03,3.23,0s2.25,0.07,3.28,0.1
			c1.03,0.03,1.7,0.05,2.03,0.05c0.39,0,0.87,0.06,1.45,0.19s1.14,0.32,1.69,0.58c0.55,0.26,1,0.53,1.35,0.82s0.53,0.59,0.53,0.92
			c0,0.32-0.35,0.6-1.06,0.82c-0.71,0.23-1.53,0.42-2.46,0.58c-0.93,0.16-1.83,0.27-2.7,0.34c-0.87,0.06-1.43,0.1-1.69,0.1
			c-0.39,0-1.17,0.1-2.36,0.29s-2.17,0.29-2.94,0.29c-0.06,0.06-0.1,0.13-0.1,0.19c0,0.39,0.1,0.87,0.29,1.45
			c0.19,0.58,0.29,1.58,0.29,2.99c0,1.61-0.06,2.57-0.19,2.89c-0.13,0.32-0.19,0.55-0.19,0.68s0.02,0.23,0.05,0.29
			c0.03,0.07,0.05,0.16,0.05,0.29s-0.06,0.35-0.19,0.67c-0.13,0.32-0.27,0.66-0.43,1.01c-0.16,0.35-0.31,0.71-0.43,1.06
			c-0.13,0.35-0.19,0.56-0.19,0.63c0,0.06,0.03,0.1,0.1,0.1l-0.1-0.1c-0.39,0.71-0.61,1.16-0.68,1.35c-0.06,0.19-0.1,0.39-0.1,0.58
			c0,0.06,0.02,0.11,0.05,0.14s0.05,0.08,0.05,0.14c-0.84,0.84-1.29,1.4-1.35,1.69c-0.06,0.29-0.1,0.56-0.1,0.82l-0.58,0.77
			c-0.39,0.51-0.58,0.84-0.58,0.96c0,0.07,0.03,0.13,0.1,0.19l-0.1,0.1l-0.1-0.1c-0.58,1.29-1.08,2.25-1.5,2.89
			s-0.74,1.09-0.96,1.35c-0.23,0.26-0.4,0.42-0.53,0.48c-0.13,0.07-0.19,0.19-0.19,0.39c-0.06,0-0.1-0.01-0.1-0.05
			c0-0.03-0.03-0.05-0.1-0.05c0,0.64-0.26,1.32-0.77,2.03c-0.52,0.71-1.08,1.35-1.69,1.93s-1.46,1.25-2.56,2.03l0.19-0.1h-0.1
			c-0.13,0-0.45,0.27-0.96,0.82c-0.52,0.55-1.58,0.82-3.18,0.82c-1.42,0-2.43-0.4-3.04-1.21c-0.61-0.8-1.24-1.56-1.88-2.27
			c0-0.06-0.06-0.1-0.19-0.1c-0.13,0-0.19-0.06-0.19-0.19c0-0.06,0.03-0.13,0.1-0.19c-0.58-0.58-1.19-1.24-1.83-1.98
			s-0.93-1.17-0.87-1.3c0.13,0,0.19-0.1,0.19-0.29c-0.19-0.13-0.39-0.61-0.58-1.45c-0.19-0.83-0.29-1.74-0.29-2.7
			c0-1.48,0.1-2.65,0.29-3.52c0.19-0.87,0.4-1.54,0.63-2.03c0.23-0.48,0.43-0.87,0.63-1.16c0.19-0.29,0.29-0.59,0.29-0.92
			c0-0.13,0.05-0.21,0.14-0.24c0.1-0.03,0.18-0.08,0.24-0.14c0-0.06-0.02-0.1-0.05-0.1s-0.05-0.03-0.05-0.1
			c0.06-0.19,0.16-0.42,0.29-0.68s0.23-0.42,0.29-0.48s0.1-0.13,0.1-0.19s-0.02-0.11-0.05-0.15c-0.03-0.03-0.05-0.08-0.05-0.14
			c0-0.39,0.24-0.83,0.72-1.35c0.48-0.51,0.69-0.77,0.63-0.77c0.26-1.22,0.74-2.43,1.45-3.62s1.43-2.27,2.17-3.23
			c0.74-0.96,1.69-2.03,2.85-3.18c0.26-0.45,0.58-0.92,0.96-1.4c0.39-0.48,0.79-0.9,1.21-1.25c0.42-0.35,0.79-0.64,1.11-0.87
			c0.32-0.22,0.51-0.34,0.58-0.34c0.77-0.77,1.32-1.19,1.64-1.25c0.32-0.06,0.48-0.16,0.48-0.29c0.19-0.13,0.39-0.24,0.58-0.34
			s0.51-0.14,0.96-0.14c1.09,0,1.85,0.11,2.27,0.34c0.42,0.23,0.71,0.45,0.87,0.67c0.16,0.23,0.3,0.45,0.43,0.68
			s0.45,0.34,0.96,0.34c0,0.07-0.02,0.11-0.05,0.15c-0.03,0.03-0.05,0.08-0.05,0.14l0.39,0.58
			C482.82,131.57,482.98,131.73,483.17,131.86z M470.05,139.19c0-0.13,0.05-0.22,0.14-0.29c0.1-0.06,0.15-0.19,0.15-0.39
			c1.03-1.03,1.7-1.72,2.03-2.07c0.32-0.35,0.48-0.59,0.48-0.72l-0.1-0.1h-0.1c0-0.06,0.06-0.16,0.19-0.29
			c1.8-1.8,2.99-2.99,3.57-3.57s0.9-0.87,0.96-0.87c0,0.06-0.06,0.16-0.19,0.29l-0.19,0.19c0-0.06,0.24-0.32,0.72-0.77
			s0.79-0.67,0.92-0.67h0.1c0-0.06-0.06-0.1-0.19-0.1c-0.39,0-0.72,0.14-1.01,0.43s-0.5,0.43-0.63,0.43v-0.1
			c-0.39,0.13-0.69,0.32-0.92,0.58c-0.23,0.26-0.37,0.39-0.43,0.39v-0.1c0-0.06-0.24,0.26-0.72,0.96c-0.48,0.71-1.05,1.48-1.69,2.32
			c-0.64,0.84-1.27,1.61-1.88,2.32s-1.01,1.06-1.21,1.06c-0.32,0.77-0.6,1.27-0.82,1.5c-0.23,0.23-0.4,0.4-0.53,0.53
			c-0.77,1.22-1.34,2.19-1.69,2.89c-0.35,0.71-0.63,1.27-0.82,1.69s-0.34,0.74-0.43,0.96c-0.1,0.23-0.24,0.43-0.43,0.63
			c0,0.13-0.06,0.23-0.19,0.29c-0.13,0.06-0.19,0.13-0.19,0.19s0.02,0.13,0.05,0.19c0.03,0.07,0.05,0.13,0.05,0.19
			c-0.39,0.39-0.68,0.79-0.87,1.21c-0.19,0.42-0.35,0.79-0.48,1.11c-0.13,0.39-0.19,0.77-0.19,1.16v-0.1c0,0.13,0.06,0.23,0.19,0.29
			c0.84-2.19,1.78-4.24,2.85-6.17C467.59,142.76,468.77,140.93,470.05,139.19z M468.32,161.86c0.13,0,0.18-0.02,0.14-0.05
			c-0.03-0.03-0.02-0.08,0.05-0.14c0.06,0,0.11,0.02,0.14,0.05c0.03,0.03,0.08,0.05,0.15,0.05c0.32,0,0.63-0.11,0.92-0.34
			c0.29-0.22,0.53-0.47,0.72-0.72c0.19-0.26,0.39-0.58,0.58-0.96c0.71-0.71,1.21-1.24,1.5-1.59c0.29-0.35,0.5-0.63,0.63-0.82
			s0.19-0.34,0.19-0.43c0-0.1,0.06-0.21,0.19-0.34c1.29-1.93,2.15-3.18,2.6-3.76s0.71-0.87,0.77-0.87c0,0.06-0.02,0.11-0.05,0.14
			s-0.05,0.08-0.05,0.14c-0.06,0.07-0.1,0.13-0.1,0.19l-0.1-0.1c0-0.19,0.11-0.47,0.34-0.82c0.22-0.35,0.45-0.69,0.68-1.01
			c0.22-0.32,0.45-0.63,0.68-0.92c0.22-0.29,0.34-0.5,0.34-0.63l-0.1-0.1c0-0.51,0.19-1.03,0.58-1.54s0.58-0.8,0.58-0.87
			c-0.13,0-0.16-0.03-0.1-0.1c0.06-0.06,0.03-0.1-0.1-0.1c-0.26,0.64-0.68,1.4-1.25,2.27s-1.16,1.71-1.74,2.51s-1.08,1.53-1.5,2.17
			c-0.42,0.64-0.63,1.03-0.63,1.16c-0.39,0.77-0.72,1.24-1.01,1.4c-0.29,0.16-0.43,0.31-0.43,0.43l0.1,0.19
			c-1.16,1.16-2.09,2.09-2.8,2.8c-0.71,0.71-1.25,1.24-1.64,1.59c-0.39,0.35-0.63,0.59-0.72,0.72c-0.1,0.13-0.14,0.23-0.14,0.29
			c0.06,0.06,0.1,0.13,0.1,0.19c0,0.07,0.03,0.1,0.1,0.1c0.06,0,0.13-0.03,0.19-0.1C468.19,161.89,468.25,161.86,468.32,161.86z
			 M470.15,156.94c0-0.26,0.24-0.64,0.72-1.16c0.48-0.51,0.98-1.03,1.5-1.54c0-0.06-0.02-0.11-0.05-0.14s-0.05-0.08-0.05-0.15
			c0-0.13,0.18-0.4,0.53-0.82s0.75-0.87,1.21-1.35c0.45-0.48,0.85-0.95,1.21-1.4c0.35-0.45,0.53-0.74,0.53-0.87
			c0-0.06-0.03-0.1-0.1-0.1c0-0.13,0.06-0.26,0.19-0.39c0.13-0.13,0.26-0.22,0.39-0.29c0-0.06-0.02-0.11-0.05-0.14
			s-0.05-0.08-0.05-0.14c0-0.71,0.26-1.22,0.77-1.54s0.77-0.67,0.77-1.06c0.71-1.67,1.22-3.01,1.54-4c0.32-1,0.48-1.56,0.48-1.69
			c0-0.32,0.03-0.66,0.1-1.01c0.06-0.35,0.1-0.69,0.1-1.01c0-0.19-0.02-0.48-0.05-0.87s-0.11-0.58-0.24-0.58
			c-0.19,0-0.45,0.21-0.77,0.63c-0.32,0.42-0.63,0.9-0.92,1.45s-0.55,1.03-0.77,1.45c-0.23,0.42-0.37,0.63-0.43,0.63v-0.1
			c0,0.26-0.1,0.52-0.29,0.77c-0.19,0.26-0.39,0.48-0.58,0.67c-0.26,0.26-0.52,0.52-0.77,0.77l0.1-0.1v0.19
			c0,0.13-0.16,0.42-0.48,0.87s-0.52,0.68-0.58,0.68c0,0.06,0.02,0.11,0.05,0.14s0.05,0.08,0.05,0.14
			c-0.13,0.13-0.24,0.29-0.34,0.48s-0.21,0.35-0.34,0.48l-0.39,0.58c-0.06,0-0.1-0.03-0.1-0.1l-0.1,0.1c0,0.07,0.02,0.11,0.05,0.15
			c0.03,0.03,0.05,0.08,0.05,0.14c-1.03,1.03-1.66,1.82-1.88,2.36c-0.23,0.55-0.34,0.98-0.34,1.3v0.39c0,0.32-0.11,0.77-0.34,1.35
			c-0.23,0.58-0.48,1.14-0.77,1.69s-0.63,1.24-1.01,2.07c0.06,0,0.1,0.1,0.1,0.29c0,0.71-0.13,1.19-0.39,1.45s-0.39,0.71-0.39,1.35
			c0,0.19,0.06,0.29,0.19,0.29c0.58-0.9,1.22-1.64,1.93-2.22v-0.09H470.15z"/>
		<path class="st1" d="M512.01,129.74c0.13,0.26,0.19,0.42,0.19,0.48c0,0.32-0.03,0.66-0.1,1.01c-0.06,0.35-0.16,0.69-0.29,1.01
			c-0.39,0.39-0.88,1.01-1.5,1.88c-0.61,0.87-1.21,1.82-1.78,2.85c-0.58,1.03-1.09,2.11-1.54,3.23c-0.45,1.13-0.68,2.14-0.68,3.04
			c0,0.32,0.03,0.48,0.1,0.48c-0.19,0-0.64-0.11-1.35-0.34c-0.71-0.22-1.13-0.63-1.25-1.21c-0.26,0-0.45-0.27-0.58-0.82
			c-0.13-0.54-0.23-1.12-0.29-1.74c-0.06-0.61-0.11-1.19-0.14-1.74c-0.03-0.54-0.05-0.85-0.05-0.92c0.06-0.13,0.1-0.27,0.1-0.43
			s0.03-0.3,0.1-0.43c-0.06,0-0.29,0.23-0.68,0.67c-0.39,0.45-0.82,0.95-1.3,1.5c-0.48,0.55-0.95,1.03-1.4,1.45
			c-0.45,0.42-0.77,0.63-0.96,0.63c-0.26,0-0.5,0.21-0.72,0.63c-0.23,0.42-0.43,0.9-0.63,1.45c-0.19,0.55-0.34,1.06-0.43,1.54
			c-0.1,0.48-0.14,0.79-0.14,0.92c0,0.58,0.08,1.05,0.24,1.4c0.16,0.35,0.35,0.69,0.58,1.01c0.22,0.32,0.47,0.67,0.72,1.06
			c0.26,0.39,0.48,0.9,0.68,1.54c0.13,0.13,0.21,0.27,0.24,0.43s0.11,0.31,0.24,0.43c0.19,0.9,0.5,1.82,0.92,2.75
			s0.82,1.91,1.21,2.94s0.72,2.12,1.01,3.28c0.29,1.16,0.43,2.35,0.43,3.57c0,0.9-0.1,1.77-0.29,2.6c-0.19,0.84-0.56,1.58-1.11,2.22
			c-0.55,0.64-1.27,1.16-2.17,1.54c-0.9,0.39-2.03,0.58-3.38,0.58c-0.45,0-0.88-0.03-1.3-0.1c-0.42-0.06-0.88-0.1-1.4-0.1
			c-0.13,0-0.24,0.02-0.34,0.05c-0.1,0.03-0.21,0.05-0.34,0.05c-1.09-0.13-2.01-0.35-2.75-0.68c-0.74-0.32-1.35-0.66-1.83-1.01
			c-0.48-0.35-0.92-0.82-1.3-1.4c-0.13-0.13-0.4-0.43-0.82-0.92c-0.42-0.48-0.63-0.79-0.63-0.92l0.1-0.1l0.1-0.1
			c-0.58-0.64-0.95-1.08-1.11-1.3s-0.24-0.4-0.24-0.53c0-0.06,0.03-0.11,0.1-0.15c0.06-0.03,0.1-0.08,0.1-0.14s-0.05-0.21-0.15-0.43
			s-0.21-0.48-0.34-0.77c-0.13-0.29-0.24-0.56-0.34-0.82s-0.14-0.42-0.14-0.48c0.06-0.32,0.32-0.69,0.77-1.11
			c0.45-0.42,0.93-0.82,1.45-1.21c0.52-0.39,1.22-0.83,2.12-1.35c0.32-0.26,0.79-0.55,1.4-0.87s1.14-0.58,1.59-0.77
			c-0.45,1.09-0.82,2.24-1.11,3.42c-0.29,1.19-0.43,2.36-0.43,3.52c0,0.52,0.13,0.77,0.39,0.77c0.13,0,0.23-0.03,0.29-0.1
			c0.71,0.13,1.33,0.19,1.88,0.19s1.01,0,1.4,0c0.64,0,1.09-0.03,1.35-0.1c0.26-0.06,0.42-0.13,0.48-0.19
			c0.06-0.06,0.11-0.13,0.14-0.19s0.11-0.1,0.24-0.1l-0.1-0.1v0.1c0.19,0,0.61-0.3,1.25-0.92c0.64-0.61,1-1.17,1.06-1.69l-0.1-0.1
			c-0.06,0-0.1-0.03-0.1-0.1h0.19c0-0.96-0.1-1.8-0.29-2.51c-0.19-0.71-0.4-1.33-0.63-1.88s-0.43-1.06-0.63-1.54
			s-0.29-1.04-0.29-1.69c-0.26-0.45-0.43-0.82-0.53-1.11s-0.21-0.5-0.34-0.63c-0.13-0.19-0.23-0.29-0.29-0.29l0.1,0.1v-0.1l0.1-0.19
			c0-0.19-0.14-0.43-0.43-0.72s-0.43-0.56-0.43-0.82c0-0.06,0.03-0.13,0.1-0.19h-0.19v-0.1l0.1-0.19c-0.52-0.96-0.93-1.77-1.25-2.41
			c-0.32-0.64-0.61-1.27-0.87-1.88s-0.42-0.98-0.48-1.11h0.1c-0.06-0.06-0.18-0.4-0.34-1.01c-0.16-0.61-0.24-1.27-0.24-1.98
			c0-1.09,0.16-1.88,0.48-2.36s0.55-0.75,0.68-0.82c0-0.06-0.06-0.1-0.19-0.1c0.45-1.16,0.93-2.03,1.45-2.6
			c0.51-0.58,1-1.03,1.45-1.35c0.45-0.32,0.82-0.53,1.11-0.63s0.43-0.24,0.43-0.43l0.1,0.1c0,0.07,0.03,0.1,0.1,0.1
			c0.06,0,0.1-0.16,0.1-0.48c0.06,0,0.1,0.02,0.1,0.05c0,0.03,0.03,0.05,0.1,0.05c0.71-0.45,1.29-0.82,1.74-1.11s1.03-0.72,1.74-1.3
			l0.19,0.19c0.06,0,0.11-0.05,0.14-0.14c0.03-0.1,0.08-0.18,0.15-0.24c0.83-0.51,1.56-0.87,2.17-1.06s1.27-0.29,1.98-0.29
			c0.39,0,0.98,0.03,1.78,0.1c0.8,0.06,1.61,0.19,2.41,0.39c0.8,0.19,1.51,0.48,2.12,0.87
			C511.71,128.58,512.01,129.09,512.01,129.74z M486.93,159.25c0.19-0.13,0.4-0.3,0.63-0.53c0.23-0.22,0.47-0.43,0.72-0.63
			l0.77-0.77c-0.13,0-0.35,0.11-0.68,0.34c-0.32,0.23-0.66,0.47-1.01,0.72c-0.35,0.26-0.66,0.5-0.92,0.72
			c-0.26,0.23-0.39,0.37-0.39,0.43l0.1,0.19c-0.51,0.39-0.77,0.71-0.77,0.96c0,0.13,0.03,0.19,0.1,0.19
			c0.19-0.32,0.43-0.61,0.72-0.87C486.5,159.77,486.74,159.51,486.93,159.25z M499.18,131.76c0.77-0.58,1.4-1.03,1.88-1.35
			c0.48-0.32,0.85-0.58,1.11-0.77c0.26-0.26,0.48-0.42,0.68-0.48c-0.06,0-0.1,0.03-0.1,0.1c-0.06,0-0.1-0.03-0.1-0.1
			c-0.13,0.13-0.31,0.23-0.53,0.29c-0.23,0.06-0.79,0.35-1.69,0.87c-0.13,0.13-0.18,0.21-0.15,0.24c0.03,0.03-0.02,0.05-0.14,0.05
			c-0.39,0-0.87,0.24-1.45,0.72s-1.16,1.01-1.74,1.59s-1.32,1.35-2.22,2.32l-0.1,0.1c0,0.06,0.02,0.11,0.05,0.14
			s0.05,0.08,0.05,0.14c-0.13,0.13-0.31,0.27-0.53,0.43c-0.23,0.16-0.34,0.31-0.34,0.43c0,0.06,0.02,0.1,0.05,0.1
			s0.05,0.03,0.05,0.1c0,0.06-0.03,0.13-0.1,0.19v0.1C495.49,134.91,497.26,133.18,499.18,131.76z M497.93,163.21
			c0-0.13-0.03-0.22-0.1-0.29l-1.45,0.96c0.06,0.06,0.11,0.1,0.14,0.1s0.08,0.03,0.15,0.1c0.32,0,0.61-0.06,0.87-0.19
			C497.8,163.76,497.93,163.53,497.93,163.21z M504.1,137.74c0.06,0.19,0.11,0.34,0.14,0.43c0.03,0.1,0.05,0.21,0.05,0.34v0.19
			c0.06,0,0.13-0.4,0.19-1.21c0.06-0.8,0.39-1.88,0.96-3.23c-0.71,0.52-1.13,1.09-1.25,1.74c-0.13,0.64-0.19,1.13-0.19,1.45v0.29
			H504.1z"/>
		<path class="st1" d="M547.42,141.02l-0.1,0.1l0.1,0.1c-0.52,0.26-0.85,0.48-1.01,0.68c-0.16,0.19-0.27,0.4-0.34,0.63
			c-0.06,0.23-0.13,0.47-0.19,0.72c-0.06,0.26-0.26,0.55-0.58,0.87c-0.19,0.52-0.32,0.85-0.39,1.01c-0.06,0.16-0.14,0.29-0.24,0.39
			c-0.1,0.1-0.24,0.27-0.43,0.53c-0.19,0.26-0.48,0.77-0.87,1.54c-0.32,0.19-0.61,0.42-0.87,0.67c-0.19,0.26-0.37,0.55-0.53,0.87
			s-0.24,0.68-0.24,1.06c0,0.52-0.03,0.77-0.1,0.77c-0.06,0-0.18,0.03-0.34,0.1c-0.16,0.06-0.37,0.26-0.63,0.58
			s-0.58,1.03-0.96,2.12c-0.52,0.52-0.84,0.88-0.96,1.11c-0.13,0.23-0.19,0.4-0.19,0.53s0.02,0.24,0.05,0.34
			c0.03,0.1,0.05,0.21,0.05,0.34v-0.1c-0.06,0-0.23,0.24-0.48,0.72c-0.26,0.48-0.53,1.01-0.82,1.59c-0.29,0.58-0.6,1.11-0.92,1.59
			c-0.32,0.48-0.58,0.72-0.77,0.72c0,0.19-0.18,0.58-0.53,1.16c-0.35,0.58-0.79,1.16-1.3,1.74c-0.52,0.58-1.08,1.11-1.69,1.59
			c-0.61,0.48-1.14,0.72-1.59,0.72s-0.96-0.29-1.54-0.87c-0.58-0.58-1.19-1.19-1.83-1.83c-0.52-0.39-0.93-0.77-1.25-1.16
			c-0.32-0.32-0.6-0.64-0.82-0.96c-0.23-0.32-0.34-0.55-0.34-0.68c0-0.06,0.03-0.13,0.1-0.19c0.06,0,0.1,0.03,0.1,0.1
			c-0.19,0-0.35-0.1-0.48-0.29c-0.32-0.19-0.48-0.71-0.48-1.54l-0.1,0.1c-0.06-0.19-0.13-0.42-0.19-0.67
			c-0.06-0.19-0.11-0.42-0.14-0.68s-0.08-0.54-0.14-0.87c0-1.03,0.01-1.94,0.05-2.75c0.03-0.8,0.18-1.62,0.43-2.46
			c-0.06,0-0.43,0.27-1.11,0.82c-0.68,0.55-1.46,1.46-2.36,2.75h-0.1l0.1,0.1c0,0.13-0.27,0.45-0.82,0.96
			c-0.55,0.51-0.92,0.87-1.11,1.06c0,0.26-0.03,0.39-0.1,0.39l-0.19-0.1v0.29v-0.1c-0.06,0-0.16,0.13-0.29,0.39
			s-0.34,0.55-0.63,0.87s-0.66,0.61-1.11,0.87s-1,0.39-1.64,0.39c-0.9,0-1.64-0.34-2.22-1.01s-1.41-1.66-2.51-2.94
			c0,0.07-0.13-0.05-0.39-0.34c-0.26-0.29-0.35-0.43-0.29-0.43c0-0.19-0.06-0.26-0.19-0.19c-0.13,0.07-0.29,0.02-0.48-0.14
			c-0.19-0.16-0.35-0.51-0.48-1.06s-0.19-1.5-0.19-2.85c0-0.58,0.11-1.08,0.34-1.5s0.34-0.88,0.34-1.4l-0.1-0.1
			c0-0.39,0.23-0.83,0.68-1.35c0.45-0.51,0.67-1.09,0.67-1.74c0-0.06,0.02-0.18,0.05-0.34c0.03-0.16,0.11-0.24,0.24-0.24l-0.1-0.19
			l0.1-0.1l0.1,0.1c0.13,0,0.35-0.37,0.68-1.11c0.32-0.74,0.58-1.21,0.77-1.4c0-0.06-0.02-0.1-0.05-0.1s-0.05-0.03-0.05-0.1
			c0.06-0.19,0.19-0.42,0.39-0.67c0.13-0.26,0.34-0.53,0.63-0.82s0.69-0.69,1.21-1.21c0.39-0.39,0.83-0.79,1.35-1.21
			c0.51-0.42,1-0.8,1.45-1.16c0.45-0.35,0.83-0.66,1.16-0.92c0.32-0.26,0.48-0.42,0.48-0.48l0.19,0.1c0.13,0,0.16-0.03,0.1-0.1
			c-0.06-0.06,0.03-0.1,0.29-0.1l-0.1-0.1h0.29v-0.19c0.06,0,0.13,0.03,0.19,0.1l0.19-0.19l0.19-0.19c0.06,0,0.13,0.03,0.19,0.1
			c0.06,0,0.53-0.11,1.4-0.34c0.87-0.22,1.66-0.34,2.36-0.34c0.9,0,1.61,0.06,2.12,0.19s1.03,0.26,1.54,0.39v-0.1
			c0.06,0,0.29,0.14,0.68,0.43s0.8,0.43,1.25,0.43c0.06,0,0.13-0.03,0.19-0.1c0,0.26,0.13,0.39,0.39,0.39c0.06,0,0.13-0.03,0.19-0.1
			c0.13,0.13,0.3,0.24,0.53,0.34c0.22,0.1,0.4,0.21,0.53,0.34c0.32,0,0.63-0.27,0.92-0.82s0.66-0.82,1.11-0.82
			c0.06,0,0.29,0.07,0.68,0.19c0.39,0.13,0.82,0.29,1.3,0.48c0.48,0.19,0.95,0.42,1.4,0.67c0.45,0.26,0.74,0.48,0.87,0.68
			c0.32,0.19,0.71,0.39,1.16,0.58c0.45,0.19,0.68,0.55,0.68,1.06c0,0.19-0.11,0.47-0.34,0.82c-0.23,0.35-0.45,0.71-0.68,1.06
			c-0.23,0.35-0.45,0.69-0.68,1.01c-0.23,0.32-0.34,0.58-0.34,0.77c-0.32,0.52-0.61,0.98-0.87,1.4c-0.26,0.42-0.48,0.85-0.68,1.3
			c-0.19,0.45-0.29,0.8-0.29,1.06c0,0.07,0.03,0.13,0.1,0.19c-0.26,0-0.55,0.61-0.87,1.83v-0.1c0,0.13-0.13,0.53-0.39,1.21
			c-0.26,0.67-0.55,1.43-0.87,2.27c-0.39,0.96-0.81,2.03-1.25,3.18v0.29v-0.1l-0.1,0.96c-0.06,0-0.1-0.03-0.1-0.1
			c-0.19,0.58-0.32,1.16-0.39,1.74c-0.06,0.58-0.19,1.13-0.39,1.64c0,0.06,0.03,0.1,0.1,0.1c0-0.06,0.1-0.18,0.29-0.34
			c0.19-0.16,0.32-0.27,0.39-0.34c0-0.06-0.03-0.13-0.1-0.19c0-0.06,0.06-0.13,0.19-0.19c0.13-0.06,0.22-0.13,0.29-0.19l-0.1-0.19
			c0-0.06,0.13-0.18,0.39-0.34c0.26-0.16,0.35-0.24,0.29-0.24c0-0.06-0.03-0.1-0.1-0.1c-0.06,0-0.1-0.03-0.1-0.1
			c0-0.13,0.1-0.32,0.29-0.58c0.19-0.26,0.61-0.71,1.25-1.35l-0.1-0.19l0.1-0.1h-0.1c0-0.13,0.26-0.35,0.77-0.68
			c0.51-0.32,0.77-0.77,0.77-1.35c0-0.26,0.05-0.39,0.15-0.39s0.21-0.06,0.34-0.19l-0.1-0.1c0-0.26,0.02-0.47,0.05-0.63
			c0.03-0.16,0.13-0.34,0.29-0.53s0.4-0.43,0.72-0.72s0.77-0.72,1.35-1.3l-0.1-0.19l0.1-0.1l0.1,0.1c0.19-0.45,0.39-0.77,0.58-0.96
			s0.51-0.5,0.96-0.92s1.04-1.04,1.78-1.88c0.74-0.83,1.69-2.09,2.85-3.76c0.13,0,0.3-0.22,0.53-0.67c0.22-0.45,0.79-0.68,1.69-0.68
			c0.13,0,0.32,0.1,0.58,0.29s0.39,0.35,0.39,0.48s-0.03,0.31-0.1,0.53C547.45,140.43,547.42,140.7,547.42,141.02z M515.29,140.73
			c1.03-1.03,2.01-1.91,2.94-2.65c0.93-0.74,1.85-1.56,2.75-2.46c-0.52,0-1,0.14-1.45,0.43s-1.13,0.79-2.03,1.5
			c-0.39,0.39-0.64,0.58-0.77,0.58c-0.06,0-0.1-0.01-0.1-0.05c0-0.03-0.03-0.05-0.1-0.05c-0.06,0-0.14,0.05-0.24,0.15
			c-0.1,0.1-0.26,0.31-0.48,0.63c-0.23,0.32-0.55,0.79-0.96,1.4c-0.42,0.61-0.95,1.43-1.59,2.46c-0.13,0-0.19,0.03-0.19,0.1l0.1,0.1
			c-0.26,0.26-0.42,0.45-0.48,0.58c-0.06,0.13-0.13,0.23-0.19,0.29c0,0.06,0.03,0.13,0.1,0.19c-0.06,0-0.1-0.03-0.1-0.1l-0.1,0.1
			c0,0.07,0.03,0.13,0.1,0.19h-0.19c0,0.32-0.03,0.43-0.1,0.34c-0.06-0.1-0.1-0.08-0.1,0.05l0.1,0.19c-0.06,0-0.1-0.03-0.1-0.1
			c-0.13,0-0.18,0.06-0.15,0.19s-0.02,0.23-0.14,0.29l0.1,0.19c-0.13,0-0.19,0.1-0.19,0.29c0,0.32-0.27,0.76-0.82,1.3
			c-0.55,0.55-0.82,1.66-0.82,3.33c0.32-0.45,0.58-0.83,0.77-1.16c0.19-0.32,0.37-0.71,0.53-1.16c0.16-0.45,0.24-0.87,0.24-1.25v0.1
			c-0.06,0-0.1-0.03-0.1-0.1c0-0.19,0.19-0.59,0.58-1.21c0.39-0.61,0.82-1.22,1.3-1.83c0.48-0.61,0.92-1.17,1.3-1.69
			c0.39-0.51,0.58-0.83,0.58-0.96L515.29,140.73L515.29,140.73z M526.49,143.34c0-0.06,0.03-0.11,0.1-0.14
			c0.06-0.03,0.1-0.08,0.1-0.14s-0.03-0.13-0.1-0.19c-1.03,1.22-2.11,2.44-3.23,3.67c-1.13,1.22-2.2,2.25-3.23,3.09
			c-0.84,0.64-1.58,1.25-2.22,1.83c-0.52,0.52-1,1-1.45,1.45s-0.68,0.74-0.68,0.87l0.1,0.1c0.51-0.39,1-0.8,1.45-1.25
			s0.9-0.84,1.35-1.16c0.64-0.64,1.01-1.01,1.11-1.11s0.21-0.19,0.34-0.29s0.43-0.39,0.92-0.87s1.43-1.43,2.85-2.85l-0.1-0.19
			c0-0.19,0.14-0.4,0.43-0.63c0.29-0.22,0.59-0.47,0.92-0.72c0.32-0.26,0.63-0.51,0.92-0.77
			C526.34,143.76,526.49,143.53,526.49,143.34z M527.26,140.73c0.32-0.32,0.59-0.59,0.82-0.82c0.22-0.22,0.43-0.5,0.63-0.82
			c-0.77,0-1.35,0.06-1.74,0.19s-0.72,0.29-1.01,0.48s-0.53,0.35-0.72,0.48s-0.48,0.19-0.87,0.19c0.06,0-0.06,0.13-0.39,0.39
			c-0.32,0.26-0.68,0.55-1.06,0.87c-0.39,0.32-0.77,0.64-1.16,0.96s-0.61,0.55-0.68,0.67h0.19c0,0.07-0.18,0.18-0.53,0.34
			c-0.35,0.16-0.53,0.4-0.53,0.72l0.1,0.19c-0.58,0.58-0.96,1.03-1.16,1.35c-0.19,0.32-0.52,1.06-0.96,2.22
			c-0.13,0-0.42,0.31-0.87,0.92s-0.68,1.27-0.68,1.98c0,0.06,0.03,0.1,0.1,0.1c0.06,0,0.45-0.26,1.16-0.77
			c0.71-0.51,1.51-1.22,2.41-2.12l-0.1-0.19c0-0.06,0.21-0.26,0.63-0.58s0.66-0.51,0.72-0.58c0-0.06-0.03-0.13-0.1-0.19
			c0-0.06,0.03-0.1,0.1-0.1c0.77-0.96,1.7-1.93,2.8-2.89C525.46,142.76,526.42,141.76,527.26,140.73z M527.45,147.39
			c0-0.06,0.03-0.13,0.1-0.19c0.06-0.06,0.1-0.16,0.1-0.29c0-0.06-0.03-0.13-0.1-0.19c-0.26,0.32-0.47,0.71-0.63,1.16
			c-0.16,0.45-0.24,0.77-0.24,0.96l0.1,0.1c0.13-0.32,0.27-0.61,0.43-0.87S527.45,147.58,527.45,147.39z M545.97,140.25
			c0-0.06-0.03-0.1-0.1-0.1c-0.13,0-0.27,0.08-0.43,0.24s-0.31,0.31-0.43,0.43c-0.64,0.45-1.08,0.77-1.3,0.96
			c-0.23,0.19-0.4,0.4-0.53,0.63s-0.27,0.48-0.43,0.77c-0.16,0.29-0.53,0.76-1.11,1.4v0.1c0,0.07,0.03,0.13,0.1,0.19
			c0,0.19-0.15,0.53-0.43,1.01c-0.29,0.48-0.88,1.17-1.78,2.07c0,0.13-0.15,0.34-0.43,0.63c-0.29,0.29-0.43,0.5-0.43,0.63l0.1,0.1
			l-0.1,0.1c-0.06,0-0.1-0.03-0.1-0.1l-0.77,0.96c-0.19,0.26-0.37,0.5-0.53,0.72c-0.16,0.23-0.24,0.4-0.24,0.53l0.1,0.19
			c-0.13,0-0.37,0.16-0.72,0.48s-0.76,1.16-1.21,2.51l-0.39,0.39l0.1,0.19c0-0.06-0.03-0.1-0.1-0.1c-0.06,0-0.18,0.18-0.34,0.53
			c-0.16,0.35-0.4,0.69-0.72,1.01c0,0.26-0.14,0.6-0.43,1.01c-0.29,0.42-0.63,0.84-1.01,1.25c-0.39,0.42-0.72,0.82-1.01,1.21
			s-0.43,0.64-0.43,0.77c0,0.19,0.03,0.29,0.1,0.29c0.26-0.06,0.51-0.22,0.77-0.48s0.58-0.64,0.96-1.16
			c0.39-0.51,0.83-1.29,1.35-2.32h-0.1c0.06-0.32,0.19-0.61,0.39-0.87c0.13-0.19,0.27-0.39,0.43-0.58s0.3-0.29,0.43-0.29
			c0-0.06-0.03-0.13-0.1-0.19c-0.13-0.06,0.32-0.83,1.35-2.32c1.03-1.48,2.38-3.44,4.05-5.88c0.19-0.19,0.43-0.47,0.72-0.82
			c0.29-0.35,0.58-0.72,0.87-1.11s0.55-0.77,0.77-1.16c0.22-0.39,0.34-0.68,0.34-0.87c0,0.06,0.24-0.19,0.72-0.77
			C544.38,141.89,545.07,141.15,545.97,140.25z"/>
	</g>
	<g>
		<path class="st0" d="M530.86,23.21c0.08-0.08,0.12-0.16,0.12-0.24s-0.02-0.12-0.06-0.12s-0.06-0.04-0.06-0.12
			c0-0.16,0.14-0.33,0.41-0.53s0.49-0.37,0.65-0.53c0-0.08-0.02-0.14-0.06-0.17c-0.04-0.04-0.06-0.1-0.06-0.18l0.12-0.12
			c1.1-1.18,2-2.12,2.71-2.83s1.41-1.35,2.12-1.94s1.29-0.88,1.77-0.88c0.16,0,0.21-0.02,0.18-0.06c-0.04-0.04,0.02-0.14,0.17-0.29
			c1.1-0.63,1.78-0.98,2.06-1.06c0.27-0.08,0.49-0.19,0.65-0.35c0,0.05,0.02,0.08,0.05,0.1c-0.19,0.11-0.4,0.25-0.64,0.49
			c-0.32,0.23-0.77,0.55-1.35,0.94c-0.59,0.39-1.35,0.94-2.29,1.65c-2.35,1.73-4.51,3.84-6.47,6.35v-0.11H530.86z M527.85,23.03
			c0.73,0.71,1.47,1.41,2.23,2.09c0.53,0.35,1.08,0.69,1.62,1.04c2.72-0.74,5.47-1.32,8.24-1.73c0.42-0.48,0.81-0.93,1.16-1.34
			c0.47-0.55,0.74-0.83,0.82-0.83c-0.08,0.16-0.12,0.34-0.12,0.53c0,0.2-0.04,0.37-0.12,0.53c0,0.07,0.02,0.37,0.05,0.87
			c0.5-0.06,0.99-0.11,1.48-0.16v-0.12c0-0.39,0.08-0.98,0.24-1.77c0.16-0.78,0.67-1.49,1.53-2.12c-0.71,1.65-1.1,2.96-1.18,3.94
			c0,0.01,0,0.01,0,0.02c0.13-0.01,0.26-0.02,0.4-0.03c0.9-0.59,1.83-1.15,2.77-1.68c1.3-0.87,2.63-1.69,3.98-2.46
			c0.73-1.04,1.33-1.79,1.79-2.25c0.16-0.39,0.28-0.8,0.35-1.24c0.08-0.43,0.12-0.84,0.12-1.23c0-0.08-0.08-0.27-0.23-0.59
			c0-0.78-0.37-1.41-1.12-1.88c-0.74-0.47-0.98-0.82-1.96-1.06s-1.78-1.21-2.76-1.28c-0.98-0.08-2.52-1.2-2.99-1.2
			c-0.86,0-2.08,1.6-2.83,1.84c-0.74,0.23-1.22,1.08-2.23,1.71c-0.08,0.08-0.14,0.18-0.18,0.29c-0.04,0.12-0.1,0.18-0.18,0.18
			l-0.23-0.23c-0.86,0.71-1.57,1.23-2.12,1.59c-0.55,0.35-1.26,0.81-2.12,1.35c-0.08,0-0.12-0.02-0.12-0.06s-0.04-0.06-0.12-0.06
			c0,0.39-0.04,0.59-0.12,0.59s-0.12-0.04-0.12-0.12l-0.12-0.12c0,0.23-0.18,0.41-0.53,0.53s-0.8,0.37-1.35,0.77
			c-0.55,0.39-1.14,0.94-1.76,1.65c-0.63,0.71-1.22,1.77-1.77,3.18c0.16,0,0.23,0.04,0.23,0.12
			C528.38,22.34,528.15,22.6,527.85,23.03"/>
	</g>
</g>
</svg>
