<?xml version="1.0" encoding="utf-8"?>
<!-- Generator: Adobe Illustrator 23.0.3, SVG Export Plug-In . SVG Version: 6.00 Build 0)  -->
<svg version="1.1" id="Layer_1" xmlns="http://www.w3.org/2000/svg" xmlns:xlink="http://www.w3.org/1999/xlink" x="0px" y="0px"
	 viewBox="0 0 636.89 193.05" style="enable-background:new 0 0 636.89 193.05;" xml:space="preserve">
<style type="text/css">
	.st0{fill:#BECDE4;}
	.st1{fill:#231F20;}
</style>
<g>
	<path class="st0" d="M559.1,20.14c0.08-0.08,0.12-0.16,0.12-0.25c0-0.08-0.02-0.12-0.06-0.12s-0.06-0.04-0.06-0.12
		c0-0.16,0.14-0.35,0.43-0.56s0.52-0.39,0.68-0.56c0-0.08-0.02-0.14-0.06-0.18c-0.04-0.04-0.06-0.1-0.06-0.19l0.12-0.12
		c1.16-1.24,2.11-2.23,2.85-2.98c0.74-0.74,1.49-1.43,2.23-2.05s1.36-0.93,1.86-0.93c0.16,0,0.22-0.02,0.19-0.06
		c-0.04-0.04,0.02-0.14,0.18-0.31c1.16-0.66,1.88-1.03,2.17-1.12c0.29-0.08,0.52-0.2,0.68-0.37c0,0.05,0.02,0.08,0.06,0.1
		c-0.2,0.11-0.42,0.27-0.68,0.52c-0.33,0.25-0.81,0.58-1.43,0.99s-1.42,0.99-2.42,1.74c-2.48,1.82-4.76,4.05-6.82,6.7v-0.13H559.1z
		 M555.93,19.95c0.77,0.74,1.55,1.48,2.35,2.2c0.56,0.37,1.14,0.73,1.71,1.1c2.87-0.78,5.77-1.4,8.68-1.82
		c0.44-0.5,0.86-0.98,1.23-1.41c0.5-0.58,0.78-0.87,0.87-0.87c-0.08,0.17-0.12,0.35-0.12,0.56s-0.04,0.39-0.12,0.56
		c0,0.07,0.02,0.39,0.05,0.92c0.52-0.06,1.04-0.12,1.56-0.17v-0.13c0-0.41,0.08-1.03,0.25-1.86c0.16-0.83,0.7-1.57,1.61-2.23
		c-0.74,1.73-1.16,3.12-1.24,4.15c0,0.01,0,0.01,0,0.02c0.14-0.01,0.28-0.02,0.42-0.03c0.95-0.62,1.92-1.22,2.92-1.77
		c1.37-0.91,2.77-1.78,4.19-2.59c0.77-1.09,1.4-1.89,1.89-2.38c0.17-0.41,0.29-0.85,0.37-1.3c0.08-0.45,0.12-0.89,0.12-1.3
		c0-0.08-0.08-0.29-0.25-0.62c0-0.83-0.39-1.49-1.18-1.98c-0.78-0.5-1.03-0.87-2.06-1.11c-1.03-0.25-1.88-1.27-2.91-1.35
		c-1.03-0.08-2.65-1.27-3.15-1.27c-0.91,0-2.19,1.69-2.98,1.94c-0.78,0.25-1.28,1.14-2.35,1.8c-0.09,0.08-0.15,0.19-0.19,0.31
		s-0.1,0.19-0.19,0.19l-0.25-0.25c-0.91,0.74-1.66,1.3-2.23,1.67c-0.58,0.37-1.32,0.85-2.23,1.43c-0.08,0-0.12-0.02-0.12-0.06
		s-0.04-0.06-0.12-0.06c0,0.41-0.04,0.62-0.12,0.62c-0.09,0-0.13-0.04-0.13-0.12l-0.12-0.12c0,0.25-0.19,0.43-0.56,0.56
		c-0.37,0.12-0.85,0.39-1.43,0.81c-0.58,0.41-1.2,0.99-1.86,1.73c-0.66,0.74-1.28,1.86-1.86,3.35c0.16,0,0.25,0.04,0.25,0.12
		C556.48,19.22,556.24,19.49,555.93,19.95"/>
	<path class="st0" d="M536.41,44.64c0.44-0.33,0.79-0.6,1.07-0.82c0.27-0.22,0.63-0.71,1.06-1.47c-0.44,0-0.63,0.08-0.57,0.25
		c0.05,0.16-0.14,0.24-0.57,0.24c0,0.11,0.03,0.16,0.08,0.16c0.05,0,0.08,0.06,0.08,0.16c-0.66,0.87-1.47,1.78-2.46,2.7
		c-0.98,0.93-1.47,1.5-1.47,1.72h0.33c-0.11,0.11-0.33,0.38-0.66,0.82c-0.33,0.44-1.26,1.42-2.78,2.95
		c-0.77,0.55-1.34,1.04-1.72,1.47c-0.38,0.44-0.74,0.9-1.06,1.39c-0.33,0.49-0.49,0.96-0.49,1.39c0,0.33-0.08,0.47-0.24,0.41
		c-0.16-0.05-0.47,0.09-0.9,0.41c-0.44,0.33-1.01,0.96-1.72,1.88c-0.71,0.93-1.56,2.54-2.54,4.83c-1.86,2.51-3.44,4.64-4.75,6.39
		s-1.96,2.67-1.96,2.78c-0.22,0.44-0.96,1.2-2.21,2.29c-1.26,1.09-2.1,2.35-2.54,3.77c0.22,0,0.35,0.03,0.41,0.08
		c0.05,0.06,0.14,0.09,0.25,0.09h0.16c0-0.33,0.16-0.74,0.49-1.23s0.85-1.17,1.56-2.05c0.71-0.87,1.83-2.07,3.35-3.6
		c-0.11,0.11-0.16,0.22-0.16,0.33c0.55,0,1.04-0.57,1.47-1.72c0.43-1.15,0.98-2.05,1.64-2.7c0-0.11,0.19-0.35,0.58-0.74
		c0.38-0.38,0.76-0.82,1.15-1.31c0.38-0.49,0.76-0.98,1.15-1.47c0.38-0.49,0.57-0.9,0.57-1.23c0-0.11,0.3-0.6,0.9-1.47
		s1.01-1.31,1.23-1.31c0.33-0.98,0.66-1.61,0.98-1.88c0.33-0.27,0.74-0.6,1.23-0.98s1.07-0.98,1.72-1.8
		c0.66-0.82,1.47-2.21,2.46-4.18c0.66-0.66,1.03-1.12,1.15-1.39c0.11-0.27,0.25-0.58,0.41-0.9c0.16-0.33,0.43-0.79,0.82-1.39
		C534.25,46.91,535.09,45.95,536.41,44.64 M510.78,36.13c0.49-1.09,1.03-2.21,1.64-3.36c0.6-1.15,1.2-2.16,1.8-3.03
		c0.6-0.87,1.01-1.42,1.23-1.64c0-0.11-0.03-0.19-0.08-0.24c-0.06-0.06-0.08-0.14-0.08-0.25s0.08-0.19,0.25-0.24
		c0.16-0.05,0.24-0.19,0.24-0.41c0-0.11-0.05-0.22-0.16-0.33c-0.22,0.54-0.52,1.04-0.9,1.47c-0.38,0.44-0.74,0.93-1.06,1.47
		c-0.66,0.98-1.2,1.8-1.64,2.46c-0.44,0.66-0.84,1.31-1.23,1.97c-0.38,0.66-0.57,1.15-0.57,1.47l0.16,0.33
		c-1.53,3.17-2.76,5.92-3.69,8.27c-0.93,2.35-1.72,4.59-2.37,6.72c-0.66,2.13-1.2,4.26-1.64,6.39c-0.44,2.13-0.82,4.5-1.15,7.12
		c0.66-3.93,1.39-7.29,2.21-10.07s1.58-5.1,2.29-6.96c0.71-1.85,1.34-3.33,1.89-4.42c0.54-1.09,0.87-1.91,0.98-2.46l0.16,0.16
		c0.11,0,0.16-0.05,0.16-0.16v-0.33l0.33-0.16l-0.16-0.33c0-0.11,0.05-0.22,0.16-0.33l0.49-0.49
		C510.04,38.09,510.29,37.22,510.78,36.13 M505.29,28.1c0.76-0.76,1.77-1.69,3.03-2.78c1.25-1.09,2.48-2.18,3.68-3.27
		c1.2-1.09,2.27-2.1,3.19-3.03c0.93-0.93,1.45-1.61,1.56-2.04c-0.33,0-0.82,0.27-1.47,0.82c-0.66,0.55-1.39,1.17-2.21,1.88
		s-1.64,1.47-2.46,2.29s-1.55,1.5-2.21,2.05c0.11,0,0.16-0.05,0.16-0.16c0,0.11-0.3,0.47-0.9,1.06c-0.6,0.6-1.23,1.26-1.88,1.97
		c-0.66,0.71-1.28,1.37-1.88,1.97s-0.9,0.96-0.9,1.06c-3.28,3.28-5.95,6.12-8.02,8.52c-2.08,2.4-3.82,4.5-5.24,6.3
		s-2.68,3.41-3.77,4.83c-1.09,1.42-2.29,2.78-3.6,4.09c0,0.44,0.11,0.66,0.33,0.66c0.43-0.44,0.68-0.74,0.74-0.9
		c0.05-0.16,0.14-0.41,0.24-0.74c0.11-0.33,0.41-0.79,0.9-1.39s1.45-1.61,2.87-3.03c1.31-1.97,2.34-3.38,3.11-4.26
		c0.77-0.87,1.45-1.61,2.05-2.21c0.6-0.6,1.2-1.17,1.8-1.72c0.6-0.54,1.39-1.41,2.37-2.62c1.74-1.75,3.22-3.36,4.42-4.83
		C502.4,31.13,503.76,29.63,505.29,28.1 M480.4,31.54c0-0.11,0.11-0.38,0.33-0.82s0.33-0.76,0.33-0.98l-0.16-0.16
		c-0.66,0-1.23,0.55-1.72,1.64c-0.49,1.09-0.98,2.48-1.47,4.18c-0.49,1.69-1.07,3.52-1.72,5.48c-0.66,1.97-1.42,3.82-2.29,5.57
		c0,0.22-0.03,0.33-0.08,0.33c-0.06,0-0.08,0.06-0.08,0.16c-0.33,0.66-0.66,1.45-0.98,2.37c-0.33,0.93-0.6,1.83-0.82,2.7
		c-0.22,0.88-0.49,1.86-0.82,2.95c0,0.22,0.03,0.39,0.08,0.49c0.05,0.11,0.08,0.22,0.08,0.33c-0.11,1.2-0.28,2.16-0.49,2.87
		c-0.22,0.71-0.41,1.31-0.57,1.8c-0.16,0.49-0.33,0.93-0.49,1.31s-0.25,0.84-0.25,1.39l0.33,0.66c0-1.75,0.19-3.03,0.58-3.85
		c0.38-0.82,0.57-1.5,0.57-2.04c0.22,0,0.27-0.16,0.16-0.49s-0.05-0.49,0.16-0.49c0-0.33,0.43-1.31,1.31-2.95
		c0.87-1.64,1.31-3.49,1.31-5.57c0.11-0.66,0.46-1.74,1.06-3.27s1.25-3.17,1.97-4.91c0.71-1.74,1.42-3.41,2.13-4.99
		C479.56,33.64,480.07,32.41,480.4,31.54 M471.56,29.08c0.76-0.76,1.64-1.64,2.62-2.62c0.98-0.98,1.91-1.91,2.78-2.78
		s1.91-1.91,3.11-3.11l-0.16-0.33c-2.4,1.86-4.66,3.96-6.79,6.31s-4.28,4.61-6.47,6.79c0,0.22-0.22,0.55-0.66,0.98
		c-0.44,0.44-0.9,0.9-1.39,1.39s-1.01,0.96-1.55,1.39c-0.55,0.44-0.88,0.82-0.98,1.15c-1.2,1.31-2.27,2.48-3.19,3.52
		s-1.8,2.1-2.62,3.19s-1.72,2.18-2.7,3.28c-0.98,1.09-2.18,2.35-3.6,3.77c-0.11,0.11-0.35,0.35-0.74,0.74
		c-0.38,0.38-0.79,0.82-1.23,1.31s-0.82,1.01-1.15,1.55c-0.33,0.55-0.49,0.98-0.49,1.31l0.33,0.16c3.93-4.91,8.08-9.8,12.45-14.66
		C463.48,37.57,467.63,33.12,471.56,29.08 M446.5,31.87c0.22-0.54,0.41-1.01,0.58-1.39c0.16-0.38,0.41-0.9,0.73-1.56v-0.33
		c0.22-0.22,0.49-0.63,0.82-1.23s0.66-1.23,0.98-1.89c0.33-0.66,0.6-1.28,0.82-1.88s0.33-0.95,0.33-1.06c0-0.33,0.11-0.6,0.33-0.82
		s0.33-0.43,0.33-0.66c0-0.22-0.06-0.46-0.16-0.74c-0.11-0.27-0.28-0.41-0.49-0.41c-0.22,0.55-0.52,1.2-0.9,1.97
		s-0.74,1.53-1.06,2.29c-0.44,0.88-0.88,1.75-1.31,2.62c0,0.11,0.03,0.19,0.08,0.25c0.05,0.06,0.08,0.14,0.08,0.24
		c-0.22,0.22-0.41,0.41-0.57,0.58c-0.16,0.16-0.25,0.3-0.25,0.41c0,0.11,0.05,0.16,0.16,0.16v-0.16l-0.33,0.98
		c-0.11,0.22-0.25,0.49-0.41,0.82c-0.16,0.33-0.36,0.55-0.58,0.66c0,0.44-0.03,0.66-0.08,0.66c-0.06,0-0.3,0.38-0.74,1.15
		s-1.12,2.19-2.05,4.26s-2.27,5.46-4.01,10.15c-1.2,3.28-2.4,6.55-3.6,9.83c-1.2,3.27-1.8,6.28-1.8,9.01c0.11,0,0.22-0.25,0.33-0.74
		s0.25-1.07,0.41-1.72c0.16-0.66,0.33-1.34,0.49-2.04c0.16-0.71,0.35-1.28,0.57-1.72c0.55-1.31,1.09-2.86,1.64-4.67
		c0.55-1.8,1.12-3.63,1.72-5.48s1.23-3.57,1.88-5.16c0.66-1.58,1.36-2.76,2.13-3.52c0-0.1-0.03-0.19-0.08-0.24
		c-0.06-0.05-0.08-0.14-0.08-0.25c0.76-1.31,1.36-2.4,1.8-3.27c0.43-0.87,0.84-1.78,1.23-2.7c0.38-0.93,0.57-1.56,0.57-1.88
		L446.5,31.87z M545.58,39.07c0.66,0.66,0.98,1.2,0.98,1.64c0,0.33-0.52,1.04-1.55,2.13c-1.04,1.09-2.21,2.35-3.52,3.77
		c-1.31,1.42-2.48,2.84-3.52,4.26s-1.56,2.57-1.56,3.44v0.33c-0.11,0.22-0.57,0.71-1.39,1.47c-0.82,0.76-1.23,1.47-1.23,2.13v0.66
		c0,0.22-0.11,0.49-0.33,0.82c-0.22,0.33-0.63,0.82-1.23,1.47c-0.6,0.66-1.45,1.53-2.54,2.62c0,0.22-0.03,0.44-0.08,0.66
		c-0.06,0.22-0.3,0.55-0.74,0.98c0-0.22-0.06-0.33-0.16-0.33c-0.66,0.98-1.17,1.78-1.55,2.38c-0.39,0.6-0.79,1.23-1.23,1.88
		c-0.44,0.66-0.82,1.15-1.15,1.47c0,0.22,0.05,0.33,0.16,0.33s0.16,0.11,0.16,0.33c0,0.22-0.25,0.65-0.74,1.31s-1.61,1.86-3.36,3.6
		c-0.66,1.31-1.12,2.18-1.39,2.62s-0.47,0.68-0.57,0.74c-0.11,0.06-0.16,0.06-0.16,0v0.41c-0.65,1.42-1.31,2.54-1.96,3.36
		c-0.66,0.82-1.5,1.58-2.54,2.29c-1.04,0.71-2.27,1.06-3.69,1.06c-0.87,0-1.72-0.22-2.54-0.65c-0.82-0.44-1.55-0.87-2.21-1.31
		c-0.22,0-0.77-0.3-1.64-0.9c-0.87-0.6-1.8-1.39-2.78-2.37s-1.89-2.1-2.7-3.36c-0.82-1.25-1.23-2.48-1.23-3.68
		c0.22,0,0.33-0.11,0.33-0.33l-0.33-0.16c0-0.11,0.03-0.3,0.08-0.58c0.05-0.27,0.08-0.52,0.08-0.73c0-0.22-0.11-0.33-0.33-0.33
		c0.11,0,0.16-0.11,0.16-0.33c0-0.11-0.03-0.24-0.08-0.41c-0.06-0.16-0.08-0.35-0.08-0.57l0.16-0.16c0-0.22-0.03-0.35-0.08-0.41
		c-0.06-0.05-0.08-0.25-0.08-0.57c0-0.22,0.03-0.35,0.08-0.41c0.05-0.05,0.08-0.13,0.08-0.24c-0.11,0-0.16-0.11-0.16-0.33
		c-0.11-0.11-0.16-0.44-0.16-0.98c0-0.22,0.05-0.38,0.16-0.49s0.16-0.27,0.16-0.49l-0.16-0.16c0-0.11,0.03-0.16,0.08-0.16
		c0.05,0,0.08-0.11,0.08-0.33c-0.11,0-0.16-0.03-0.16-0.08s-0.06-0.08-0.16-0.08c0-0.22,0.22-1.01,0.66-2.38
		c0.44-1.36,0.66-2.65,0.66-3.85l-0.16-0.33c0-0.11,0.05-0.16,0.16-0.16s0.16-0.05,0.16-0.16c0-0.11-0.03-0.19-0.08-0.25
		c-0.06-0.05-0.08-0.14-0.08-0.25c0.44-1.2,0.79-2.18,1.06-2.95c0.27-0.76,0.49-1.56,0.66-2.37c0.16-0.82,0.24-1.5,0.24-2.05
		c-0.11-0.11-0.16-0.3-0.16-0.58v-0.24h-0.16h0.16c0-0.11,0.11-0.38,0.33-0.82c0.22-0.33,0.43-0.84,0.66-1.55
		c0.22-0.71,0.49-1.66,0.82-2.87c0.43-0.22,0.74-0.68,0.9-1.39c0.16-0.71,0.33-1.47,0.49-2.29s0.35-1.58,0.58-2.29
		c0.22-0.71,0.65-1.17,1.31-1.39c0-0.22-0.08-0.3-0.25-0.25c-0.16,0.06-0.25,0.03-0.25-0.08h0.16c0,0.11-0.14,0.41-0.41,0.9
		c-0.28,0.49-1.28,1.61-3.03,3.35c0-0.11-0.52,0.41-1.55,1.56c-1.04,1.15-1.78,2.1-2.21,2.87c-0.33,0-0.66,0.16-0.98,0.49
		c-0.33,0.33-0.93,1.09-1.8,2.29s-2.18,2.98-3.93,5.32c-1.75,2.35-4.21,5.6-7.37,9.74c-0.87,1.53-1.8,2.89-2.78,4.09
		c-0.87,1.09-1.75,2.05-2.62,2.87c-0.88,0.82-1.7,1.23-2.46,1.23h-0.33h-0.49c-0.33,0-0.85-0.19-1.56-0.57
		c-0.71-0.38-1.39-0.82-2.05-1.31s-1.23-1.01-1.72-1.55c-0.49-0.55-0.74-1.04-0.74-1.47l-0.16,0.16c-0.22,0-0.33-0.16-0.33-0.49
		c-0.11,0-0.22,0.05-0.33,0.16c-0.11,0.11-0.22,0.16-0.33,0.16c-0.88-0.87-1.31-1.53-1.31-1.97s-0.16-0.87-0.49-1.31l-0.33-0.33
		c0.11,0,0.16-0.05,0.16-0.16c0-0.11,0.05-0.27,0.16-0.49l-0.33-0.16c0.33-0.33,0.44-0.62,0.33-0.9c-0.11-0.27,0-0.46,0.33-0.57
		c0-0.22-0.06-0.3-0.16-0.25c-0.11,0.06-0.16,0.03-0.16-0.08c0-0.87,0.14-1.83,0.41-2.86c0.27-1.04,0.68-2.59,1.23-4.67
		c0.33-1.42,0.63-2.59,0.9-3.52c0.27-0.92,0.57-1.88,0.9-2.86c0.33-0.98,0.71-1.74,1.15-2.29c0.43-1.2,0.87-2.35,1.31-3.44
		c0.33-0.87,0.68-1.74,1.06-2.62c0.38-0.87,0.68-1.47,0.9-1.8c-0.11,0-0.44,0.25-0.98,0.74c-0.55,0.49-1.2,1.15-1.97,1.97
		s-1.58,1.72-2.46,2.7s-1.7,1.91-2.46,2.78c-0.77,1.2-1.78,2.48-3.03,3.85s-2.51,2.76-3.77,4.18c-1.26,1.42-2.4,2.81-3.44,4.17
		c-1.04,1.37-1.72,2.7-2.05,4.01c-0.11,0-0.16-0.03-0.16-0.08s-0.06-0.08-0.16-0.08c-0.22,0-0.6,0.3-1.15,0.9s-1.58,2.05-3.11,4.34
		c0,0.22-0.11,0.52-0.33,0.9s-0.39,0.63-0.49,0.73c0-0.11,0.05-0.16,0.16-0.16c0,0.66-0.38,1.42-1.15,2.29s-1.64,1.69-2.62,2.46
		s-1.91,1.42-2.78,1.97s-1.47,0.82-1.8,0.82c-0.22,0-0.57-0.14-1.06-0.41c-0.49-0.27-0.98-0.55-1.47-0.82s-1.06-0.63-1.72-1.06
		l-0.33,0.16c-0.11,0-0.33-0.16-0.66-0.49c-0.33-0.33-0.68-0.68-1.06-1.06s-0.84-0.9-1.39-1.56c-0.11,0-0.19,0.03-0.24,0.08
		c-0.06,0.06-0.14,0.08-0.25,0.08c0-0.11-0.25-0.33-0.74-0.66c-0.49-0.33-0.74-0.6-0.74-0.82v-0.49c0.11,0,0-0.11-0.33-0.33
		s-0.49-1.09-0.49-2.62c0-0.33,0.05-0.55,0.16-0.66c0-0.1,0.06-0.16,0.16-0.16c0-0.11-0.05-0.19-0.16-0.25
		c-0.11-0.05-0.16-0.19-0.16-0.41c0.22,0,0.33-0.05,0.33-0.16l-0.16-0.16c-0.11,0-0.16-0.05-0.16-0.16
		c0.33-0.22,0.49-0.54,0.49-0.98c0-0.43,0.05-0.93,0.16-1.47v0.16c0.11,0,0.16-0.05,0.16-0.16v-0.49c0-0.98,0.03-1.55,0.08-1.72
		c0.06-0.16,0.16-0.41,0.33-0.74c0.16-0.33,0.47-1.06,0.9-2.21c0.44-1.15,1.04-3.25,1.8-6.3c0,0.11,0.06,0.16,0.16,0.16
		c0.22,0,0.33-0.43,0.33-1.31c0-0.87,0.44-1.74,1.31-2.62c0-0.11-0.03-0.19-0.08-0.25c-0.05-0.05-0.08-0.13-0.08-0.24
		c0.66-1.2,1.17-2.21,1.55-3.03c0.39-0.82,0.76-1.58,1.15-2.29c0.38-0.71,0.73-1.47,1.06-2.29c0.33-0.82,0.71-1.88,1.15-3.19
		c0-0.11,0.08-0.19,0.25-0.25c0.16-0.05,0.24-0.14,0.24-0.24c0.22-0.44,0.33-0.68,0.33-0.74c0-0.05,0.03-0.22,0.08-0.49
		c0.05-0.27,0.24-0.82,0.57-1.64s0.98-2.16,1.97-4.01v0.16c0.11,0,0.52-0.33,1.23-0.98c0.71-0.66,1.06-1.64,1.06-2.95
		c0.22-0.43,0.41-0.82,0.57-1.15c0.16-0.33,0.41-0.82,0.74-1.47c0-0.43,0.38-0.95,1.15-1.55c0.76-0.6,1.15-1.61,1.15-3.03
		c0-0.33,0.33-0.63,0.98-0.9c0.66-0.27,1.42-0.41,2.29-0.41c0.11,0,0.71,0.08,1.8,0.25s2.27,0.44,3.52,0.82
		c1.25,0.38,2.4,0.87,3.44,1.47c1.03,0.6,1.55,1.34,1.55,2.21c0,0.22-0.11,0.55-0.33,0.98c-0.22,0.43-0.49,0.87-0.82,1.31
		s-0.6,0.85-0.82,1.23c-0.22,0.39-0.33,0.63-0.33,0.74c-0.33,0.33-0.49,0.55-0.49,0.66v0.16c0.11,0,0.16-0.05,0.16-0.16
		c0-0.22,0.05-0.33,0.16-0.33s0.16,0.11,0.16,0.33s-0.9,1.69-2.7,4.42c-1.8,2.73-3.68,6.77-5.65,12.12c-0.11,0-0.16,0.05-0.16,0.16
		v0.49c-0.33,0.55-0.66,1.04-0.98,1.47c-0.22,0.44-0.44,0.88-0.66,1.31c-0.22,0.44-0.33,0.82-0.33,1.15c0,0.11,0.03,0.19,0.08,0.25
		c0.05,0.05,0.08,0.14,0.08,0.25c-0.11,0.11-0.25,0.3-0.41,0.57c-0.16,0.27-0.24,0.47-0.24,0.57c0.11,0,0.43-0.25,0.98-0.74
		c0.54-0.49,1.22-1.17,2.04-2.05c0.82-0.87,1.72-1.85,2.7-2.95c0.98-1.09,1.91-2.24,2.78-3.44c2.4-3.16,5.05-6.03,7.94-8.6
		c2.89-2.56,5.6-5.1,8.11-7.61l-0.16,0.16c0.98-1.2,1.83-2.16,2.54-2.86c0.71-0.71,1.47-1.34,2.29-1.89
		c0.82-0.54,1.55-0.82,2.21-0.82c0.44,0,0.87,0.19,1.31,0.57c0.43,0.38,0.82,0.57,1.15,0.57c0.22,0,0.41-0.08,0.57-0.25
		c0.16-0.16,0.35-0.24,0.57-0.24V18l0.16-0.16c0.11,0,0.16-0.03,0.16-0.08s0.11-0.08,0.33-0.08s1.01,0.44,2.38,1.31
		c1.36,0.88,2.43,2.08,3.19,3.6l-0.16,0.16c0,0.11,0.08,0.47,0.25,1.06c0.16,0.6,0.24,1.28,0.24,2.05c0,1.2-0.16,2.21-0.49,3.03
		s-0.68,1.61-1.06,2.37c-0.39,0.77-0.74,1.61-1.07,2.54c-0.33,0.93-0.49,2.16-0.49,3.69c0,0.11,0.05,0.22,0.16,0.33
		c-0.22,0.22-0.47,0.66-0.74,1.31c-0.28,0.66-0.55,1.39-0.82,2.21c-0.27,0.82-0.55,1.64-0.82,2.46c-0.27,0.82-0.47,1.39-0.57,1.72
		c0,0.11,0.05,0.16,0.16,0.16c1.09-1.2,1.99-2.21,2.7-3.03s1.42-1.64,2.13-2.46c0.71-0.82,1.28-1.44,1.72-1.88
		c0.11-0.22,0.38-0.66,0.82-1.31c0.43-0.66,0.98-1.45,1.64-2.38s1.45-1.88,2.37-2.87c0.93-0.98,1.99-1.85,3.19-2.62
		c1.42-1.74,3.41-3.63,5.98-5.65c2.56-2.02,5.76-4.99,9.58-8.92c0.22-0.22,0.76-0.79,1.64-1.72c0.87-0.93,1.91-1.39,3.11-1.39
		c0.54,0,0.98,0.06,1.31,0.16c0.33,0.11,0.49,0.49,0.49,1.15c0.33-0.33,0.76-0.49,1.31-0.49c0.87,0,1.61,0.24,2.21,0.74
		c0.6,0.49,1.78,1.61,3.52,3.36c0,0.11-0.06,0.16-0.16,0.16c0,0.22,0.08,0.49,0.25,0.82c0.16,0.33,0.25,0.66,0.25,0.98
		c0,1.53-0.39,3.05-1.15,4.59c-0.77,1.53-1.42,2.89-1.97,4.09c0,0.22-0.08,0.66-0.24,1.31c-0.16,0.66-0.74,1.69-1.72,3.11
		c-0.11,0-0.3,0.14-0.57,0.41c-0.27,0.28-0.68,0.96-1.23,2.05c-0.55,1.09-1.26,2.65-2.13,4.66c-0.87,2.02-1.91,4.83-3.11,8.43
		c-0.33,1.09-0.79,1.97-1.39,2.62c-0.6,0.66-0.9,1.97-0.9,3.93c0,0.11-0.47,0.93-1.39,2.46c-0.93,1.53-1.39,3.55-1.39,6.06
		c-0.55,1.86-0.98,3.74-1.31,5.65c-0.33,1.91-0.6,3.96-0.82,6.14v0.33h0.16c0.22,0,0.47-0.3,0.74-0.9c0.27-0.6,0.63-0.9,1.06-0.9
		c0-0.11-0.03-0.19-0.08-0.24c-0.06-0.05-0.08-0.14-0.08-0.25c0.22,0,0.66-0.3,1.31-0.9c0.65-0.6,0.98-1.17,0.98-1.72
		c0.33-0.22,0.49-0.3,0.49-0.25c0,0.06,0.1-0.1,0.33-0.49c0.22-0.38,0.71-1.12,1.47-2.21s2.13-2.89,4.09-5.41
		c0.33-0.33,1.01-1.17,2.05-2.54c1.03-1.36,2.24-2.97,3.6-4.83c1.37-1.85,2.89-3.82,4.59-5.9c1.69-2.07,3.36-3.93,5-5.57
		c0.22-0.22,0.46-0.54,0.73-0.98c0.27-0.43,0.52-0.66,0.74-0.66c0.11,0,0.16,0.03,0.16,0.08c0,0.06,0.05,0.08,0.16,0.08
		c0.66,0,1.25-0.41,1.8-1.23c0.54-0.82,1.42-1.23,2.62-1.23l-0.16,0.16c0.33,0,0.71,0.06,1.15,0.16
		C544.32,38.64,545.03,38.85,545.58,39.07"/>
	<path class="st0" d="M595.52,39.89c0-0.11-0.06-0.16-0.16-0.16c-0.22,0-0.47,0.14-0.74,0.41s-0.52,0.52-0.73,0.73
		c-1.09,0.77-1.83,1.31-2.21,1.64c-0.38,0.33-0.68,0.68-0.9,1.06c-0.22,0.39-0.47,0.82-0.73,1.31c-0.28,0.49-0.9,1.28-1.89,2.37
		v0.17c0,0.11,0.05,0.22,0.16,0.33c0,0.33-0.25,0.9-0.74,1.72s-1.5,1.99-3.03,3.52c0,0.22-0.25,0.57-0.74,1.06s-0.74,0.85-0.74,1.06
		l0.16,0.16l-0.16,0.16c-0.11,0-0.16-0.05-0.16-0.16l-1.31,1.64c-0.33,0.43-0.63,0.84-0.9,1.22c-0.27,0.39-0.41,0.68-0.41,0.9
		l0.16,0.33c-0.22,0-0.63,0.27-1.23,0.82c-0.6,0.55-1.28,1.97-2.05,4.26l-0.66,0.66l0.16,0.33c0-0.11-0.06-0.16-0.16-0.16
		c-0.11,0-0.3,0.3-0.57,0.9c-0.27,0.6-0.68,1.17-1.23,1.72c0,0.43-0.24,1.01-0.73,1.72c-0.49,0.72-1.07,1.42-1.72,2.13
		c-0.66,0.71-1.23,1.39-1.72,2.05s-0.74,1.09-0.74,1.31c0,0.33,0.05,0.49,0.16,0.49c0.43-0.11,0.87-0.38,1.31-0.82
		c0.43-0.44,0.98-1.09,1.64-1.97c0.66-0.87,1.42-2.18,2.29-3.93h-0.16c0.11-0.55,0.33-1.04,0.66-1.47c0.22-0.33,0.46-0.66,0.74-0.98
		c0.27-0.33,0.52-0.49,0.73-0.49c0-0.11-0.05-0.22-0.16-0.33c-0.22-0.11,0.54-1.42,2.29-3.93c1.75-2.51,4.04-5.84,6.88-9.99
		c0.33-0.33,0.74-0.79,1.23-1.39s0.98-1.23,1.47-1.88s0.93-1.31,1.31-1.97s0.57-1.15,0.57-1.47c0,0.11,0.41-0.33,1.23-1.31
		C592.82,42.67,593.99,41.42,595.52,39.89 M564.08,52.01c0-0.11,0.05-0.22,0.16-0.33s0.16-0.27,0.16-0.49
		c0-0.11-0.05-0.22-0.16-0.33c-0.44,0.55-0.79,1.2-1.07,1.97c-0.27,0.77-0.41,1.31-0.41,1.64l0.16,0.16
		c0.22-0.54,0.46-1.03,0.74-1.47C563.94,52.72,564.08,52.34,564.08,52.01 M563.75,40.71c0.54-0.54,1.01-1.01,1.39-1.39
		s0.74-0.84,1.07-1.39c-1.31,0-2.29,0.11-2.95,0.33c-0.66,0.22-1.23,0.49-1.72,0.82c-0.49,0.33-0.9,0.6-1.23,0.82
		s-0.82,0.33-1.47,0.33c0.11,0-0.11,0.22-0.66,0.65c-0.55,0.44-1.15,0.93-1.8,1.47c-0.66,0.55-1.31,1.09-1.97,1.64
		c-0.66,0.55-1.04,0.93-1.15,1.15h0.33c0,0.11-0.3,0.3-0.9,0.57c-0.6,0.28-0.9,0.68-0.9,1.23l0.16,0.33
		c-0.98,0.98-1.64,1.75-1.97,2.29c-0.33,0.55-0.88,1.8-1.64,3.77c-0.22,0-0.71,0.52-1.47,1.55c-0.77,1.04-1.15,2.16-1.15,3.36
		c0,0.11,0.05,0.16,0.16,0.16s0.76-0.43,1.97-1.31c1.2-0.87,2.56-2.07,4.09-3.6l-0.16-0.33c0-0.11,0.35-0.44,1.07-0.98
		c0.71-0.54,1.12-0.87,1.22-0.98c0-0.11-0.05-0.22-0.16-0.33c0-0.11,0.05-0.16,0.16-0.16c1.31-1.64,2.89-3.27,4.75-4.91
		C560.69,44.15,562.33,42.46,563.75,40.71 M562.44,45.13c0-0.11,0.05-0.19,0.16-0.25c0.11-0.05,0.16-0.14,0.16-0.24
		s-0.06-0.22-0.16-0.33c-1.75,2.08-3.58,4.15-5.48,6.22c-1.91,2.08-3.74,3.83-5.49,5.24c-1.42,1.09-2.67,2.13-3.77,3.11
		c-0.87,0.87-1.69,1.69-2.46,2.45c-0.77,0.77-1.15,1.26-1.15,1.47l0.16,0.16c0.87-0.66,1.69-1.36,2.46-2.13
		c0.76-0.76,1.53-1.42,2.29-1.96c1.09-1.09,1.72-1.72,1.88-1.89c0.16-0.16,0.35-0.33,0.57-0.49s0.74-0.66,1.56-1.47
		c0.82-0.82,2.43-2.43,4.83-4.83l-0.16-0.33c0-0.33,0.24-0.68,0.73-1.06s1.01-0.79,1.56-1.23c0.54-0.43,1.06-0.87,1.55-1.31
		C562.2,45.84,562.44,45.46,562.44,45.13 M543.45,40.71c1.75-1.74,3.41-3.24,4.99-4.5c1.58-1.25,3.14-2.64,4.67-4.17
		c-0.88,0-1.69,0.25-2.46,0.74s-1.91,1.34-3.44,2.54c-0.66,0.66-1.09,0.98-1.31,0.98c-0.11,0-0.16-0.03-0.16-0.09
		c0-0.05-0.05-0.08-0.16-0.08s-0.25,0.08-0.41,0.25c-0.16,0.16-0.44,0.52-0.82,1.06c-0.39,0.55-0.93,1.34-1.64,2.37
		c-0.71,1.04-1.61,2.43-2.7,4.18c-0.22,0-0.33,0.06-0.33,0.16l0.16,0.16c-0.44,0.44-0.71,0.77-0.82,0.98
		c-0.11,0.22-0.22,0.38-0.33,0.49c0,0.11,0.05,0.22,0.16,0.33c-0.11,0-0.16-0.05-0.16-0.16l-0.16,0.16c0,0.11,0.05,0.22,0.16,0.33
		h-0.33c0,0.55-0.06,0.73-0.16,0.57c-0.11-0.16-0.16-0.14-0.16,0.08l0.16,0.33c-0.11,0-0.16-0.06-0.16-0.17
		c-0.22,0-0.3,0.11-0.25,0.33s-0.03,0.38-0.25,0.49l0.16,0.33c-0.22,0-0.33,0.16-0.33,0.49c0,0.55-0.47,1.28-1.39,2.21
		c-0.93,0.93-1.39,2.81-1.39,5.65c0.55-0.76,0.98-1.42,1.31-1.97c0.33-0.54,0.63-1.2,0.9-1.97c0.28-0.76,0.41-1.47,0.41-2.13v0.16
		c-0.11,0-0.16-0.05-0.16-0.16c0-0.33,0.33-1.01,0.98-2.05c0.65-1.03,1.39-2.07,2.21-3.11c0.82-1.03,1.56-1.99,2.21-2.87
		c0.65-0.87,0.98-1.41,0.98-1.64v-0.3H543.45z M597.98,41.2l-0.16,0.16l0.16,0.16c-0.87,0.44-1.45,0.82-1.72,1.14
		c-0.28,0.33-0.47,0.69-0.57,1.07c-0.11,0.38-0.22,0.79-0.33,1.23s-0.44,0.93-0.98,1.47c-0.33,0.87-0.55,1.45-0.66,1.72
		c-0.11,0.28-0.25,0.49-0.41,0.66c-0.16,0.16-0.41,0.47-0.73,0.9c-0.33,0.44-0.82,1.31-1.47,2.62c-0.55,0.33-1.04,0.71-1.47,1.15
		c-0.33,0.44-0.63,0.93-0.9,1.47c-0.28,0.55-0.41,1.15-0.41,1.8c0,0.87-0.06,1.31-0.16,1.31c-0.11,0-0.3,0.06-0.57,0.16
		c-0.27,0.11-0.63,0.44-1.06,0.98c-0.44,0.55-0.98,1.75-1.64,3.6c-0.88,0.88-1.42,1.5-1.64,1.88s-0.33,0.68-0.33,0.9
		s0.03,0.41,0.08,0.57c0.05,0.16,0.08,0.35,0.08,0.57v-0.16c-0.11,0-0.38,0.41-0.82,1.23s-0.9,1.72-1.39,2.7
		c-0.49,0.98-1.01,1.88-1.56,2.7s-0.98,1.23-1.31,1.23c0,0.33-0.3,0.98-0.9,1.97c-0.6,0.98-1.34,1.97-2.21,2.95
		c-0.88,0.98-1.83,1.88-2.86,2.7c-1.04,0.82-1.94,1.23-2.7,1.23c-0.77,0-1.64-0.49-2.62-1.47s-2.02-2.02-3.11-3.11
		c-0.88-0.66-1.59-1.31-2.13-1.97c-0.55-0.55-1.01-1.09-1.39-1.64c-0.38-0.54-0.57-0.93-0.57-1.15c0-0.11,0.05-0.22,0.16-0.33
		c0.11,0,0.16,0.05,0.16,0.16c-0.33,0-0.6-0.16-0.82-0.49c-0.55-0.33-0.82-1.2-0.82-2.62l-0.16,0.16c-0.11-0.33-0.22-0.71-0.33-1.15
		c-0.11-0.33-0.19-0.71-0.25-1.15c-0.05-0.43-0.14-0.92-0.24-1.47c0-1.75,0.03-3.3,0.08-4.67c0.05-1.36,0.3-2.76,0.73-4.18
		c-0.11,0-0.73,0.47-1.88,1.39c-1.15,0.93-2.48,2.49-4.01,4.67h-0.16l0.16,0.16c0,0.22-0.46,0.76-1.39,1.64s-1.56,1.47-1.88,1.8
		c0,0.43-0.06,0.65-0.16,0.65l-0.33-0.16v0.49v-0.16c-0.11,0-0.27,0.22-0.49,0.66s-0.57,0.93-1.06,1.47
		c-0.49,0.55-1.12,1.04-1.88,1.47c-0.77,0.44-1.7,0.66-2.78,0.66c-1.53,0-2.78-0.57-3.77-1.72c-0.98-1.15-2.4-2.81-4.26-4.99
		c0,0.11-0.22-0.08-0.66-0.57c-0.44-0.49-0.6-0.74-0.49-0.74c0-0.33-0.11-0.43-0.33-0.33c-0.22,0.11-0.49,0.03-0.82-0.24
		s-0.6-0.87-0.82-1.8s-0.33-2.54-0.33-4.83c0-0.98,0.19-1.83,0.57-2.54c0.38-0.71,0.57-1.5,0.57-2.37l-0.16-0.16
		c0-0.66,0.39-1.42,1.15-2.29s1.15-1.85,1.15-2.95c0-0.11,0.03-0.3,0.08-0.58c0.06-0.27,0.19-0.41,0.41-0.41l-0.16-0.33l0.16-0.16
		l0.16,0.16c0.22,0,0.6-0.63,1.15-1.88s0.98-2.05,1.31-2.37c0-0.11-0.03-0.16-0.08-0.16c-0.05,0-0.08-0.05-0.08-0.16
		c0.11-0.33,0.33-0.71,0.66-1.15c0.22-0.43,0.57-0.9,1.07-1.39c0.49-0.49,1.17-1.17,2.04-2.04c0.66-0.66,1.42-1.34,2.29-2.05
		s1.69-1.36,2.46-1.97c0.76-0.6,1.42-1.12,1.97-1.56c0.54-0.43,0.82-0.71,0.82-0.82l0.33,0.16c0.22,0,0.27-0.05,0.16-0.16
		c-0.11-0.11,0.05-0.16,0.49-0.16l-0.16-0.16h0.49v-0.33c0.1,0,0.22,0.06,0.33,0.16l0.33-0.33l0.33-0.33c0.11,0,0.22,0.06,0.33,0.16
		c0.11,0,0.9-0.19,2.37-0.57s2.81-0.57,4.01-0.57c1.53,0,2.73,0.11,3.6,0.33s1.74,0.43,2.62,0.65v-0.16c0.11,0,0.49,0.24,1.15,0.74
		c0.66,0.49,1.36,0.73,2.13,0.73c0.11,0,0.22-0.05,0.33-0.16c0,0.44,0.22,0.65,0.66,0.65c0.11,0,0.22-0.05,0.33-0.16
		c0.22,0.22,0.52,0.41,0.9,0.57s0.68,0.35,0.9,0.57c0.54,0,1.06-0.46,1.55-1.39c0.49-0.93,1.12-1.39,1.89-1.39
		c0.11,0,0.49,0.11,1.15,0.33s1.39,0.49,2.21,0.82c0.82,0.33,1.61,0.71,2.37,1.15s1.25,0.82,1.47,1.15c0.54,0.33,1.2,0.66,1.96,0.98
		c0.76,0.33,1.15,0.93,1.15,1.8c0,0.33-0.19,0.79-0.58,1.39c-0.38,0.6-0.76,1.2-1.15,1.8c-0.38,0.6-0.76,1.17-1.15,1.72
		c-0.38,0.55-0.57,0.98-0.57,1.31c-0.55,0.88-1.04,1.66-1.47,2.37c-0.44,0.71-0.82,1.45-1.15,2.21c-0.33,0.77-0.49,1.36-0.49,1.8
		c0,0.11,0.05,0.22,0.16,0.33c-0.44,0-0.93,1.04-1.47,3.11v-0.16c0,0.22-0.22,0.9-0.66,2.05c-0.44,1.15-0.93,2.43-1.47,3.85
		c-0.66,1.64-1.37,3.44-2.13,5.41v0.49v-0.17l-0.16,1.64c-0.11,0-0.16-0.05-0.16-0.16c-0.33,0.98-0.55,1.97-0.66,2.95
		s-0.33,1.91-0.66,2.78c0,0.11,0.05,0.16,0.16,0.16c0-0.11,0.16-0.3,0.49-0.57s0.54-0.46,0.66-0.57c0-0.11-0.06-0.22-0.16-0.33
		c0-0.11,0.11-0.22,0.33-0.33c0.22-0.11,0.38-0.22,0.49-0.33l-0.16-0.33c0-0.11,0.22-0.3,0.66-0.57c0.44-0.27,0.6-0.41,0.49-0.41
		c0-0.11-0.05-0.16-0.16-0.16s-0.16-0.05-0.16-0.16c0-0.22,0.16-0.54,0.49-0.98s1.04-1.2,2.13-2.29l-0.16-0.33l0.16-0.16h-0.16
		c0-0.22,0.43-0.6,1.31-1.15c0.87-0.54,1.31-1.31,1.31-2.29c0-0.43,0.08-0.65,0.25-0.65c0.16,0,0.35-0.11,0.57-0.33l-0.16-0.16
		c0-0.43,0.03-0.79,0.08-1.06c0.05-0.27,0.22-0.57,0.49-0.9s0.68-0.73,1.23-1.23c0.54-0.49,1.31-1.23,2.29-2.21l-0.16-0.33
		l0.16-0.16l0.16,0.16c0.33-0.76,0.66-1.31,0.98-1.64c0.33-0.33,0.87-0.84,1.64-1.56c0.76-0.71,1.78-1.77,3.03-3.19
		c1.26-1.42,2.87-3.54,4.83-6.39c0.22,0,0.52-0.38,0.9-1.15c0.38-0.76,1.34-1.15,2.87-1.15c0.22,0,0.54,0.16,0.98,0.49
		s0.66,0.6,0.66,0.82s-0.06,0.52-0.16,0.9C598.03,40.2,597.98,40.66,597.98,41.2"/>
	<path class="st0" d="M613.86,35.64c0.11,0.33,0.19,0.57,0.25,0.73c0.05,0.16,0.08,0.36,0.08,0.58v0.33c0.11,0,0.22-0.68,0.33-2.05
		c0.11-1.36,0.66-3.19,1.64-5.48c-1.2,0.87-1.91,1.86-2.13,2.95c-0.22,1.09-0.33,1.91-0.33,2.46v0.49L613.86,35.64L613.86,35.64z
		 M603.38,78.86c0-0.22-0.06-0.38-0.16-0.49l-2.46,1.64c0.11,0.11,0.19,0.16,0.25,0.16c0.05,0,0.14,0.06,0.25,0.16
		c0.54,0,1.03-0.11,1.47-0.33C603.16,79.8,603.38,79.41,603.38,78.86 M605.51,25.48c1.31-0.98,2.37-1.74,3.19-2.29
		c0.82-0.54,1.45-0.98,1.88-1.31c0.44-0.44,0.82-0.71,1.15-0.82c-0.11,0-0.16,0.06-0.16,0.16c-0.11,0-0.16-0.05-0.16-0.16
		c-0.22,0.22-0.52,0.38-0.9,0.49s-1.34,0.6-2.86,1.47c-0.22,0.22-0.3,0.36-0.25,0.41c0.05,0.06-0.03,0.08-0.25,0.08
		c-0.65,0-1.47,0.41-2.46,1.23c-0.98,0.82-1.97,1.72-2.95,2.7s-2.24,2.29-3.77,3.93l-0.16,0.16c0,0.11,0.03,0.19,0.08,0.24
		c0.05,0.06,0.08,0.14,0.08,0.25c-0.22,0.22-0.52,0.47-0.9,0.74c-0.38,0.28-0.57,0.52-0.57,0.74c0,0.11,0.03,0.16,0.08,0.16
		c0.05,0,0.08,0.06,0.08,0.16s-0.06,0.22-0.16,0.33v0.16C599.23,30.83,602.23,27.88,605.51,25.48 M584.71,72.15
		c0.33-0.22,0.68-0.51,1.07-0.9c0.38-0.38,0.79-0.74,1.23-1.06l1.31-1.31c-0.22,0-0.6,0.19-1.15,0.57s-1.12,0.79-1.72,1.23
		s-1.12,0.85-1.55,1.23c-0.44,0.38-0.66,0.63-0.66,0.74l0.16,0.33c-0.87,0.66-1.31,1.2-1.31,1.64c0,0.22,0.05,0.33,0.16,0.33
		c0.33-0.54,0.74-1.03,1.23-1.47C583.97,73.03,584.38,72.59,584.71,72.15 M627.29,22.04c0.22,0.44,0.33,0.71,0.33,0.82
		c0,0.54-0.06,1.12-0.16,1.72c-0.11,0.6-0.28,1.17-0.49,1.72c-0.66,0.66-1.5,1.72-2.54,3.19s-2.04,3.09-3.03,4.83
		c-0.98,1.75-1.86,3.58-2.62,5.48c-0.77,1.91-1.15,3.63-1.15,5.16c0,0.55,0.05,0.82,0.16,0.82c-0.33,0-1.09-0.19-2.29-0.57
		c-1.2-0.38-1.91-1.07-2.13-2.05c-0.44,0-0.77-0.47-0.98-1.39c-0.22-0.93-0.38-1.91-0.49-2.95s-0.19-2.02-0.25-2.95
		c-0.06-0.93-0.08-1.45-0.08-1.55c0.11-0.22,0.16-0.47,0.16-0.74s0.05-0.52,0.16-0.74c-0.11,0-0.49,0.38-1.15,1.15
		s-1.39,1.61-2.21,2.54c-0.82,0.93-1.61,1.75-2.37,2.46c-0.77,0.71-1.31,1.07-1.64,1.07c-0.44,0-0.84,0.35-1.23,1.06
		c-0.38,0.71-0.73,1.53-1.06,2.46c-0.33,0.93-0.57,1.8-0.74,2.62c-0.16,0.82-0.24,1.34-0.24,1.56c0,0.98,0.13,1.78,0.41,2.37
		c0.27,0.6,0.6,1.17,0.98,1.72s0.79,1.15,1.23,1.8c0.43,0.66,0.82,1.53,1.15,2.62c0.22,0.22,0.35,0.47,0.41,0.73
		c0.05,0.28,0.19,0.52,0.41,0.74c0.33,1.53,0.84,3.09,1.55,4.67c0.71,1.58,1.39,3.25,2.05,4.99s1.23,3.6,1.72,5.57
		c0.49,1.97,0.74,3.99,0.74,6.06c0,1.53-0.16,3-0.49,4.42s-0.96,2.68-1.88,3.77c-0.93,1.09-2.16,1.97-3.68,2.62
		c-1.53,0.66-3.44,0.98-5.73,0.98c-0.76,0-1.5-0.05-2.21-0.16s-1.5-0.16-2.37-0.16c-0.22,0-0.41,0.03-0.57,0.08
		c-0.16,0.06-0.36,0.08-0.58,0.08c-1.86-0.22-3.41-0.6-4.66-1.15c-1.25-0.55-2.29-1.12-3.11-1.72s-1.56-1.39-2.21-2.37
		c-0.22-0.22-0.68-0.74-1.39-1.56s-1.06-1.34-1.06-1.55l0.16-0.16l0.16-0.16c-0.98-1.09-1.61-1.83-1.88-2.21s-0.41-0.68-0.41-0.9
		c0-0.11,0.06-0.19,0.16-0.25c0.11-0.05,0.16-0.13,0.16-0.24s-0.08-0.35-0.24-0.74c-0.16-0.38-0.35-0.82-0.58-1.31
		c-0.22-0.49-0.41-0.96-0.57-1.39c-0.16-0.43-0.25-0.71-0.25-0.82c0.11-0.55,0.55-1.17,1.31-1.88s1.58-1.39,2.46-2.05
		s2.08-1.42,3.6-2.29c0.55-0.43,1.34-0.92,2.38-1.47c1.04-0.54,1.94-0.98,2.7-1.31c-0.77,1.86-1.39,3.79-1.89,5.81
		c-0.49,2.02-0.73,4.01-0.73,5.97c0,0.88,0.22,1.31,0.65,1.31c0.22,0,0.39-0.05,0.49-0.16c1.2,0.22,2.26,0.33,3.19,0.33h2.37
		c1.09,0,1.85-0.05,2.29-0.16c0.43-0.11,0.71-0.22,0.82-0.33c0.11-0.1,0.19-0.22,0.25-0.33c0.05-0.11,0.19-0.16,0.41-0.16
		l-0.16-0.16v0.16c0.33,0,1.04-0.52,2.13-1.56s1.69-1.99,1.8-2.87l-0.16-0.16c-0.11,0-0.16-0.05-0.16-0.16h0.33
		c0-1.64-0.16-3.06-0.49-4.26s-0.68-2.26-1.06-3.19c-0.39-0.93-0.74-1.8-1.07-2.62s-0.49-1.78-0.49-2.87
		c-0.44-0.76-0.74-1.39-0.9-1.88s-0.36-0.84-0.58-1.06c-0.22-0.33-0.38-0.49-0.49-0.49l0.16,0.16v-0.16l0.16-0.33
		c0-0.33-0.25-0.74-0.74-1.23c-0.49-0.49-0.74-0.96-0.74-1.39c0-0.11,0.05-0.22,0.16-0.33h-0.33v-0.16l0.16-0.33
		c-0.88-1.64-1.58-3-2.13-4.09s-1.04-2.16-1.47-3.19c-0.44-1.04-0.71-1.66-0.82-1.88h0.16c-0.11-0.11-0.3-0.68-0.58-1.72
		c-0.27-1.03-0.41-2.15-0.41-3.36c0-1.85,0.28-3.19,0.82-4.01s0.93-1.28,1.15-1.39c0-0.11-0.11-0.16-0.33-0.16
		c0.76-1.97,1.58-3.44,2.46-4.42c0.87-0.98,1.69-1.74,2.46-2.29c0.76-0.55,1.39-0.9,1.88-1.07s0.74-0.41,0.74-0.74l0.16,0.16
		c0,0.11,0.05,0.16,0.16,0.16s0.16-0.27,0.16-0.82c0.11,0,0.16,0.03,0.16,0.08c0,0.06,0.05,0.08,0.16,0.08
		c1.2-0.76,2.18-1.39,2.95-1.88c0.76-0.49,1.75-1.23,2.95-2.21l0.33,0.33c0.11,0,0.19-0.08,0.24-0.25s0.14-0.3,0.25-0.41
		c1.42-0.87,2.65-1.47,3.68-1.8c1.04-0.33,2.16-0.49,3.36-0.49c0.66,0,1.66,0.06,3.03,0.16c1.36,0.11,2.73,0.33,4.09,0.66
		c1.36,0.33,2.56,0.82,3.6,1.47C626.77,20.08,627.29,20.95,627.29,22.04"/>
	<rect x="582.03" y="161.13" class="st0" width="12.59" height="12.43"/>
	<polygon class="st0" points="55.64,17.22 40.73,41.86 26.09,17.22 10.3,17.22 33.9,54.4 33.9,78.61 47.4,78.61 47.4,54.14 
		70.99,17.22 	"/>
	<path class="st0" d="M131.33,47.91c0-10.53-7.72-19.29-18.59-19.29c-10.87,0-18.42,8.6-18.42,19.11v0.18
		c0,10.52,7.72,19.29,18.6,19.29c10.87,0,18.41-8.6,18.41-19.12L131.33,47.91L131.33,47.91z M112.73,79.66
		c-18.94,0-32.54-14.12-32.54-31.57v-0.17c0-17.45,13.77-31.75,32.71-31.75s32.53,14.12,32.53,31.57v0.18
		C145.44,65.37,131.68,79.66,112.73,79.66"/>
	<path class="st0" d="M223.15,79.48c-9.29,0-18.68-3.24-26.04-9.82l7.98-9.56c5.52,4.56,11.31,7.46,18.33,7.46
		c5.53,0,8.86-2.19,8.86-5.79V61.6c0-3.42-2.1-5.17-12.36-7.8c-12.37-3.16-20.35-6.58-20.35-18.77v-0.17
		c0-11.14,8.94-18.5,21.48-18.5c8.94,0,16.58,2.8,22.8,7.8l-7.02,10.17c-5.44-3.77-10.79-6.05-15.96-6.05
		c-5.17,0-7.89,2.37-7.89,5.35v0.17c0,4.03,2.63,5.35,13.24,8.07c12.45,3.24,19.47,7.72,19.47,18.41v0.17
		C245.69,72.64,236.39,79.48,223.15,79.48"/>
	<path class="st0" d="M314.62,47.91c0-10.53-7.72-19.29-18.59-19.29c-10.88,0-18.41,8.6-18.41,19.11v0.18
		c0,10.52,7.72,19.29,18.59,19.29c10.88,0,18.42-8.6,18.42-19.12v-0.17H314.62z M296.03,79.66c-18.94,0-32.54-14.12-32.54-31.57
		v-0.17c0-17.45,13.77-31.75,32.71-31.75s32.54,14.12,32.54,31.57v0.18C328.74,65.37,314.97,79.66,296.03,79.66"/>
	<polygon class="st0" points="375.05,54.14 375.05,78.61 361.54,78.61 361.54,54.4 337.95,17.22 353.73,17.22 368.38,41.86 
		383.29,17.22 398.64,17.22 	"/>
	<path class="st0" d="M65.03,145.9c0-10.53-7.72-19.29-18.59-19.29c-10.87,0-18.41,8.6-18.41,19.12v0.17
		c0,10.52,7.72,19.29,18.59,19.29c2.98,0,5.7-0.61,8.07-1.67l-10-8.51l8.6-9.65l10.08,9.12c1.14-2.54,1.67-5.35,1.67-8.42v-0.16
		H65.03z M71.43,178.43l-6.75-6.05c-5.17,3.33-11.4,5.26-18.24,5.26c-18.94,0-32.54-14.12-32.54-31.57v-0.17
		c0-17.45,13.77-31.75,32.71-31.75s32.53,14.12,32.53,31.57v0.17c0,6.4-1.93,12.54-5.43,17.63l6.31,5.35L71.43,178.43z"/>
	<path class="st0" d="M125.54,177.55c-16.49,0-26.57-9.21-26.57-27.27V115.2h13.5v34.73c0,10,5,15.17,13.24,15.17
		s13.24-5,13.24-14.73V115.2h13.51v34.64C152.46,168.43,142.03,177.55,125.54,177.55"/>
	<polygon class="st0" points="175,176.59 175,115.2 221.31,115.2 221.31,127.21 188.42,127.21 188.42,139.67 217.36,139.67 
		217.36,151.68 188.42,151.68 188.42,164.58 221.74,164.58 221.74,176.59 	"/>
	<rect x="240.96" y="173.57" class="st0" width="326.69" height="3.03"/>
	<g>
		<path class="st1" d="M317.99,146.49c0,0.2-0.07,0.37-0.2,0.5c-0.2,0-0.57,0.42-1.11,1.26s-1.13,1.82-1.77,2.93
			s-1.3,2.24-1.97,3.38c-0.67,1.15-1.25,2.02-1.72,2.63c-0.74,0.74-1.26,1.51-1.57,2.32c-0.3,0.81-0.89,1.65-1.77,2.52
			c0-0.07-0.27,0.19-0.81,0.76s-0.81,1.09-0.81,1.57c0-0.07-0.03-0.1-0.1-0.1c-0.07,0-0.22,0.14-0.45,0.4
			c-0.24,0.27-0.47,0.61-0.71,1.01c-0.24,0.4-0.49,0.79-0.76,1.16s-0.47,0.66-0.61,0.86c-0.54,0.74-0.89,1.2-1.06,1.36
			c-0.17,0.17-0.32,0.3-0.45,0.4c-0.14,0.1-0.32,0.27-0.56,0.5c-0.24,0.24-0.69,0.76-1.36,1.57l-0.3,0.3
			c-0.07,0.14-0.14,0.24-0.2,0.3c-0.27,0.34-0.59,0.61-0.96,0.81s-0.66,0.3-0.86,0.3c-0.94,0-1.8-0.42-2.58-1.26
			c-0.77-0.84-1.4-1.5-1.87-1.97c-0.14-0.07-0.45-0.2-0.96-0.4s-0.76-0.77-0.76-1.72c0-0.07,0.03-0.1,0.1-0.1
			c0.07,0,0.1-0.03,0.1-0.1c-0.34-0.27-0.54-0.74-0.61-1.41s-0.1-1.28-0.1-1.82c0-0.74,0.08-1.53,0.25-2.37
			c0.17-0.84,0.25-1.67,0.25-2.47l-0.1-0.1c0-0.07,0.05-0.19,0.15-0.35c0.1-0.17,0.18-0.25,0.25-0.25c0-0.07-0.02-0.12-0.05-0.15
			c-0.03-0.03-0.05-0.08-0.05-0.15c0-0.13,0.12-0.59,0.35-1.36c0.23-0.77,0.42-1.4,0.56-1.87c-0.07-0.07-0.14-0.1-0.2-0.1
			c0.07,0-0.12,0.27-0.56,0.81s-0.69,0.88-0.76,1.01c-0.07,0.07-0.15,0.1-0.25,0.1s-0.15,0.03-0.15,0.1c0,0.07,0.02,0.1,0.05,0.1
			c0.03,0,0.05,0.03,0.05,0.1c-0.14,0.14-0.24,0.2-0.3,0.2c-0.07,0-0.1,0.07-0.1,0.2l0.1,0.2c-0.47,0.47-0.96,1.01-1.46,1.62
			s-1.03,1.18-1.57,1.72c0,0.07,0.02,0.1,0.05,0.1c0.03,0,0.05,0.04,0.05,0.1c-0.14,0.2-0.29,0.37-0.45,0.51
			c-0.17,0.14-0.32,0.27-0.45,0.4c-0.27,0.34-0.67,0.86-1.21,1.57c-0.54,0.71-1.13,1.41-1.77,2.12s-1.31,1.33-2.02,1.87
			s-1.33,0.81-1.87,0.81c-0.14,0-0.34,0-0.61,0c-0.27,0-0.57-0.17-0.91-0.5c-0.07,0-0.17,0-0.3,0c-0.14,0-0.35-0.1-0.66-0.3
			c-0.3-0.2-0.69-0.54-1.16-1.01c-0.47-0.47-1.04-1.18-1.72-2.12c0-0.2-0.03-0.29-0.1-0.25c-0.07,0.03-0.1-0.02-0.1-0.15
			c0-0.07,0.03-0.13,0.1-0.2c-0.13,0-0.2-0.03-0.2-0.1c0.07,0.07,0.1,0.14,0.1,0.2c0-0.07-0.12-0.45-0.35-1.16
			c-0.23-0.71-0.35-1.26-0.35-1.67c0-0.07,0.03-0.1,0.1-0.1l0.1-0.1h-0.1c-0.07,0-0.1-0.03-0.1-0.1c0-0.07,0.03-0.1,0.1-0.1l0.1-0.1
			h-0.1c-0.07,0-0.1-0.03-0.1-0.1c0-0.34,0.07-0.5,0.2-0.5c0-0.07-0.03-0.1-0.1-0.1h-0.1c0-0.13,0.03-0.2,0.1-0.2h0.1
			c0-0.13-0.03-0.19-0.1-0.15c-0.07,0.04-0.1,0.02-0.1-0.05c0.07-0.07,0.1-0.17,0.1-0.3c0-0.2,0.03-0.37,0.1-0.5
			c0-0.07-0.02-0.13-0.05-0.2c-0.03-0.07-0.05-0.17-0.05-0.3l0.2-1.01c0.07-0.27,0.14-0.54,0.2-0.81c0.07-0.27,0.1-0.47,0.1-0.61
			h-0.1c0-0.34,0-0.56,0-0.66s0.02-0.24,0.05-0.4c0.03-0.17,0.12-0.4,0.25-0.71c0.14-0.3,0.3-0.82,0.5-1.57
			c0.14-0.07,0.3-0.24,0.5-0.5c0.14-0.2,0.27-0.49,0.4-0.86c0.14-0.37,0.2-0.86,0.2-1.46c0.4-0.81,0.61-1.26,0.61-1.36
			s0.03-0.25,0.1-0.46c0.07-0.2,0.27-0.71,0.61-1.51c0.34-0.81,1.08-2.32,2.22-4.54c0,0.14,0.03,0.2,0.1,0.2
			c0.07,0,0.29-0.34,0.66-1.01s0.81-1.43,1.31-2.27s1.04-1.6,1.62-2.27c0.57-0.67,1.13-1.01,1.67-1.01h0.71
			c0.74,0.14,1.36,0.27,1.87,0.4c0.5,0.14,0.96,0.32,1.36,0.56c0.4,0.24,0.61,0.56,0.61,0.96c0,0.27,0.17,0.47,0.51,0.61
			c0,0.07-0.02,0.14-0.05,0.2c-0.03,0.07-0.05,0.14-0.05,0.2l0.1,0.1l0.1-0.1c0.13,0.14,0.2,0.27,0.2,0.4c0,0.27-0.14,0.54-0.4,0.81
			c-0.27,0.27-0.56,0.55-0.86,0.86c-0.3,0.3-0.57,0.64-0.81,1.01s-0.35,0.76-0.35,1.16c0,0.07,0.03,0.14,0.1,0.2
			c-0.2,0-0.3,0.04-0.3,0.1v0.1c0,0.07,0.02,0.1,0.05,0.1c0.03,0,0.05,0.04,0.05,0.1c0,0.27-0.3,0.67-0.91,1.21
			c0,0.14,0.02,0.22,0.05,0.25c0.03,0.03,0.05,0.08,0.05,0.15c-0.2,0-0.49,0.4-0.86,1.21s-0.76,1.73-1.16,2.78
			c-0.4,1.04-0.79,2.05-1.16,3.03c-0.37,0.98-0.66,1.63-0.86,1.97c0,0.2-0.1,0.52-0.3,0.96s-0.42,0.94-0.66,1.51
			s-0.45,1.2-0.66,1.87c-0.2,0.67-0.3,1.31-0.3,1.92c1.08-0.94,1.9-1.77,2.47-2.47c0.57-0.71,1.21-1.53,1.92-2.47
			c0.71-0.94,1.65-2.12,2.83-3.54c1.18-1.41,2.94-3.3,5.3-5.66l-0.2,0.2c0-0.07,0.15-0.34,0.45-0.81s0.76-1.04,1.36-1.72
			c0.47-0.4,0.94-0.88,1.41-1.41c0.4-0.47,0.82-0.98,1.26-1.52c0.44-0.54,0.82-1.14,1.16-1.82v0.1c0.07,0,0.22-0.34,0.45-1.01
			c0.24-0.67,0.52-1.01,0.86-1.01c1.55,0,2.88,0.2,3.99,0.61c1.11,0.4,1.67,1.28,1.67,2.63c0,0.61-0.19,1.25-0.56,1.92
			s-0.56,1.28-0.56,1.82l0.1,0.2c-0.2,0-0.34,0.07-0.4,0.2c-0.07,0.14-0.15,0.37-0.25,0.71s-0.25,0.84-0.45,1.51
			s-0.57,1.51-1.11,2.53c0,0.14,0.02,0.22,0.05,0.25c0.03,0.04,0.05,0.08,0.05,0.15c0,0.14-0.22,0.5-0.66,1.11s-0.66,1.18-0.66,1.72
			l0.1,0.2c0,0.07-0.25,0.47-0.76,1.21c-0.5,0.74-0.76,1.72-0.76,2.93c-0.14,0-0.32,0.35-0.56,1.06s-0.49,1.55-0.76,2.53
			c-0.27,0.98-0.52,2-0.76,3.08s-0.39,1.99-0.45,2.73c0,0.07,0.03,0.1,0.1,0.1c0.13,0,0.39-0.2,0.76-0.61
			c0.37-0.4,0.77-0.86,1.21-1.36s0.84-1.01,1.21-1.51s0.66-0.86,0.86-1.06v0.1c0.4-0.47,0.99-1.25,1.77-2.32
			c0.77-1.08,1.65-2.32,2.63-3.74c0.98-1.41,2.02-2.91,3.13-4.49s2.17-3.08,3.18-4.5c0.34-0.4,0.67-0.77,1.01-1.11
			c0.34-0.27,0.64-0.52,0.91-0.76c0.27-0.24,0.54-0.35,0.81-0.35c0.4,0,0.94,0.19,1.62,0.56
			C317.55,145.8,317.92,146.15,317.99,146.49z M280.31,146.18c0-0.07,0.03-0.12,0.1-0.15c0.07-0.03,0.1-0.08,0.1-0.15
			c0.2-0.67,0.39-1.19,0.56-1.57c0.17-0.37,0.35-0.72,0.56-1.06c0.2-0.34,0.44-0.5,0.71-0.5c0-0.07-0.03-0.13-0.1-0.2v0.1
			c0.07,0,0.19-0.27,0.35-0.81c0.17-0.54,0.49-0.81,0.96-0.81c0-0.07-0.03-0.13-0.1-0.2c0-0.13,0.03-0.2,0.1-0.2
			c0.07,0,0.17-0.07,0.3-0.2c0-0.07-0.02-0.1-0.05-0.1c-0.04,0-0.05-0.03-0.05-0.1c0-0.13,0.03-0.18,0.1-0.15
			c0.07,0.04,0.17-0.02,0.3-0.15l-0.1-0.2c0,0.07,0.2-0.07,0.61-0.4c0.4-0.34,0.61-0.77,0.61-1.31c0-0.34-0.07-0.5-0.2-0.5
			c0,0.14-0.17,0.35-0.5,0.66c-0.34,0.3-0.5,0.52-0.5,0.66c0,0.14,0.07,0.2,0.2,0.2c0,0.07-0.22,0.2-0.66,0.4s-0.66,0.57-0.66,1.11
			c-0.67,1.28-1.31,2.49-1.92,3.64c-0.54,0.94-1.03,1.87-1.46,2.78c-0.44,0.91-0.72,1.53-0.86,1.87v-0.1
			c-0.47,0.74-0.88,1.51-1.21,2.32c-0.34,0.74-0.61,1.55-0.81,2.42c-0.2,0.88-0.3,1.82-0.3,2.83c0.07-0.07,0.1-0.24,0.1-0.5
			c0.54-1.75,1.13-3.42,1.77-5C278.88,149.2,279.57,147.66,280.31,146.18z M296.47,145.27c0.07-0.07,0.13-0.2,0.2-0.4
			s0.1-0.34,0.1-0.4c0-0.07-0.03-0.1-0.1-0.1c-0.61,0.81-1.31,1.68-2.12,2.63c-0.81,0.94-1.57,1.8-2.27,2.58
			c-0.71,0.78-1.31,1.45-1.82,2.02s-0.79,0.93-0.86,1.06c-1.08,1.35-2,2.49-2.78,3.43c-0.77,0.94-1.63,1.89-2.58,2.83
			c0.13,0,0.2,0.04,0.2,0.1c-0.74,0.61-1.36,1.13-1.87,1.57c-0.5,0.44-0.96,0.89-1.36,1.36c-0.4,0.47-0.61,0.91-0.61,1.31
			c0.34,0,0.77-0.29,1.31-0.86s1.19-1.36,1.97-2.37c0.77-1.01,1.72-2.17,2.83-3.48c1.11-1.31,2.37-2.68,3.79-4.09
			c-0.07,0.07-0.1,0.14-0.1,0.2c0.61-0.67,1.28-1.41,2.02-2.22C293.78,149.01,295.13,147.29,296.47,145.27z M296.27,151.64
			c0.07-0.13,0.13-0.27,0.2-0.4s0.1-0.27,0.1-0.4s-0.03-0.2-0.1-0.2c-0.14,0.2-0.37,0.66-0.71,1.36c-0.34,0.71-0.67,1.5-1.01,2.37
			c-0.34,0.88-0.62,1.79-0.86,2.73s-0.35,1.75-0.35,2.42c0,0.07,0.03,0.14,0.1,0.2c0.13,0,0.42-0.82,0.86-2.47
			C294.94,155.59,295.53,153.72,296.27,151.64z M314.05,147.5c-2.09,2.63-3.94,4.97-5.56,7.02c-1.62,2.05-3.38,4.34-5.3,6.87
			c-1.92,2.53-3.79,5-5.61,7.42c0.87-0.34,2.02-1.52,3.43-3.54c0.34-0.34,0.61-0.67,0.81-1.01s0.44-0.69,0.71-1.06
			s0.61-0.82,1.01-1.36s1.01-1.18,1.82-1.92c0-0.2,0.3-0.5,0.91-0.91c0.61-0.4,0.91-0.87,0.91-1.41c0-0.2,0.32-0.79,0.96-1.77
			c0.64-0.98,1.36-2.05,2.17-3.23s1.58-2.27,2.32-3.28C313.37,148.3,313.85,147.7,314.05,147.5z"/>
		<path class="st1" d="M353.54,144.47c0.07,0.14,0.13,0.22,0.2,0.25s0.13,0.12,0.2,0.25c0.07,0.14,0.1,0.24,0.1,0.3
			c0,0.2-0.42,0.83-1.26,1.87s-1.77,2.21-2.78,3.48c-1.01,1.28-1.94,2.51-2.78,3.69s-1.26,2-1.26,2.47c0,0.07,0.03,0.14,0.1,0.2
			c-0.2,0.14-0.51,0.4-0.91,0.81c-0.4,0.4-0.61,0.84-0.61,1.31c0,0.07-0.14,0.37-0.4,0.91c-0.27,0.54-1.04,1.45-2.32,2.73
			c0-0.13-0.03-0.2-0.1-0.2c-0.34,0.54-0.61,0.99-0.81,1.36s-0.42,0.72-0.66,1.06s-0.42,0.57-0.56,0.71c0,0.14,0.02,0.2,0.05,0.2
			c0.03,0,0.05,0.07,0.05,0.2c0,0.14-0.12,0.39-0.35,0.76c-0.24,0.37-0.83,1.03-1.77,1.97c-0.54,1.15-0.88,1.72-1.01,1.72
			c-0.14,0-0.2,0.07-0.2,0.2c-0.34,0.74-0.67,1.35-1.01,1.82c-0.34,0.47-0.79,0.89-1.36,1.26s-1.3,0.56-2.17,0.56
			c-0.4,0-0.83-0.1-1.26-0.3c-0.44-0.2-0.83-0.44-1.16-0.71c-0.14,0-0.44-0.17-0.91-0.5c-0.47-0.34-0.99-0.76-1.57-1.26
			c-0.57-0.5-1.08-1.09-1.52-1.77c-0.44-0.67-0.66-1.35-0.66-2.02c0.13,0,0.2-0.07,0.2-0.2l-0.2-0.1c0-0.07,0.02-0.15,0.05-0.25
			c0.03-0.1,0.05-0.22,0.05-0.35c0-0.2-0.07-0.3-0.2-0.3c0.07,0,0.1-0.07,0.1-0.2c0-0.07-0.02-0.13-0.05-0.2
			c-0.03-0.07-0.05-0.17-0.05-0.3l0.1-0.1c0-0.07-0.02-0.12-0.05-0.15c-0.03-0.03-0.05-0.15-0.05-0.35c0-0.07,0.02-0.12,0.05-0.15
			c0.03-0.03,0.05-0.08,0.05-0.15c-0.07-0.07-0.1-0.17-0.1-0.3c-0.07-0.07-0.1-0.2-0.1-0.4c0-0.13,0.03-0.23,0.1-0.3
			c0.07-0.07,0.1-0.17,0.1-0.3l-0.1-0.1c0-0.07,0.02-0.08,0.05-0.05c0.03,0.03,0.05-0.02,0.05-0.15c-0.07,0-0.1-0.02-0.1-0.05
			c0-0.03-0.03-0.05-0.1-0.05c0-0.13,0.12-0.57,0.35-1.31s0.35-1.45,0.35-2.12l-0.1-0.1c0-0.07,0.03-0.1,0.1-0.1
			c0.07,0,0.1-0.03,0.1-0.1c0-0.07-0.02-0.12-0.05-0.15c-0.03-0.03-0.05-0.08-0.05-0.15c0.27-0.67,0.47-1.23,0.61-1.67
			c0.13-0.44,0.25-0.87,0.35-1.31s0.15-0.76,0.15-0.96c-0.07,0-0.1-0.1-0.1-0.3v-0.2l-0.1,0.1v-0.3v0.5c0.07,0,0.19-0.2,0.35-0.61
			c0.17-0.4,0.42-1.25,0.76-2.52c0.2-0.13,0.35-0.4,0.45-0.81c0.1-0.4,0.2-0.82,0.3-1.26s0.22-0.84,0.35-1.21s0.37-0.62,0.71-0.76
			c0-0.13-0.05-0.18-0.15-0.15c-0.1,0.03-0.15,0.02-0.15-0.05c0,0.07-0.15,0.32-0.45,0.76s-1.13,1.36-2.47,2.78l0.1-0.2
			c0-0.07,0.03-0.13,0.1-0.2l-1.52,2.02c-0.61,0.81-1.48,1.95-2.63,3.43s-2.69,3.43-4.65,5.86c-0.54,0.88-1.04,1.65-1.52,2.32
			c-0.4,0.54-0.86,1.04-1.36,1.52c-0.5,0.47-0.96,0.71-1.36,0.71c-0.07,0-0.14-0.03-0.2-0.1c-0.07,0.07-0.17,0.1-0.3,0.1
			c-0.2,0-0.47-0.1-0.81-0.3s-0.69-0.45-1.06-0.76c-0.37-0.3-0.69-0.61-0.96-0.91s-0.4-0.56-0.4-0.76l-0.1,0.1
			c-0.13,0-0.2-0.1-0.2-0.3c-0.07,0-0.1,0.04-0.1,0.1c0,0.07-0.03,0.1-0.1,0.1c-0.54-0.54-0.82-0.92-0.86-1.16
			c-0.03-0.24-0.15-0.49-0.35-0.76v-0.1c0-0.07,0.02-0.1,0.05-0.1c0.03,0,0.05-0.07,0.05-0.2l-0.1-0.1
			c0.14-0.13,0.19-0.29,0.15-0.45c-0.03-0.17,0.02-0.29,0.15-0.35c0-0.07-0.03-0.08-0.1-0.05c-0.07,0.03-0.1,0.02-0.1-0.05
			c0-0.47,0.07-0.99,0.2-1.57c0.14-0.57,0.37-1.43,0.71-2.58c0.2-0.81,0.37-1.46,0.5-1.97c0.14-0.5,0.29-1.03,0.45-1.57
			c0.17-0.54,0.35-0.94,0.56-1.21c0.94-1.75,1.67-3.59,2.17-5.5c0.5-1.92,0.91-3.69,1.21-5.3c0.3-1.62,0.57-2.94,0.81-3.99
			c0.23-1.04,0.56-1.57,0.96-1.57c0.13,0,0.34-0.03,0.61-0.1c0.27-0.07,0.64-0.03,1.11,0.1c0.13,0.07,0.4,0.22,0.81,0.46
			c0.4,0.24,0.87,0.42,1.41,0.55c0.13,0.07,0.56,0.4,1.26,1.01c0.71,0.61,1.26,1.31,1.67,2.12c0,0.54-0.07,0.89-0.2,1.06
			c-0.14,0.17-0.27,0.42-0.4,0.76c-0.54,1.21-0.91,2.19-1.11,2.93s-0.44,1.85-0.71,3.33l0.1,0.1c-0.07,0.14-0.17,0.39-0.3,0.76
			c-0.14,0.37-0.29,0.77-0.45,1.21c-0.17,0.44-0.32,0.88-0.45,1.31c-0.14,0.44-0.24,0.76-0.3,0.96c0,0.07,0.03,0.1,0.1,0.1
			c0.61-0.81,1.11-1.48,1.52-2.02c0.4-0.54,0.82-1.08,1.26-1.62s0.76-0.94,0.96-1.21c1.01-1.21,1.92-2.27,2.73-3.18
			s1.65-1.78,2.53-2.63c0.87-0.84,1.88-1.75,3.03-2.73c1.14-0.97,2.59-2.14,4.34-3.48c0.13-0.13,0.44-0.45,0.91-0.96
			c0.47-0.5,1.01-0.76,1.62-0.76c0.34,0,0.59,0.04,0.76,0.1c0.17,0.07,0.25,0.27,0.25,0.61c0.2-0.2,0.44-0.3,0.71-0.3
			c0.54,0,0.96,0.14,1.26,0.4c0.3,0.27,0.92,0.88,1.87,1.82c0,0.07-0.03,0.1-0.1,0.1c0,0.13,0.05,0.29,0.15,0.45
			c0.1,0.17,0.15,0.32,0.15,0.45c0,0.88-0.2,1.72-0.61,2.53s-0.77,1.55-1.11,2.22c0,0.14-0.03,0.39-0.1,0.76
			c-0.07,0.37-0.37,0.93-0.91,1.67c-0.07,0-0.19,0.09-0.35,0.25c-0.17,0.17-0.4,0.54-0.71,1.11c-0.3,0.57-0.69,1.41-1.16,2.52
			c-0.47,1.11-1.01,2.61-1.62,4.5c-0.2,0.61-0.47,1.09-0.81,1.46s-0.5,1.06-0.5,2.07c0,0.07-0.24,0.52-0.71,1.36
			c-0.47,0.84-0.71,1.94-0.71,3.28c-0.34,1.01-0.61,2.05-0.81,3.13s-0.37,2.19-0.5,3.33v0.2h0.1c0.13,0,0.29-0.17,0.45-0.5
			c0.17-0.34,0.39-0.5,0.66-0.5c0-0.07-0.02-0.12-0.05-0.15c-0.03-0.03-0.05-0.08-0.05-0.15c0.13,0,0.37-0.15,0.71-0.46
			c0.34-0.3,0.51-0.62,0.51-0.96c0.2-0.07,0.3-0.08,0.3-0.05s0.07-0.05,0.2-0.25s0.4-0.61,0.81-1.21c0.4-0.61,1.14-1.58,2.22-2.93
			c1.08-1.55,2-2.88,2.78-3.99c0.77-1.11,1.63-2.32,2.58-3.64c0.94-1.31,1.83-2.52,2.68-3.64c0.84-1.11,1.58-2.04,2.22-2.78
			c0.64-0.74,1.06-1.11,1.26-1.11c0.07,0,0.1,0.02,0.1,0.05c0,0.04,0.03,0.05,0.1,0.05c0.34,0,0.67-0.24,1.01-0.71
			c0.34-0.47,0.81-0.71,1.41-0.71l-0.1,0.1c0,0.07,0.2,0.1,0.61,0.1C352.73,144.06,353.13,144.2,353.54,144.47z M315.56,144.36
			c0-0.27,0.07-0.66,0.2-1.16c0.13-0.51,0.29-0.98,0.45-1.41c0.17-0.44,0.39-1.03,0.66-1.77v-0.1c-0.4,0-0.79,0.47-1.16,1.41
			s-0.77,2.09-1.21,3.43c-0.44,1.35-0.88,2.73-1.31,4.14c-0.44,1.41-0.89,2.59-1.36,3.54c0,0.14-0.02,0.19-0.05,0.15
			c-0.03-0.03-0.05-0.02-0.05,0.05c-0.13,0.4-0.29,0.86-0.45,1.36c-0.17,0.5-0.32,0.99-0.45,1.46c-0.13,0.47-0.3,1.01-0.51,1.62
			c0,0.07,0.02,0.14,0.05,0.2c0.03,0.07,0.05,0.14,0.05,0.2c-0.07,0.67-0.15,1.2-0.25,1.57s-0.2,0.69-0.3,0.96s-0.18,0.52-0.25,0.76
			s-0.1,0.49-0.1,0.76l0.2,0.4c0-0.94,0.09-1.63,0.25-2.07c0.17-0.44,0.25-0.82,0.25-1.16c0.14,0,0.19-0.1,0.15-0.3
			c-0.03-0.2,0.02-0.3,0.15-0.3h-0.1c0-0.13,0.24-0.64,0.71-1.52c0.47-0.87,0.71-1.88,0.71-3.03c0.07-0.34,0.27-0.92,0.61-1.77
			c0.34-0.84,0.71-1.73,1.11-2.68c0.4-0.94,0.79-1.85,1.16-2.73C315.07,145.51,315.36,144.84,315.56,144.36z M328.99,142.55
			c0.4-0.47,0.96-1.01,1.67-1.62c0.71-0.61,1.38-1.19,2.02-1.77c0.64-0.57,1.21-1.11,1.72-1.62c0.5-0.5,0.79-0.86,0.86-1.06
			c-0.14,0-0.39,0.14-0.76,0.4c-0.37,0.27-0.79,0.61-1.26,1.01c-0.47,0.4-0.93,0.83-1.36,1.26c-0.44,0.44-0.83,0.83-1.16,1.16
			c0.07,0,0.1-0.03,0.1-0.1c0,0.07-0.15,0.25-0.45,0.56c-0.3,0.3-0.64,0.66-1.01,1.06s-0.71,0.76-1.01,1.06s-0.45,0.49-0.45,0.56
			c-1.82,1.82-3.28,3.37-4.39,4.65s-2.05,2.41-2.83,3.38c-0.77,0.98-1.46,1.85-2.07,2.63s-1.28,1.5-2.02,2.17
			c0,0.34,0.07,0.5,0.2,0.5c0.27-0.27,0.4-0.45,0.4-0.56c0-0.1,0.03-0.22,0.1-0.35c0.07-0.13,0.23-0.39,0.5-0.76
			s0.81-0.92,1.62-1.67c0.74-1.01,1.31-1.77,1.72-2.27s0.76-0.92,1.06-1.26s0.62-0.66,0.96-0.96c0.34-0.3,0.77-0.76,1.31-1.36
			c0.87-0.94,1.63-1.82,2.27-2.63C327.36,144.16,328.12,143.36,328.99,142.55z M331.62,148.3c0-0.34,0.13-0.82,0.4-1.46
			s0.57-1.26,0.91-1.87c0.34-0.61,0.66-1.14,0.96-1.62c0.3-0.47,0.52-0.74,0.66-0.81c0-0.07-0.02-0.12-0.05-0.15
			c-0.04-0.03-0.05-0.08-0.05-0.15s0.05-0.12,0.15-0.15c0.1-0.03,0.15-0.12,0.15-0.25c0-0.07-0.03-0.13-0.1-0.2
			c-0.14,0.34-0.3,0.62-0.5,0.86s-0.4,0.52-0.61,0.86c-0.34,0.54-0.62,0.98-0.86,1.31c-0.24,0.34-0.45,0.67-0.66,1.01
			c-0.2,0.34-0.3,0.61-0.3,0.81l0.1,0.2c-0.81,1.75-1.48,3.27-2.02,4.54c-0.54,1.28-0.96,2.49-1.26,3.64s-0.57,2.29-0.81,3.43
			c-0.24,1.15-0.45,2.42-0.66,3.84c0.34-2.15,0.71-3.97,1.11-5.45c0.4-1.48,0.81-2.73,1.21-3.74s0.76-1.82,1.06-2.42
			c0.3-0.61,0.49-1.08,0.56-1.41l0.1,0.1c0.13,0,0.15-0.05,0.05-0.15c-0.1-0.1-0.02-0.15,0.25-0.15l-0.1-0.1
			c0-0.07,0.03-0.13,0.1-0.2C331.62,148.41,331.69,148.3,331.62,148.3z M348.59,147.5c0.27-0.2,0.45-0.35,0.56-0.45
			c0.1-0.1,0.29-0.39,0.56-0.86c-0.27,0-0.39,0.05-0.35,0.15c0.03,0.1-0.05,0.15-0.25,0.15c0,0.07,0.02,0.1,0.05,0.1
			c0.03,0,0.05,0.04,0.05,0.1c-0.4,0.47-0.86,0.96-1.36,1.46c-0.51,0.5-0.76,0.79-0.76,0.86h0.2c0,0.4-0.32,1.03-0.96,1.87
			c-0.64,0.84-1.36,1.68-2.17,2.52s-1.53,1.65-2.17,2.42c-0.64,0.77-0.96,1.3-0.96,1.57c0,0.14-0.05,0.2-0.15,0.2
			s-0.27,0.09-0.5,0.25c-0.24,0.17-0.54,0.52-0.91,1.06s-0.86,1.41-1.46,2.63c-0.94,1.35-1.79,2.49-2.52,3.43
			c-0.74,0.94-1.11,1.45-1.11,1.52c-0.14,0.27-0.54,0.71-1.21,1.31c-0.67,0.61-1.11,1.28-1.31,2.02c0.27,0,0.4-0.02,0.4-0.05
			c0-0.03,0.05-0.15,0.15-0.35s0.35-0.56,0.76-1.06s1.11-1.23,2.12-2.17c-0.07,0-0.1,0.03-0.1,0.1c0.27,0,0.52-0.3,0.76-0.91
			s0.52-1.08,0.86-1.41c0-0.13,0.17-0.42,0.5-0.86c0.34-0.44,0.69-0.91,1.06-1.41s0.86-1.13,1.46-1.87c0.2-0.47,0.39-0.79,0.56-0.96
			c0.17-0.17,0.39-0.35,0.66-0.56c0.27-0.2,0.59-0.52,0.96-0.96s0.82-1.19,1.36-2.27c0.74-0.74,1.45-1.83,2.12-3.28
			C346.13,150.34,347.17,148.91,348.59,147.5z"/>
		<path class="st1" d="M383.53,147.9l-0.1,0.1l0.1,0.1c-0.54,0.27-0.89,0.5-1.06,0.71c-0.17,0.2-0.29,0.42-0.35,0.66
			c-0.07,0.24-0.14,0.49-0.2,0.76c-0.07,0.27-0.27,0.57-0.61,0.91c-0.2,0.54-0.34,0.89-0.4,1.06c-0.07,0.17-0.15,0.3-0.25,0.4
			s-0.25,0.29-0.45,0.56s-0.5,0.81-0.91,1.62c-0.34,0.2-0.64,0.44-0.91,0.71c-0.2,0.27-0.39,0.57-0.56,0.91
			c-0.17,0.34-0.25,0.71-0.25,1.11c0,0.54-0.03,0.81-0.1,0.81c-0.07,0-0.19,0.04-0.35,0.1c-0.17,0.07-0.39,0.27-0.66,0.61
			c-0.27,0.34-0.61,1.08-1.01,2.22c-0.54,0.54-0.88,0.93-1.01,1.16c-0.14,0.24-0.2,0.42-0.2,0.56s0.02,0.25,0.05,0.35
			c0.03,0.1,0.05,0.22,0.05,0.35v-0.1c-0.07,0-0.24,0.25-0.5,0.76c-0.27,0.5-0.56,1.06-0.86,1.67s-0.62,1.16-0.96,1.67
			c-0.34,0.5-0.61,0.76-0.81,0.76c0,0.2-0.19,0.61-0.56,1.21c-0.37,0.61-0.83,1.21-1.36,1.82c-0.54,0.61-1.13,1.16-1.77,1.67
			c-0.64,0.5-1.2,0.76-1.67,0.76s-1.01-0.3-1.62-0.91s-1.25-1.25-1.92-1.92c-0.54-0.4-0.98-0.81-1.31-1.21
			c-0.34-0.34-0.62-0.67-0.86-1.01s-0.35-0.57-0.35-0.71c0-0.07,0.03-0.13,0.1-0.2c0.07,0,0.1,0.03,0.1,0.1
			c-0.2,0-0.37-0.1-0.51-0.3c-0.34-0.2-0.5-0.74-0.5-1.62l-0.1,0.1c-0.07-0.2-0.14-0.44-0.2-0.71c-0.07-0.2-0.12-0.44-0.15-0.71
			s-0.08-0.57-0.15-0.91c0-1.08,0.02-2.04,0.05-2.88c0.03-0.84,0.18-1.7,0.45-2.58c-0.07,0-0.45,0.29-1.16,0.86
			c-0.71,0.57-1.53,1.53-2.47,2.88h-0.1l0.1,0.1c0,0.14-0.29,0.47-0.86,1.01c-0.57,0.54-0.96,0.91-1.16,1.11
			c0,0.27-0.03,0.4-0.1,0.4l-0.2-0.1v0.3v-0.1c-0.07,0-0.17,0.14-0.3,0.4c-0.14,0.27-0.35,0.57-0.66,0.91
			c-0.3,0.34-0.69,0.64-1.16,0.91c-0.47,0.27-1.04,0.4-1.72,0.4c-0.94,0-1.72-0.35-2.32-1.06c-0.61-0.71-1.48-1.73-2.63-3.08
			c0,0.07-0.13-0.05-0.4-0.35s-0.37-0.46-0.3-0.46c0-0.2-0.07-0.27-0.2-0.2s-0.3,0.02-0.5-0.15c-0.2-0.17-0.37-0.54-0.51-1.11
			c-0.13-0.57-0.2-1.57-0.2-2.98c0-0.61,0.12-1.13,0.35-1.57c0.24-0.44,0.35-0.92,0.35-1.46l-0.1-0.1c0-0.4,0.24-0.87,0.71-1.41
			c0.47-0.54,0.71-1.14,0.71-1.82c0-0.07,0.02-0.18,0.05-0.35c0.03-0.17,0.12-0.25,0.25-0.25l-0.1-0.2l0.1-0.1l0.1,0.1
			c0.14,0,0.37-0.39,0.71-1.16c0.34-0.77,0.61-1.26,0.81-1.46c0-0.07-0.02-0.1-0.05-0.1c-0.03,0-0.05-0.03-0.05-0.1
			c0.07-0.2,0.2-0.44,0.4-0.71c0.14-0.27,0.35-0.56,0.66-0.86c0.3-0.3,0.72-0.72,1.26-1.26c0.4-0.4,0.87-0.82,1.41-1.26
			s1.04-0.84,1.52-1.21c0.47-0.37,0.87-0.69,1.21-0.96s0.5-0.44,0.5-0.5l0.2,0.1c0.13,0,0.17-0.03,0.1-0.1
			c-0.07-0.07,0.03-0.1,0.3-0.1l-0.1-0.1h0.3v-0.2c0.07,0,0.13,0.04,0.2,0.1l0.2-0.2l0.2-0.2c0.07,0,0.13,0.04,0.2,0.1
			c0.07,0,0.56-0.12,1.46-0.35c0.91-0.24,1.73-0.35,2.47-0.35c0.94,0,1.68,0.07,2.22,0.2c0.54,0.14,1.08,0.27,1.62,0.4v-0.14
			c0.07,0,0.3,0.15,0.71,0.45c0.4,0.3,0.84,0.46,1.31,0.46c0.07,0,0.13-0.03,0.2-0.1c0,0.27,0.13,0.4,0.4,0.4
			c0.07,0,0.13-0.03,0.2-0.1c0.13,0.14,0.32,0.25,0.56,0.35c0.23,0.1,0.42,0.22,0.56,0.35c0.34,0,0.66-0.29,0.96-0.86
			c0.3-0.57,0.69-0.86,1.16-0.86c0.07,0,0.3,0.07,0.71,0.2c0.4,0.14,0.86,0.3,1.36,0.5s0.99,0.44,1.46,0.71
			c0.47,0.27,0.77,0.5,0.91,0.71c0.34,0.2,0.74,0.4,1.21,0.61c0.47,0.2,0.71,0.57,0.71,1.11c0,0.2-0.12,0.49-0.35,0.86
			c-0.24,0.37-0.47,0.74-0.71,1.11c-0.24,0.37-0.47,0.72-0.71,1.06c-0.24,0.34-0.35,0.61-0.35,0.81c-0.34,0.54-0.64,1.03-0.91,1.46
			c-0.27,0.44-0.5,0.89-0.71,1.36c-0.2,0.47-0.3,0.84-0.3,1.11c0,0.07,0.03,0.14,0.1,0.2c-0.27,0-0.57,0.64-0.91,1.92v-0.1
			c0,0.14-0.14,0.56-0.4,1.26c-0.27,0.71-0.57,1.5-0.91,2.37c-0.4,1.01-0.84,2.12-1.31,3.33v0.3v-0.1l-0.1,1.01
			c-0.07,0-0.1-0.03-0.1-0.1c-0.2,0.61-0.34,1.21-0.4,1.82c-0.07,0.61-0.2,1.18-0.4,1.72c0,0.07,0.03,0.1,0.1,0.1
			c0-0.07,0.1-0.18,0.3-0.35s0.34-0.29,0.4-0.35c0-0.07-0.03-0.13-0.1-0.2c0-0.07,0.07-0.13,0.2-0.2s0.24-0.13,0.3-0.2l-0.1-0.2
			c0-0.07,0.13-0.18,0.4-0.35s0.37-0.25,0.3-0.25c0-0.07-0.03-0.1-0.1-0.1c-0.07,0-0.1-0.03-0.1-0.1c0-0.13,0.1-0.34,0.3-0.61
			c0.2-0.27,0.64-0.74,1.31-1.41l-0.1-0.2l0.1-0.1h-0.1c0-0.13,0.27-0.37,0.81-0.71s0.81-0.81,0.81-1.41c0-0.27,0.05-0.4,0.15-0.4
			s0.22-0.07,0.35-0.2l-0.1-0.1c0-0.27,0.02-0.49,0.05-0.66c0.03-0.17,0.13-0.35,0.3-0.56c0.17-0.2,0.42-0.45,0.76-0.76
			c0.34-0.3,0.81-0.76,1.41-1.36l-0.1-0.2l0.1-0.1l0.1,0.1c0.2-0.47,0.4-0.81,0.61-1.01s0.54-0.52,1.01-0.96
			c0.47-0.44,1.09-1.09,1.87-1.97c0.77-0.87,1.77-2.19,2.98-3.94c0.13,0,0.32-0.23,0.56-0.71c0.23-0.47,0.82-0.71,1.77-0.71
			c0.13,0,0.34,0.1,0.61,0.3s0.4,0.37,0.4,0.5c0,0.14-0.03,0.32-0.1,0.56C383.57,147.28,383.53,147.56,383.53,147.9z M349.9,147.6
			c1.08-1.08,2.1-2,3.08-2.78c0.98-0.77,1.93-1.63,2.88-2.58c-0.54,0-1.04,0.15-1.52,0.45c-0.47,0.3-1.18,0.83-2.12,1.57
			c-0.4,0.4-0.67,0.61-0.81,0.61c-0.07,0-0.1-0.02-0.1-0.05c0-0.03-0.03-0.05-0.1-0.05c-0.07,0-0.15,0.05-0.25,0.15
			c-0.1,0.1-0.27,0.32-0.5,0.66c-0.24,0.34-0.57,0.83-1.01,1.46c-0.44,0.64-0.99,1.5-1.67,2.58c-0.14,0-0.2,0.04-0.2,0.1l0.1,0.1
			c-0.27,0.27-0.44,0.47-0.5,0.61c-0.07,0.14-0.14,0.24-0.2,0.3c0,0.07,0.03,0.14,0.1,0.2c-0.07,0-0.1-0.03-0.1-0.1l-0.1,0.1
			c0,0.07,0.03,0.14,0.1,0.2h-0.2c0,0.34-0.04,0.46-0.1,0.35c-0.07-0.1-0.1-0.08-0.1,0.05l0.1,0.2c-0.07,0-0.1-0.03-0.1-0.1
			c-0.13,0-0.18,0.07-0.15,0.2c0.03,0.14-0.02,0.24-0.15,0.3l0.1,0.2c-0.13,0-0.2,0.1-0.2,0.3c0,0.34-0.29,0.79-0.86,1.36
			s-0.86,1.73-0.86,3.48c0.34-0.47,0.61-0.87,0.81-1.21s0.39-0.74,0.56-1.21c0.17-0.47,0.25-0.91,0.25-1.31v0.1
			c-0.07,0-0.1-0.03-0.1-0.1c0-0.2,0.2-0.62,0.61-1.26c0.4-0.64,0.86-1.28,1.36-1.92c0.51-0.64,0.96-1.23,1.36-1.77
			c0.4-0.54,0.61-0.88,0.61-1.01v-0.18H349.9z M361.62,150.32c0-0.07,0.03-0.12,0.1-0.15c0.07-0.03,0.1-0.08,0.1-0.15
			s-0.03-0.13-0.1-0.2c-1.08,1.28-2.21,2.56-3.38,3.84c-1.18,1.28-2.31,2.36-3.38,3.23c-0.88,0.67-1.65,1.31-2.32,1.92
			c-0.54,0.54-1.04,1.04-1.52,1.51c-0.47,0.47-0.71,0.77-0.71,0.91l0.1,0.1c0.54-0.4,1.04-0.84,1.52-1.31
			c0.47-0.47,0.94-0.88,1.41-1.21c0.67-0.67,1.06-1.06,1.16-1.16s0.22-0.2,0.35-0.3s0.45-0.4,0.96-0.91c0.51-0.5,1.5-1.5,2.98-2.98
			l-0.1-0.2c0-0.2,0.15-0.42,0.45-0.66s0.62-0.49,0.96-0.76s0.66-0.54,0.96-0.81C361.47,150.76,361.62,150.53,361.62,150.32z
			 M362.42,147.6c0.34-0.34,0.62-0.62,0.86-0.86c0.24-0.23,0.45-0.52,0.66-0.86c-0.81,0-1.41,0.07-1.82,0.2
			c-0.4,0.14-0.76,0.3-1.06,0.5s-0.56,0.37-0.76,0.5c-0.2,0.14-0.5,0.2-0.91,0.2c0.07,0-0.07,0.14-0.4,0.4
			c-0.34,0.27-0.71,0.57-1.11,0.91c-0.4,0.34-0.81,0.67-1.21,1.01s-0.64,0.57-0.71,0.71h0.2c0,0.07-0.19,0.19-0.56,0.35
			c-0.37,0.17-0.56,0.42-0.56,0.76l0.1,0.2c-0.61,0.61-1.01,1.08-1.21,1.41c-0.2,0.34-0.54,1.11-1.01,2.32
			c-0.14,0-0.44,0.32-0.91,0.96s-0.71,1.33-0.71,2.07c0,0.07,0.03,0.1,0.1,0.1c0.07,0,0.47-0.27,1.21-0.81
			c0.74-0.54,1.58-1.28,2.52-2.22l-0.1-0.2c0-0.07,0.22-0.27,0.66-0.61c0.44-0.34,0.69-0.54,0.76-0.61c0-0.07-0.03-0.13-0.1-0.2
			c0-0.07,0.03-0.1,0.1-0.1c0.81-1.01,1.78-2.02,2.93-3.03C360.54,149.72,361.55,148.67,362.42,147.6z M362.63,154.57
			c0-0.07,0.03-0.13,0.1-0.2c0.07-0.07,0.1-0.17,0.1-0.3c0-0.07-0.04-0.13-0.1-0.2c-0.27,0.34-0.49,0.74-0.66,1.21
			c-0.17,0.47-0.25,0.81-0.25,1.01l0.1,0.1c0.13-0.34,0.29-0.64,0.45-0.91C362.54,155,362.63,154.77,362.63,154.57z M382.02,147.09
			c0-0.07-0.03-0.1-0.1-0.1c-0.14,0-0.29,0.08-0.45,0.25c-0.17,0.17-0.32,0.32-0.45,0.46c-0.67,0.47-1.13,0.81-1.36,1.01
			c-0.24,0.2-0.42,0.42-0.56,0.66s-0.29,0.51-0.45,0.81c-0.17,0.3-0.56,0.79-1.16,1.46v0.1c0,0.07,0.03,0.14,0.1,0.2
			c0,0.2-0.15,0.56-0.45,1.06s-0.93,1.23-1.87,2.17c0,0.14-0.15,0.35-0.45,0.66c-0.3,0.3-0.45,0.52-0.45,0.66l0.1,0.1l-0.1,0.1
			c-0.07,0-0.1-0.03-0.1-0.1l-0.81,1.01c-0.2,0.27-0.39,0.52-0.56,0.76s-0.25,0.42-0.25,0.56l0.1,0.2c-0.14,0-0.39,0.17-0.76,0.5
			c-0.37,0.34-0.79,1.21-1.26,2.63l-0.4,0.4l0.1,0.2c0-0.07-0.03-0.1-0.1-0.1c-0.07,0-0.19,0.19-0.35,0.56
			c-0.17,0.37-0.42,0.72-0.76,1.06c0,0.27-0.15,0.62-0.45,1.06s-0.66,0.88-1.06,1.31c-0.4,0.44-0.76,0.86-1.06,1.26
			s-0.45,0.67-0.45,0.81c0,0.2,0.03,0.3,0.1,0.3c0.27-0.07,0.54-0.24,0.81-0.5c0.27-0.27,0.61-0.67,1.01-1.21
			c0.4-0.54,0.87-1.35,1.41-2.42h-0.1c0.07-0.34,0.2-0.64,0.4-0.91c0.13-0.2,0.29-0.4,0.45-0.61c0.17-0.2,0.32-0.3,0.45-0.3
			c0-0.07-0.03-0.13-0.1-0.2c-0.14-0.07,0.34-0.87,1.41-2.42c1.08-1.55,2.49-3.6,4.24-6.16c0.2-0.2,0.45-0.49,0.76-0.86
			c0.3-0.37,0.61-0.76,0.91-1.16c0.3-0.4,0.57-0.81,0.81-1.21s0.35-0.71,0.35-0.91c0,0.07,0.25-0.2,0.76-0.81
			C380.35,148.81,381.08,148.04,382.02,147.09z"/>
		<path class="st1" d="M436.96,145.88c0,0.54-0.02,0.86-0.05,0.96c-0.03,0.1-0.17,0.24-0.4,0.4c-0.24,0.17-0.59,0.46-1.06,0.86
			c-0.47,0.4-1.15,1.18-2.02,2.32c-0.47,0.4-0.83,0.72-1.06,0.96c-0.24,0.24-0.45,0.49-0.66,0.76c-0.2,0.27-0.3,0.5-0.3,0.71
			c0,0.07,0.02,0.12,0.05,0.15s0.05,0.08,0.05,0.15c-0.27,0.2-0.59,0.49-0.96,0.86s-0.72,0.76-1.06,1.16
			c-0.34,0.4-0.62,0.74-0.86,1.01s-0.35,0.37-0.35,0.3v0.3c-0.61,0.61-1.13,1.16-1.57,1.67c-0.44,0.5-0.93,1.06-1.46,1.67
			c-0.54,0.61-1.2,1.31-1.97,2.12s-1.8,1.85-3.08,3.13h-0.3c-0.54,0.81-1.2,1.58-1.97,2.32s-1.5,1.4-2.17,1.97
			c-0.67,0.57-1.45,1.2-2.32,1.87c-0.07,0-0.44,0.22-1.11,0.66s-1.31,0.89-1.92,1.36c-0.34,0-0.52,0.05-0.56,0.15
			c-0.03,0.1-0.12,0.2-0.25,0.3c-0.14,0.1-0.44,0.2-0.91,0.3c-0.47,0.1-1.28,0.15-2.42,0.15c-1.41,0-2.81-0.64-4.19-1.92
			c-1.38-1.28-3.05-2.89-5-4.85c-0.2-0.2-0.37-0.4-0.5-0.61c-0.34-0.34-0.5-0.64-0.5-0.91c-0.07,0-0.3-0.42-0.71-1.26
			c-0.4-0.84-0.61-1.97-0.61-3.38h0.1l0.1-0.2c-0.13,0-0.2-0.07-0.2-0.2c0-0.2,0.07-0.5,0.2-0.91c-0.13,0-0.2-0.07-0.2-0.2h0.1
			l0.1-0.1l-0.1-0.1c-0.07,0-0.1-0.03-0.1-0.1v0.1c0.14-0.2,0.27-0.44,0.4-0.71c0.14-0.27,0.24-0.57,0.3-0.91
			c0.07-0.34,0.1-0.77,0.1-1.31l-0.1-0.1c-0.07,0-0.1-0.03-0.1-0.1c0-0.2,0.24-0.64,0.71-1.31s0.71-1.38,0.71-2.12
			c0.2-0.54,0.29-0.84,0.25-0.91c-0.03-0.07-0.02-0.17,0.05-0.3c0.07-0.13,0.24-0.44,0.5-0.91c0.27-0.47,0.81-1.41,1.62-2.83
			c0.81-1.35,1.68-2.63,2.63-3.84c0.81-1.08,1.77-2.2,2.88-3.38s2.34-2.24,3.69-3.18l-0.1,0.1c0-0.2,0.3-0.57,0.91-1.11
			s1.38-0.81,2.32-0.81c0-0.07-0.02-0.12-0.05-0.15s-0.05-0.08-0.05-0.15v0.1c0.07,0,0.37-0.2,0.91-0.61
			c0.54-0.4,1.75-0.61,3.64-0.61c0.34,0,0.76,0.02,1.26,0.05c0.5,0.03,0.96,0.12,1.36,0.25h-0.2c0,0.07,0.15,0.15,0.45,0.25
			c0.3,0.1,0.69,0.25,1.16,0.45c0.47,0.2,0.94,0.44,1.41,0.71c0.47,0.27,0.87,0.54,1.21,0.81c0.2,0,0.54,0.15,1.01,0.45
			s0.94,0.71,1.41,1.21c0.47,0.5,0.89,1.06,1.26,1.67s0.56,1.21,0.56,1.82c0,0.27-0.07,0.51-0.2,0.71
			c-0.27,0.47-0.64,0.71-1.11,0.71c-0.34,0-0.62-0.17-0.86-0.5c-0.24-0.34-0.42-0.67-0.56-1.01l0.1,0.1
			c-0.27-0.13-0.54-0.3-0.81-0.5c-0.27-0.13-0.57-0.25-0.91-0.35c-0.34-0.1-0.67-0.15-1.01-0.15c-0.27,0-0.61,0.07-1.01,0.2
			c-0.4,0.14-0.67,0.2-0.81,0.2c-0.07,0-0.14-0.03-0.2-0.1c0,0.14-0.27,0.27-0.81,0.4c-0.14,0-0.17,0.05-0.1,0.15
			c0.07,0.1,0.03,0.15-0.1,0.15c-0.07,0-0.12-0.02-0.15-0.05c-0.03-0.03-0.09-0.05-0.15-0.05c0.07,0,0.1-0.03,0.1-0.1
			c-0.47,0.27-0.84,0.5-1.11,0.71c-0.27,0.2-0.5,0.37-0.71,0.5c-0.2,0.14-0.3,0.27-0.3,0.4c0,0.07-0.2,0.19-0.61,0.35
			c-0.4,0.17-0.98,0.57-1.72,1.21s-1.63,1.62-2.68,2.93c-1.04,1.31-2.21,3.12-3.48,5.4c-0.2,0.14-0.37,0.3-0.5,0.5
			c-0.34,0.34-0.5,0.81-0.5,1.41l0.1,0.1c-0.34,0.34-0.54,0.59-0.61,0.76s-0.17,0.52-0.3,1.06c0-0.13-0.03-0.2-0.1-0.2
			s-0.22,0.27-0.45,0.81c-0.24,0.54-0.49,1.21-0.76,2.02s-0.5,1.7-0.71,2.68c-0.2,0.98-0.3,1.94-0.3,2.88c0,1.01,0.17,2.02,0.5,3.03
			c0.54,0,1.13-0.17,1.77-0.5c0.64-0.34,1.26-0.72,1.87-1.16s1.18-0.82,1.72-1.16c0.54-0.34,0.98-0.5,1.31-0.5
			c0.27-0.4,0.62-0.79,1.06-1.16c0.44-0.37,0.86-0.71,1.26-1.01s0.77-0.56,1.11-0.76s0.54-0.34,0.61-0.4
			c0.07-0.07,0.47-0.49,1.21-1.26s1.55-1.43,2.42-1.97c1.14-1.21,1.92-2,2.32-2.37c0.4-0.37,0.64-0.56,0.71-0.56l0.1,0.1v0.1
			c0.07,0,0.49-0.35,1.26-1.06s2.44-2.34,5-4.9c0.07-0.07,0.29-0.32,0.66-0.76s0.81-0.91,1.31-1.41s1.03-0.99,1.57-1.46
			c0.54-0.47,0.98-0.81,1.31-1.01l0.2,0.1c0.13,0,0.34-0.2,0.61-0.61c0.27-0.4,0.67-0.61,1.21-0.61c0.2,0,0.59,0.22,1.16,0.66
			C436.37,145.46,436.76,145.75,436.96,145.88z M403.23,147.5c0.4-0.4,0.66-0.69,0.76-0.86s0.27-0.4,0.51-0.71
			c0.23-0.3,0.66-0.77,1.26-1.41c0.61-0.64,1.65-1.7,3.13-3.18c0.74-0.61,1.19-1.03,1.36-1.26s0.29-0.4,0.35-0.5
			c0.07-0.1,0.17-0.2,0.3-0.3s0.57-0.32,1.31-0.66c0.4-0.2,0.74-0.44,1.01-0.71c0.27-0.2,0.52-0.37,0.76-0.5s0.35-0.27,0.35-0.4
			c-0.27,0-0.59,0.14-0.96,0.4c-0.37,0.27-0.69,0.4-0.96,0.4c-0.34,0.27-0.66,0.44-0.96,0.5c-0.3,0.07-0.45,0.14-0.45,0.2v0.1v0.1
			c-0.07,0-0.12-0.02-0.15-0.05c-0.03-0.03-0.08-0.05-0.15-0.05c-0.2,0.2-0.44,0.4-0.71,0.61c-0.27,0.2-0.57,0.47-0.91,0.81
			c-0.67,0.47-1.21,0.88-1.62,1.21c-0.4,0.34-0.74,0.67-1.01,1.01s-0.54,0.67-0.81,1.01s-0.64,0.74-1.11,1.21
			c-0.47,0.74-1.1,1.67-1.87,2.78c-0.77,1.11-1.55,2.32-2.32,3.64c-0.77,1.31-1.43,2.69-1.97,4.14c-0.54,1.45-0.81,2.85-0.81,4.19
			v0.1c0.34-1.28,0.64-2.24,0.91-2.88s0.4-1.03,0.4-1.16c0.14-0.13,0.27-0.49,0.4-1.06c0.14-0.57,0.5-1.16,1.11-1.77
			c0.13-0.34,0.42-0.74,0.86-1.21c0.44-0.47,0.66-1.04,0.66-1.72v0.1c0.07,0,0.24-0.3,0.5-0.91
			C402.69,148.1,402.96,147.7,403.23,147.5z M432.62,147.29c0.13-0.13,0.29-0.35,0.45-0.66c0.17-0.3,0.25-0.49,0.25-0.56
			c-0.14,0.14-0.25,0.25-0.35,0.35s-0.22,0.22-0.35,0.35c-0.94,0.88-1.85,1.73-2.73,2.58c-0.88,0.84-1.8,1.73-2.78,2.68
			c-0.98,0.94-2.02,1.97-3.13,3.08c-1.11,1.11-2.37,2.37-3.79,3.79c-1.48,1.41-2.93,2.71-4.34,3.89c-1.41,1.18-2.86,2.51-4.34,3.99
			c0.61-0.4,1.35-0.94,2.22-1.62c0.87-0.67,2.1-1.72,3.69-3.13c1.58-1.41,3.59-3.3,6.01-5.66
			C425.85,154.03,428.92,151,432.62,147.29z"/>
		<path class="st1" d="M467.77,147.9l-0.1,0.1l0.1,0.1c-0.54,0.27-0.89,0.5-1.06,0.71c-0.17,0.2-0.29,0.42-0.35,0.66
			c-0.07,0.24-0.14,0.49-0.2,0.76c-0.07,0.27-0.27,0.57-0.61,0.91c-0.2,0.54-0.34,0.89-0.4,1.06c-0.07,0.17-0.15,0.3-0.25,0.4
			s-0.25,0.29-0.45,0.56s-0.5,0.81-0.91,1.62c-0.34,0.2-0.64,0.44-0.91,0.71c-0.2,0.27-0.39,0.57-0.56,0.91
			c-0.17,0.34-0.25,0.71-0.25,1.11c0,0.54-0.03,0.81-0.1,0.81s-0.19,0.04-0.35,0.1c-0.17,0.07-0.39,0.27-0.66,0.61
			c-0.27,0.34-0.61,1.08-1.01,2.22c-0.54,0.54-0.88,0.93-1.01,1.16c-0.14,0.24-0.2,0.42-0.2,0.56s0.02,0.25,0.05,0.35
			s0.05,0.22,0.05,0.35v-0.1c-0.07,0-0.24,0.25-0.5,0.76c-0.27,0.5-0.56,1.06-0.86,1.67c-0.3,0.61-0.62,1.16-0.96,1.67
			c-0.34,0.5-0.61,0.76-0.81,0.76c0,0.2-0.19,0.61-0.56,1.21c-0.37,0.61-0.83,1.21-1.36,1.82c-0.54,0.61-1.13,1.16-1.77,1.67
			c-0.64,0.5-1.2,0.76-1.67,0.76c-0.47,0-1.01-0.3-1.62-0.91s-1.25-1.25-1.92-1.92c-0.54-0.4-0.98-0.81-1.31-1.21
			c-0.34-0.34-0.62-0.67-0.86-1.01s-0.35-0.57-0.35-0.71c0-0.07,0.03-0.13,0.1-0.2c0.07,0,0.1,0.03,0.1,0.1
			c-0.2,0-0.37-0.1-0.51-0.3c-0.34-0.2-0.5-0.74-0.5-1.62l-0.1,0.1c-0.07-0.2-0.14-0.44-0.2-0.71c-0.07-0.2-0.12-0.44-0.15-0.71
			s-0.08-0.57-0.15-0.91c0-1.08,0.02-2.04,0.05-2.88s0.18-1.7,0.45-2.58c-0.07,0-0.45,0.29-1.16,0.86
			c-0.71,0.57-1.53,1.53-2.47,2.88h-0.1l0.1,0.1c0,0.14-0.29,0.47-0.86,1.01c-0.57,0.54-0.96,0.91-1.16,1.11
			c0,0.27-0.03,0.4-0.1,0.4l-0.2-0.1v0.3v-0.1c-0.07,0-0.17,0.14-0.3,0.4c-0.14,0.27-0.35,0.57-0.66,0.91
			c-0.3,0.34-0.69,0.64-1.16,0.91c-0.47,0.27-1.04,0.4-1.72,0.4c-0.94,0-1.72-0.35-2.32-1.06c-0.61-0.71-1.48-1.73-2.63-3.08
			c0,0.07-0.13-0.05-0.4-0.35s-0.37-0.46-0.3-0.46c0-0.2-0.07-0.27-0.2-0.2s-0.3,0.02-0.5-0.15c-0.2-0.17-0.37-0.54-0.51-1.11
			c-0.13-0.57-0.2-1.57-0.2-2.98c0-0.61,0.12-1.13,0.35-1.57c0.24-0.44,0.35-0.92,0.35-1.46l-0.1-0.1c0-0.4,0.24-0.87,0.71-1.41
			s0.71-1.14,0.71-1.82c0-0.07,0.02-0.18,0.05-0.35s0.12-0.25,0.25-0.25l-0.1-0.2l0.1-0.1l0.1,0.1c0.14,0,0.37-0.39,0.71-1.16
			c0.34-0.77,0.61-1.26,0.81-1.46c0-0.07-0.02-0.1-0.05-0.1s-0.05-0.03-0.05-0.1c0.07-0.2,0.2-0.44,0.4-0.71
			c0.14-0.27,0.35-0.56,0.66-0.86c0.3-0.3,0.72-0.72,1.26-1.26c0.4-0.4,0.87-0.82,1.41-1.26s1.04-0.84,1.52-1.21
			c0.47-0.37,0.87-0.69,1.21-0.96s0.5-0.44,0.5-0.5l0.2,0.1c0.13,0,0.17-0.03,0.1-0.1c-0.07-0.07,0.03-0.1,0.3-0.1l-0.1-0.1h0.3
			v-0.2c0.07,0,0.13,0.04,0.2,0.1l0.2-0.2l0.2-0.2c0.07,0,0.13,0.04,0.2,0.1c0.07,0,0.56-0.12,1.46-0.35
			c0.91-0.24,1.73-0.35,2.47-0.35c0.94,0,1.68,0.07,2.22,0.2c0.54,0.14,1.08,0.27,1.62,0.4v-0.14c0.07,0,0.3,0.15,0.71,0.45
			c0.4,0.3,0.84,0.46,1.31,0.46c0.07,0,0.13-0.03,0.2-0.1c0,0.27,0.13,0.4,0.4,0.4c0.07,0,0.13-0.03,0.2-0.1
			c0.13,0.14,0.32,0.25,0.56,0.35c0.23,0.1,0.42,0.22,0.56,0.35c0.34,0,0.66-0.29,0.96-0.86c0.3-0.57,0.69-0.86,1.16-0.86
			c0.07,0,0.3,0.07,0.71,0.2c0.4,0.14,0.86,0.3,1.36,0.5s0.99,0.44,1.46,0.71s0.77,0.5,0.91,0.71c0.34,0.2,0.74,0.4,1.21,0.61
			c0.47,0.2,0.71,0.57,0.71,1.11c0,0.2-0.12,0.49-0.35,0.86c-0.24,0.37-0.47,0.74-0.71,1.11s-0.47,0.72-0.71,1.06
			s-0.35,0.61-0.35,0.81c-0.34,0.54-0.64,1.03-0.91,1.46c-0.27,0.44-0.5,0.89-0.71,1.36c-0.2,0.47-0.3,0.84-0.3,1.11
			c0,0.07,0.03,0.14,0.1,0.2c-0.27,0-0.57,0.64-0.91,1.92v-0.1c0,0.14-0.14,0.56-0.4,1.26c-0.27,0.71-0.57,1.5-0.91,2.37
			c-0.4,1.01-0.84,2.12-1.31,3.33v0.3v-0.1l-0.1,1.01c-0.07,0-0.1-0.03-0.1-0.1c-0.2,0.61-0.34,1.21-0.4,1.82
			c-0.07,0.61-0.2,1.18-0.4,1.72c0,0.07,0.03,0.1,0.1,0.1c0-0.07,0.1-0.18,0.3-0.35c0.2-0.17,0.34-0.29,0.4-0.35
			c0-0.07-0.03-0.13-0.1-0.2c0-0.07,0.07-0.13,0.2-0.2s0.24-0.13,0.3-0.2l-0.1-0.2c0-0.07,0.13-0.18,0.4-0.35s0.37-0.25,0.3-0.25
			c0-0.07-0.03-0.1-0.1-0.1s-0.1-0.03-0.1-0.1c0-0.13,0.1-0.34,0.3-0.61c0.2-0.27,0.64-0.74,1.31-1.41l-0.1-0.2l0.1-0.1h-0.1
			c0-0.13,0.27-0.37,0.81-0.71s0.81-0.81,0.81-1.41c0-0.27,0.05-0.4,0.15-0.4s0.22-0.07,0.35-0.2l-0.1-0.1
			c0-0.27,0.02-0.49,0.05-0.66s0.13-0.35,0.3-0.56c0.17-0.2,0.42-0.45,0.76-0.76c0.34-0.3,0.81-0.76,1.41-1.36l-0.1-0.2l0.1-0.1
			l0.1,0.1c0.2-0.47,0.4-0.81,0.61-1.01s0.54-0.52,1.01-0.96s1.09-1.09,1.87-1.97c0.77-0.87,1.77-2.19,2.98-3.94
			c0.13,0,0.32-0.23,0.56-0.71c0.23-0.47,0.82-0.71,1.77-0.71c0.13,0,0.34,0.1,0.61,0.3s0.4,0.37,0.4,0.5c0,0.14-0.03,0.32-0.1,0.56
			C467.8,147.28,467.77,147.56,467.77,147.9z M434.13,147.6c1.08-1.08,2.1-2,3.08-2.78c0.98-0.77,1.93-1.63,2.88-2.58
			c-0.54,0-1.04,0.15-1.52,0.45c-0.47,0.3-1.18,0.83-2.12,1.57c-0.4,0.4-0.67,0.61-0.81,0.61c-0.07,0-0.1-0.02-0.1-0.05
			c0-0.03-0.03-0.05-0.1-0.05s-0.15,0.05-0.25,0.15c-0.1,0.1-0.27,0.32-0.5,0.66c-0.24,0.34-0.57,0.83-1.01,1.46
			c-0.44,0.64-0.99,1.5-1.67,2.58c-0.14,0-0.2,0.04-0.2,0.1l0.1,0.1c-0.27,0.27-0.44,0.47-0.5,0.61c-0.07,0.14-0.14,0.24-0.2,0.3
			c0,0.07,0.03,0.14,0.1,0.2c-0.07,0-0.1-0.03-0.1-0.1l-0.1,0.1c0,0.07,0.03,0.14,0.1,0.2h-0.2c0,0.34-0.04,0.46-0.1,0.35
			c-0.07-0.1-0.1-0.08-0.1,0.05l0.1,0.2c-0.07,0-0.1-0.03-0.1-0.1c-0.13,0-0.18,0.07-0.15,0.2c0.03,0.14-0.02,0.24-0.15,0.3l0.1,0.2
			c-0.13,0-0.2,0.1-0.2,0.3c0,0.34-0.29,0.79-0.86,1.36s-0.86,1.73-0.86,3.48c0.34-0.47,0.61-0.87,0.81-1.21
			c0.2-0.34,0.39-0.74,0.56-1.21c0.17-0.47,0.25-0.91,0.25-1.31v0.1c-0.07,0-0.1-0.03-0.1-0.1c0-0.2,0.2-0.62,0.61-1.26
			c0.4-0.64,0.86-1.28,1.36-1.92c0.51-0.64,0.96-1.23,1.36-1.77c0.4-0.54,0.61-0.88,0.61-1.01v-0.18H434.13z M445.85,150.32
			c0-0.07,0.03-0.12,0.1-0.15s0.1-0.08,0.1-0.15s-0.03-0.13-0.1-0.2c-1.08,1.28-2.21,2.56-3.38,3.84c-1.18,1.28-2.31,2.36-3.38,3.23
			c-0.88,0.67-1.65,1.31-2.32,1.92c-0.54,0.54-1.04,1.04-1.52,1.51c-0.47,0.47-0.71,0.77-0.71,0.91l0.1,0.1
			c0.54-0.4,1.04-0.84,1.52-1.31c0.47-0.47,0.94-0.88,1.41-1.21c0.67-0.67,1.06-1.06,1.16-1.16s0.22-0.2,0.35-0.3
			s0.45-0.4,0.96-0.91c0.51-0.5,1.5-1.5,2.98-2.98l-0.1-0.2c0-0.2,0.15-0.42,0.45-0.66c0.3-0.24,0.62-0.49,0.96-0.76
			s0.66-0.54,0.96-0.81C445.7,150.76,445.85,150.53,445.85,150.32z M446.66,147.6c0.34-0.34,0.62-0.62,0.86-0.86
			c0.24-0.23,0.45-0.52,0.66-0.86c-0.81,0-1.41,0.07-1.82,0.2c-0.4,0.14-0.76,0.3-1.06,0.5s-0.56,0.37-0.76,0.5
			c-0.2,0.14-0.5,0.2-0.91,0.2c0.07,0-0.07,0.14-0.4,0.4c-0.34,0.27-0.71,0.57-1.11,0.91c-0.4,0.34-0.81,0.67-1.21,1.01
			c-0.4,0.34-0.64,0.57-0.71,0.71h0.2c0,0.07-0.19,0.19-0.56,0.35c-0.37,0.17-0.56,0.42-0.56,0.76l0.1,0.2
			c-0.61,0.61-1.01,1.08-1.21,1.41c-0.2,0.34-0.54,1.11-1.01,2.32c-0.14,0-0.44,0.32-0.91,0.96c-0.47,0.64-0.71,1.33-0.71,2.07
			c0,0.07,0.03,0.1,0.1,0.1s0.47-0.27,1.21-0.81s1.58-1.28,2.52-2.22l-0.1-0.2c0-0.07,0.22-0.27,0.66-0.61
			c0.44-0.34,0.69-0.54,0.76-0.61c0-0.07-0.03-0.13-0.1-0.2c0-0.07,0.03-0.1,0.1-0.1c0.81-1.01,1.78-2.02,2.93-3.03
			C444.77,149.72,445.78,148.67,446.66,147.6z M446.86,154.57c0-0.07,0.03-0.13,0.1-0.2s0.1-0.17,0.1-0.3c0-0.07-0.04-0.13-0.1-0.2
			c-0.27,0.34-0.49,0.74-0.66,1.21c-0.17,0.47-0.25,0.81-0.25,1.01l0.1,0.1c0.13-0.34,0.29-0.64,0.45-0.91
			C446.77,155,446.86,154.77,446.86,154.57z M466.25,147.09c0-0.07-0.03-0.1-0.1-0.1c-0.14,0-0.29,0.08-0.45,0.25
			c-0.17,0.17-0.32,0.32-0.45,0.46c-0.67,0.47-1.13,0.81-1.36,1.01c-0.24,0.2-0.42,0.42-0.56,0.66s-0.29,0.51-0.45,0.81
			c-0.17,0.3-0.56,0.79-1.16,1.46v0.1c0,0.07,0.03,0.14,0.1,0.2c0,0.2-0.15,0.56-0.45,1.06c-0.3,0.5-0.93,1.23-1.87,2.17
			c0,0.14-0.15,0.35-0.45,0.66c-0.3,0.3-0.45,0.52-0.45,0.66l0.1,0.1l-0.1,0.1c-0.07,0-0.1-0.03-0.1-0.1l-0.81,1.01
			c-0.2,0.27-0.39,0.52-0.56,0.76s-0.25,0.42-0.25,0.56l0.1,0.2c-0.14,0-0.39,0.17-0.76,0.5c-0.37,0.34-0.79,1.21-1.26,2.63
			l-0.4,0.4l0.1,0.2c0-0.07-0.03-0.1-0.1-0.1s-0.19,0.19-0.35,0.56c-0.17,0.37-0.42,0.72-0.76,1.06c0,0.27-0.15,0.62-0.45,1.06
			c-0.3,0.44-0.66,0.88-1.06,1.31c-0.4,0.44-0.76,0.86-1.06,1.26s-0.45,0.67-0.45,0.81c0,0.2,0.03,0.3,0.1,0.3
			c0.27-0.07,0.54-0.24,0.81-0.5c0.27-0.27,0.61-0.67,1.01-1.21c0.4-0.54,0.87-1.35,1.41-2.42h-0.1c0.07-0.34,0.2-0.64,0.4-0.91
			c0.13-0.2,0.29-0.4,0.45-0.61c0.17-0.2,0.32-0.3,0.45-0.3c0-0.07-0.03-0.13-0.1-0.2c-0.14-0.07,0.34-0.87,1.41-2.42
			c1.08-1.55,2.49-3.6,4.24-6.16c0.2-0.2,0.45-0.49,0.76-0.86c0.3-0.37,0.61-0.76,0.91-1.16c0.3-0.4,0.57-0.81,0.81-1.21
			c0.24-0.4,0.35-0.71,0.35-0.91c0,0.07,0.25-0.2,0.76-0.81C464.59,148.81,465.31,148.04,466.25,147.09z"/>
		<path class="st1" d="M495.64,145.58c0.54,0,0.96,0.1,1.26,0.3s0.59,0.47,0.86,0.81c-0.34,0.81-0.83,1.72-1.46,2.73
			c-0.64,1.01-1.26,1.95-1.87,2.83s-1.13,1.63-1.57,2.27s-0.62,0.99-0.56,1.06c-0.81,1.01-1.33,1.75-1.57,2.22s-0.39,0.83-0.45,1.06
			c-0.07,0.24-0.15,0.49-0.25,0.76s-0.45,0.71-1.06,1.31c0,0.47-0.09,0.81-0.25,1.01c-0.17,0.2-0.32,0.37-0.45,0.5
			c-0.2,0.14-0.4,0.24-0.61,0.3l0.1,0.2c0,0.14-0.07,0.19-0.2,0.15c-0.14-0.03-0.2,0.12-0.2,0.46c0,0.07,0.03,0.13,0.1,0.2
			c-0.94,0.94-1.53,1.89-1.77,2.83s-0.49,1.41-0.76,1.41c-0.07,0-0.14-0.03-0.2-0.1c0,0.07,0.03,0.14,0.1,0.2l-0.1,0.1l-0.1-0.1
			c0,1.15-0.29,1.94-0.86,2.37c-0.57,0.44-0.86,0.83-0.86,1.16c-0.74,0.74-1.18,1.3-1.31,1.67c-0.14,0.37-0.2,0.62-0.2,0.76l0.1-0.2
			c0,0.2-0.08,0.47-0.25,0.81s-0.37,0.69-0.61,1.06s-0.44,0.71-0.61,1.01s-0.25,0.52-0.25,0.66c-1.35,2.69-2.26,4.41-2.73,5.15
			c-0.47,0.74-0.74,1.11-0.81,1.11v-0.2c-0.14,0-0.3,0.22-0.5,0.66s-0.49,0.91-0.86,1.41s-0.81,0.96-1.31,1.36
			c-0.51,0.4-1.1,0.61-1.77,0.61c-1.55,0-2.56-0.17-3.03-0.5c-0.47-0.34-0.71-0.57-0.71-0.71l0.1,0.1c0-0.2-0.12-0.3-0.35-0.3
			c-0.24,0-0.54-0.05-0.91-0.15c-0.37-0.1-0.81-0.37-1.31-0.81s-1.03-1.16-1.57-2.17c-0.2,0-0.4-0.39-0.61-1.16
			c-0.2-0.77-0.3-1.73-0.3-2.88c0-0.4,0.07-0.61,0.2-0.61c0-0.13-0.03-0.18-0.1-0.15c-0.07,0.04-0.1,0.02-0.1-0.05
			c0-0.13,0.03-0.2,0.1-0.2h0.1c-0.07-0.13-0.1-0.24-0.1-0.3c0-0.13,0.03-0.3,0.1-0.51c0-0.13-0.02-0.25-0.05-0.35
			s-0.05-0.22-0.05-0.35c0-0.34,0.1-0.5,0.3-0.5c0-0.13-0.05-0.22-0.15-0.25s-0.15-0.12-0.15-0.25c0-0.34,0.14-1.06,0.4-2.17
			c0.27-1.11,0.62-2.42,1.06-3.94c0.44-1.51,0.93-3.1,1.46-4.75c0.54-1.65,1.03-3.18,1.46-4.6c0.44-1.41,0.82-2.58,1.16-3.48
			c0.34-0.91,0.54-1.36,0.61-1.36c0.4-0.34,0.84-1.14,1.31-2.42c0.47-1.28,1.04-2.69,1.72-4.24c-0.74-0.13-1.43-0.2-2.07-0.2
			c-0.64,0-1.28-0.07-1.92-0.2s-1.31-0.39-2.02-0.76s-1.5-0.99-2.37-1.87c-1.35-0.67-2.15-1.33-2.42-1.97
			c-0.27-0.64-0.4-1.29-0.4-1.97c0-0.27,0.03-0.54,0.1-0.81s0.1-0.47,0.1-0.61l-0.2-0.1c0-1.35,0.2-2.19,0.61-2.52
			c0.4-0.34,0.61-0.64,0.61-0.91c0-1.08,0.34-1.99,1.01-2.73s1.04-1.11,1.11-1.11c0-0.13-0.02-0.2-0.05-0.2s-0.05-0.03-0.05-0.1
			c0-0.2,0.22-0.42,0.66-0.66c0.44-0.24,0.66-0.66,0.66-1.26c0.47-1.08,1.31-1.67,2.52-1.77c1.21-0.1,2.39,0.04,3.54,0.4
			c1.14,0.37,2.09,0.84,2.83,1.41c0.74,0.57,0.91,0.96,0.51,1.16c-0.07,0-0.3,0.3-0.71,0.91c-0.4,0.61-0.61,0.94-0.61,1.01
			c-0.14,0.14-0.34,0.34-0.61,0.61c-0.27,0.27-0.4,0.61-0.4,1.01l-0.1-0.1c0,0.27-0.03,0.4-0.1,0.4s-0.1,0.03-0.1,0.1
			c0,0.07,0.03,0.14,0.1,0.2c-0.27,0-0.49,0.22-0.66,0.66s-0.34,0.93-0.5,1.46c-0.17,0.54-0.32,1.03-0.45,1.46
			c-0.14,0.44-0.3,0.66-0.5,0.66c-0.34,0.2-0.51,0.55-0.51,1.06c0,0.5-0.2,1.2-0.61,2.07c0.13,0.14,0.57,0.2,1.31,0.2
			c1.08,0,1.82-0.07,2.22-0.2s1.18-0.2,2.32-0.2c0.54,0,1.14,0.08,1.82,0.25c0.67,0.17,1.28,0.35,1.82,0.55
			c0.67,0.27,1.31,0.54,1.92,0.81c0.34,0.34,0.62,0.69,0.86,1.06s0.35,0.86,0.35,1.46c0,0.94-0.15,1.84-0.45,2.68
			c-0.3,0.84-0.45,1.23-0.45,1.16c0,0.07-0.12,0.39-0.35,0.96c-0.24,0.57-0.56,1.43-0.96,2.58c-0.34,0.34-0.61,0.72-0.81,1.16
			c-0.2,0.44-0.35,0.88-0.45,1.31c-0.1,0.44-0.22,0.96-0.35,1.57c0,0.14-0.08,0.37-0.25,0.71s-0.32,0.67-0.45,1.01
			c-0.27,0.4-0.5,0.88-0.71,1.41c0,0.14-0.05,0.32-0.15,0.56s-0.22,0.46-0.35,0.66c-1.15,3.1-2.12,6.03-2.93,8.79
			c-0.81,2.76-1.45,5.66-1.92,8.69c0.07,0,0.1-0.03,0.1-0.1c0-0.34,0.24-0.69,0.71-1.06s0.71-0.79,0.71-1.26
			c0.94-1.68,1.6-2.81,1.97-3.38s0.66-0.96,0.86-1.16c0.2-0.2,0.39-0.42,0.56-0.66c0.17-0.23,0.49-0.92,0.96-2.07
			c1.21-1.21,1.87-2.07,1.97-2.58s0.29-0.92,0.56-1.26c0.47-0.87,0.86-1.58,1.16-2.12s0.52-0.98,0.66-1.31
			c0.2-0.34,0.34-0.57,0.4-0.71v0.2c0-0.07,0.03-0.17,0.1-0.3s0.34-0.44,0.81-0.91l-0.1-0.2c0-0.07,0.13-0.3,0.4-0.71
			c0.27-0.4,0.64-0.84,1.11-1.31c0-0.07-0.02-0.12-0.05-0.15c-0.04-0.03-0.05-0.08-0.05-0.15c0-0.34,0.18-0.64,0.56-0.91
			c0.37-0.27,0.56-0.44,0.56-0.5h-0.2c1.28-1.82,2.09-3,2.42-3.54c0.34-0.54,0.54-0.87,0.61-1.01c0.07-0.13,0.18-0.29,0.35-0.46
			c0.17-0.17,0.69-0.79,1.57-1.87c0-0.07-0.03-0.13-0.1-0.2c0-0.07,0.19-0.37,0.56-0.91c0.37-0.54,0.81-1.11,1.31-1.72
			s1.01-1.16,1.52-1.67s0.86-0.76,1.06-0.76c0.13,0,0.18,0.04,0.15,0.1c-0.03,0.07,0.02,0.1,0.15,0.1c0.07,0,0.2-0.03,0.4-0.1
			C495.34,145.61,495.51,145.58,495.64,145.58z M464.53,138.2c0-0.4,0.22-0.87,0.66-1.41c0.44-0.54,0.66-0.87,0.66-1.01
			c0-0.07-0.03-0.1-0.1-0.1h0.2c1.21-2.02,1.88-3.3,2.02-3.84c0.13-0.54,0.02-0.66-0.35-0.35c-0.37,0.3-0.83,0.84-1.36,1.62
			c-0.54,0.78-0.87,1.43-1.01,1.97c-0.07,0-0.17,0.17-0.3,0.5c-0.07,0.2-0.1,0.37-0.1,0.5v-0.2c0,0.07,0.02,0.12,0.05,0.15
			c0.03,0.04,0.05,0.09,0.05,0.15c-0.2,0-0.3,0.03-0.3,0.1c0,0.07,0.04,0.14,0.1,0.2c-0.07,0-0.15,0.19-0.25,0.56
			s-0.2,0.77-0.3,1.21c-0.1,0.44-0.22,0.84-0.35,1.21s-0.27,0.56-0.4,0.56v-0.2c0,0.14,0.02,0.25,0.05,0.35s0.05,0.22,0.05,0.35
			c0,0.07-0.03,0.15-0.1,0.25s-0.1,0.19-0.1,0.25c0,0.14,0.07,0.2,0.2,0.2c0.14-0.54,0.29-1.04,0.45-1.52
			C464.15,139.25,464.33,138.74,464.53,138.2z M466.45,173.55c1.08-3.37,1.7-5.69,1.87-6.97c0.17-1.28,0.35-1.92,0.56-1.92
			c0.67-1.28,1.04-2.25,1.11-2.93c0.07-0.67,0.3-1.21,0.71-1.62c0-0.07-0.02-0.12-0.05-0.15s-0.05-0.08-0.05-0.15
			c0-0.2,0.08-0.49,0.25-0.86s0.34-0.71,0.5-1.01c0.17-0.3,0.32-0.55,0.45-0.76c0.13-0.2,0.17-0.27,0.1-0.2
			c0-0.07-0.02-0.12-0.05-0.15s-0.05-0.08-0.05-0.15c0,0.07,0.08-0.08,0.25-0.46c0.17-0.37,0.35-0.77,0.56-1.21
			c0.2-0.44,0.39-0.86,0.56-1.26s0.25-0.64,0.25-0.71v-0.3c0.4-0.4,0.72-0.87,0.96-1.41s0.44-1.04,0.61-1.51
			c0.17-0.47,0.27-0.86,0.3-1.16s0.05-0.42,0.05-0.35c0-0.07-0.14-0.1-0.4-0.1c-0.27,0-0.49,0.17-0.66,0.5
			c-0.17,0.34-0.3,0.72-0.4,1.16s-0.19,0.83-0.25,1.16c-0.07,0.34-0.2,0.5-0.4,0.5v-0.1c0,0.07,0.02,0.12,0.05,0.15
			s0.05,0.08,0.05,0.15c-0.2,0.2-0.39,0.45-0.56,0.76c-0.17,0.3-0.25,0.52-0.25,0.66c0,0.07,0.02,0.12,0.05,0.15
			s0.05,0.08,0.05,0.15c-1.01,1.01-1.87,2.51-2.58,4.49c-0.71,1.99-1.35,4.06-1.92,6.21c-0.57,2.16-1.06,4.21-1.46,6.16
			c-0.4,1.95-0.77,3.37-1.11,4.24c0,0.4-0.03,0.61-0.1,0.61s-0.1,0.07-0.1,0.2c0,0.07,0.02,0.12,0.05,0.15
			c0.03,0.04,0.05,0.09,0.05,0.15c-0.13,0.74-0.2,1.36-0.2,1.87s0,1.09,0,1.77c0,0.94,0.07,1.41,0.2,1.41
			c0.14-1.21,0.29-2.47,0.45-3.79C466.07,175.62,466.25,174.5,466.45,173.55z M472.21,182.14c0.4-0.88,0.72-1.45,0.96-1.72
			c0.24-0.27,0.44-0.47,0.61-0.61c0.17-0.13,0.3-0.27,0.4-0.4s0.25-0.5,0.45-1.11l0.4-0.4c0-0.07-0.02-0.1-0.05-0.1
			s-0.05-0.03-0.05-0.1c0-0.13,0.07-0.2,0.2-0.2s0.2-0.03,0.2-0.1c0.81-1.68,1.48-3.01,2.02-3.99c0.54-0.97,0.98-1.72,1.31-2.22
			c0.34-0.5,0.57-0.84,0.71-1.01c0.13-0.17,0.27-0.32,0.4-0.46c0-0.07-0.02-0.12-0.05-0.15s-0.05-0.08-0.05-0.15s0.05-0.1,0.15-0.1
			s0.18-0.03,0.25-0.1c0.61-1.21,1.03-1.99,1.26-2.32c0.23-0.34,0.39-0.51,0.45-0.51c0,0.07-0.03,0.1-0.1,0.1
			c0.87-1.62,1.52-2.78,1.92-3.48s0.76-1.3,1.06-1.77c0.3-0.47,0.66-1.03,1.06-1.67c0.4-0.64,1.08-1.7,2.02-3.18
			c0-0.27,0.03-0.39,0.1-0.35c0.07,0.04,0.17-0.02,0.3-0.15l-0.1-0.2c0-0.13,0.08-0.23,0.25-0.3s0.25-0.13,0.25-0.2l-0.1-0.1
			c0.74-0.74,1.21-1.26,1.41-1.57c0.2-0.3,0.32-0.5,0.35-0.61c0.03-0.1,0.05-0.18,0.05-0.25s0.17-0.27,0.5-0.61l-0.1-0.2
			c0-0.13,0.12-0.29,0.35-0.45c0.24-0.17,0.35-0.32,0.35-0.46l-0.1-0.1c-1.89,2.69-3.11,4.46-3.69,5.3
			c-0.57,0.84-0.86,1.3-0.86,1.36l0.51-0.71c-0.4,1.01-0.91,1.83-1.52,2.47c-0.61,0.64-0.91,1.03-0.91,1.16
			c-0.34,0.67-0.77,1.5-1.31,2.47c-0.54,0.98-1.06,1.89-1.57,2.73c-0.5,0.84-0.94,1.55-1.31,2.12c-0.37,0.57-0.56,0.83-0.56,0.76
			c0,0.14-0.02,0.19-0.05,0.15c-0.03-0.03-0.09-0.02-0.15,0.05c-0.81,1.21-1.38,2.22-1.72,3.03c-0.34,0.81-0.57,1.45-0.71,1.92
			s-0.27,0.81-0.4,1.01c-0.14,0.2-0.4,0.3-0.81,0.3c-0.74,0.74-1.21,1.35-1.41,1.82c-0.2,0.47-0.32,0.86-0.35,1.16
			s-0.05,0.52-0.05,0.66c0,0.14-0.17,0.2-0.5,0.2c0,0.34-0.22,0.74-0.66,1.21c-0.44,0.47-0.66,0.77-0.66,0.91
			c0,0.07,0.03,0.1,0.1,0.1c-0.27,0-0.5,0.25-0.71,0.76c-0.2,0.5-0.34,0.76-0.4,0.76v-0.1l0.1,0.2c-0.07,0.07-0.14,0.1-0.2,0.1
			c-0.07,0-0.1,0.04-0.1,0.1c0,0.07,0.03,0.1,0.1,0.1c0.13-0.13,0.25-0.27,0.35-0.4C471.96,182.41,472.07,182.28,472.21,182.14z
			 M492.71,149.11c0.07,0,0.1-0.07,0.1-0.2c-0.14,0-0.34,0.19-0.61,0.56s-0.44,0.56-0.5,0.56c0,0.07,0.02,0.12,0.05,0.15
			s0.05,0.08,0.05,0.15c-0.07,0.07-0.14,0.1-0.2,0.1c-0.07,0-0.1,0.04-0.1,0.1c0,0.07,0.03,0.1,0.1,0.1
			c0.13-0.27,0.32-0.5,0.56-0.71C492.39,149.72,492.58,149.45,492.71,149.11z M493.72,147.7c-0.14,0.07-0.27,0.14-0.4,0.2
			c-0.14,0.07-0.2,0.14-0.2,0.2c0,0.07,0.02,0.12,0.05,0.15s0.05,0.08,0.05,0.15c-0.07,0.07-0.14,0.1-0.2,0.1
			c-0.07,0-0.1,0.04-0.1,0.1c0,0.07,0.03,0.1,0.1,0.1c0.13-0.2,0.29-0.39,0.45-0.56C493.64,147.99,493.72,147.83,493.72,147.7z"/>
		<path class="st1" d="M529.38,147.9l-0.1,0.1l0.1,0.1c-0.54,0.27-0.89,0.5-1.06,0.71c-0.17,0.2-0.29,0.42-0.35,0.66
			c-0.07,0.24-0.14,0.49-0.2,0.76c-0.07,0.27-0.27,0.57-0.61,0.91c-0.2,0.54-0.34,0.89-0.4,1.06c-0.07,0.17-0.15,0.3-0.25,0.4
			s-0.25,0.29-0.45,0.56s-0.5,0.81-0.91,1.62c-0.34,0.2-0.64,0.44-0.91,0.71c-0.2,0.27-0.39,0.57-0.56,0.91
			c-0.17,0.34-0.25,0.71-0.25,1.11c0,0.54-0.03,0.81-0.1,0.81s-0.19,0.04-0.35,0.1c-0.17,0.07-0.39,0.27-0.66,0.61
			c-0.27,0.34-0.61,1.08-1.01,2.22c-0.54,0.54-0.88,0.93-1.01,1.16c-0.14,0.24-0.2,0.42-0.2,0.56s0.02,0.25,0.05,0.35
			s0.05,0.22,0.05,0.35v-0.1c-0.07,0-0.24,0.25-0.5,0.76c-0.27,0.5-0.56,1.06-0.86,1.67c-0.3,0.61-0.62,1.16-0.96,1.67
			c-0.34,0.5-0.61,0.76-0.81,0.76c0,0.2-0.19,0.61-0.56,1.21c-0.37,0.61-0.83,1.21-1.36,1.82c-0.54,0.61-1.13,1.16-1.77,1.67
			c-0.64,0.5-1.2,0.76-1.67,0.76c-0.47,0-1.01-0.3-1.62-0.91s-1.25-1.25-1.92-1.92c-0.54-0.4-0.98-0.81-1.31-1.21
			c-0.34-0.34-0.62-0.67-0.86-1.01s-0.35-0.57-0.35-0.71c0-0.07,0.03-0.13,0.1-0.2c0.07,0,0.1,0.03,0.1,0.1
			c-0.2,0-0.37-0.1-0.51-0.3c-0.34-0.2-0.5-0.74-0.5-1.62l-0.1,0.1c-0.07-0.2-0.14-0.44-0.2-0.71c-0.07-0.2-0.12-0.44-0.15-0.71
			s-0.08-0.57-0.15-0.91c0-1.08,0.02-2.04,0.05-2.88s0.18-1.7,0.45-2.58c-0.07,0-0.45,0.29-1.16,0.86
			c-0.71,0.57-1.53,1.53-2.47,2.88h-0.1l0.1,0.1c0,0.14-0.29,0.47-0.86,1.01c-0.57,0.54-0.96,0.91-1.16,1.11
			c0,0.27-0.03,0.4-0.1,0.4l-0.2-0.1v0.3v-0.1c-0.07,0-0.17,0.14-0.3,0.4c-0.14,0.27-0.35,0.57-0.66,0.91
			c-0.3,0.34-0.69,0.64-1.16,0.91c-0.47,0.27-1.04,0.4-1.72,0.4c-0.94,0-1.72-0.35-2.32-1.06c-0.61-0.71-1.48-1.73-2.63-3.08
			c0,0.07-0.13-0.05-0.4-0.35s-0.37-0.46-0.3-0.46c0-0.2-0.07-0.27-0.2-0.2s-0.3,0.02-0.5-0.15c-0.2-0.17-0.37-0.54-0.51-1.11
			c-0.13-0.57-0.2-1.57-0.2-2.98c0-0.61,0.12-1.13,0.35-1.57c0.24-0.44,0.35-0.92,0.35-1.46l-0.1-0.1c0-0.4,0.24-0.87,0.71-1.41
			s0.71-1.14,0.71-1.82c0-0.07,0.02-0.18,0.05-0.35s0.12-0.25,0.25-0.25l-0.1-0.2l0.1-0.1l0.1,0.1c0.14,0,0.37-0.39,0.71-1.16
			c0.34-0.77,0.61-1.26,0.81-1.46c0-0.07-0.02-0.1-0.05-0.1s-0.05-0.03-0.05-0.1c0.07-0.2,0.2-0.44,0.4-0.71
			c0.14-0.27,0.35-0.56,0.66-0.86c0.3-0.3,0.72-0.72,1.26-1.26c0.4-0.4,0.87-0.82,1.41-1.26s1.04-0.84,1.52-1.21
			c0.47-0.37,0.87-0.69,1.21-0.96s0.5-0.44,0.5-0.5l0.2,0.1c0.13,0,0.17-0.03,0.1-0.1c-0.07-0.07,0.03-0.1,0.3-0.1l-0.1-0.1h0.3
			v-0.2c0.07,0,0.13,0.04,0.2,0.1l0.2-0.2l0.2-0.2c0.07,0,0.13,0.04,0.2,0.1c0.07,0,0.56-0.12,1.46-0.35
			c0.91-0.24,1.73-0.35,2.47-0.35c0.94,0,1.68,0.07,2.22,0.2c0.54,0.14,1.08,0.27,1.62,0.4v-0.14c0.07,0,0.3,0.15,0.71,0.45
			c0.4,0.3,0.84,0.46,1.31,0.46c0.07,0,0.13-0.03,0.2-0.1c0,0.27,0.13,0.4,0.4,0.4c0.07,0,0.13-0.03,0.2-0.1
			c0.13,0.14,0.32,0.25,0.56,0.35c0.23,0.1,0.42,0.22,0.56,0.35c0.34,0,0.66-0.29,0.96-0.86c0.3-0.57,0.69-0.86,1.16-0.86
			c0.07,0,0.3,0.07,0.71,0.2c0.4,0.14,0.86,0.3,1.36,0.5s0.99,0.44,1.46,0.71s0.77,0.5,0.91,0.71c0.34,0.2,0.74,0.4,1.21,0.61
			c0.47,0.2,0.71,0.57,0.71,1.11c0,0.2-0.12,0.49-0.35,0.86c-0.24,0.37-0.47,0.74-0.71,1.11s-0.47,0.72-0.71,1.06
			s-0.35,0.61-0.35,0.81c-0.34,0.54-0.64,1.03-0.91,1.46c-0.27,0.44-0.5,0.89-0.71,1.36c-0.2,0.47-0.3,0.84-0.3,1.11
			c0,0.07,0.03,0.14,0.1,0.2c-0.27,0-0.57,0.64-0.91,1.92v-0.1c0,0.14-0.14,0.56-0.4,1.26c-0.27,0.71-0.57,1.5-0.91,2.37
			c-0.4,1.01-0.84,2.12-1.31,3.33v0.3v-0.1l-0.1,1.01c-0.07,0-0.1-0.03-0.1-0.1c-0.2,0.61-0.34,1.21-0.4,1.82
			c-0.07,0.61-0.2,1.18-0.4,1.72c0,0.07,0.03,0.1,0.1,0.1c0-0.07,0.1-0.18,0.3-0.35c0.2-0.17,0.34-0.29,0.4-0.35
			c0-0.07-0.03-0.13-0.1-0.2c0-0.07,0.07-0.13,0.2-0.2s0.24-0.13,0.3-0.2l-0.1-0.2c0-0.07,0.13-0.18,0.4-0.35s0.37-0.25,0.3-0.25
			c0-0.07-0.03-0.1-0.1-0.1s-0.1-0.03-0.1-0.1c0-0.13,0.1-0.34,0.3-0.61c0.2-0.27,0.64-0.74,1.31-1.41l-0.1-0.2l0.1-0.1h-0.1
			c0-0.13,0.27-0.37,0.81-0.71s0.81-0.81,0.81-1.41c0-0.27,0.05-0.4,0.15-0.4s0.22-0.07,0.35-0.2l-0.1-0.1
			c0-0.27,0.02-0.49,0.05-0.66s0.13-0.35,0.3-0.56c0.17-0.2,0.42-0.45,0.76-0.76c0.34-0.3,0.81-0.76,1.41-1.36l-0.1-0.2l0.1-0.1
			l0.1,0.1c0.2-0.47,0.4-0.81,0.61-1.01s0.54-0.52,1.01-0.96s1.09-1.09,1.87-1.97c0.77-0.87,1.77-2.19,2.98-3.94
			c0.13,0,0.32-0.23,0.56-0.71c0.23-0.47,0.82-0.71,1.77-0.71c0.13,0,0.34,0.1,0.61,0.3s0.4,0.37,0.4,0.5c0,0.14-0.03,0.32-0.1,0.56
			C529.41,147.28,529.38,147.56,529.38,147.9z M495.74,147.6c1.08-1.08,2.1-2,3.08-2.78c0.98-0.77,1.93-1.63,2.88-2.58
			c-0.54,0-1.04,0.15-1.52,0.45c-0.47,0.3-1.18,0.83-2.12,1.57c-0.4,0.4-0.67,0.61-0.81,0.61c-0.07,0-0.1-0.02-0.1-0.05
			c0-0.03-0.03-0.05-0.1-0.05s-0.15,0.05-0.25,0.15c-0.1,0.1-0.27,0.32-0.5,0.66c-0.24,0.34-0.57,0.83-1.01,1.46
			c-0.44,0.64-0.99,1.5-1.67,2.58c-0.14,0-0.2,0.04-0.2,0.1l0.1,0.1c-0.27,0.27-0.44,0.47-0.5,0.61c-0.07,0.14-0.14,0.24-0.2,0.3
			c0,0.07,0.03,0.14,0.1,0.2c-0.07,0-0.1-0.03-0.1-0.1l-0.1,0.1c0,0.07,0.03,0.14,0.1,0.2h-0.2c0,0.34-0.04,0.46-0.1,0.35
			c-0.07-0.1-0.1-0.08-0.1,0.05l0.1,0.2c-0.07,0-0.1-0.03-0.1-0.1c-0.13,0-0.18,0.07-0.15,0.2c0.03,0.14-0.02,0.24-0.15,0.3l0.1,0.2
			c-0.13,0-0.2,0.1-0.2,0.3c0,0.34-0.29,0.79-0.86,1.36s-0.86,1.73-0.86,3.48c0.34-0.47,0.61-0.87,0.81-1.21
			c0.2-0.34,0.39-0.74,0.56-1.21c0.17-0.47,0.25-0.91,0.25-1.31v0.1c-0.07,0-0.1-0.03-0.1-0.1c0-0.2,0.2-0.62,0.61-1.26
			c0.4-0.64,0.86-1.28,1.36-1.92c0.51-0.64,0.96-1.23,1.36-1.77c0.4-0.54,0.61-0.88,0.61-1.01v-0.18H495.74z M507.46,150.32
			c0-0.07,0.03-0.12,0.1-0.15s0.1-0.08,0.1-0.15s-0.03-0.13-0.1-0.2c-1.08,1.28-2.21,2.56-3.38,3.84c-1.18,1.28-2.31,2.36-3.38,3.23
			c-0.88,0.67-1.65,1.31-2.32,1.92c-0.54,0.54-1.04,1.04-1.52,1.51c-0.47,0.47-0.71,0.77-0.71,0.91l0.1,0.1
			c0.54-0.4,1.04-0.84,1.52-1.31c0.47-0.47,0.94-0.88,1.41-1.21c0.67-0.67,1.06-1.06,1.16-1.16s0.22-0.2,0.35-0.3
			s0.45-0.4,0.96-0.91c0.51-0.5,1.5-1.5,2.98-2.98l-0.1-0.2c0-0.2,0.15-0.42,0.45-0.66c0.3-0.24,0.62-0.49,0.96-0.76
			s0.66-0.54,0.96-0.81C507.31,150.76,507.46,150.53,507.46,150.32z M508.27,147.6c0.34-0.34,0.62-0.62,0.86-0.86
			c0.24-0.23,0.45-0.52,0.66-0.86c-0.81,0-1.41,0.07-1.82,0.2c-0.4,0.14-0.76,0.3-1.06,0.5s-0.56,0.37-0.76,0.5
			c-0.2,0.14-0.5,0.2-0.91,0.2c0.07,0-0.07,0.14-0.4,0.4c-0.34,0.27-0.71,0.57-1.11,0.91c-0.4,0.34-0.81,0.67-1.21,1.01
			c-0.4,0.34-0.64,0.57-0.71,0.71h0.2c0,0.07-0.19,0.19-0.56,0.35c-0.37,0.17-0.56,0.42-0.56,0.76l0.1,0.2
			c-0.61,0.61-1.01,1.08-1.21,1.41c-0.2,0.34-0.54,1.11-1.01,2.32c-0.14,0-0.44,0.32-0.91,0.96c-0.47,0.64-0.71,1.33-0.71,2.07
			c0,0.07,0.03,0.1,0.1,0.1s0.47-0.27,1.21-0.81s1.58-1.28,2.52-2.22l-0.1-0.2c0-0.07,0.22-0.27,0.66-0.61
			c0.44-0.34,0.69-0.54,0.76-0.61c0-0.07-0.03-0.13-0.1-0.2c0-0.07,0.03-0.1,0.1-0.1c0.81-1.01,1.78-2.02,2.93-3.03
			C506.38,149.72,507.39,148.67,508.27,147.6z M508.47,154.57c0-0.07,0.03-0.13,0.1-0.2s0.1-0.17,0.1-0.3c0-0.07-0.04-0.13-0.1-0.2
			c-0.27,0.34-0.49,0.74-0.66,1.21c-0.17,0.47-0.25,0.81-0.25,1.01l0.1,0.1c0.13-0.34,0.29-0.64,0.45-0.91
			C508.38,155,508.47,154.77,508.47,154.57z M527.86,147.09c0-0.07-0.03-0.1-0.1-0.1c-0.14,0-0.29,0.08-0.45,0.25
			c-0.17,0.17-0.32,0.32-0.45,0.46c-0.67,0.47-1.13,0.81-1.36,1.01c-0.24,0.2-0.42,0.42-0.56,0.66s-0.29,0.51-0.45,0.81
			c-0.17,0.3-0.56,0.79-1.16,1.46v0.1c0,0.07,0.03,0.14,0.1,0.2c0,0.2-0.15,0.56-0.45,1.06c-0.3,0.5-0.93,1.23-1.87,2.17
			c0,0.14-0.15,0.35-0.45,0.66c-0.3,0.3-0.45,0.52-0.45,0.66l0.1,0.1l-0.1,0.1c-0.07,0-0.1-0.03-0.1-0.1l-0.81,1.01
			c-0.2,0.27-0.39,0.52-0.56,0.76s-0.25,0.42-0.25,0.56l0.1,0.2c-0.14,0-0.39,0.17-0.76,0.5c-0.37,0.34-0.79,1.21-1.26,2.63
			l-0.4,0.4l0.1,0.2c0-0.07-0.03-0.1-0.1-0.1s-0.19,0.19-0.35,0.56c-0.17,0.37-0.42,0.72-0.76,1.06c0,0.27-0.15,0.62-0.45,1.06
			c-0.3,0.44-0.66,0.88-1.06,1.31c-0.4,0.44-0.76,0.86-1.06,1.26s-0.45,0.67-0.45,0.81c0,0.2,0.03,0.3,0.1,0.3
			c0.27-0.07,0.54-0.24,0.81-0.5c0.27-0.27,0.61-0.67,1.01-1.21c0.4-0.54,0.87-1.35,1.41-2.42h-0.1c0.07-0.34,0.2-0.64,0.4-0.91
			c0.13-0.2,0.29-0.4,0.45-0.61c0.17-0.2,0.32-0.3,0.45-0.3c0-0.07-0.03-0.13-0.1-0.2c-0.14-0.07,0.34-0.87,1.41-2.42
			c1.08-1.55,2.49-3.6,4.24-6.16c0.2-0.2,0.45-0.49,0.76-0.86c0.3-0.37,0.61-0.76,0.91-1.16c0.3-0.4,0.57-0.81,0.81-1.21
			c0.24-0.4,0.35-0.71,0.35-0.91c0,0.07,0.25-0.2,0.76-0.81C526.19,148.81,526.92,148.04,527.86,147.09z"/>
	</g>
</g>
</svg>
