<svg width="59" height="59" viewBox="0 0 59 59" fill="none" xmlns="http://www.w3.org/2000/svg">
<path d="M29.23 58.46C45.3733 58.46 58.46 45.3733 58.46 29.23C58.46 13.0867 45.3733 0 29.23 0C13.0867 0 0 13.0867 0 29.23C0 45.3733 13.0867 58.46 29.23 58.46Z" fill="#8F73B3"/>
<path d="M41.9 15H16.57C15.7 15 15 15.7 15 16.57V41.9C15 42.77 15.7 43.47 16.57 43.47H30.21V32.46H26.51V28.15H30.21V24.98C30.21 21.3 32.46 19.3 35.74 19.3C37.31 19.3 38.66 19.42 39.06 19.47V23.31H36.8C35.01 23.31 34.67 24.16 34.67 25.4V28.14H38.94L38.38 32.45H34.67V43.46H41.91C42.78 43.46 43.48 42.76 43.48 41.89V16.57C43.47 15.7 42.77 15 41.9 15Z" fill="#BDCDE4"/>
</svg>
