<svg width="59" height="59" viewBox="0 0 59 59" fill="none" xmlns="http://www.w3.org/2000/svg">
<path d="M29.23 58.46C45.3733 58.46 58.46 45.3733 58.46 29.23C58.46 13.0867 45.3733 0 29.23 0C13.0867 0 0 13.0867 0 29.23C0 45.3733 13.0867 58.46 29.23 58.46Z" fill="#8F73B3"/>
<path d="M46.86 16.8399C45.31 17.6199 43.72 18.1799 42.1 18.5099C36.68 13.1699 28.41 17.6699 29.68 25.0999C24.19 24.8599 19.02 23.0399 14.59 17.5999C12.6 22.2599 14.18 25.0699 16.92 27.2699C15.81 27.2799 14.71 26.9899 13.6 26.3999C13.74 30.6299 16.17 32.5399 19.49 33.6299C18.47 33.9099 17.36 33.9699 16.17 33.8599C17.42 37.1699 19.87 38.5099 22.95 38.7799C19.89 41.1799 16.26 42.3699 12.33 41.9199C27.24 50.5499 44.31 40.7099 44.26 23.3599C45.94 21.9999 47.41 20.6099 47.63 19.6499C46.24 20.1999 44.8 20.6799 43.59 20.7699C45.12 19.7399 46.23 18.3399 46.86 16.8399Z" fill="#BDCDE4"/>
</svg>
