<?xml version="1.0" encoding="utf-8"?>
<!-- Generator: Adobe Illustrator 23.0.3, SVG Export Plug-In . SVG Version: 6.00 Build 0)  -->
<svg version="1.1" id="Layer_1" xmlns="http://www.w3.org/2000/svg" xmlns:xlink="http://www.w3.org/1999/xlink" x="0px" y="0px"
	 viewBox="0 0 595.15 181.42" style="enable-background:new 0 0 595.15 181.42;" xml:space="preserve">
<style type="text/css">
	.st0{fill:#BECDE4;}
	.st1{fill:#231F20;}
</style>
<g>
	<g>
		<path class="st0" d="M504.01,37.43c0.41-0.31,0.75-0.57,1.01-0.78c0.26-0.2,0.6-0.67,1.01-1.4c-0.41,0-0.6,0.08-0.54,0.23
			c0.05,0.15-0.13,0.23-0.54,0.23c0,0.11,0.02,0.16,0.08,0.16c0.05,0,0.08,0.05,0.08,0.16c-0.62,0.83-1.4,1.69-2.33,2.56
			c-0.93,0.88-1.4,1.43-1.4,1.63h0.31c-0.11,0.11-0.31,0.36-0.62,0.78c-0.31,0.42-1.19,1.35-2.64,2.8c-0.73,0.52-1.27,0.99-1.63,1.4
			s-0.7,0.85-1.01,1.32s-0.47,0.91-0.47,1.32c0,0.31-0.08,0.44-0.23,0.39c-0.16-0.05-0.44,0.08-0.86,0.39
			c-0.41,0.31-0.96,0.91-1.63,1.79c-0.68,0.88-1.48,2.41-2.41,4.59c-1.76,2.39-3.27,4.41-4.51,6.07s-1.86,2.54-1.86,2.64
			c-0.21,0.42-0.91,1.14-2.1,2.18s-2,2.23-2.41,3.58c0.21,0,0.33,0.03,0.39,0.08c0.05,0.05,0.13,0.08,0.23,0.08h0.16
			c0-0.31,0.15-0.7,0.47-1.17c0.31-0.47,0.8-1.11,1.48-1.94c0.67-0.83,1.73-1.97,3.19-3.42c-0.11,0.11-0.16,0.21-0.16,0.31
			c0.52,0,0.99-0.54,1.4-1.63c0.41-1.09,0.93-1.94,1.55-2.57c0-0.1,0.18-0.34,0.55-0.7c0.36-0.36,0.72-0.78,1.09-1.24
			c0.36-0.47,0.72-0.93,1.09-1.4c0.36-0.47,0.54-0.86,0.54-1.17c0-0.1,0.29-0.57,0.86-1.4s0.96-1.24,1.17-1.24
			c0.31-0.93,0.62-1.53,0.93-1.79s0.7-0.57,1.17-0.93c0.47-0.36,1.01-0.93,1.63-1.71s1.4-2.1,2.33-3.97
			c0.62-0.62,0.98-1.06,1.09-1.32c0.1-0.26,0.23-0.55,0.39-0.86c0.15-0.31,0.41-0.75,0.78-1.32
			C501.96,39.58,502.76,38.67,504.01,37.43 M479.67,29.34c0.47-1.03,0.98-2.1,1.56-3.19c0.57-1.09,1.14-2.05,1.71-2.88
			c0.57-0.83,0.96-1.35,1.17-1.56c0-0.1-0.03-0.18-0.08-0.23c-0.05-0.05-0.08-0.13-0.08-0.23s0.08-0.18,0.23-0.23
			c0.15-0.05,0.23-0.18,0.23-0.39c0-0.1-0.05-0.21-0.15-0.31c-0.21,0.52-0.49,0.99-0.86,1.4c-0.36,0.41-0.7,0.88-1.01,1.4
			c-0.62,0.93-1.14,1.71-1.56,2.33c-0.41,0.62-0.8,1.24-1.17,1.87c-0.36,0.62-0.54,1.09-0.54,1.4l0.16,0.31
			c-1.45,3.01-2.62,5.63-3.5,7.85c-0.88,2.23-1.63,4.35-2.25,6.38c-0.62,2.02-1.14,4.04-1.55,6.06s-0.78,4.28-1.09,6.76
			c0.62-3.73,1.32-6.92,2.1-9.57c0.78-2.64,1.5-4.84,2.18-6.61c0.68-1.76,1.27-3.16,1.79-4.2c0.52-1.03,0.83-1.81,0.93-2.33
			l0.16,0.16c0.1,0,0.16-0.05,0.16-0.16v-0.31l0.31-0.15l-0.16-0.31c0-0.11,0.05-0.21,0.16-0.31l0.47-0.47
			C478.97,31.21,479.21,30.38,479.67,29.34 M474.46,21.72c0.72-0.72,1.68-1.6,2.88-2.64c1.19-1.03,2.36-2.07,3.5-3.11
			s2.15-2,3.03-2.88s1.37-1.53,1.48-1.94c-0.31,0-0.78,0.26-1.4,0.78s-1.32,1.11-2.1,1.79c-0.78,0.68-1.56,1.4-2.34,2.18
			c-0.78,0.78-1.48,1.42-2.1,1.94c0.1,0,0.16-0.05,0.16-0.16c0,0.11-0.29,0.44-0.86,1.01s-1.17,1.19-1.79,1.87s-1.22,1.3-1.79,1.87
			c-0.57,0.57-0.86,0.91-0.86,1.01c-3.11,3.11-5.65,5.81-7.62,8.09s-3.63,4.28-4.98,5.99s-2.54,3.24-3.58,4.59
			c-1.04,1.35-2.18,2.64-3.42,3.89c0,0.42,0.1,0.63,0.31,0.63c0.41-0.41,0.65-0.7,0.7-0.86c0.05-0.16,0.13-0.39,0.23-0.7
			s0.39-0.75,0.86-1.32s1.37-1.53,2.72-2.88c1.24-1.87,2.23-3.21,2.95-4.05c0.73-0.83,1.37-1.53,1.94-2.1s1.14-1.11,1.71-1.63
			c0.57-0.52,1.32-1.34,2.25-2.49c1.66-1.66,3.06-3.19,4.2-4.59C471.71,24.6,473.01,23.18,474.46,21.72 M450.82,24.99
			c0-0.1,0.1-0.36,0.31-0.78c0.21-0.41,0.31-0.72,0.31-0.93l-0.15-0.16c-0.62,0-1.17,0.52-1.63,1.55c-0.47,1.04-0.93,2.36-1.4,3.97
			c-0.47,1.61-1.01,3.34-1.63,5.21s-1.35,3.63-2.18,5.29c0,0.21-0.03,0.31-0.08,0.31c-0.05,0-0.08,0.05-0.08,0.16
			c-0.31,0.62-0.62,1.37-0.93,2.25s-0.57,1.74-0.78,2.57c-0.21,0.83-0.47,1.76-0.78,2.8c0,0.21,0.02,0.37,0.08,0.47
			c0.05,0.11,0.08,0.21,0.08,0.31c-0.11,1.14-0.26,2.05-0.47,2.72s-0.39,1.24-0.54,1.71c-0.16,0.47-0.31,0.88-0.47,1.24
			c-0.16,0.36-0.23,0.8-0.23,1.32l0.31,0.63c0-1.66,0.18-2.88,0.55-3.66c0.36-0.78,0.54-1.42,0.54-1.94c0.2,0,0.26-0.16,0.15-0.47
			s-0.05-0.47,0.16-0.47c0-0.31,0.41-1.24,1.24-2.8s1.24-3.32,1.24-5.29c0.1-0.62,0.44-1.66,1.01-3.11
			c0.57-1.45,1.19-3.01,1.87-4.67c0.67-1.66,1.35-3.24,2.02-4.74C450.02,26.98,450.51,25.82,450.82,24.99 M442.43,22.65
			c0.72-0.72,1.56-1.55,2.49-2.49c0.93-0.93,1.81-1.82,2.64-2.64c0.83-0.83,1.81-1.81,2.95-2.95l-0.16-0.31
			c-2.28,1.77-4.43,3.76-6.45,5.99s-4.07,4.38-6.14,6.45c0,0.21-0.21,0.52-0.62,0.93s-0.86,0.85-1.32,1.32
			c-0.47,0.47-0.96,0.91-1.48,1.32c-0.52,0.42-0.83,0.78-0.93,1.09c-1.14,1.25-2.15,2.36-3.03,3.34c-0.88,0.99-1.71,2-2.49,3.03
			c-0.78,1.04-1.63,2.07-2.57,3.11c-0.93,1.04-2.07,2.23-3.42,3.58c-0.11,0.11-0.34,0.34-0.7,0.7c-0.36,0.36-0.75,0.78-1.17,1.24
			c-0.41,0.47-0.78,0.96-1.09,1.48c-0.31,0.52-0.47,0.93-0.47,1.24l0.31,0.16c3.73-4.66,7.67-9.3,11.82-13.92
			C434.76,30.72,438.69,26.49,442.43,22.65 M418.64,25.3c0.21-0.52,0.39-0.96,0.55-1.32c0.15-0.36,0.39-0.86,0.7-1.48v-0.31
			c0.21-0.21,0.47-0.6,0.78-1.17s0.62-1.17,0.93-1.79s0.57-1.22,0.78-1.79c0.21-0.57,0.31-0.9,0.31-1.01c0-0.31,0.1-0.57,0.31-0.78
			c0.21-0.21,0.31-0.41,0.31-0.62c0-0.2-0.05-0.44-0.16-0.7s-0.26-0.39-0.47-0.39c-0.21,0.52-0.5,1.14-0.86,1.87
			c-0.36,0.73-0.7,1.45-1.01,2.18c-0.41,0.83-0.83,1.66-1.24,2.49c0,0.11,0.02,0.18,0.08,0.23c0.05,0.05,0.08,0.13,0.08,0.23
			c-0.21,0.21-0.39,0.39-0.54,0.55c-0.16,0.15-0.23,0.29-0.23,0.39c0,0.11,0.05,0.16,0.15,0.16v-0.16l-0.31,0.93
			c-0.11,0.21-0.23,0.47-0.39,0.78s-0.34,0.52-0.55,0.62c0,0.41-0.03,0.62-0.08,0.62c-0.05,0-0.29,0.36-0.7,1.09
			c-0.41,0.73-1.06,2.08-1.94,4.05c-0.88,1.97-2.15,5.18-3.81,9.64c-1.14,3.11-2.28,6.22-3.42,9.33s-1.71,5.96-1.71,8.55
			c0.11,0,0.21-0.23,0.31-0.7c0.11-0.47,0.23-1.01,0.39-1.63c0.15-0.62,0.31-1.27,0.47-1.94c0.16-0.67,0.34-1.22,0.54-1.63
			c0.52-1.24,1.04-2.72,1.55-4.43c0.52-1.71,1.06-3.44,1.63-5.21c0.57-1.76,1.17-3.39,1.79-4.9c0.62-1.5,1.3-2.62,2.02-3.34
			c0-0.1-0.02-0.18-0.08-0.23c-0.05-0.05-0.08-0.13-0.08-0.23c0.72-1.24,1.3-2.28,1.71-3.11c0.41-0.83,0.8-1.69,1.17-2.57
			c0.36-0.88,0.54-1.48,0.54-1.79L418.64,25.3z M512.72,32.14c0.62,0.62,0.93,1.14,0.93,1.55c0,0.31-0.49,0.99-1.48,2.02
			c-0.99,1.04-2.1,2.23-3.34,3.58c-1.24,1.35-2.36,2.7-3.34,4.05c-0.99,1.35-1.48,2.44-1.48,3.27v0.31c-0.1,0.21-0.54,0.68-1.32,1.4
			c-0.78,0.72-1.17,1.4-1.17,2.02v0.62c0,0.21-0.1,0.47-0.31,0.78c-0.21,0.31-0.6,0.78-1.17,1.4c-0.57,0.62-1.38,1.45-2.41,2.49
			c0,0.21-0.03,0.41-0.08,0.62c-0.05,0.21-0.29,0.52-0.7,0.93c0-0.21-0.05-0.31-0.16-0.31c-0.62,0.93-1.11,1.69-1.48,2.26
			s-0.75,1.17-1.17,1.79s-0.78,1.09-1.09,1.4c0,0.21,0.05,0.31,0.16,0.31c0.1,0,0.16,0.11,0.16,0.31c0,0.21-0.23,0.62-0.7,1.24
			s-1.53,1.76-3.19,3.42c-0.62,1.24-1.06,2.07-1.32,2.49s-0.44,0.65-0.54,0.7c-0.11,0.05-0.16,0.05-0.16,0v0.39
			c-0.62,1.35-1.24,2.41-1.86,3.19s-1.43,1.5-2.41,2.18c-0.99,0.68-2.15,1.01-3.5,1.01c-0.83,0-1.63-0.2-2.41-0.62
			c-0.78-0.41-1.48-0.83-2.1-1.25c-0.21,0-0.73-0.28-1.56-0.85c-0.83-0.57-1.71-1.32-2.64-2.25s-1.79-2-2.57-3.19
			c-0.78-1.19-1.17-2.36-1.17-3.5c0.2,0,0.31-0.1,0.31-0.31l-0.31-0.15c0-0.1,0.02-0.29,0.08-0.55c0.05-0.26,0.08-0.49,0.08-0.7
			s-0.1-0.31-0.31-0.31c0.1,0,0.16-0.1,0.16-0.31c0-0.1-0.03-0.23-0.08-0.39c-0.05-0.16-0.08-0.34-0.08-0.54l0.16-0.16
			c0-0.2-0.03-0.33-0.08-0.39c-0.05-0.05-0.08-0.23-0.08-0.54c0-0.21,0.02-0.33,0.08-0.39c0.05-0.05,0.08-0.13,0.08-0.23
			c-0.11,0-0.16-0.1-0.16-0.31c-0.11-0.1-0.16-0.41-0.16-0.93c0-0.21,0.05-0.36,0.16-0.47c0.1-0.1,0.16-0.26,0.16-0.47l-0.16-0.15
			c0-0.1,0.02-0.16,0.08-0.16c0.05,0,0.08-0.1,0.08-0.31c-0.11,0-0.16-0.02-0.16-0.08s-0.05-0.08-0.16-0.08
			c0-0.21,0.21-0.96,0.62-2.26c0.41-1.29,0.62-2.51,0.62-3.65l-0.16-0.31c0-0.1,0.05-0.16,0.16-0.16c0.1,0,0.16-0.05,0.16-0.15
			s-0.03-0.18-0.08-0.23c-0.05-0.05-0.08-0.13-0.08-0.23c0.41-1.14,0.75-2.07,1.01-2.8s0.47-1.48,0.63-2.25
			c0.15-0.78,0.23-1.42,0.23-1.94c-0.11-0.1-0.16-0.29-0.16-0.55v-0.23h-0.15h0.15c0-0.1,0.1-0.36,0.31-0.78
			c0.21-0.31,0.41-0.8,0.62-1.48c0.21-0.67,0.47-1.58,0.78-2.72c0.41-0.21,0.7-0.65,0.85-1.32c0.16-0.67,0.31-1.4,0.47-2.18
			c0.16-0.78,0.34-1.5,0.55-2.18c0.2-0.67,0.62-1.11,1.24-1.32c0-0.21-0.08-0.29-0.23-0.23c-0.16,0.05-0.23,0.03-0.23-0.08h0.16
			c0,0.11-0.13,0.39-0.39,0.86c-0.26,0.47-1.22,1.53-2.88,3.19c0-0.1-0.49,0.39-1.48,1.48s-1.69,2-2.1,2.72
			c-0.31,0-0.62,0.15-0.93,0.47c-0.31,0.31-0.88,1.04-1.71,2.18c-0.83,1.14-2.07,2.83-3.73,5.05c-1.66,2.23-3.99,5.31-7,9.25
			c-0.83,1.45-1.71,2.75-2.64,3.89c-0.83,1.04-1.66,1.94-2.49,2.72c-0.83,0.78-1.61,1.17-2.34,1.17h-0.31h-0.47
			c-0.31,0-0.81-0.18-1.48-0.54c-0.68-0.36-1.32-0.78-1.94-1.24c-0.62-0.47-1.17-0.96-1.63-1.48c-0.47-0.52-0.7-0.99-0.7-1.4
			l-0.16,0.16c-0.21,0-0.31-0.16-0.31-0.47c-0.11,0-0.21,0.05-0.31,0.15c-0.1,0.11-0.21,0.16-0.31,0.16
			c-0.83-0.83-1.24-1.45-1.24-1.87c0-0.41-0.16-0.83-0.47-1.24l-0.31-0.31c0.1,0,0.16-0.05,0.16-0.15c0-0.11,0.05-0.26,0.16-0.47
			l-0.31-0.16c0.31-0.31,0.41-0.59,0.31-0.85c-0.11-0.26,0-0.44,0.31-0.54c0-0.21-0.05-0.29-0.16-0.23
			c-0.1,0.05-0.15,0.03-0.15-0.08c0-0.83,0.13-1.73,0.39-2.72s0.65-2.46,1.17-4.43c0.31-1.35,0.6-2.46,0.86-3.34
			s0.54-1.79,0.85-2.72c0.31-0.93,0.67-1.66,1.09-2.18c0.41-1.14,0.83-2.23,1.24-3.27c0.31-0.83,0.65-1.66,1.01-2.49
			s0.65-1.4,0.85-1.71c-0.1,0-0.41,0.23-0.93,0.7s-1.14,1.09-1.87,1.87s-1.5,1.63-2.33,2.56s-1.61,1.82-2.33,2.64
			c-0.73,1.14-1.69,2.36-2.88,3.65c-1.19,1.3-2.39,2.62-3.58,3.97s-2.28,2.67-3.26,3.96c-0.99,1.3-1.63,2.57-1.94,3.81
			c-0.11,0-0.16-0.02-0.16-0.08c0-0.05-0.05-0.08-0.16-0.08c-0.21,0-0.57,0.29-1.09,0.86c-0.52,0.57-1.5,1.94-2.95,4.12
			c0,0.21-0.11,0.49-0.31,0.86c-0.21,0.36-0.37,0.6-0.47,0.7c0-0.1,0.05-0.15,0.16-0.15c0,0.62-0.36,1.35-1.09,2.18
			c-0.73,0.83-1.56,1.61-2.49,2.33c-0.93,0.73-1.82,1.35-2.64,1.87c-0.83,0.52-1.4,0.78-1.71,0.78c-0.21,0-0.54-0.13-1.01-0.39
			s-0.93-0.52-1.4-0.78s-1.01-0.6-1.63-1.01L408.37,65c-0.1,0-0.31-0.15-0.62-0.47c-0.31-0.31-0.65-0.65-1.01-1.01
			s-0.8-0.86-1.32-1.48c-0.1,0-0.18,0.03-0.23,0.08c-0.05,0.05-0.13,0.08-0.23,0.08c0-0.1-0.23-0.31-0.7-0.62s-0.7-0.57-0.7-0.78
			v-0.47c0.11,0,0-0.1-0.31-0.31c-0.31-0.2-0.47-1.03-0.47-2.49c0-0.31,0.05-0.52,0.15-0.63c0-0.1,0.05-0.15,0.16-0.15
			c0-0.1-0.05-0.18-0.16-0.23c-0.1-0.05-0.15-0.18-0.15-0.39c0.21,0,0.31-0.05,0.31-0.16l-0.16-0.16c-0.1,0-0.15-0.05-0.15-0.15
			c0.31-0.21,0.47-0.52,0.47-0.93s0.05-0.88,0.15-1.4v0.16c0.11,0,0.16-0.05,0.16-0.16v-0.47c0-0.93,0.03-1.48,0.08-1.63
			c0.05-0.16,0.16-0.39,0.31-0.7s0.44-1.01,0.85-2.1s0.99-3.08,1.71-5.99c0,0.11,0.05,0.16,0.16,0.16c0.21,0,0.31-0.41,0.31-1.24
			s0.41-1.66,1.24-2.49c0-0.1-0.02-0.18-0.08-0.23c-0.05-0.05-0.08-0.13-0.08-0.23c0.62-1.14,1.11-2.1,1.48-2.88s0.72-1.5,1.09-2.18
			c0.36-0.67,0.7-1.4,1.01-2.18s0.67-1.79,1.09-3.03c0-0.1,0.08-0.18,0.23-0.23c0.15-0.05,0.23-0.13,0.23-0.23
			c0.21-0.41,0.31-0.65,0.31-0.7c0-0.05,0.02-0.2,0.08-0.46c0.05-0.26,0.23-0.78,0.54-1.56s0.93-2.05,1.87-3.81v0.16
			c0.1,0,0.49-0.31,1.17-0.93c0.67-0.62,1.01-1.56,1.01-2.8c0.21-0.41,0.39-0.78,0.54-1.09c0.16-0.31,0.39-0.78,0.7-1.4
			c0-0.41,0.36-0.9,1.09-1.48c0.72-0.57,1.09-1.53,1.09-2.88c0-0.31,0.31-0.6,0.93-0.85c0.62-0.26,1.35-0.39,2.18-0.39
			c0.1,0,0.67,0.08,1.71,0.23c1.04,0.16,2.15,0.41,3.34,0.78c1.19,0.36,2.28,0.83,3.27,1.4c0.98,0.57,1.48,1.27,1.48,2.1
			c0,0.21-0.1,0.52-0.31,0.93c-0.21,0.41-0.47,0.83-0.78,1.24c-0.31,0.42-0.57,0.81-0.78,1.17c-0.21,0.37-0.31,0.6-0.31,0.7
			c-0.31,0.31-0.47,0.52-0.47,0.62v0.16c0.1,0,0.15-0.05,0.15-0.16c0-0.2,0.05-0.31,0.16-0.31c0.1,0,0.16,0.11,0.16,0.31
			c0,0.21-0.86,1.61-2.57,4.2c-1.71,2.59-3.5,6.43-5.36,11.51c-0.11,0-0.16,0.05-0.16,0.15v0.47c-0.31,0.52-0.62,0.99-0.93,1.4
			c-0.21,0.42-0.42,0.83-0.62,1.24c-0.21,0.41-0.31,0.78-0.31,1.09c0,0.11,0.02,0.18,0.08,0.23c0.05,0.05,0.08,0.13,0.08,0.23
			c-0.11,0.1-0.23,0.29-0.39,0.54c-0.15,0.26-0.23,0.44-0.23,0.54c0.1,0,0.41-0.23,0.93-0.7s1.16-1.11,1.94-1.94
			c0.78-0.83,1.63-1.76,2.57-2.8c0.93-1.04,1.81-2.12,2.64-3.27c2.28-3.01,4.79-5.73,7.54-8.17c2.75-2.43,5.31-4.84,7.7-7.23
			l-0.16,0.16c0.93-1.14,1.73-2.05,2.41-2.72c0.67-0.67,1.4-1.27,2.18-1.79c0.78-0.52,1.48-0.78,2.1-0.78
			c0.41,0,0.83,0.18,1.24,0.54c0.41,0.36,0.78,0.54,1.09,0.54c0.21,0,0.39-0.08,0.54-0.23c0.16-0.15,0.34-0.23,0.54-0.23v0.47
			l0.16-0.16c0.1,0,0.16-0.02,0.16-0.08c0-0.05,0.1-0.08,0.31-0.08s0.96,0.42,2.26,1.24c1.29,0.83,2.3,1.97,3.03,3.42l-0.16,0.16
			c0,0.1,0.08,0.44,0.23,1.01s0.23,1.22,0.23,1.94c0,1.14-0.16,2.1-0.47,2.88c-0.31,0.78-0.65,1.53-1.01,2.25
			c-0.37,0.73-0.7,1.53-1.01,2.41s-0.47,2.05-0.47,3.5c0,0.11,0.05,0.21,0.16,0.31c-0.21,0.21-0.44,0.62-0.7,1.24
			s-0.52,1.32-0.78,2.1s-0.52,1.56-0.78,2.34s-0.44,1.32-0.54,1.63c0,0.11,0.05,0.16,0.16,0.16c1.04-1.14,1.89-2.1,2.57-2.88
			c0.67-0.78,1.35-1.56,2.02-2.34s1.22-1.37,1.63-1.79c0.1-0.21,0.36-0.62,0.78-1.24c0.41-0.63,0.93-1.38,1.55-2.26
			s1.37-1.79,2.25-2.72s1.89-1.76,3.03-2.49c1.35-1.66,3.24-3.44,5.68-5.36c2.43-1.92,5.47-4.74,9.1-8.47
			c0.21-0.2,0.72-0.75,1.56-1.63c0.83-0.88,1.81-1.32,2.95-1.32c0.52,0,0.93,0.05,1.24,0.16c0.31,0.11,0.47,0.47,0.47,1.09
			c0.31-0.31,0.72-0.47,1.24-0.47c0.83,0,1.53,0.23,2.1,0.7s1.69,1.53,3.34,3.19c0,0.1-0.05,0.15-0.16,0.15
			c0,0.21,0.08,0.47,0.23,0.78c0.16,0.31,0.23,0.62,0.23,0.93c0,1.45-0.37,2.9-1.09,4.35c-0.73,1.45-1.35,2.75-1.87,3.89
			c0,0.21-0.08,0.62-0.23,1.24c-0.16,0.62-0.7,1.61-1.63,2.95c-0.1,0-0.29,0.13-0.54,0.39c-0.26,0.26-0.65,0.91-1.17,1.95
			s-1.19,2.51-2.02,4.43c-0.83,1.92-1.82,4.59-2.95,8.01c-0.31,1.04-0.75,1.87-1.32,2.49s-0.85,1.87-0.85,3.73
			c0,0.1-0.44,0.88-1.32,2.33c-0.88,1.45-1.32,3.37-1.32,5.75c-0.52,1.76-0.93,3.56-1.24,5.37c-0.31,1.81-0.57,3.76-0.78,5.83v0.31
			h0.16c0.21,0,0.44-0.29,0.7-0.86s0.59-0.86,1.01-0.86c0-0.1-0.02-0.18-0.08-0.23c-0.05-0.05-0.08-0.13-0.08-0.23
			c0.2,0,0.62-0.28,1.24-0.85c0.62-0.57,0.93-1.11,0.93-1.63c0.31-0.2,0.47-0.29,0.47-0.23c0,0.05,0.1-0.1,0.31-0.47
			c0.21-0.36,0.67-1.06,1.4-2.1c0.72-1.04,2.02-2.75,3.89-5.13c0.31-0.31,0.96-1.11,1.94-2.41c0.98-1.3,2.12-2.82,3.42-4.59
			c1.3-1.76,2.75-3.63,4.35-5.6c1.61-1.97,3.19-3.73,4.75-5.29c0.2-0.2,0.44-0.52,0.7-0.93s0.49-0.62,0.7-0.62
			c0.1,0,0.16,0.03,0.16,0.08s0.05,0.08,0.16,0.08c0.62,0,1.19-0.39,1.71-1.17s1.35-1.17,2.49-1.17l-0.16,0.15
			c0.31,0,0.67,0.05,1.09,0.16C511.52,31.73,512.2,31.93,512.72,32.14"/>
	</g>
	<g>
		<path class="st0" d="M560.15,32.92c0-0.1-0.05-0.15-0.16-0.15c-0.21,0-0.44,0.13-0.7,0.39s-0.49,0.49-0.7,0.7
			c-1.04,0.73-1.74,1.24-2.1,1.56c-0.36,0.31-0.65,0.65-0.86,1.01c-0.21,0.37-0.44,0.78-0.7,1.24c-0.26,0.47-0.86,1.22-1.79,2.25
			v0.16c0,0.1,0.05,0.21,0.16,0.31c0,0.31-0.23,0.85-0.7,1.63s-1.42,1.89-2.88,3.34c0,0.21-0.23,0.54-0.7,1.01s-0.7,0.81-0.7,1.01
			l0.16,0.16l-0.16,0.16c-0.11,0-0.15-0.05-0.15-0.16l-1.24,1.56c-0.31,0.41-0.6,0.8-0.86,1.16c-0.26,0.37-0.39,0.65-0.39,0.86
			l0.16,0.31c-0.21,0-0.6,0.26-1.17,0.78c-0.57,0.52-1.22,1.87-1.94,4.05l-0.62,0.62l0.16,0.31c0-0.1-0.05-0.15-0.16-0.15
			s-0.29,0.29-0.54,0.85c-0.26,0.57-0.65,1.11-1.17,1.63c0,0.41-0.23,0.96-0.7,1.63c-0.47,0.68-1.01,1.35-1.63,2.02
			c-0.62,0.68-1.17,1.32-1.63,1.94c-0.47,0.62-0.7,1.04-0.7,1.24c0,0.31,0.05,0.47,0.16,0.47c0.41-0.11,0.83-0.36,1.24-0.78
			c0.41-0.41,0.93-1.04,1.55-1.87s1.35-2.07,2.18-3.73h-0.15c0.1-0.52,0.31-0.99,0.62-1.4c0.21-0.31,0.44-0.62,0.7-0.93
			s0.49-0.47,0.7-0.47c0-0.1-0.05-0.2-0.15-0.31c-0.21-0.1,0.52-1.35,2.18-3.73s3.83-5.54,6.53-9.48c0.31-0.31,0.7-0.75,1.17-1.32
			c0.47-0.57,0.93-1.17,1.4-1.79s0.88-1.24,1.24-1.87c0.36-0.62,0.54-1.09,0.54-1.4c0,0.11,0.39-0.31,1.17-1.24
			C557.58,35.56,558.69,34.37,560.15,32.92 M530.29,44.43c0-0.1,0.05-0.21,0.16-0.31c0.1-0.1,0.15-0.26,0.15-0.47
			c0-0.1-0.05-0.2-0.15-0.31c-0.42,0.52-0.75,1.14-1.01,1.87c-0.26,0.73-0.39,1.24-0.39,1.55l0.16,0.16c0.2-0.52,0.44-0.98,0.7-1.4
			C530.16,45.1,530.29,44.74,530.29,44.43 M529.98,33.69c0.52-0.52,0.96-0.96,1.32-1.32c0.36-0.36,0.7-0.8,1.01-1.32
			c-1.24,0-2.18,0.11-2.8,0.31c-0.62,0.21-1.17,0.47-1.63,0.78c-0.47,0.31-0.86,0.57-1.17,0.78s-0.78,0.31-1.4,0.31
			c0.1,0-0.11,0.21-0.62,0.62c-0.52,0.42-1.09,0.88-1.71,1.4s-1.24,1.04-1.87,1.56c-0.62,0.52-0.99,0.88-1.09,1.09h0.31
			c0,0.11-0.29,0.29-0.85,0.54c-0.57,0.26-0.86,0.65-0.86,1.17l0.16,0.31c-0.93,0.93-1.56,1.66-1.87,2.18
			c-0.31,0.52-0.83,1.71-1.56,3.58c-0.21,0-0.67,0.49-1.4,1.48c-0.73,0.99-1.09,2.05-1.09,3.19c0,0.11,0.05,0.16,0.16,0.16
			c0.1,0,0.72-0.41,1.87-1.24c1.14-0.83,2.43-1.97,3.89-3.42l-0.16-0.31c0-0.11,0.34-0.41,1.01-0.93s1.06-0.83,1.16-0.93
			c0-0.1-0.05-0.2-0.15-0.31c0-0.1,0.05-0.16,0.15-0.16c1.25-1.55,2.75-3.11,4.51-4.66C527.07,36.96,528.63,35.36,529.98,33.69
			 M528.73,37.9c0-0.1,0.05-0.18,0.16-0.23c0.1-0.05,0.16-0.13,0.16-0.23s-0.05-0.21-0.16-0.31c-1.66,1.97-3.4,3.94-5.21,5.91
			c-1.82,1.97-3.55,3.63-5.21,4.98c-1.35,1.04-2.54,2.02-3.58,2.96c-0.83,0.83-1.61,1.61-2.33,2.33c-0.73,0.73-1.09,1.19-1.09,1.4
			l0.15,0.16c0.83-0.62,1.61-1.3,2.33-2.02s1.45-1.35,2.18-1.86c1.04-1.04,1.63-1.63,1.79-1.79c0.16-0.15,0.34-0.31,0.54-0.47
			c0.21-0.16,0.7-0.62,1.48-1.4s2.3-2.31,4.59-4.59l-0.15-0.31c0-0.31,0.23-0.64,0.7-1.01c0.47-0.36,0.96-0.75,1.48-1.17
			c0.52-0.41,1.01-0.83,1.48-1.24C528.5,38.57,528.73,38.21,528.73,37.9 M510.69,33.69c1.66-1.66,3.24-3.08,4.74-4.28
			c1.5-1.19,2.98-2.51,4.43-3.96c-0.83,0-1.61,0.23-2.33,0.7c-0.73,0.47-1.82,1.27-3.27,2.41c-0.62,0.62-1.04,0.93-1.24,0.93
			c-0.11,0-0.16-0.02-0.16-0.08c0-0.05-0.05-0.08-0.15-0.08c-0.11,0-0.23,0.08-0.39,0.23c-0.15,0.15-0.41,0.49-0.78,1.01
			c-0.37,0.52-0.88,1.27-1.56,2.25c-0.67,0.99-1.53,2.31-2.57,3.97c-0.21,0-0.31,0.05-0.31,0.15l0.16,0.16
			c-0.42,0.41-0.68,0.73-0.78,0.93c-0.11,0.21-0.21,0.36-0.31,0.47c0,0.1,0.05,0.21,0.16,0.31c-0.11,0-0.16-0.05-0.16-0.16
			l-0.15,0.16c0,0.11,0.05,0.21,0.15,0.31h-0.31c0,0.52-0.05,0.7-0.16,0.54s-0.15-0.13-0.15,0.08l0.15,0.31
			c-0.11,0-0.15-0.05-0.15-0.16c-0.21,0-0.29,0.11-0.23,0.31c0.05,0.21-0.02,0.36-0.23,0.47l0.16,0.31c-0.21,0-0.31,0.16-0.31,0.47
			c0,0.52-0.44,1.22-1.32,2.1s-1.32,2.67-1.32,5.36c0.52-0.72,0.93-1.35,1.24-1.87c0.31-0.52,0.6-1.14,0.85-1.87
			c0.26-0.72,0.39-1.4,0.39-2.02v0.16c-0.1,0-0.16-0.05-0.16-0.16c0-0.31,0.31-0.96,0.93-1.94s1.32-1.97,2.1-2.95
			s1.48-1.89,2.1-2.72s0.93-1.34,0.93-1.55v-0.3H510.69z M562.48,34.16l-0.16,0.16l0.16,0.16c-0.83,0.41-1.37,0.78-1.63,1.08
			c-0.26,0.31-0.44,0.65-0.54,1.01c-0.11,0.36-0.21,0.75-0.31,1.17c-0.11,0.41-0.41,0.88-0.93,1.4c-0.31,0.83-0.52,1.38-0.62,1.63
			c-0.11,0.26-0.23,0.47-0.39,0.62c-0.15,0.16-0.39,0.44-0.7,0.86c-0.31,0.41-0.78,1.24-1.4,2.49c-0.52,0.31-0.99,0.67-1.4,1.09
			c-0.31,0.41-0.6,0.88-0.85,1.4c-0.26,0.52-0.39,1.09-0.39,1.71c0,0.83-0.05,1.24-0.16,1.24c-0.1,0-0.29,0.05-0.54,0.15
			c-0.26,0.11-0.6,0.42-1.01,0.93c-0.41,0.52-0.93,1.66-1.55,3.42c-0.83,0.83-1.35,1.43-1.56,1.79c-0.21,0.36-0.31,0.65-0.31,0.86
			s0.02,0.39,0.08,0.54s0.08,0.34,0.08,0.54v-0.16c-0.11,0-0.36,0.39-0.78,1.17s-0.86,1.63-1.32,2.57
			c-0.47,0.93-0.96,1.79-1.48,2.57c-0.52,0.78-0.93,1.17-1.24,1.17c0,0.31-0.29,0.93-0.85,1.87c-0.57,0.93-1.27,1.87-2.1,2.8
			s-1.74,1.79-2.72,2.56c-0.99,0.78-1.84,1.17-2.57,1.17s-1.56-0.47-2.49-1.4c-0.93-0.93-1.92-1.92-2.95-2.95
			c-0.83-0.62-1.51-1.24-2.02-1.87c-0.52-0.52-0.96-1.04-1.32-1.56s-0.54-0.88-0.54-1.09c0-0.1,0.05-0.21,0.16-0.31
			c0.1,0,0.16,0.05,0.16,0.15c-0.31,0-0.57-0.15-0.78-0.47c-0.52-0.31-0.78-1.14-0.78-2.49l-0.16,0.16
			c-0.11-0.31-0.21-0.67-0.31-1.09c-0.11-0.31-0.18-0.67-0.23-1.09c-0.05-0.41-0.13-0.88-0.23-1.4c0-1.66,0.02-3.13,0.08-4.43
			c0.05-1.3,0.28-2.62,0.7-3.97c-0.11,0-0.7,0.44-1.79,1.32c-1.09,0.88-2.36,2.36-3.81,4.43h-0.15l0.15,0.16
			c0,0.21-0.44,0.72-1.32,1.55s-1.48,1.4-1.79,1.71c0,0.41-0.05,0.62-0.16,0.62l-0.31-0.15v0.47v-0.16c-0.1,0-0.26,0.21-0.47,0.62
			s-0.54,0.88-1.01,1.4s-1.06,0.99-1.79,1.4c-0.73,0.42-1.61,0.62-2.64,0.62c-1.45,0-2.64-0.54-3.58-1.63
			c-0.93-1.09-2.28-2.67-4.04-4.74c0,0.11-0.21-0.08-0.62-0.54c-0.41-0.47-0.57-0.7-0.47-0.7c0-0.31-0.1-0.41-0.31-0.31
			c-0.21,0.11-0.47,0.03-0.78-0.23s-0.57-0.83-0.78-1.71c-0.2-0.88-0.31-2.41-0.31-4.59c0-0.93,0.18-1.73,0.54-2.41
			c0.36-0.67,0.54-1.42,0.54-2.25l-0.16-0.16c0-0.62,0.37-1.35,1.09-2.18s1.09-1.76,1.09-2.8c0-0.11,0.03-0.29,0.08-0.55
			c0.05-0.26,0.18-0.39,0.39-0.39l-0.16-0.31l0.16-0.16l0.16,0.16c0.21,0,0.57-0.6,1.09-1.79s0.93-1.94,1.24-2.25
			c0-0.1-0.02-0.16-0.08-0.16c-0.05,0-0.08-0.05-0.08-0.15c0.11-0.31,0.31-0.68,0.62-1.09c0.21-0.41,0.54-0.85,1.01-1.32
			s1.11-1.11,1.94-1.94c0.62-0.62,1.35-1.27,2.18-1.94c0.83-0.67,1.6-1.3,2.33-1.87c0.72-0.57,1.35-1.06,1.87-1.48
			c0.52-0.41,0.78-0.67,0.78-0.78l0.31,0.15c0.21,0,0.26-0.05,0.16-0.15c-0.11-0.1,0.05-0.16,0.47-0.16l-0.16-0.16h0.47v-0.31
			c0.1,0,0.2,0.05,0.31,0.15l0.31-0.31l0.31-0.31c0.1,0,0.21,0.05,0.31,0.16c0.1,0,0.85-0.18,2.25-0.54
			c1.4-0.36,2.67-0.54,3.81-0.54c1.45,0,2.59,0.11,3.42,0.31c0.83,0.21,1.66,0.41,2.49,0.62V22.8c0.1,0,0.47,0.23,1.09,0.7
			s1.3,0.7,2.02,0.7c0.1,0,0.2-0.05,0.31-0.15c0,0.41,0.21,0.62,0.62,0.62c0.1,0,0.21-0.05,0.31-0.15c0.2,0.21,0.49,0.39,0.85,0.54
			c0.36,0.16,0.65,0.34,0.86,0.54c0.52,0,1.01-0.44,1.48-1.32s1.06-1.32,1.79-1.32c0.1,0,0.47,0.11,1.09,0.31
			c0.62,0.21,1.32,0.47,2.1,0.78s1.53,0.67,2.25,1.09c0.72,0.41,1.19,0.78,1.4,1.09c0.52,0.31,1.14,0.62,1.86,0.93
			s1.09,0.88,1.09,1.71c0,0.31-0.18,0.75-0.55,1.32c-0.36,0.57-0.72,1.14-1.09,1.71c-0.36,0.57-0.72,1.11-1.09,1.63
			c-0.36,0.52-0.54,0.93-0.54,1.24c-0.52,0.83-0.99,1.58-1.4,2.25c-0.41,0.68-0.78,1.38-1.09,2.1c-0.31,0.73-0.47,1.3-0.47,1.71
			c0,0.11,0.05,0.21,0.15,0.31c-0.41,0-0.88,0.99-1.4,2.95v-0.16c0,0.21-0.21,0.85-0.62,1.94s-0.88,2.31-1.4,3.65
			c-0.62,1.56-1.3,3.27-2.02,5.13v0.47v-0.16l-0.15,1.56c-0.11,0-0.16-0.05-0.16-0.16c-0.31,0.93-0.52,1.87-0.62,2.8
			c-0.11,0.93-0.31,1.82-0.62,2.64c0,0.11,0.05,0.16,0.16,0.16c0-0.1,0.16-0.28,0.47-0.54c0.31-0.26,0.52-0.44,0.62-0.54
			c0-0.1-0.05-0.21-0.16-0.31c0-0.1,0.1-0.21,0.31-0.31c0.2-0.1,0.36-0.21,0.47-0.31l-0.16-0.31c0-0.1,0.21-0.29,0.62-0.54
			c0.41-0.26,0.57-0.39,0.47-0.39c0-0.1-0.05-0.16-0.15-0.16c-0.11,0-0.16-0.05-0.16-0.16c0-0.21,0.16-0.52,0.47-0.93
			c0.31-0.41,0.99-1.14,2.02-2.18l-0.16-0.31l0.16-0.15h-0.16c0-0.21,0.41-0.57,1.24-1.09s1.24-1.24,1.24-2.18
			c0-0.41,0.08-0.62,0.23-0.62s0.33-0.11,0.54-0.31l-0.16-0.16c0-0.41,0.02-0.75,0.08-1.01c0.05-0.26,0.21-0.54,0.47-0.86
			c0.26-0.31,0.65-0.7,1.17-1.17s1.24-1.17,2.18-2.1l-0.16-0.31l0.16-0.16l0.15,0.16c0.31-0.72,0.62-1.24,0.93-1.55
			s0.83-0.8,1.55-1.48c0.72-0.67,1.69-1.68,2.88-3.03c1.19-1.35,2.72-3.37,4.59-6.06c0.21,0,0.49-0.36,0.85-1.09
			c0.36-0.72,1.27-1.09,2.72-1.09c0.21,0,0.52,0.15,0.93,0.47c0.41,0.31,0.63,0.57,0.63,0.78s-0.05,0.5-0.16,0.86
			C562.53,33.21,562.48,33.65,562.48,34.16"/>
	</g>
	<g>
		<path class="st0" d="M577.56,28.88c0.1,0.31,0.18,0.54,0.23,0.7c0.05,0.16,0.08,0.34,0.08,0.55v0.31c0.1,0,0.21-0.65,0.31-1.94
			c0.1-1.3,0.62-3.03,1.55-5.21c-1.14,0.83-1.82,1.76-2.02,2.8c-0.21,1.04-0.31,1.82-0.31,2.33v0.47L577.56,28.88L577.56,28.88z
			 M567.61,69.93c0-0.2-0.05-0.36-0.15-0.47l-2.34,1.55c0.1,0.11,0.18,0.16,0.23,0.16c0.05,0,0.13,0.05,0.23,0.16
			c0.52,0,0.98-0.1,1.4-0.31C567.4,70.81,567.61,70.45,567.61,69.93 M569.63,19.23c1.24-0.93,2.25-1.66,3.03-2.18
			s1.37-0.93,1.79-1.24c0.41-0.41,0.78-0.67,1.09-0.78c-0.11,0-0.16,0.05-0.16,0.16c-0.1,0-0.15-0.05-0.15-0.16
			c-0.21,0.21-0.49,0.36-0.86,0.47c-0.36,0.11-1.27,0.57-2.72,1.4c-0.21,0.21-0.29,0.34-0.23,0.39c0.05,0.05-0.03,0.08-0.23,0.08
			c-0.62,0-1.4,0.39-2.33,1.17c-0.93,0.78-1.87,1.63-2.8,2.57c-0.93,0.93-2.13,2.18-3.58,3.73L562.32,25c0,0.11,0.02,0.18,0.08,0.23
			c0.05,0.05,0.08,0.13,0.08,0.23c-0.21,0.21-0.49,0.44-0.86,0.7c-0.36,0.26-0.54,0.49-0.54,0.7c0,0.1,0.02,0.16,0.08,0.16
			c0.05,0,0.08,0.05,0.08,0.16c0,0.1-0.05,0.21-0.16,0.31v0.16C563.67,24.32,566.52,21.51,569.63,19.23 M549.88,63.55
			c0.31-0.2,0.65-0.49,1.01-0.85c0.36-0.36,0.75-0.7,1.17-1.01l1.24-1.24c-0.21,0-0.57,0.18-1.09,0.54
			c-0.52,0.36-1.06,0.75-1.63,1.17c-0.57,0.41-1.06,0.81-1.48,1.17c-0.41,0.36-0.62,0.6-0.62,0.7l0.15,0.31
			c-0.83,0.62-1.24,1.14-1.24,1.56c0,0.21,0.05,0.31,0.15,0.31c0.31-0.52,0.7-0.98,1.17-1.4C549.18,64.38,549.57,63.97,549.88,63.55
			 M590.31,15.97c0.21,0.41,0.31,0.67,0.31,0.78c0,0.52-0.05,1.06-0.16,1.63s-0.26,1.11-0.47,1.63c-0.62,0.62-1.43,1.63-2.41,3.03
			s-1.94,2.93-2.88,4.59c-0.93,1.66-1.76,3.4-2.49,5.21c-0.73,1.82-1.09,3.45-1.09,4.9c0,0.52,0.05,0.78,0.16,0.78
			c-0.31,0-1.04-0.18-2.18-0.54c-1.14-0.36-1.82-1.01-2.02-1.94c-0.42,0-0.73-0.44-0.93-1.32c-0.21-0.88-0.36-1.81-0.47-2.8
			s-0.18-1.92-0.23-2.8c-0.05-0.88-0.08-1.37-0.08-1.48c0.1-0.21,0.16-0.44,0.16-0.7s0.05-0.49,0.16-0.7
			c-0.11,0-0.47,0.36-1.09,1.09s-1.32,1.53-2.1,2.41s-1.53,1.66-2.25,2.33c-0.73,0.68-1.24,1.01-1.56,1.01
			c-0.41,0-0.8,0.34-1.17,1.01c-0.36,0.68-0.7,1.45-1.01,2.33c-0.31,0.88-0.54,1.71-0.7,2.49c-0.15,0.78-0.23,1.27-0.23,1.48
			c0,0.93,0.13,1.69,0.39,2.25c0.26,0.57,0.57,1.11,0.93,1.63c0.36,0.52,0.75,1.09,1.17,1.71c0.41,0.63,0.78,1.45,1.09,2.49
			c0.2,0.21,0.33,0.44,0.39,0.7c0.05,0.26,0.18,0.49,0.39,0.7c0.31,1.45,0.8,2.93,1.48,4.43c0.67,1.5,1.32,3.08,1.94,4.74
			s1.17,3.42,1.63,5.29c0.47,1.87,0.7,3.79,0.7,5.76c0,1.45-0.16,2.85-0.47,4.2c-0.31,1.35-0.91,2.54-1.79,3.58
			c-0.88,1.04-2.05,1.87-3.5,2.49s-3.27,0.93-5.45,0.93c-0.72,0-1.42-0.05-2.1-0.15c-0.68-0.1-1.43-0.16-2.25-0.16
			c-0.21,0-0.39,0.03-0.54,0.08c-0.16,0.05-0.34,0.08-0.55,0.08c-1.76-0.21-3.24-0.57-4.43-1.09c-1.19-0.52-2.18-1.06-2.95-1.63
			c-0.78-0.57-1.48-1.32-2.1-2.25c-0.21-0.21-0.65-0.7-1.32-1.48c-0.67-0.78-1.01-1.27-1.01-1.48l0.16-0.16l0.15-0.16
			c-0.93-1.03-1.53-1.73-1.79-2.1c-0.26-0.36-0.39-0.65-0.39-0.86c0-0.1,0.05-0.18,0.16-0.23c0.1-0.05,0.15-0.13,0.15-0.23
			s-0.08-0.34-0.23-0.7c-0.16-0.36-0.34-0.78-0.55-1.24c-0.2-0.47-0.39-0.91-0.54-1.32c-0.16-0.41-0.23-0.67-0.23-0.78
			c0.11-0.52,0.52-1.11,1.24-1.79c0.72-0.67,1.5-1.32,2.33-1.94s1.97-1.35,3.42-2.18c0.52-0.41,1.27-0.88,2.26-1.4
			s1.84-0.93,2.57-1.24c-0.73,1.76-1.32,3.6-1.79,5.52c-0.47,1.92-0.7,3.81-0.7,5.67c0,0.83,0.21,1.24,0.62,1.24
			c0.21,0,0.37-0.05,0.47-0.15c1.14,0.21,2.15,0.31,3.03,0.31h2.25c1.04,0,1.76-0.05,2.18-0.16c0.41-0.1,0.67-0.2,0.78-0.31
			c0.1-0.1,0.18-0.2,0.23-0.31c0.05-0.1,0.18-0.15,0.39-0.15l-0.16-0.16v0.16c0.31,0,0.99-0.49,2.02-1.48
			c1.04-0.99,1.6-1.89,1.71-2.72l-0.15-0.15c-0.11,0-0.16-0.05-0.16-0.16h0.31c0-1.56-0.15-2.9-0.47-4.05
			c-0.31-1.14-0.65-2.15-1.01-3.03c-0.37-0.88-0.7-1.71-1.01-2.49s-0.47-1.69-0.47-2.72c-0.41-0.72-0.7-1.32-0.85-1.79
			c-0.16-0.47-0.34-0.8-0.55-1.01c-0.21-0.31-0.36-0.47-0.47-0.47l0.16,0.15v-0.15l0.16-0.31c0-0.31-0.23-0.7-0.7-1.17
			s-0.7-0.91-0.7-1.32c0-0.1,0.05-0.21,0.16-0.31h-0.31V45.2l0.16-0.31c-0.83-1.55-1.5-2.85-2.02-3.89s-0.99-2.05-1.4-3.03
			c-0.42-0.99-0.68-1.58-0.78-1.79h0.16c-0.11-0.1-0.29-0.65-0.55-1.63s-0.39-2.04-0.39-3.19c0-1.76,0.26-3.03,0.78-3.81
			s0.88-1.22,1.09-1.32c0-0.1-0.11-0.16-0.31-0.16c0.72-1.87,1.5-3.27,2.33-4.2c0.83-0.93,1.6-1.66,2.33-2.18
			c0.72-0.52,1.32-0.86,1.79-1.01c0.47-0.16,0.7-0.39,0.7-0.7l0.16,0.16c0,0.11,0.05,0.16,0.15,0.16s0.16-0.26,0.16-0.78
			c0.1,0,0.16,0.03,0.16,0.08s0.05,0.08,0.16,0.08c1.14-0.72,2.07-1.32,2.8-1.79c0.72-0.47,1.66-1.17,2.8-2.1l0.31,0.31
			c0.1,0,0.18-0.08,0.23-0.23c0.05-0.16,0.13-0.29,0.23-0.39c1.35-0.83,2.51-1.4,3.5-1.71s2.05-0.47,3.19-0.47
			c0.62,0,1.58,0.05,2.88,0.16c1.3,0.11,2.59,0.31,3.89,0.62s2.43,0.78,3.42,1.4S590.31,14.93,590.31,15.97"/>
	</g>
	<g>
		<rect x="578.67" y="148.05" class="st0" width="11.95" height="11.81"/>
	</g>
	<g>
		<polygon class="st0" points="47.46,11.39 33.3,34.79 19.4,11.39 4.41,11.39 26.81,46.7 26.81,69.69 39.63,69.69 39.63,46.45 
			62.04,11.39 		"/>
	</g>
	<g>
		<path class="st0" d="M119.33,40.54c0-10-7.33-18.32-17.66-18.32s-17.49,8.16-17.49,18.15v0.17c0,9.99,7.33,18.32,17.66,18.32
			c10.33,0,17.49-8.16,17.49-18.16V40.54z M101.68,70.68c-17.99,0-30.9-13.41-30.9-29.98v-0.17c0-16.57,13.08-30.15,31.06-30.15
			s30.89,13.41,30.89,29.98v0.17C132.74,57.11,119.67,70.68,101.68,70.68"/>
	</g>
	<g>
		<path class="st0" d="M206.53,70.52c-8.83,0-17.74-3.08-24.73-9.33l7.58-9.08c5.24,4.33,10.74,7.08,17.4,7.08
			c5.25,0,8.41-2.08,8.41-5.5v-0.17c0-3.25-2-4.91-11.74-7.41c-11.74-3-19.32-6.25-19.32-17.82v-0.17c0-10.58,8.49-17.57,20.4-17.57
			c8.49,0,15.74,2.66,21.65,7.41l-6.66,9.66c-5.16-3.58-10.24-5.75-15.16-5.75c-4.91,0-7.49,2.25-7.49,5.08v0.17
			c0,3.83,2.5,5.08,12.57,7.66c11.83,3.08,18.49,7.33,18.49,17.49v0.17C227.93,64.02,219.11,70.52,206.53,70.52"/>
	</g>
	<g>
		<path class="st0" d="M293.39,40.54c0-10-7.33-18.32-17.66-18.32c-10.33,0-17.49,8.16-17.49,18.15v0.17
			c0,9.99,7.33,18.32,17.65,18.32c10.33,0,17.49-8.16,17.49-18.16L293.39,40.54L293.39,40.54z M275.74,70.68
			c-17.99,0-30.9-13.41-30.9-29.98v-0.17c0-16.57,13.07-30.15,31.06-30.15s30.9,13.41,30.9,29.98v0.17
			C306.8,57.11,293.73,70.68,275.74,70.68"/>
	</g>
	<g>
		<polygon class="st0" points="350.78,46.45 350.78,69.69 337.95,69.69 337.95,46.7 315.55,11.39 330.54,11.39 344.45,34.79 
			358.6,11.39 373.18,11.39 		"/>
	</g>
	<g>
		<path class="st0" d="M56.37,133.58c0-10-7.33-18.32-17.66-18.32c-10.33,0-17.49,8.16-17.49,18.16v0.17
			c0,9.99,7.33,18.32,17.66,18.32c2.83,0,5.41-0.58,7.66-1.58l-9.49-8.08l8.16-9.16l9.57,8.66c1.08-2.42,1.58-5.08,1.58-8v-0.17
			H56.37z M62.45,164.48l-6.41-5.75c-4.91,3.16-10.82,4.99-17.32,4.99c-17.99,0-30.9-13.41-30.9-29.98v-0.17
			c0-16.57,13.08-30.15,31.06-30.15c17.99,0,30.89,13.41,30.89,29.98v0.17c0,6.08-1.83,11.91-5.16,16.74l6,5.08L62.45,164.48z"/>
	</g>
	<g>
		<path class="st0" d="M113.84,163.65c-15.66,0-25.23-8.75-25.23-25.9v-33.31h12.82v32.98c0,9.49,4.75,14.41,12.58,14.41
			s12.57-4.75,12.57-13.99v-33.39h12.83v32.9C139.41,154.99,129.49,163.65,113.84,163.65"/>
	</g>
	<g>
		<polygon class="st0" points="160.81,162.73 160.81,104.44 204.78,104.44 204.78,115.84 173.55,115.84 173.55,127.67 
			201.03,127.67 201.03,139.08 173.55,139.08 173.55,151.32 205.2,151.32 205.2,162.73 		"/>
	</g>
	<g>
		<rect x="223.44" y="159.86" class="st0" width="341.57" height="2.88"/>
	</g>
	<g>
		<path class="st1" d="M320.56,130.83c0.39,0.39,0.58,0.71,0.58,0.97c0,0.19-0.31,0.61-0.92,1.25s-1.3,1.38-2.08,2.22
			c-0.77,0.84-1.47,1.67-2.08,2.51c-0.61,0.84-0.92,1.51-0.92,2.03V140c-0.06,0.13-0.34,0.42-0.82,0.87s-0.72,0.87-0.72,1.26
			c0,0.13,0,0.26,0,0.39s-0.06,0.29-0.19,0.48s-0.37,0.48-0.72,0.87s-0.85,0.9-1.5,1.54c0,0.13-0.02,0.26-0.05,0.39
			c-0.03,0.13-0.18,0.32-0.43,0.58c0-0.13-0.03-0.19-0.1-0.19c-0.39,0.58-0.69,1.05-0.92,1.4c-0.23,0.35-0.47,0.72-0.72,1.11
			c-0.26,0.39-0.48,0.68-0.68,0.87c0,0.13,0.03,0.19,0.1,0.19c0.06,0,0.1,0.06,0.1,0.19s-0.15,0.39-0.43,0.77
			c-0.29,0.39-0.95,1.09-1.98,2.12c-0.39,0.77-0.66,1.29-0.82,1.54c-0.16,0.26-0.27,0.4-0.34,0.43c-0.06,0.03-0.1,0.03-0.1,0
			s0,0.05,0,0.24c-0.39,0.84-0.77,1.5-1.16,1.98c-0.39,0.48-0.89,0.93-1.5,1.35s-1.34,0.63-2.17,0.63c-0.52,0-1.01-0.13-1.5-0.39
			c-0.48-0.26-0.92-0.51-1.3-0.77c-0.13,0-0.45-0.18-0.97-0.53c-0.52-0.35-1.06-0.82-1.64-1.4s-1.11-1.24-1.59-1.98
			c-0.48-0.74-0.72-1.46-0.72-2.17c0.13,0,0.19-0.06,0.19-0.19l-0.19-0.1c0-0.06,0.02-0.18,0.05-0.34c0.03-0.16,0.05-0.3,0.05-0.43
			s-0.06-0.19-0.19-0.19c0.06,0,0.1-0.06,0.1-0.19c0-0.06-0.02-0.14-0.05-0.24c-0.03-0.1-0.05-0.21-0.05-0.34l0.1-0.1
			c0-0.13-0.02-0.21-0.05-0.24c-0.03-0.03-0.05-0.14-0.05-0.34c0-0.13,0.02-0.21,0.05-0.24c0.03-0.03,0.05-0.08,0.05-0.15
			c-0.06,0-0.1-0.06-0.1-0.19c-0.06-0.06-0.1-0.26-0.1-0.58c0-0.13,0.03-0.22,0.1-0.29c0.06-0.06,0.1-0.16,0.1-0.29l-0.1-0.1
			c0-0.06,0.02-0.1,0.05-0.1c0.03,0,0.05-0.06,0.05-0.19c-0.06,0-0.1-0.01-0.1-0.05c0-0.03-0.03-0.05-0.1-0.05
			c0-0.13,0.13-0.59,0.39-1.4c0.26-0.8,0.39-1.56,0.39-2.27l-0.1-0.19c0-0.06,0.03-0.1,0.1-0.1c0.06,0,0.1-0.03,0.1-0.1
			c0-0.06-0.02-0.11-0.05-0.15c-0.03-0.03-0.05-0.08-0.05-0.14c0.26-0.71,0.47-1.29,0.63-1.74c0.16-0.45,0.29-0.92,0.39-1.4
			c0.1-0.48,0.15-0.88,0.15-1.21c-0.06-0.06-0.1-0.18-0.1-0.34c0-0.16,0-0.21,0-0.14h-0.1h0.1c0-0.06,0.06-0.22,0.19-0.48
			c0.13-0.19,0.26-0.5,0.39-0.92s0.29-0.98,0.48-1.69c0.26-0.13,0.43-0.4,0.53-0.82c0.1-0.42,0.19-0.87,0.29-1.35
			s0.21-0.93,0.34-1.35s0.39-0.69,0.77-0.82c0-0.13-0.05-0.18-0.14-0.15c-0.1,0.03-0.15,0.02-0.15-0.05h0.1
			c0,0.06-0.08,0.24-0.24,0.53c-0.16,0.29-0.76,0.95-1.79,1.98c0-0.06-0.31,0.24-0.92,0.92s-1.05,1.24-1.3,1.69
			c-0.19,0-0.39,0.1-0.58,0.29s-0.55,0.64-1.06,1.35c-0.52,0.71-1.29,1.75-2.32,3.14c-1.03,1.38-2.48,3.3-4.35,5.75
			c-0.52,0.9-1.06,1.71-1.64,2.41c-0.52,0.64-1.03,1.21-1.54,1.69c-0.52,0.48-1,0.72-1.45,0.72h-0.19h-0.29
			c-0.19,0-0.5-0.11-0.92-0.34c-0.42-0.22-0.82-0.48-1.21-0.77s-0.72-0.59-1.01-0.92s-0.43-0.61-0.43-0.87l-0.1,0.1
			c-0.13,0-0.19-0.1-0.19-0.29c-0.06,0-0.13,0.03-0.19,0.1c-0.06,0.06-0.13,0.1-0.19,0.1c-0.52-0.51-0.77-0.9-0.77-1.16
			c0-0.26-0.1-0.51-0.29-0.77l-0.19-0.19c0.06,0,0.1-0.03,0.1-0.1c0-0.06,0.03-0.16,0.1-0.29l-0.19-0.1
			c0.19-0.19,0.26-0.37,0.19-0.53c-0.06-0.16,0-0.27,0.19-0.34c0-0.13-0.03-0.18-0.1-0.14c-0.06,0.03-0.1,0.02-0.1-0.05
			c0-0.51,0.08-1.08,0.24-1.69s0.4-1.53,0.72-2.75c0.19-0.84,0.37-1.53,0.53-2.08c0.16-0.55,0.34-1.11,0.53-1.69
			s0.42-1.03,0.68-1.35c0.26-0.71,0.51-1.38,0.77-2.03c0.19-0.51,0.4-1.03,0.63-1.54c0.23-0.51,0.4-0.87,0.53-1.06
			c-0.06,0-0.26,0.14-0.58,0.43s-0.71,0.68-1.16,1.16c-0.45,0.48-0.93,1.01-1.45,1.59s-1,1.13-1.45,1.64
			c-0.45,0.71-1.05,1.46-1.79,2.27s-1.48,1.63-2.22,2.46c-0.74,0.84-1.42,1.66-2.03,2.46c-0.61,0.81-1.01,1.59-1.21,2.37
			c-0.06,0-0.1-0.01-0.1-0.05c0-0.03-0.03-0.05-0.1-0.05c-0.13,0-0.35,0.18-0.68,0.53c-0.32,0.35-0.93,1.21-1.83,2.56
			c0,0.13-0.06,0.31-0.19,0.53c-0.13,0.23-0.23,0.37-0.29,0.43c0-0.06,0.03-0.1,0.1-0.1c0,0.39-0.23,0.84-0.68,1.35
			c-0.45,0.52-0.97,1-1.54,1.45c-0.58,0.45-1.13,0.84-1.64,1.16c-0.52,0.32-0.87,0.48-1.06,0.48c-0.13,0-0.34-0.08-0.63-0.24
			s-0.58-0.32-0.87-0.48s-0.63-0.37-1.01-0.63l-0.19,0.1c-0.06,0-0.19-0.1-0.39-0.29c-0.19-0.19-0.4-0.4-0.63-0.63
			c-0.22-0.22-0.5-0.53-0.82-0.92c-0.06,0-0.11,0.02-0.15,0.05c-0.03,0.03-0.08,0.05-0.15,0.05c0-0.06-0.14-0.19-0.43-0.39
			c-0.29-0.19-0.43-0.35-0.43-0.48v-0.29c0.06,0,0-0.06-0.19-0.19s-0.29-0.64-0.29-1.54c0-0.19,0.03-0.32,0.1-0.39
			c0-0.06,0.03-0.1,0.1-0.1c0-0.06-0.03-0.11-0.1-0.15c-0.06-0.03-0.1-0.11-0.1-0.24c0.13,0,0.19-0.03,0.19-0.1l-0.1-0.1
			c-0.06,0-0.1-0.03-0.1-0.1c0.19-0.13,0.29-0.32,0.29-0.58s0.03-0.55,0.1-0.87v0.1c0.06,0,0.1-0.03,0.1-0.1v-0.29
			c0-0.58,0.02-0.92,0.05-1.01c0.03-0.1,0.1-0.24,0.19-0.43c0.1-0.19,0.27-0.63,0.53-1.3c0.26-0.68,0.61-1.92,1.06-3.72
			c0,0.06,0.03,0.1,0.1,0.1c0.13,0,0.19-0.26,0.19-0.77s0.26-1.03,0.77-1.54c0-0.06-0.02-0.11-0.05-0.15
			c-0.03-0.03-0.05-0.08-0.05-0.14c0.39-0.71,0.69-1.3,0.92-1.79c0.23-0.48,0.45-0.93,0.68-1.35s0.43-0.87,0.63-1.35
			c0.19-0.48,0.42-1.11,0.68-1.88c0-0.06,0.05-0.11,0.15-0.14c0.1-0.03,0.14-0.08,0.14-0.15c0.13-0.26,0.19-0.4,0.19-0.43
			c0-0.03,0.02-0.13,0.05-0.29c0.03-0.16,0.14-0.48,0.34-0.97c0.19-0.48,0.58-1.27,1.16-2.37v0.1c0.06,0,0.3-0.19,0.72-0.58
			s0.63-0.97,0.63-1.74c0.13-0.26,0.24-0.48,0.34-0.68c0.1-0.19,0.24-0.48,0.43-0.87c0-0.26,0.22-0.56,0.68-0.92
			c0.45-0.35,0.68-0.95,0.68-1.79c0-0.19,0.19-0.37,0.58-0.53c0.39-0.16,0.84-0.24,1.35-0.24c0.06,0,0.42,0.05,1.06,0.14
			c0.64,0.1,1.33,0.26,2.08,0.48c0.74,0.23,1.42,0.52,2.03,0.87c0.61,0.35,0.92,0.79,0.92,1.3c0,0.13-0.06,0.32-0.19,0.58
			s-0.29,0.52-0.48,0.77c-0.19,0.26-0.35,0.5-0.48,0.72c-0.13,0.23-0.19,0.37-0.19,0.43c-0.19,0.19-0.29,0.32-0.29,0.39v0.1
			c0.06,0,0.1-0.03,0.1-0.1c0-0.13,0.03-0.19,0.1-0.19c0.06,0,0.1,0.06,0.1,0.19s-0.53,1-1.59,2.61s-2.17,3.99-3.33,7.15
			c-0.06,0-0.1,0.03-0.1,0.1v0.29c-0.19,0.32-0.39,0.61-0.58,0.87c-0.13,0.26-0.26,0.52-0.39,0.77c-0.13,0.26-0.19,0.48-0.19,0.68
			c0,0.06,0.02,0.11,0.05,0.14c0.03,0.03,0.05,0.08,0.05,0.14c-0.06,0.07-0.15,0.18-0.24,0.34c-0.1,0.16-0.14,0.28-0.14,0.34
			c0.06,0,0.26-0.14,0.58-0.43s0.72-0.69,1.21-1.21c0.48-0.51,1.01-1.09,1.59-1.74c0.58-0.64,1.13-1.32,1.64-2.03
			c1.42-1.87,2.98-3.56,4.68-5.07c1.71-1.51,3.3-3.01,4.78-4.49l-0.1,0.1c0.58-0.71,1.08-1.27,1.5-1.69s0.87-0.79,1.35-1.11
			s0.92-0.48,1.3-0.48c0.26,0,0.51,0.11,0.77,0.34c0.26,0.23,0.48,0.34,0.68,0.34c0.13,0,0.24-0.05,0.34-0.15
			c0.1-0.1,0.21-0.14,0.34-0.14v0.29l0.1-0.1c0.06,0,0.1-0.02,0.1-0.05c0-0.03,0.06-0.05,0.19-0.05s0.59,0.26,1.4,0.77
			c0.8,0.52,1.43,1.22,1.88,2.12l-0.1,0.1c0,0.06,0.05,0.27,0.14,0.63c0.1,0.35,0.15,0.76,0.15,1.21c0,0.71-0.1,1.3-0.29,1.79
			c-0.19,0.48-0.4,0.95-0.63,1.4s-0.43,0.95-0.63,1.5c-0.19,0.55-0.29,1.27-0.29,2.17c0,0.06,0.03,0.13,0.1,0.19
			c-0.13,0.13-0.27,0.39-0.43,0.77c-0.16,0.39-0.32,0.82-0.48,1.3s-0.32,0.96-0.48,1.45c-0.16,0.48-0.27,0.82-0.34,1.01
			c0,0.07,0.03,0.1,0.1,0.1c0.64-0.71,1.17-1.3,1.59-1.79c0.42-0.48,0.84-0.97,1.26-1.45c0.42-0.48,0.76-0.85,1.01-1.11
			c0.06-0.13,0.22-0.39,0.48-0.77c0.26-0.39,0.58-0.85,0.97-1.4s0.85-1.11,1.4-1.69c0.55-0.58,1.17-1.09,1.88-1.54
			c0.84-1.03,2.01-2.14,3.52-3.33s3.39-2.95,5.65-5.26c0.13-0.13,0.45-0.47,0.97-1.01c0.51-0.55,1.13-0.82,1.83-0.82
			c0.32,0,0.58,0.03,0.77,0.1c0.19,0.07,0.29,0.29,0.29,0.68c0.19-0.19,0.45-0.29,0.77-0.29c0.51,0,0.95,0.14,1.3,0.43
			s1.05,0.95,2.08,1.98c0,0.06-0.03,0.1-0.1,0.1c0,0.13,0.05,0.29,0.14,0.48c0.1,0.19,0.15,0.39,0.15,0.58c0,0.9-0.23,1.8-0.68,2.7
			s-0.84,1.71-1.16,2.41c0,0.13-0.05,0.39-0.15,0.77c-0.1,0.39-0.43,1-1.01,1.83c-0.06,0-0.18,0.08-0.34,0.24
			c-0.16,0.16-0.4,0.56-0.72,1.21c-0.32,0.64-0.74,1.56-1.26,2.75s-1.13,2.85-1.83,4.97c-0.19,0.64-0.47,1.16-0.82,1.54
			c-0.35,0.39-0.53,1.16-0.53,2.32c0,0.07-0.27,0.55-0.82,1.45s-0.82,2.09-0.82,3.57c-0.32,1.09-0.58,2.21-0.77,3.33
			c-0.19,1.13-0.35,2.33-0.48,3.62v0.19h0.1c0.13,0,0.27-0.18,0.43-0.53c0.16-0.35,0.37-0.53,0.63-0.53c0-0.06-0.02-0.11-0.05-0.14
			c-0.03-0.03-0.05-0.08-0.05-0.15c0.13,0,0.39-0.18,0.77-0.53c0.39-0.35,0.58-0.69,0.58-1.01c0.19-0.13,0.29-0.18,0.29-0.14
			c0,0.03,0.06-0.06,0.19-0.29c0.13-0.22,0.42-0.66,0.87-1.3s1.26-1.71,2.41-3.19c0.19-0.19,0.59-0.69,1.21-1.5
			c0.61-0.8,1.32-1.75,2.12-2.85c0.8-1.09,1.7-2.25,2.7-3.48c1-1.22,1.98-2.32,2.94-3.28c0.13-0.13,0.27-0.32,0.43-0.58
			s0.31-0.39,0.43-0.39c0.06,0,0.1,0.02,0.1,0.05c0,0.03,0.03,0.05,0.1,0.05c0.39,0,0.74-0.24,1.06-0.72s0.84-0.72,1.54-0.72
			l-0.1,0.1c0.19,0,0.42,0.03,0.68,0.1C319.82,130.58,320.24,130.7,320.56,130.83z M262.14,126.58c0.13-0.32,0.24-0.59,0.34-0.82
			c0.1-0.22,0.24-0.53,0.43-0.92v-0.19c0.13-0.13,0.29-0.37,0.48-0.72s0.39-0.72,0.58-1.11s0.35-0.76,0.48-1.11s0.19-0.56,0.19-0.63
			c0-0.19,0.06-0.35,0.19-0.48s0.19-0.26,0.19-0.39s-0.03-0.27-0.1-0.43c-0.06-0.16-0.16-0.24-0.29-0.24
			c-0.13,0.32-0.31,0.71-0.53,1.16c-0.23,0.45-0.43,0.9-0.63,1.35c-0.26,0.52-0.52,1.03-0.77,1.54c0,0.06,0.02,0.11,0.05,0.14
			c0.03,0.03,0.05,0.08,0.05,0.15c-0.13,0.13-0.24,0.24-0.34,0.34s-0.15,0.18-0.15,0.24s0.03,0.1,0.1,0.1v-0.1l-0.19,0.58
			c-0.06,0.13-0.15,0.29-0.24,0.48c-0.1,0.19-0.21,0.32-0.34,0.39c0,0.26-0.02,0.39-0.05,0.39c-0.03,0-0.18,0.23-0.43,0.68
			c-0.26,0.45-0.66,1.29-1.21,2.51c-0.55,1.22-1.34,3.22-2.37,5.99c-0.71,1.93-1.42,3.86-2.12,5.79c-0.71,1.93-1.06,3.7-1.06,5.31
			c0.06,0,0.13-0.14,0.19-0.43s0.14-0.63,0.24-1.01c0.1-0.39,0.19-0.79,0.29-1.21c0.1-0.42,0.21-0.76,0.34-1.01
			c0.32-0.77,0.64-1.69,0.97-2.75c0.32-1.06,0.66-2.14,1.01-3.24c0.35-1.09,0.72-2.11,1.11-3.04s0.8-1.62,1.26-2.08
			c0-0.06-0.02-0.11-0.05-0.15c-0.03-0.03-0.05-0.08-0.05-0.14c0.45-0.77,0.8-1.42,1.06-1.93s0.5-1.04,0.72-1.59
			c0.23-0.55,0.34-0.92,0.34-1.11L262.14,126.58z M276.91,124.94c0.45-0.45,0.97-0.97,1.54-1.54c0.58-0.58,1.13-1.12,1.64-1.64
			c0.51-0.51,1.13-1.12,1.83-1.83l-0.1-0.19c-1.42,1.09-2.75,2.33-4.01,3.72c-1.26,1.38-2.53,2.72-3.81,4.01
			c0,0.13-0.13,0.32-0.39,0.58s-0.53,0.53-0.82,0.82s-0.6,0.56-0.92,0.82s-0.52,0.48-0.58,0.68c-0.71,0.77-1.34,1.47-1.88,2.08
			c-0.55,0.61-1.06,1.24-1.54,1.88s-1.01,1.29-1.59,1.93s-1.29,1.38-2.12,2.22c-0.06,0.07-0.21,0.21-0.43,0.43
			c-0.23,0.23-0.47,0.48-0.72,0.77c-0.26,0.29-0.48,0.6-0.68,0.92c-0.19,0.32-0.29,0.58-0.29,0.77l0.19,0.1
			c2.32-2.9,4.76-5.78,7.34-8.64C272.15,129.95,274.6,127.33,276.91,124.94z M282.13,126.39c0-0.06,0.06-0.22,0.19-0.48
			s0.19-0.45,0.19-0.58l-0.1-0.1c-0.39,0-0.72,0.32-1.01,0.97c-0.29,0.64-0.58,1.46-0.87,2.46s-0.63,2.08-1.01,3.23
			c-0.39,1.16-0.84,2.25-1.35,3.28c0,0.13-0.02,0.19-0.05,0.19c-0.03,0-0.05,0.03-0.05,0.1c-0.19,0.39-0.39,0.85-0.58,1.4
			c-0.19,0.55-0.35,1.08-0.48,1.59c-0.13,0.52-0.29,1.1-0.48,1.74c0,0.13,0.01,0.23,0.05,0.29c0.03,0.06,0.05,0.13,0.05,0.19
			c-0.06,0.71-0.16,1.27-0.29,1.69s-0.24,0.77-0.34,1.06c-0.1,0.29-0.19,0.55-0.29,0.77c-0.1,0.23-0.15,0.5-0.15,0.82l0.19,0.39
			c0-1.03,0.11-1.79,0.34-2.27c0.22-0.48,0.34-0.88,0.34-1.21c0.13,0,0.16-0.1,0.1-0.29s-0.03-0.29,0.1-0.29
			c0-0.19,0.26-0.77,0.77-1.74s0.77-2.06,0.77-3.28c0.06-0.39,0.27-1.03,0.63-1.93c0.35-0.9,0.74-1.87,1.16-2.9s0.84-2.01,1.26-2.95
			C281.63,127.63,281.93,126.91,282.13,126.39z M296.8,124.36c0.45-0.45,1.05-1,1.79-1.64s1.46-1.29,2.17-1.93
			c0.71-0.64,1.34-1.24,1.88-1.79c0.55-0.55,0.85-0.95,0.92-1.21c-0.19,0-0.48,0.16-0.87,0.48s-0.82,0.69-1.3,1.11
			s-0.97,0.87-1.45,1.35c-0.48,0.48-0.92,0.89-1.3,1.21c0.06,0,0.1-0.03,0.1-0.1c0,0.07-0.18,0.27-0.53,0.63
			c-0.35,0.35-0.72,0.74-1.11,1.16s-0.76,0.81-1.11,1.16s-0.53,0.56-0.53,0.63c-1.93,1.93-3.51,3.61-4.73,5.02
			c-1.22,1.42-2.25,2.66-3.09,3.72s-1.58,2.01-2.22,2.85c-0.64,0.84-1.35,1.64-2.12,2.41c0,0.26,0.06,0.39,0.19,0.39
			c0.26-0.26,0.4-0.43,0.43-0.53c0.03-0.1,0.08-0.24,0.15-0.43c0.06-0.19,0.24-0.47,0.53-0.82c0.29-0.35,0.85-0.95,1.69-1.79
			c0.77-1.16,1.38-1.99,1.83-2.51c0.45-0.51,0.85-0.95,1.21-1.3c0.35-0.35,0.71-0.69,1.06-1.01s0.82-0.84,1.4-1.54
			c1.03-1.03,1.9-1.98,2.61-2.85C295.1,126.15,295.9,125.27,296.8,124.36z M300.04,129.1c0.29-0.64,0.61-1.3,0.97-1.98
			c0.35-0.68,0.71-1.27,1.06-1.79c0.35-0.51,0.59-0.84,0.72-0.97c0-0.06-0.02-0.11-0.05-0.14c-0.03-0.03-0.05-0.08-0.05-0.15
			c0-0.06,0.05-0.11,0.14-0.14c0.1-0.03,0.15-0.11,0.15-0.24c0-0.06-0.03-0.13-0.1-0.19c-0.13,0.32-0.31,0.61-0.53,0.87
			c-0.23,0.26-0.43,0.55-0.63,0.87c-0.39,0.58-0.71,1.06-0.97,1.45c-0.26,0.39-0.5,0.77-0.72,1.16c-0.23,0.39-0.34,0.68-0.34,0.87
			l0.1,0.19c-0.9,1.87-1.63,3.49-2.17,4.88c-0.55,1.38-1.01,2.7-1.4,3.96c-0.39,1.25-0.71,2.51-0.97,3.77
			c-0.26,1.25-0.48,2.66-0.68,4.2c0.39-2.32,0.82-4.3,1.3-5.94s0.93-3.01,1.35-4.1c0.42-1.09,0.79-1.96,1.11-2.61
			c0.32-0.64,0.51-1.13,0.58-1.45l0.1,0.1c0.06,0,0.1-0.03,0.1-0.1v-0.19l0.19-0.1l-0.1-0.19c0-0.06,0.03-0.13,0.1-0.19l0.29-0.29
			C299.61,130.25,299.75,129.74,300.04,129.1z M315.15,134.12c0.26-0.19,0.47-0.35,0.63-0.48c0.16-0.13,0.37-0.42,0.63-0.87
			c-0.26,0-0.37,0.05-0.34,0.15c0.03,0.1-0.08,0.14-0.34,0.14c0,0.06,0.02,0.1,0.05,0.1c0.03,0,0.05,0.03,0.05,0.1
			c-0.39,0.52-0.87,1.05-1.45,1.59c-0.58,0.55-0.87,0.89-0.87,1.01h0.19c-0.06,0.07-0.19,0.23-0.39,0.48
			c-0.19,0.26-0.74,0.84-1.64,1.74c-0.45,0.32-0.79,0.61-1.01,0.87c-0.23,0.26-0.43,0.53-0.63,0.82c-0.19,0.29-0.29,0.56-0.29,0.82
			c0,0.19-0.05,0.27-0.15,0.24c-0.1-0.03-0.27,0.05-0.53,0.24s-0.6,0.56-1.01,1.11c-0.42,0.55-0.92,1.5-1.5,2.85
			c-1.1,1.48-2.03,2.74-2.8,3.77c-0.77,1.03-1.16,1.58-1.16,1.64c-0.13,0.26-0.56,0.71-1.3,1.35c-0.74,0.64-1.24,1.39-1.5,2.22
			c0.13,0,0.21,0.02,0.24,0.05c0.03,0.03,0.08,0.05,0.15,0.05h0.1c0-0.19,0.1-0.43,0.29-0.72s0.5-0.69,0.92-1.21
			c0.42-0.51,1.08-1.22,1.98-2.12c-0.06,0.06-0.1,0.13-0.1,0.19c0.32,0,0.61-0.34,0.87-1.01c0.26-0.68,0.58-1.21,0.97-1.59
			c0-0.06,0.11-0.21,0.34-0.43c0.23-0.23,0.45-0.48,0.68-0.77c0.22-0.29,0.45-0.58,0.68-0.87c0.22-0.29,0.34-0.53,0.34-0.72
			c0-0.06,0.18-0.35,0.53-0.87c0.35-0.51,0.59-0.77,0.72-0.77c0.19-0.58,0.39-0.95,0.58-1.11s0.43-0.35,0.72-0.58
			c0.29-0.22,0.63-0.58,1.01-1.06c0.39-0.48,0.87-1.3,1.45-2.46c0.39-0.39,0.61-0.66,0.68-0.82c0.06-0.16,0.14-0.34,0.24-0.53
			s0.26-0.47,0.48-0.82C313.88,135.45,314.38,134.89,315.15,134.12z"/>
		<path class="st1" d="M336.78,129.48c0.13,0.13,0.43,0.24,0.92,0.34c0.48,0.1,0.72,0.37,0.72,0.82c0,0.19-0.11,0.56-0.34,1.11
			c-0.23,0.55-0.66,1.08-1.3,1.59l0.1-0.1c-0.06,0-0.16,0.06-0.29,0.19s-0.34,0.43-0.63,0.92c-0.29,0.48-0.72,1.19-1.3,2.12
			s-1.32,2.21-2.22,3.81c-0.32,0.58-0.48,0.97-0.48,1.16s-0.03,0.31-0.1,0.34c-0.06,0.03-0.18,0.11-0.34,0.24
			c-0.16,0.13-0.39,0.35-0.68,0.68c-0.29,0.32-0.66,0.87-1.11,1.64c-0.06,0.06-0.1,0.14-0.1,0.24s-0.03,0.26-0.1,0.48
			c-0.06,0.23-0.23,0.53-0.48,0.92c-0.26,0.39-0.71,0.9-1.35,1.54c0,0.06-0.26,0.39-0.77,0.97c-0.52,0.58-0.77,1.13-0.77,1.64
			c0,0.07,0.03,0.13,0.1,0.19c-0.06,0.07-0.29,0.32-0.68,0.77s-0.58,0.74-0.58,0.87c0,0.07,0.03,0.13,0.1,0.19
			c-0.39,0.32-0.71,0.61-0.97,0.87c-0.26,0.26-0.48,0.52-0.68,0.77c-0.19,0.26-0.29,0.52-0.29,0.77c0,0.06,0.02,0.11,0.05,0.14
			c0.03,0.03,0.05,0.08,0.05,0.15c-0.32,0-0.47,0.08-0.43,0.24c0.03,0.16-0.02,0.31-0.15,0.43c-0.06,0-0.13-0.03-0.19-0.1
			c-0.06,0-0.13,0.23-0.19,0.68s-0.64,1.03-1.74,1.74c-0.13,0-0.19,0.06-0.19,0.19s-0.05,0.26-0.15,0.39
			c-0.1,0.13-0.27,0.26-0.53,0.39s-0.71,0.19-1.35,0.19c-0.19,0-0.61-0.11-1.26-0.34c-0.64-0.22-1.3-0.51-1.98-0.87
			c-0.68-0.35-1.29-0.72-1.83-1.11c-0.55-0.39-0.82-0.74-0.82-1.06c0-0.06,0.02-0.11,0.05-0.15c0.03-0.03,0.05-0.08,0.05-0.14v0.1
			c-0.13,0-0.26-0.1-0.39-0.29s-0.19-0.39-0.19-0.58c0-0.06,0.03-0.13,0.1-0.19c-0.26,0-0.5-0.5-0.72-1.5
			c-0.23-1-0.34-1.95-0.34-2.85v-0.48c0-0.06,0.03-0.16,0.1-0.29c0-0.06-0.01-0.11-0.05-0.15c-0.03-0.03-0.05-0.11-0.05-0.24
			c0.26-1.87,0.58-4.02,0.97-6.47c0.39-2.45,1.48-5.37,3.28-8.79v0.1c-0.06,0-0.1-0.03-0.1-0.1c0-0.26,0.34-0.98,1.01-2.17
			c0.68-1.19,1.37-2.46,2.08-3.81c0-0.06,0.21-0.27,0.63-0.63c0.42-0.35,0.63-0.88,0.63-1.59c0.26-0.26,0.39-0.4,0.39-0.43
			c0-0.03,0.03-0.11,0.1-0.24c0.06-0.13,0.19-0.37,0.39-0.72c0.19-0.35,0.58-0.98,1.16-1.88c-0.06,0.06-0.1,0.13-0.1,0.19v-0.1
			c0-0.06,0.06-0.23,0.19-0.48c0.13-0.26,0.29-0.55,0.48-0.87s0.43-0.61,0.72-0.87s0.59-0.39,0.92-0.39c0.19,0,0.66,0.11,1.4,0.34
			c0.74,0.23,1.48,0.53,2.22,0.92c0.74,0.39,1.34,0.84,1.79,1.35c0.45,0.52,0.48,1.03,0.1,1.54c-0.9,1.22-1.56,2.3-1.98,3.23
			s-0.89,1.53-1.4,1.79c0,0.07-0.08,0.24-0.24,0.53c-0.16,0.29-0.31,0.63-0.43,1.01c-0.26,0.45-0.48,0.93-0.68,1.45
			c-0.13,0.9-0.4,1.53-0.82,1.88s-0.76,0.89-1.01,1.59c0,0.39-0.14,0.93-0.43,1.64s-0.6,1.43-0.92,2.17s-0.63,1.45-0.92,2.12
			s-0.43,1.14-0.43,1.4c0,0.06,0.03,0.13,0.1,0.19c-0.13,0.06-0.26,0.19-0.39,0.39c-0.19,0.32-0.29,0.71-0.29,1.16
			c0,1.29-0.26,2.61-0.77,3.96c-0.52,1.35-0.77,2.8-0.77,4.34c0.32-0.13,0.72-0.61,1.21-1.45c0.48-0.84,1.14-1.67,1.98-2.51
			c0.45-0.45,0.68-0.76,0.68-0.92s0.03-0.35,0.1-0.58c0.06-0.23,0.24-0.55,0.53-0.97c0.29-0.42,0.92-1.11,1.88-2.08l-0.1-0.19
			c0-0.06,0.03-0.1,0.1-0.1c0.64-0.64,1.01-1.06,1.11-1.25s0.18-0.4,0.24-0.63c0.06-0.22,0.24-0.56,0.53-1.01
			c0.29-0.45,0.98-1.25,2.08-2.41l-0.1,0.1c0-0.06,0.14-0.29,0.43-0.68s0.98-1.29,2.08-2.7c0.64-0.77,1.22-1.51,1.74-2.22
			c0.19-0.32,0.4-0.61,0.63-0.87s0.4-0.48,0.53-0.68c0.19-0.26,0.39-0.48,0.58-0.68v0.19c0.13,0,0.32-0.27,0.58-0.82
			s0.64-0.82,1.16-0.82c0.19,0,0.34,0.03,0.43,0.1c0.1,0.06,0.21,0.1,0.34,0.1c0.06,0,0.1-0.01,0.1-0.05
			C336.68,129.5,336.72,129.48,336.78,129.48z M315.25,140.3l-0.1-0.19c0.77-1.8,1.38-3.28,1.83-4.44s0.84-2.12,1.16-2.9
			c0.32-0.77,0.61-1.43,0.87-1.98s0.55-1.11,0.87-1.69l0.1,0.1l0.1-0.1l-0.1-0.19l0.1-0.1v0.1c-0.13,0-0.19-0.03-0.19-0.1
			c0-0.19,0.23-0.55,0.68-1.06s0.93-1.13,1.45-1.83c0.51-0.71,1-1.46,1.45-2.27c0.45-0.8,0.68-1.56,0.68-2.27l-0.1-0.19v-0.1
			c-0.13,0-0.35,0.32-0.68,0.97c-0.32,0.64-0.71,1.32-1.16,2.03c-0.52,0.84-1.06,1.8-1.64,2.9c0.06-0.06-0.11,0.08-0.53,0.43
			c-0.42,0.35-0.63,0.89-0.63,1.59c-0.06,0.13-0.18,0.37-0.34,0.72c-0.16,0.35-0.32,0.72-0.48,1.11s-0.34,0.72-0.53,1.01
			c-0.19,0.29-0.32,0.43-0.39,0.43c-0.26,0.71-0.47,1.3-0.63,1.79c-0.16,0.48-0.35,0.98-0.58,1.5c-0.23,0.52-0.48,1.13-0.77,1.83
			c-0.29,0.71-0.66,1.67-1.11,2.9c-0.19,0.52-0.39,1.16-0.58,1.93s-0.39,1.58-0.58,2.41c-0.19,0.84-0.34,1.67-0.43,2.51
			c-0.1,0.84-0.15,1.54-0.15,2.12c0,0.39,0.06,0.64,0.19,0.77c0-0.9,0.1-1.83,0.29-2.8s0.39-1.77,0.58-2.41
			c0-0.06,0.02-0.3,0.05-0.72c0.03-0.42,0.1-0.87,0.19-1.35c0.1-0.48,0.23-0.96,0.39-1.45C314.69,140.83,314.93,140.49,315.25,140.3
			z M333.88,132.86c0-0.06,0.02-0.11,0.05-0.14c0.03-0.03,0.05-0.08,0.05-0.14l-0.1-0.1c-1.29,1.8-2.59,3.61-3.91,5.41
			c-1.32,1.8-2.62,3.64-3.91,5.5c-0.19,0.19-0.35,0.39-0.48,0.58c-0.32,0.32-0.48,0.61-0.48,0.87c0-0.06,0.03-0.13,0.1-0.19
			c0,0.07-0.15,0.34-0.43,0.82c-0.29,0.48-0.53,0.72-0.72,0.72c0,0.52-0.06,0.89-0.19,1.11c-0.13,0.23-0.32,0.43-0.58,0.63
			c-0.26,0.19-0.56,0.47-0.92,0.82c-0.35,0.35-0.76,0.92-1.21,1.69c0,0.07,0.02,0.11,0.05,0.14c0.03,0.03,0.05,0.08,0.05,0.15
			c-0.13,0.13-0.26,0.19-0.39,0.19s-0.19,0.06-0.19,0.19c0,0.07,0.02,0.11,0.05,0.15c0.03,0.03,0.05,0.08,0.05,0.14
			c-0.13,0.13-0.26,0.19-0.39,0.19s-0.19,0.13-0.19,0.39c0,0.07-0.11,0.23-0.34,0.48c-0.23,0.26-0.45,0.53-0.68,0.82
			s-0.45,0.56-0.68,0.82s-0.34,0.42-0.34,0.48s0.03,0.1,0.1,0.1c1.42-1.61,2.78-3.32,4.1-5.12c1.32-1.8,2.61-3.65,3.86-5.55
			c1.26-1.9,2.51-3.8,3.77-5.7C331.23,136.42,332.53,134.6,333.88,132.86z M328.96,110.85c-1.1-0.26-1.71-0.8-1.83-1.64
			c0-0.77,0.18-1.66,0.53-2.66c0.35-1,0.63-1.56,0.82-1.69c0-0.06,0.05-0.1,0.14-0.1s0.15-0.06,0.15-0.19
			c0.39-1.29,0.8-2.4,1.26-3.33c0.45-0.93,0.84-1.72,1.16-2.37c0-0.06,0.14-0.29,0.43-0.68s0.43-0.61,0.43-0.68l0.1-0.1
			c0.32-0.45,0.61-0.8,0.87-1.06s0.53-0.48,0.82-0.68s0.59-0.32,0.92-0.39c0.64,0,1.08,0.03,1.3,0.1c0.23,0.07,0.4,0.16,0.53,0.29
			v-0.1c0.06,0,0.15,0.03,0.24,0.1c0.1,0.07,0.21,0.1,0.34,0.1c0.06,0,0.13-0.03,0.19-0.1c0,0.19,0.3,0.37,0.92,0.53
			c0.61,0.16,1.22,0.37,1.83,0.63c0.61,0.26,1.14,0.55,1.59,0.87s0.55,0.71,0.29,1.16c-0.71,0.97-1.53,1.75-2.46,2.37
			c-0.93,0.61-1.88,1.69-2.85,3.23c-0.06,0.06-0.19,0.24-0.39,0.53c-0.19,0.29-0.45,0.6-0.77,0.92c-0.32,0.39-0.71,0.87-1.16,1.45
			c-0.52,0.45-0.95,1-1.3,1.64s-0.66,1.26-0.92,1.83c-0.26,0.58-0.42,1.1-0.48,1.54c-0.06,0.45-0.03,0.68,0.1,0.68
			c-0.26,0-0.77-0.19-1.54-0.58C329.44,112.1,329.02,111.55,328.96,110.85z M330.12,105.73c0.06,0.77,0.1,1.14,0.1,1.11
			s0.1-0.34,0.29-0.92c0.19-0.58,0.53-1.42,1.01-2.51s1.27-2.32,2.37-3.67c0.06-0.13,0.24-0.3,0.53-0.53
			c0.29-0.22,0.4-0.82,0.34-1.79h-0.48c-0.06,0-0.1,0.03-0.1,0.1c-0.84,1.42-1.5,2.58-1.98,3.48c-0.48,0.9-0.95,1.79-1.4,2.66
			s-0.68,1.5-0.68,1.88L330.12,105.73L330.12,105.73z"/>
		<path class="st1" d="M361.02,134.7c0.58-0.32,1.09-0.74,1.54-1.25s0.84-1.01,1.16-1.5c0.32-0.48,0.63-0.9,0.92-1.25
			s0.53-0.53,0.72-0.53c0.58-0.45,1.03-0.8,1.35-1.06s0.64-0.5,0.97-0.72c0.32-0.22,0.51-0.34,0.58-0.34c0-0.06-0.02-0.11-0.05-0.14
			s-0.05-0.08-0.05-0.14c0.45-0.19,0.92-0.47,1.4-0.82c0.48-0.35,0.82-0.69,1.01-1.01l0.19,0.1c0.13,0,0.32-0.16,0.58-0.48
			s0.87-0.74,1.83-1.26l0.19,0.1c-0.06,0,0.19-0.14,0.77-0.43c0.58-0.29,1.19-0.43,1.83-0.43c0.26,0,0.53,0.07,0.82,0.19
			c0.29,0.13,0.56,0.26,0.82,0.39c0.26,0.19,0.51,0.39,0.77,0.58v-0.1c0.13,0.06,0.21,0.11,0.24,0.14s0.1,0.08,0.19,0.14
			c0.1,0.07,0.26,0.16,0.48,0.29s0.63,0.32,1.21,0.58c0.32,0.32,0.63,0.71,0.92,1.16c0.29,0.45,0.63,0.87,1.01,1.25
			c0,0.07-0.02,0.11-0.05,0.15c-0.03,0.03-0.05,0.08-0.05,0.14c0.06,0,0.15,0.19,0.24,0.58c0.1,0.39,0.19,0.84,0.29,1.35
			c0.1,0.52,0.18,1.06,0.24,1.64c0.06,0.58,0.1,1.1,0.1,1.54c0,1.74-0.29,3.48-0.87,5.21c-0.58,1.74-1.24,3.36-1.98,4.88
			c-0.74,1.51-1.4,2.8-1.98,3.86s-0.87,1.79-0.87,2.17v-0.1c-0.06,0.13-0.13,0.19-0.19,0.19c-0.06,0-0.1,0.03-0.1,0.1
			c0,0.06,0.02,0.11,0.05,0.14s0.05,0.08,0.05,0.14c-0.19,0-0.6,0.34-1.21,1.01c-0.61,0.68-1.26,1.4-1.93,2.17s-1.32,1.5-1.93,2.17
			c-0.61,0.68-0.98,1.01-1.11,1.01v-0.1c-0.9,0.39-1.87,0.58-2.9,0.58c-0.64,0-1.39-0.13-2.22-0.39c-0.84-0.26-1.35-0.48-1.54-0.68
			l-0.19,0.1c-0.26,0-0.6-0.11-1.01-0.34c-0.42-0.22-0.84-0.48-1.25-0.77c-0.42-0.29-0.77-0.56-1.06-0.82s-0.43-0.42-0.43-0.48h0.1
			c-1.1-1.35-1.88-2.51-2.37-3.48c-0.48-0.96-0.89-1.51-1.21-1.64c-0.13,0-0.26,0.19-0.39,0.58c-0.06,0.19-0.1,0.39-0.1,0.58
			c-0.19,0.52-0.56,1.38-1.11,2.61c-0.55,1.22-1.08,2.5-1.59,3.81c-0.52,1.32-0.93,2.48-1.26,3.48c-0.32,1-0.42,1.5-0.29,1.5
			c-0.13,0-0.21,0.29-0.24,0.87c-0.03,0.58-0.08,0.87-0.15,0.87l-0.29-0.19c0,0.06,0.06,0.1,0.19,0.1h0.1v0.1
			c-0.26,0.26-0.43,0.48-0.53,0.68c-0.1,0.19-0.21,0.39-0.34,0.58c-0.13,0.26-0.19,0.48-0.19,0.68v-0.1c0,0.07,0.03,0.13,0.1,0.19
			l-0.1,0.1c-0.06,0-0.1-0.03-0.1-0.1c-0.19,0.58-0.37,1.14-0.53,1.69c-0.16,0.55-0.27,0.82-0.34,0.82v-0.1
			c0.06,0.13,0.1,0.26,0.1,0.39s-0.03,0.23-0.1,0.29c-0.06,0.06-0.1,0.13-0.1,0.19s0.03,0.13,0.1,0.19
			c-0.19,0.13-0.43,0.53-0.72,1.21s-0.59,1.4-0.92,2.17c-0.32,0.9-0.68,1.93-1.06,3.09c0,0.26-0.13,0.61-0.39,1.06
			s-0.42,0.74-0.48,0.87c-0.26,1.29-0.58,2.3-0.97,3.04c-0.39,0.74-0.61,1.11-0.68,1.11c-0.32,0-0.77-0.19-1.35-0.58
			c-0.58-0.39-1.16-0.82-1.74-1.3s-1.09-0.97-1.54-1.45c-0.45-0.48-0.68-0.82-0.68-1.01s-0.16-0.42-0.48-0.68s-0.48-0.55-0.48-0.87
			v-0.19c0,0.06-0.06,0.1-0.19,0.1l0.1-0.19c0-0.13-0.03-0.24-0.1-0.34c-0.06-0.1-0.1-0.21-0.1-0.34c0-0.39,0.13-0.92,0.39-1.59
			c0.26-0.68,0.53-1.38,0.82-2.12s0.56-1.45,0.82-2.12c0.26-0.68,0.39-1.24,0.39-1.69v0.1c0.13,0,0.27-0.32,0.43-0.97
			c0.16-0.64,0.37-1.38,0.63-2.22c0.26-0.9,0.55-1.96,0.87-3.19v0.1c0.77-1.93,1.4-3.52,1.88-4.78c0.48-1.25,0.92-2.45,1.3-3.57
			c0.39-1.13,0.58-1.82,0.58-2.08c0-0.9,0.19-1.59,0.58-2.08s0.58-0.79,0.58-0.92h-0.1c0.19-0.45,0.32-0.82,0.39-1.11
			c0.06-0.29,0.13-0.59,0.19-0.92l-0.1-0.19c0-0.45,0.11-0.74,0.34-0.87c0.23-0.13,0.4-0.32,0.53-0.58c0-0.06-0.03-0.11-0.1-0.14
			c-0.06-0.03-0.1-0.11-0.1-0.24c0-0.32,0.18-0.8,0.53-1.45c0.35-0.64,0.6-0.97,0.72-0.97c-0.06-0.06-0.1-0.19-0.1-0.39
			c0-0.13,0.05-0.37,0.14-0.72c0.1-0.35,0.37-0.92,0.82-1.69l-0.1-0.1c0.19-0.51,0.34-0.96,0.43-1.35c0.1-0.39,0.23-0.77,0.39-1.16
			c0.16-0.39,0.34-0.68,0.53-0.87l-0.1-0.1c0-0.13,0.1-0.43,0.29-0.92c0.19-0.48,0.45-1.08,0.77-1.79c0.32-0.71,0.69-1.46,1.11-2.27
			c0.42-0.8,0.85-1.59,1.3-2.37c0-0.06-0.02-0.13-0.05-0.19c-0.03-0.06-0.05-0.13-0.05-0.19c0.06-0.13,0.16-0.26,0.29-0.39
			c0.26-0.26,0.39-0.45,0.39-0.58l-0.1-0.19c0-0.32,0.19-0.68,0.58-1.06c0.39-0.39,0.58-0.64,0.58-0.77v-0.1v0.1v-0.29
			c0.06,0,0.1,0.02,0.1,0.05c0,0.03,0.03,0.05,0.1,0.05c0.06-0.19,0.16-0.39,0.29-0.58c0.13-0.13,0.23-0.27,0.29-0.43
			s0.16-0.24,0.29-0.24s0.53,0.1,1.21,0.29s1.42,0.48,2.22,0.87c0.8,0.39,1.56,0.89,2.27,1.5s1.13,1.37,1.26,2.27
			c0,0.19-0.19,0.69-0.58,1.5s-0.82,1.67-1.3,2.61c-0.48,0.93-1.14,2.14-1.98,3.62v0.18H361.02z M343.93,166.08
			c0.13-0.13,0.16-0.24,0.1-0.34c-0.06-0.1-0.03-0.21,0.1-0.34l-0.1-0.1c0.39-2.12,0.87-4.09,1.45-5.89s1.14-3.35,1.69-4.63
			c0.55-1.29,1-2.33,1.35-3.14c0.35-0.8,0.53-1.27,0.53-1.4l0.1,0.1c0.06-0.13,0.13-0.32,0.19-0.58c0.06-0.19,0.16-0.61,0.29-1.25
			c0.13-0.51,0.26-1.13,0.39-1.83c0.39-0.77,0.63-1.35,0.72-1.74c0.1-0.39,0.16-0.68,0.19-0.87s0.05-0.3,0.05-0.34
			c0-0.03,0.06-0.08,0.19-0.14c0-0.06-0.03-0.15-0.1-0.24c-0.06-0.1-0.1-0.18-0.1-0.24c0-0.13,0.03-0.16,0.1-0.1
			c0.06,0.07,0.1-0.06,0.1-0.39c0.19,0,0.35-0.19,0.48-0.58s0.24-0.82,0.34-1.3c0.1-0.48,0.21-0.92,0.34-1.3
			c0.13-0.39,0.29-0.58,0.48-0.58l-0.1-0.19c0.51-2.06,1.16-3.67,1.93-4.83c0.77-1.16,1.16-1.99,1.16-2.51
			c0-0.26,0.06-0.58,0.19-0.97c0.06-0.19,0.16-0.32,0.29-0.39c0-0.06-0.03-0.13-0.1-0.19l0.1-0.1l0.1,0.1c0-0.19,0.03-0.39,0.1-0.58
			c0.06-0.26,0.35-0.64,0.87-1.16l-0.19-0.29l0.1-0.1v-0.1l-0.1-0.19c0.06,0,0.1,0.02,0.1,0.05c0,0.03,0.03,0.05,0.1,0.05
			c0-0.39,0.1-0.58,0.29-0.58c0-0.06-0.02-0.11-0.05-0.15c-0.03-0.03-0.05-0.08-0.05-0.14c0-0.32,0.06-0.43,0.19-0.34
			c0.13,0.1,0.26-0.01,0.39-0.34l-0.1-0.19c0-0.13,0.1-0.34,0.29-0.63s0.29-0.63,0.29-1.01c0-0.06-0.03-0.1-0.1-0.1
			c-0.26,0.58-0.53,1.22-0.82,1.93s-0.58,1.37-0.87,1.98s-0.63,1.3-1.01,2.08c0,0.52-0.19,1.08-0.58,1.69s-0.58,0.89-0.58,0.82
			l0.1,0.19l-0.87,1.74c0,0.07,0.02,0.11,0.05,0.15c0.03,0.03,0.05,0.08,0.05,0.14c-0.13,0-0.23,0.1-0.29,0.29s-0.13,0.35-0.19,0.48
			c0,0.06,0.02,0.11,0.05,0.14c0.03,0.03,0.05,0.08,0.05,0.15c-0.13,0-0.23,0.03-0.29,0.1c-0.13,0.13-0.19,0.32-0.19,0.58l0.1,0.19
			c-0.19,0-0.29,0.03-0.29,0.1l0.1,0.1l-0.1,0.1l-0.1-0.1c0,0.32-0.08,0.79-0.24,1.4c-0.16,0.61-0.34,1.21-0.53,1.79
			c-0.19,0.58-0.4,1.1-0.63,1.54c-0.22,0.45-0.4,0.68-0.53,0.68v-0.1c-0.06,0.26-0.13,0.53-0.19,0.82s-0.1,0.47-0.1,0.53
			c0,0.06,0.03,0.13,0.1,0.19c-0.06,0.06-0.16,0.21-0.29,0.43c-0.13,0.23-0.19,0.31-0.19,0.24c0,0.06,0.03,0.13,0.1,0.19
			c-1.03,3.03-1.99,5.89-2.9,8.59c-0.9,2.7-1.7,5.07-2.41,7.1c-0.71,2.03-1.29,3.65-1.74,4.88c-0.45,1.22-0.71,1.83-0.77,1.83
			c0,0.06,0.03,0.13,0.1,0.19c0,0.13-0.05,0.35-0.15,0.68c-0.1,0.32-0.18,0.69-0.24,1.11s-0.13,0.82-0.19,1.21s-0.1,0.68-0.1,0.87
			c0,0.13,0.06,0.19,0.19,0.19c0-0.19,0.08-0.56,0.24-1.11s0.34-1.1,0.53-1.64c0.19-0.55,0.39-1.05,0.58-1.5
			C343.64,166.5,343.8,166.21,343.93,166.08z M360.73,138.08c0.97-1.09,1.59-1.95,1.88-2.56c0.29-0.61,0.76-1.08,1.4-1.4
			c0.13,0,0.29-0.11,0.48-0.34c0.19-0.23,0.4-0.48,0.63-0.77c0.22-0.29,0.45-0.56,0.68-0.82c0.22-0.26,0.43-0.39,0.63-0.39
			c0.39-0.13,0.77-0.35,1.16-0.68c0.39-0.32,0.72-0.64,1.01-0.96s0.66-0.74,1.11-1.26c0.77-0.45,1.26-0.72,1.45-0.82
			c0.19-0.1,0.32-0.15,0.39-0.15c-0.06,0-0.19-0.06-0.39-0.19c0.26,0,0.61-0.15,1.06-0.43c0.45-0.29,0.93-0.59,1.45-0.92
			c0.58-0.39,1.16-0.83,1.74-1.35c-0.84,0-1.51,0.21-2.03,0.63s-0.77,0.66-0.77,0.72c-0.06,0-0.11-0.01-0.15-0.05
			c-0.03-0.03-0.08-0.05-0.14-0.05c-0.9,0.96-1.61,1.63-2.12,1.98c-0.52,0.35-0.92,0.58-1.21,0.68s-0.47,0.16-0.53,0.19
			s-0.1,0.18-0.1,0.43c0,0.07,0.03,0.1,0.1,0.1c-0.58,0-1.37,0.5-2.37,1.5s-1.98,2.08-2.94,3.23c-0.97,1.16-1.82,2.24-2.56,3.24
			s-1.14,1.5-1.21,1.5c0,0.19-0.06,0.35-0.19,0.48s-0.19,0.26-0.19,0.39c0,0.19,0.1,0.29,0.29,0.29c0.13-0.39,0.32-0.76,0.58-1.11
			C360.11,138.83,360.4,138.46,360.73,138.08z M375.79,129.77c-0.19,0.26-0.42,0.47-0.68,0.63c-0.26,0.16-0.35,0.24-0.29,0.24
			c-1.1,0.58-1.82,0.98-2.17,1.21c-0.35,0.23-0.53,0.37-0.53,0.43h0.19l0.1-0.1l-0.1,0.1l0.29-0.1c-0.52,0-0.97,0.19-1.35,0.58
			c-0.39,0.39-0.58,0.64-0.58,0.77l0.1-0.1c0.06,0,0,0.1-0.19,0.29c-0.58,0.32-1.01,0.61-1.3,0.87s-0.48,0.48-0.58,0.68
			c-0.1,0.19-0.16,0.34-0.19,0.43c-0.03,0.1-0.14,0.14-0.34,0.14c-0.52,0-1.22,0.55-2.12,1.64c-0.9,1.1-1.82,2.3-2.75,3.62
			s-1.75,2.53-2.46,3.62c-0.71,1.1-1.1,1.64-1.16,1.64c0.45,0.84,0.82,1.51,1.11,2.03s0.59,1,0.92,1.45
			c0.32,0.45,0.55,0.68,0.68,0.68c0.64,0,1.13-0.11,1.45-0.34c0.32-0.22,0.64-0.5,0.97-0.82c0.06,0,0.13,0.03,0.19,0.1
			c0.19,0,0.29-0.13,0.29-0.39c0.19-0.19,0.53-0.56,1.01-1.11s0.79-0.82,0.92-0.82c1.03-0.64,1.83-1.48,2.41-2.51
			c0.58-1.03,1.06-2.01,1.45-2.94c0.39-0.93,0.74-1.74,1.06-2.41c0.32-0.68,0.74-1.01,1.26-1.01l-0.1-0.19
			c0.06-0.06,0.1-0.13,0.1-0.19s-0.06-0.16-0.19-0.29c0.26-0.19,0.56-0.55,0.92-1.06c0.35-0.51,0.53-0.8,0.53-0.87
			c-0.06-0.06-0.13-0.1-0.19-0.1c0.06-0.06,0.24-0.34,0.53-0.82s0.5-0.98,0.63-1.5l-0.19-0.1c0-0.06,0.13-0.16,0.39-0.29
			c-0.26-0.06-0.39-0.16-0.39-0.29c0-0.71,0.16-1.22,0.48-1.54c0.13-0.19,0.29-0.32,0.48-0.39h-0.19c0.13,0,0.19-0.03,0.19-0.1
			c0-0.13-0.03-0.26-0.1-0.39c-0.13-0.26-0.19-0.42-0.19-0.48C376.08,129.74,375.98,129.77,375.79,129.77z M367.58,151.01
			c0.19,0,0.5-0.22,0.92-0.68c0.42-0.45,0.76-0.77,1.01-0.97c1.03-1.16,1.77-2.08,2.22-2.75c0.45-0.68,0.77-1.19,0.97-1.54
			c0.19-0.35,0.29-0.61,0.29-0.77c0-0.16,0.1-0.34,0.29-0.53c0.97-1.48,1.64-2.74,2.03-3.77s0.55-1.61,0.48-1.74
			c-0.45,1.48-0.84,2.41-1.16,2.8c-0.32,0.39-0.52,0.58-0.58,0.58c-0.06,0-0.1-0.03-0.1-0.1c0,0.32-0.13,0.6-0.39,0.82
			c-0.26,0.23-0.39,0.4-0.39,0.53c0,0.06,0.02,0.1,0.05,0.1s0.05,0.07,0.05,0.19c0,0.13-0.1,0.32-0.29,0.58
			c-0.19,0.26-0.42,0.55-0.68,0.87s-0.55,0.68-0.87,1.06l0.1-0.1c-0.13,0.19-0.35,0.5-0.68,0.92c-0.32,0.42-0.68,0.84-1.06,1.25
			c-0.39,0.42-0.74,0.81-1.06,1.16c-0.32,0.36-0.52,0.53-0.58,0.53c-0.06,0-0.13-0.03-0.19-0.1c-0.26,0.19-0.42,0.43-0.48,0.72
			c-0.06,0.29-0.16,0.43-0.29,0.43c-0.06,0-0.1-0.03-0.1-0.1c-0.13,0.07-0.21,0.16-0.24,0.29s-0.11,0.19-0.24,0.19
			c-0.06,0-0.13-0.03-0.19-0.1l-0.77,0.68c0.32,0,0.66-0.05,1.01-0.15C367.02,151.26,367.32,151.14,367.58,151.01z"/>
		<path class="st1" d="M423.78,132.09l-0.1,0.1l0.1,0.1c-0.52,0.26-0.85,0.48-1.01,0.68c-0.16,0.19-0.27,0.4-0.34,0.63
			c-0.06,0.23-0.13,0.47-0.19,0.72c-0.06,0.26-0.26,0.55-0.58,0.87c-0.19,0.52-0.32,0.85-0.39,1.01c-0.06,0.16-0.15,0.29-0.24,0.39
			c-0.1,0.1-0.24,0.27-0.43,0.53c-0.19,0.26-0.48,0.77-0.87,1.54c-0.32,0.19-0.61,0.42-0.87,0.68c-0.19,0.26-0.37,0.55-0.53,0.87
			s-0.24,0.68-0.24,1.06c0,0.52-0.03,0.77-0.1,0.77c-0.06,0-0.18,0.03-0.34,0.1c-0.16,0.06-0.37,0.26-0.63,0.58
			s-0.58,1.03-0.97,2.12c-0.52,0.52-0.84,0.89-0.97,1.11c-0.13,0.23-0.19,0.4-0.19,0.53s0.02,0.24,0.05,0.34
			c0.03,0.1,0.05,0.21,0.05,0.34v-0.1c-0.06,0-0.23,0.24-0.48,0.72c-0.26,0.48-0.53,1.01-0.82,1.59c-0.29,0.58-0.6,1.11-0.92,1.59
			c-0.32,0.48-0.58,0.72-0.77,0.72c0,0.19-0.18,0.58-0.53,1.16c-0.35,0.58-0.79,1.16-1.3,1.74c-0.52,0.58-1.08,1.11-1.69,1.59
			c-0.61,0.48-1.14,0.72-1.59,0.72s-0.97-0.29-1.54-0.87c-0.58-0.58-1.19-1.19-1.83-1.83c-0.52-0.39-0.93-0.77-1.26-1.16
			c-0.32-0.32-0.6-0.64-0.82-0.97c-0.23-0.32-0.34-0.55-0.34-0.68c0-0.06,0.03-0.13,0.1-0.19c0.06,0,0.1,0.03,0.1,0.1
			c-0.19,0-0.35-0.1-0.48-0.29c-0.32-0.19-0.48-0.71-0.48-1.54l-0.1,0.1c-0.06-0.19-0.13-0.42-0.19-0.68
			c-0.06-0.19-0.11-0.42-0.15-0.68c-0.03-0.26-0.08-0.55-0.15-0.87c0-1.03,0.02-1.95,0.05-2.75s0.18-1.62,0.43-2.46
			c-0.06,0-0.43,0.27-1.11,0.82c-0.68,0.55-1.46,1.46-2.37,2.75h-0.1l0.1,0.1c0,0.13-0.27,0.45-0.82,0.97
			c-0.55,0.52-0.92,0.87-1.11,1.06c0,0.26-0.03,0.39-0.1,0.39l-0.19-0.1v0.29v-0.1c-0.06,0-0.16,0.13-0.29,0.39
			s-0.34,0.55-0.63,0.87s-0.66,0.61-1.11,0.87s-1,0.39-1.64,0.39c-0.9,0-1.64-0.34-2.22-1.01c-0.58-0.68-1.42-1.66-2.51-2.94
			c0,0.06-0.13-0.05-0.39-0.34c-0.26-0.29-0.35-0.43-0.29-0.43c0-0.19-0.06-0.26-0.19-0.19c-0.13,0.06-0.29,0.02-0.48-0.14
			c-0.19-0.16-0.35-0.51-0.48-1.06s-0.19-1.5-0.19-2.85c0-0.58,0.11-1.08,0.34-1.5s0.34-0.88,0.34-1.4l-0.1-0.1
			c0-0.39,0.23-0.84,0.68-1.35c0.45-0.51,0.68-1.09,0.68-1.74c0-0.06,0.02-0.18,0.05-0.34c0.03-0.16,0.11-0.24,0.24-0.24l-0.1-0.19
			l0.1-0.1l0.1,0.1c0.13,0,0.35-0.37,0.68-1.11c0.32-0.74,0.58-1.21,0.77-1.4c0-0.06-0.02-0.1-0.05-0.1s-0.05-0.03-0.05-0.1
			c0.06-0.19,0.19-0.42,0.39-0.68c0.13-0.26,0.34-0.53,0.63-0.82s0.69-0.69,1.21-1.21c0.39-0.39,0.84-0.79,1.35-1.21
			c0.51-0.42,1-0.8,1.45-1.16c0.45-0.35,0.84-0.66,1.16-0.92c0.32-0.26,0.48-0.42,0.48-0.48l0.19,0.1c0.13,0,0.16-0.03,0.1-0.1
			c-0.06-0.06,0.03-0.1,0.29-0.1l-0.1-0.1h0.29v-0.19c0.06,0,0.13,0.03,0.19,0.1l0.19-0.19l0.19-0.19c0.06,0,0.13,0.03,0.19,0.1
			c0.06,0,0.53-0.11,1.4-0.34c0.87-0.22,1.66-0.34,2.37-0.34c0.9,0,1.61,0.06,2.12,0.19s1.03,0.26,1.54,0.39v-0.1
			c0.06,0,0.29,0.14,0.68,0.43s0.8,0.43,1.26,0.43c0.06,0,0.13-0.03,0.19-0.1c0,0.26,0.13,0.39,0.39,0.39c0.06,0,0.13-0.03,0.19-0.1
			c0.13,0.13,0.3,0.24,0.53,0.34c0.22,0.1,0.4,0.21,0.53,0.34c0.32,0,0.63-0.27,0.92-0.82s0.66-0.82,1.11-0.82
			c0.06,0,0.29,0.06,0.68,0.19s0.82,0.29,1.3,0.48c0.48,0.19,0.95,0.42,1.4,0.68c0.45,0.26,0.74,0.48,0.87,0.68
			c0.32,0.19,0.71,0.39,1.16,0.58c0.45,0.19,0.68,0.55,0.68,1.06c0,0.19-0.11,0.47-0.34,0.82c-0.23,0.35-0.45,0.71-0.68,1.06
			c-0.23,0.35-0.45,0.69-0.68,1.01c-0.23,0.32-0.34,0.58-0.34,0.77c-0.32,0.52-0.61,0.98-0.87,1.4c-0.26,0.42-0.48,0.85-0.68,1.3
			c-0.19,0.45-0.29,0.81-0.29,1.06c0,0.06,0.03,0.13,0.1,0.19c-0.26,0-0.55,0.61-0.87,1.83v-0.1c0,0.13-0.13,0.53-0.39,1.21
			s-0.55,1.43-0.87,2.27c-0.39,0.97-0.81,2.03-1.26,3.19v0.29V145l-0.1,0.97c-0.06,0-0.1-0.03-0.1-0.1
			c-0.19,0.58-0.32,1.16-0.39,1.74c-0.06,0.58-0.19,1.13-0.39,1.64c0,0.06,0.03,0.1,0.1,0.1c0-0.06,0.1-0.18,0.29-0.34
			c0.19-0.16,0.32-0.27,0.39-0.34c0-0.06-0.03-0.13-0.1-0.19c0-0.06,0.06-0.13,0.19-0.19c0.13-0.06,0.23-0.13,0.29-0.19l-0.1-0.19
			c0-0.06,0.13-0.18,0.39-0.34c0.26-0.16,0.35-0.24,0.29-0.24c0-0.06-0.03-0.1-0.1-0.1c-0.06,0-0.1-0.03-0.1-0.1
			c0-0.13,0.1-0.32,0.29-0.58c0.19-0.26,0.61-0.71,1.26-1.35l-0.1-0.19l0.1-0.1h-0.1c0-0.13,0.26-0.35,0.77-0.68
			c0.51-0.32,0.77-0.77,0.77-1.35c0-0.26,0.05-0.39,0.15-0.39s0.21-0.06,0.34-0.19l-0.1-0.1c0-0.26,0.02-0.47,0.05-0.63
			c0.03-0.16,0.13-0.34,0.29-0.53s0.4-0.43,0.72-0.72s0.77-0.72,1.35-1.3l-0.1-0.19l0.1-0.1l0.1,0.1c0.19-0.45,0.39-0.77,0.58-0.97
			c0.19-0.19,0.51-0.5,0.97-0.92c0.45-0.42,1.05-1.05,1.79-1.88s1.69-2.09,2.85-3.77c0.13,0,0.3-0.22,0.53-0.68
			c0.22-0.45,0.79-0.68,1.69-0.68c0.13,0,0.32,0.1,0.58,0.29s0.39,0.35,0.39,0.48s-0.03,0.31-0.1,0.53
			C423.81,131.49,423.78,131.77,423.78,132.09z M391.63,131.8c1.03-1.03,2.01-1.92,2.94-2.66c0.93-0.74,1.85-1.56,2.75-2.46
			c-0.52,0-1,0.14-1.45,0.43s-1.13,0.79-2.03,1.5c-0.39,0.39-0.64,0.58-0.77,0.58c-0.06,0-0.1-0.02-0.1-0.05
			c0-0.03-0.03-0.05-0.1-0.05c-0.06,0-0.15,0.05-0.24,0.14s-0.26,0.31-0.48,0.63c-0.23,0.32-0.55,0.79-0.97,1.4
			c-0.42,0.61-0.95,1.43-1.59,2.46c-0.13,0-0.19,0.03-0.19,0.1l0.1,0.1c-0.26,0.26-0.42,0.45-0.48,0.58
			c-0.06,0.13-0.13,0.23-0.19,0.29c0,0.06,0.03,0.13,0.1,0.19c-0.06,0-0.1-0.03-0.1-0.1l-0.1,0.1c0,0.06,0.03,0.13,0.1,0.19h-0.19
			c0,0.32-0.03,0.43-0.1,0.34c-0.06-0.1-0.1-0.08-0.1,0.05l0.1,0.19c-0.06,0-0.1-0.03-0.1-0.1c-0.13,0-0.18,0.06-0.15,0.19
			s-0.02,0.23-0.15,0.29l0.1,0.19c-0.13,0-0.19,0.1-0.19,0.29c0,0.32-0.27,0.76-0.82,1.3c-0.55,0.55-0.82,1.66-0.82,3.33
			c0.32-0.45,0.58-0.84,0.77-1.16c0.19-0.32,0.37-0.71,0.53-1.16c0.16-0.45,0.24-0.87,0.24-1.26v0.1c-0.06,0-0.1-0.03-0.1-0.1
			c0-0.19,0.19-0.59,0.58-1.21c0.39-0.61,0.82-1.22,1.3-1.83c0.48-0.61,0.92-1.17,1.3-1.69c0.39-0.51,0.58-0.84,0.58-0.97v-0.16
			H391.63z M402.83,134.41c0-0.06,0.03-0.11,0.1-0.14c0.06-0.03,0.1-0.08,0.1-0.14s-0.03-0.13-0.1-0.19
			c-1.03,1.22-2.11,2.45-3.23,3.67c-1.13,1.22-2.21,2.25-3.23,3.09c-0.84,0.64-1.58,1.26-2.22,1.83c-0.52,0.52-1,1-1.45,1.45
			s-0.68,0.74-0.68,0.87l0.1,0.1c0.51-0.39,1-0.8,1.45-1.25s0.9-0.84,1.35-1.16c0.64-0.64,1.01-1.01,1.11-1.11s0.21-0.19,0.34-0.29
			s0.43-0.39,0.92-0.87c0.48-0.48,1.43-1.43,2.85-2.85l-0.1-0.19c0-0.19,0.15-0.4,0.43-0.63c0.29-0.22,0.59-0.47,0.92-0.72
			c0.32-0.26,0.63-0.51,0.92-0.77C402.68,134.83,402.83,134.6,402.83,134.41z M403.6,131.8c0.32-0.32,0.59-0.59,0.82-0.82
			c0.23-0.22,0.43-0.5,0.63-0.82c-0.77,0-1.35,0.06-1.74,0.19s-0.72,0.29-1.01,0.48s-0.53,0.35-0.72,0.48s-0.48,0.19-0.87,0.19
			c0.06,0-0.06,0.13-0.39,0.39c-0.32,0.26-0.68,0.55-1.06,0.87c-0.39,0.32-0.77,0.64-1.16,0.97c-0.39,0.32-0.61,0.55-0.68,0.68h0.19
			c0,0.07-0.18,0.18-0.53,0.34c-0.35,0.16-0.53,0.4-0.53,0.72l0.1,0.19c-0.58,0.58-0.97,1.03-1.16,1.35
			c-0.19,0.32-0.52,1.06-0.97,2.22c-0.13,0-0.42,0.31-0.87,0.92s-0.68,1.27-0.68,1.98c0,0.06,0.03,0.1,0.1,0.1
			c0.06,0,0.45-0.26,1.16-0.77c0.71-0.51,1.51-1.22,2.41-2.12l-0.1-0.19c0-0.06,0.21-0.26,0.63-0.58s0.66-0.51,0.72-0.58
			c0-0.06-0.03-0.13-0.1-0.19c0-0.06,0.03-0.1,0.1-0.1c0.77-0.97,1.71-1.93,2.8-2.9C401.8,133.83,402.76,132.83,403.6,131.8z
			 M403.79,138.46c0-0.06,0.03-0.13,0.1-0.19c0.06-0.06,0.1-0.16,0.1-0.29c0-0.06-0.03-0.13-0.1-0.19
			c-0.26,0.32-0.47,0.71-0.63,1.16c-0.16,0.45-0.24,0.77-0.24,0.96l0.1,0.1c0.13-0.32,0.27-0.61,0.43-0.87
			S403.79,138.66,403.79,138.46z M422.33,131.32c0-0.06-0.03-0.1-0.1-0.1c-0.13,0-0.27,0.08-0.43,0.24s-0.31,0.31-0.43,0.43
			c-0.64,0.45-1.08,0.77-1.3,0.97c-0.23,0.19-0.4,0.4-0.53,0.63s-0.27,0.48-0.43,0.77c-0.16,0.29-0.53,0.76-1.11,1.4v0.1
			c0,0.06,0.03,0.13,0.1,0.19c0,0.19-0.15,0.53-0.43,1.01c-0.29,0.48-0.89,1.17-1.79,2.08c0,0.13-0.15,0.34-0.43,0.63
			c-0.29,0.29-0.43,0.5-0.43,0.63l0.1,0.1l-0.1,0.1c-0.06,0-0.1-0.03-0.1-0.1l-0.77,0.97c-0.19,0.26-0.37,0.5-0.53,0.72
			c-0.16,0.23-0.24,0.4-0.24,0.53l0.1,0.19c-0.13,0-0.37,0.16-0.72,0.48s-0.76,1.16-1.21,2.51l-0.39,0.39l0.1,0.19
			c0-0.06-0.03-0.1-0.1-0.1c-0.06,0-0.18,0.18-0.34,0.53c-0.16,0.35-0.4,0.69-0.72,1.01c0,0.26-0.14,0.6-0.43,1.01
			c-0.29,0.42-0.63,0.84-1.01,1.25c-0.39,0.42-0.72,0.82-1.01,1.21s-0.43,0.64-0.43,0.77c0,0.19,0.03,0.29,0.1,0.29
			c0.26-0.06,0.51-0.23,0.77-0.48c0.26-0.26,0.58-0.64,0.97-1.16c0.39-0.51,0.84-1.29,1.35-2.32h-0.1c0.06-0.32,0.19-0.61,0.39-0.87
			c0.13-0.19,0.27-0.39,0.43-0.58s0.3-0.29,0.43-0.29c0-0.06-0.03-0.13-0.1-0.19c-0.13-0.06,0.32-0.84,1.35-2.32
			s2.38-3.44,4.06-5.89c0.19-0.19,0.43-0.47,0.72-0.82c0.29-0.35,0.58-0.72,0.87-1.11s0.55-0.77,0.77-1.16
			c0.23-0.39,0.34-0.68,0.34-0.87c0,0.07,0.24-0.19,0.72-0.77C420.74,132.96,421.43,132.22,422.33,131.32z"/>
		<path class="st1" d="M441.06,120.79c0.13,0.26,0.19,0.42,0.19,0.48c0,0.32-0.03,0.66-0.1,1.01c-0.06,0.35-0.16,0.69-0.29,1.01
			c-0.39,0.39-0.89,1.01-1.5,1.88s-1.21,1.82-1.79,2.85c-0.58,1.03-1.1,2.11-1.54,3.24c-0.45,1.13-0.68,2.14-0.68,3.04
			c0,0.32,0.03,0.48,0.1,0.48c-0.19,0-0.64-0.11-1.35-0.34c-0.71-0.22-1.13-0.63-1.26-1.21c-0.26,0-0.45-0.27-0.58-0.82
			s-0.23-1.12-0.29-1.74c-0.06-0.61-0.11-1.19-0.15-1.74c-0.03-0.55-0.05-0.85-0.05-0.92c0.06-0.13,0.1-0.27,0.1-0.43
			s0.03-0.3,0.1-0.43c-0.06,0-0.29,0.23-0.68,0.68s-0.82,0.95-1.3,1.5c-0.48,0.55-0.95,1.03-1.4,1.45
			c-0.45,0.42-0.77,0.63-0.97,0.63c-0.26,0-0.5,0.21-0.72,0.63c-0.23,0.42-0.43,0.9-0.63,1.45c-0.19,0.55-0.34,1.06-0.43,1.54
			c-0.1,0.48-0.15,0.79-0.15,0.92c0,0.58,0.08,1.05,0.24,1.4c0.16,0.35,0.35,0.69,0.58,1.01c0.22,0.32,0.47,0.68,0.72,1.06
			c0.26,0.39,0.48,0.9,0.68,1.54c0.13,0.13,0.21,0.27,0.24,0.43s0.11,0.31,0.24,0.43c0.19,0.9,0.5,1.82,0.92,2.75
			s0.82,1.92,1.21,2.95s0.72,2.12,1.01,3.28c0.29,1.16,0.43,2.35,0.43,3.57c0,0.9-0.1,1.77-0.29,2.61
			c-0.19,0.84-0.56,1.58-1.11,2.22c-0.55,0.64-1.27,1.16-2.17,1.54c-0.9,0.39-2.03,0.58-3.38,0.58c-0.45,0-0.89-0.03-1.3-0.1
			c-0.42-0.06-0.89-0.1-1.4-0.1c-0.13,0-0.24,0.02-0.34,0.05c-0.1,0.03-0.21,0.05-0.34,0.05c-1.1-0.13-2.01-0.35-2.75-0.68
			c-0.74-0.32-1.35-0.66-1.83-1.01c-0.48-0.35-0.92-0.82-1.3-1.4c-0.13-0.13-0.4-0.43-0.82-0.92c-0.42-0.48-0.63-0.79-0.63-0.92
			l0.1-0.1l0.1-0.1c-0.58-0.64-0.95-1.08-1.11-1.3s-0.24-0.4-0.24-0.53c0-0.06,0.03-0.11,0.1-0.14c0.06-0.03,0.1-0.08,0.1-0.14
			s-0.05-0.21-0.15-0.43c-0.1-0.23-0.21-0.48-0.34-0.77c-0.13-0.29-0.24-0.56-0.34-0.82s-0.15-0.42-0.15-0.48
			c0.06-0.32,0.32-0.69,0.77-1.11c0.45-0.42,0.93-0.82,1.45-1.21c0.52-0.39,1.22-0.84,2.12-1.35c0.32-0.26,0.79-0.55,1.4-0.87
			s1.14-0.58,1.59-0.77c-0.45,1.1-0.82,2.24-1.11,3.43s-0.43,2.37-0.43,3.52c0,0.52,0.13,0.77,0.39,0.77c0.13,0,0.23-0.03,0.29-0.1
			c0.71,0.13,1.34,0.19,1.88,0.19c0.55,0,1.01,0,1.4,0c0.64,0,1.09-0.03,1.35-0.1c0.26-0.06,0.42-0.13,0.48-0.19
			c0.06-0.06,0.11-0.13,0.15-0.19c0.03-0.06,0.11-0.1,0.24-0.1l-0.1-0.1v0.1c0.19,0,0.61-0.3,1.25-0.92c0.64-0.61,1-1.17,1.06-1.69
			l-0.1-0.1c-0.06,0-0.1-0.03-0.1-0.1h0.19c0-0.97-0.1-1.8-0.29-2.51c-0.19-0.71-0.4-1.33-0.63-1.88s-0.43-1.06-0.63-1.54
			c-0.19-0.48-0.29-1.05-0.29-1.69c-0.26-0.45-0.43-0.82-0.53-1.11s-0.21-0.5-0.34-0.63c-0.13-0.19-0.23-0.29-0.29-0.29l0.1,0.1
			v-0.1l0.1-0.19c0-0.19-0.15-0.43-0.43-0.72c-0.29-0.29-0.43-0.56-0.43-0.82c0-0.06,0.03-0.13,0.1-0.19h-0.19v-0.1l0.1-0.19
			c-0.52-0.97-0.93-1.77-1.26-2.41c-0.32-0.64-0.61-1.27-0.87-1.88s-0.42-0.98-0.48-1.11h0.1c-0.06-0.06-0.18-0.4-0.34-1.01
			c-0.16-0.61-0.24-1.27-0.24-1.98c0-1.09,0.16-1.88,0.48-2.37c0.32-0.48,0.55-0.76,0.68-0.82c0-0.06-0.06-0.1-0.19-0.1
			c0.45-1.16,0.93-2.03,1.45-2.61c0.51-0.58,1-1.03,1.45-1.35c0.45-0.32,0.82-0.53,1.11-0.63s0.43-0.24,0.43-0.43l0.1,0.1
			c0,0.06,0.03,0.1,0.1,0.1c0.06,0,0.1-0.16,0.1-0.48c0.06,0,0.1,0.02,0.1,0.05c0,0.03,0.03,0.05,0.1,0.05
			c0.71-0.45,1.29-0.82,1.74-1.11s1.03-0.72,1.74-1.3l0.19,0.19c0.06,0,0.11-0.05,0.14-0.14c0.03-0.1,0.08-0.18,0.15-0.24
			c0.84-0.51,1.56-0.87,2.17-1.06s1.27-0.29,1.98-0.29c0.39,0,0.98,0.03,1.79,0.1c0.8,0.06,1.61,0.19,2.41,0.39
			c0.8,0.19,1.51,0.48,2.12,0.87C440.76,119.63,441.06,120.15,441.06,120.79z M415.96,150.34c0.19-0.13,0.4-0.3,0.63-0.53
			c0.23-0.22,0.47-0.43,0.72-0.63l0.77-0.77c-0.13,0-0.35,0.11-0.68,0.34c-0.32,0.23-0.66,0.47-1.01,0.72
			c-0.35,0.26-0.66,0.5-0.92,0.72c-0.26,0.23-0.39,0.37-0.39,0.43l0.1,0.19c-0.51,0.39-0.77,0.71-0.77,0.96
			c0,0.13,0.03,0.19,0.1,0.19c0.19-0.32,0.43-0.61,0.72-0.87C415.52,150.86,415.77,150.6,415.96,150.34z M428.22,122.82
			c0.77-0.58,1.4-1.03,1.88-1.35c0.48-0.32,0.85-0.58,1.11-0.77c0.26-0.26,0.48-0.42,0.68-0.48c-0.06,0-0.1,0.03-0.1,0.1
			c-0.06,0-0.1-0.03-0.1-0.1c-0.13,0.13-0.31,0.23-0.53,0.29c-0.23,0.06-0.79,0.35-1.69,0.87c-0.13,0.13-0.18,0.21-0.14,0.24
			c0.03,0.03-0.02,0.05-0.15,0.05c-0.39,0-0.87,0.24-1.45,0.72s-1.16,1.01-1.74,1.59s-1.32,1.35-2.22,2.32l-0.1,0.1
			c0,0.07,0.02,0.11,0.05,0.15c0.03,0.03,0.05,0.08,0.05,0.14c-0.13,0.13-0.31,0.27-0.53,0.43c-0.23,0.16-0.34,0.31-0.34,0.43
			c0,0.06,0.02,0.1,0.05,0.1s0.05,0.03,0.05,0.1c0,0.06-0.03,0.13-0.1,0.19v0.1C424.52,125.97,426.29,124.24,428.22,122.82z
			 M426.97,154.3c0-0.13-0.03-0.22-0.1-0.29l-1.45,0.96c0.06,0.07,0.11,0.1,0.14,0.1s0.08,0.03,0.15,0.1c0.32,0,0.61-0.06,0.87-0.19
			C426.84,154.85,426.97,154.62,426.97,154.3z M433.15,128.81c0.06,0.19,0.11,0.34,0.15,0.43c0.03,0.1,0.05,0.21,0.05,0.34v0.19
			c0.06,0,0.13-0.4,0.19-1.21c0.06-0.8,0.39-1.88,0.97-3.23c-0.71,0.52-1.13,1.09-1.26,1.74c-0.13,0.64-0.19,1.13-0.19,1.45v0.29
			H433.15z"/>
		<path class="st1" d="M476.5,132.09l-0.1,0.1l0.1,0.1c-0.52,0.26-0.85,0.48-1.01,0.68c-0.16,0.19-0.27,0.4-0.34,0.63
			c-0.06,0.23-0.13,0.47-0.19,0.72c-0.06,0.26-0.26,0.55-0.58,0.87c-0.19,0.52-0.32,0.85-0.39,1.01c-0.06,0.16-0.15,0.29-0.24,0.39
			c-0.1,0.1-0.24,0.27-0.43,0.53c-0.19,0.26-0.48,0.77-0.87,1.54c-0.32,0.19-0.61,0.42-0.87,0.68c-0.19,0.26-0.37,0.55-0.53,0.87
			s-0.24,0.68-0.24,1.06c0,0.52-0.03,0.77-0.1,0.77c-0.06,0-0.18,0.03-0.34,0.1c-0.16,0.06-0.37,0.26-0.63,0.58
			s-0.58,1.03-0.97,2.12c-0.52,0.52-0.84,0.89-0.97,1.11c-0.13,0.23-0.19,0.4-0.19,0.53s0.02,0.24,0.05,0.34
			c0.03,0.1,0.05,0.21,0.05,0.34v-0.1c-0.06,0-0.23,0.24-0.48,0.72c-0.26,0.48-0.53,1.01-0.82,1.59c-0.29,0.58-0.6,1.11-0.92,1.59
			c-0.32,0.48-0.58,0.72-0.77,0.72c0,0.19-0.18,0.58-0.53,1.16c-0.35,0.58-0.79,1.16-1.3,1.74c-0.52,0.58-1.08,1.11-1.69,1.59
			c-0.61,0.48-1.14,0.72-1.59,0.72s-0.97-0.29-1.54-0.87c-0.58-0.58-1.19-1.19-1.83-1.83c-0.52-0.39-0.93-0.77-1.26-1.16
			c-0.32-0.32-0.6-0.64-0.82-0.97c-0.23-0.32-0.34-0.55-0.34-0.68c0-0.06,0.03-0.13,0.1-0.19c0.06,0,0.1,0.03,0.1,0.1
			c-0.19,0-0.35-0.1-0.48-0.29c-0.32-0.19-0.48-0.71-0.48-1.54l-0.1,0.1c-0.06-0.19-0.13-0.42-0.19-0.68
			c-0.06-0.19-0.11-0.42-0.15-0.68c-0.03-0.26-0.08-0.55-0.15-0.87c0-1.03,0.02-1.95,0.05-2.75s0.18-1.62,0.43-2.46
			c-0.06,0-0.43,0.27-1.11,0.82c-0.68,0.55-1.46,1.46-2.37,2.75h-0.1l0.1,0.1c0,0.13-0.27,0.45-0.82,0.97
			c-0.55,0.52-0.92,0.87-1.11,1.06c0,0.26-0.03,0.39-0.1,0.39l-0.19-0.1v0.29v-0.1c-0.06,0-0.16,0.13-0.29,0.39
			s-0.34,0.55-0.63,0.87s-0.66,0.61-1.11,0.87s-1,0.39-1.64,0.39c-0.9,0-1.64-0.34-2.22-1.01c-0.58-0.68-1.42-1.66-2.51-2.94
			c0,0.06-0.13-0.05-0.39-0.34c-0.26-0.29-0.35-0.43-0.29-0.43c0-0.19-0.06-0.26-0.19-0.19c-0.13,0.06-0.29,0.02-0.48-0.14
			c-0.19-0.16-0.35-0.51-0.48-1.06s-0.19-1.5-0.19-2.85c0-0.58,0.11-1.08,0.34-1.5s0.34-0.88,0.34-1.4l-0.1-0.1
			c0-0.39,0.23-0.84,0.68-1.35c0.45-0.51,0.68-1.09,0.68-1.74c0-0.06,0.02-0.18,0.05-0.34c0.03-0.16,0.11-0.24,0.24-0.24l-0.1-0.19
			l0.1-0.1l0.1,0.1c0.13,0,0.35-0.37,0.68-1.11c0.32-0.74,0.58-1.21,0.77-1.4c0-0.06-0.02-0.1-0.05-0.1s-0.05-0.03-0.05-0.1
			c0.06-0.19,0.19-0.42,0.39-0.68c0.13-0.26,0.34-0.53,0.63-0.82s0.69-0.69,1.21-1.21c0.39-0.39,0.84-0.79,1.35-1.21
			c0.51-0.42,1-0.8,1.45-1.16c0.45-0.35,0.84-0.66,1.16-0.92c0.32-0.26,0.48-0.42,0.48-0.48l0.19,0.1c0.13,0,0.16-0.03,0.1-0.1
			c-0.06-0.06,0.03-0.1,0.29-0.1l-0.1-0.1h0.29v-0.19c0.06,0,0.13,0.03,0.19,0.1l0.19-0.19l0.19-0.19c0.06,0,0.13,0.03,0.19,0.1
			c0.06,0,0.53-0.11,1.4-0.34c0.87-0.22,1.66-0.34,2.37-0.34c0.9,0,1.61,0.06,2.12,0.19s1.03,0.26,1.54,0.39v-0.1
			c0.06,0,0.29,0.14,0.68,0.43s0.8,0.43,1.26,0.43c0.06,0,0.13-0.03,0.19-0.1c0,0.26,0.13,0.39,0.39,0.39c0.06,0,0.13-0.03,0.19-0.1
			c0.13,0.13,0.3,0.24,0.53,0.34c0.22,0.1,0.4,0.21,0.53,0.34c0.32,0,0.63-0.27,0.92-0.82s0.66-0.82,1.11-0.82
			c0.06,0,0.29,0.06,0.68,0.19s0.82,0.29,1.3,0.48c0.48,0.19,0.95,0.42,1.4,0.68c0.45,0.26,0.74,0.48,0.87,0.68
			c0.32,0.19,0.71,0.39,1.16,0.58c0.45,0.19,0.68,0.55,0.68,1.06c0,0.19-0.11,0.47-0.34,0.82c-0.23,0.35-0.45,0.71-0.68,1.06
			c-0.23,0.35-0.45,0.69-0.68,1.01c-0.23,0.32-0.34,0.58-0.34,0.77c-0.32,0.52-0.61,0.98-0.87,1.4c-0.26,0.42-0.48,0.85-0.68,1.3
			c-0.19,0.45-0.29,0.81-0.29,1.06c0,0.06,0.03,0.13,0.1,0.19c-0.26,0-0.55,0.61-0.87,1.83v-0.1c0,0.13-0.13,0.53-0.39,1.21
			s-0.55,1.43-0.87,2.27c-0.39,0.97-0.81,2.03-1.26,3.19v0.29V145l-0.1,0.97c-0.06,0-0.1-0.03-0.1-0.1
			c-0.19,0.58-0.32,1.16-0.39,1.74c-0.06,0.58-0.19,1.13-0.39,1.64c0,0.06,0.03,0.1,0.1,0.1c0-0.06,0.1-0.18,0.29-0.34
			c0.19-0.16,0.32-0.27,0.39-0.34c0-0.06-0.03-0.13-0.1-0.19c0-0.06,0.06-0.13,0.19-0.19c0.13-0.06,0.23-0.13,0.29-0.19l-0.1-0.19
			c0-0.06,0.13-0.18,0.39-0.34c0.26-0.16,0.35-0.24,0.29-0.24c0-0.06-0.03-0.1-0.1-0.1c-0.06,0-0.1-0.03-0.1-0.1
			c0-0.13,0.1-0.32,0.29-0.58c0.19-0.26,0.61-0.71,1.26-1.35l-0.1-0.19l0.1-0.1h-0.1c0-0.13,0.26-0.35,0.77-0.68
			c0.51-0.32,0.77-0.77,0.77-1.35c0-0.26,0.05-0.39,0.15-0.39s0.21-0.06,0.34-0.19l-0.1-0.1c0-0.26,0.02-0.47,0.05-0.63
			c0.03-0.16,0.13-0.34,0.29-0.53s0.4-0.43,0.72-0.72s0.77-0.72,1.35-1.3l-0.1-0.19l0.1-0.1l0.1,0.1c0.19-0.45,0.39-0.77,0.58-0.97
			c0.19-0.19,0.51-0.5,0.97-0.92c0.45-0.42,1.05-1.05,1.79-1.88s1.69-2.09,2.85-3.77c0.13,0,0.3-0.22,0.53-0.68
			c0.22-0.45,0.79-0.68,1.69-0.68c0.13,0,0.32,0.1,0.58,0.29s0.39,0.35,0.39,0.48s-0.03,0.31-0.1,0.53
			C476.53,131.49,476.5,131.77,476.5,132.09z M444.35,131.8c1.03-1.03,2.01-1.92,2.94-2.66c0.93-0.74,1.85-1.56,2.75-2.46
			c-0.52,0-1,0.14-1.45,0.43s-1.13,0.79-2.03,1.5c-0.39,0.39-0.64,0.58-0.77,0.58c-0.06,0-0.1-0.02-0.1-0.05
			c0-0.03-0.03-0.05-0.1-0.05c-0.06,0-0.15,0.05-0.24,0.14s-0.26,0.31-0.48,0.63c-0.23,0.32-0.55,0.79-0.97,1.4
			c-0.42,0.61-0.95,1.43-1.59,2.46c-0.13,0-0.19,0.03-0.19,0.1l0.1,0.1c-0.26,0.26-0.42,0.45-0.48,0.58
			c-0.06,0.13-0.13,0.23-0.19,0.29c0,0.06,0.03,0.13,0.1,0.19c-0.06,0-0.1-0.03-0.1-0.1l-0.1,0.1c0,0.06,0.03,0.13,0.1,0.19h-0.19
			c0,0.32-0.03,0.43-0.1,0.34c-0.06-0.1-0.1-0.08-0.1,0.05l0.1,0.19c-0.06,0-0.1-0.03-0.1-0.1c-0.13,0-0.18,0.06-0.15,0.19
			s-0.02,0.23-0.15,0.29l0.1,0.19c-0.13,0-0.19,0.1-0.19,0.29c0,0.32-0.27,0.76-0.82,1.3c-0.55,0.55-0.82,1.66-0.82,3.33
			c0.32-0.45,0.58-0.84,0.77-1.16c0.19-0.32,0.37-0.71,0.53-1.16c0.16-0.45,0.24-0.87,0.24-1.26v0.1c-0.06,0-0.1-0.03-0.1-0.1
			c0-0.19,0.19-0.59,0.58-1.21c0.39-0.61,0.82-1.22,1.3-1.83c0.48-0.61,0.92-1.17,1.3-1.69c0.39-0.51,0.58-0.84,0.58-0.97v-0.16
			H444.35z M455.55,134.41c0-0.06,0.03-0.11,0.1-0.14c0.06-0.03,0.1-0.08,0.1-0.14s-0.03-0.13-0.1-0.19
			c-1.03,1.22-2.11,2.45-3.23,3.67c-1.13,1.22-2.21,2.25-3.23,3.09c-0.84,0.64-1.58,1.26-2.22,1.83c-0.52,0.52-1,1-1.45,1.45
			s-0.68,0.74-0.68,0.87l0.1,0.1c0.51-0.39,1-0.8,1.45-1.25s0.9-0.84,1.35-1.16c0.64-0.64,1.01-1.01,1.11-1.11s0.21-0.19,0.34-0.29
			s0.43-0.39,0.92-0.87c0.48-0.48,1.43-1.43,2.85-2.85l-0.1-0.19c0-0.19,0.15-0.4,0.43-0.63c0.29-0.22,0.59-0.47,0.92-0.72
			c0.32-0.26,0.63-0.51,0.92-0.77C455.4,134.83,455.55,134.6,455.55,134.41z M456.32,131.8c0.32-0.32,0.59-0.59,0.82-0.82
			c0.23-0.22,0.43-0.5,0.63-0.82c-0.77,0-1.35,0.06-1.74,0.19s-0.72,0.29-1.01,0.48s-0.53,0.35-0.72,0.48s-0.48,0.19-0.87,0.19
			c0.06,0-0.06,0.13-0.39,0.39c-0.32,0.26-0.68,0.55-1.06,0.87c-0.39,0.32-0.77,0.64-1.16,0.97c-0.39,0.32-0.61,0.55-0.68,0.68h0.19
			c0,0.07-0.18,0.18-0.53,0.34c-0.35,0.16-0.53,0.4-0.53,0.72l0.1,0.19c-0.58,0.58-0.97,1.03-1.16,1.35
			c-0.19,0.32-0.52,1.06-0.97,2.22c-0.13,0-0.42,0.31-0.87,0.92s-0.68,1.27-0.68,1.98c0,0.06,0.03,0.1,0.1,0.1
			c0.06,0,0.45-0.26,1.16-0.77c0.71-0.51,1.51-1.22,2.41-2.12l-0.1-0.19c0-0.06,0.21-0.26,0.63-0.58s0.66-0.51,0.72-0.58
			c0-0.06-0.03-0.13-0.1-0.19c0-0.06,0.03-0.1,0.1-0.1c0.77-0.97,1.71-1.93,2.8-2.9C454.52,133.83,455.48,132.83,456.32,131.8z
			 M456.51,138.46c0-0.06,0.03-0.13,0.1-0.19c0.06-0.06,0.1-0.16,0.1-0.29c0-0.06-0.03-0.13-0.1-0.19
			c-0.26,0.32-0.47,0.71-0.63,1.16c-0.16,0.45-0.24,0.77-0.24,0.96l0.1,0.1c0.13-0.32,0.27-0.61,0.43-0.87
			S456.51,138.66,456.51,138.46z M475.05,131.32c0-0.06-0.03-0.1-0.1-0.1c-0.13,0-0.27,0.08-0.43,0.24s-0.31,0.31-0.43,0.43
			c-0.64,0.45-1.08,0.77-1.3,0.97c-0.23,0.19-0.4,0.4-0.53,0.63s-0.27,0.48-0.43,0.77c-0.16,0.29-0.53,0.76-1.11,1.4v0.1
			c0,0.06,0.03,0.13,0.1,0.19c0,0.19-0.15,0.53-0.43,1.01c-0.29,0.48-0.89,1.17-1.79,2.08c0,0.13-0.15,0.34-0.43,0.63
			c-0.29,0.29-0.43,0.5-0.43,0.63l0.1,0.1l-0.1,0.1c-0.06,0-0.1-0.03-0.1-0.1l-0.77,0.97c-0.19,0.26-0.37,0.5-0.53,0.72
			c-0.16,0.23-0.24,0.4-0.24,0.53l0.1,0.19c-0.13,0-0.37,0.16-0.72,0.48s-0.76,1.16-1.21,2.51l-0.39,0.39l0.1,0.19
			c0-0.06-0.03-0.1-0.1-0.1c-0.06,0-0.18,0.18-0.34,0.53c-0.16,0.35-0.4,0.69-0.72,1.01c0,0.26-0.14,0.6-0.43,1.01
			c-0.29,0.42-0.63,0.84-1.01,1.25c-0.39,0.42-0.72,0.82-1.01,1.21s-0.43,0.64-0.43,0.77c0,0.19,0.03,0.29,0.1,0.29
			c0.26-0.06,0.51-0.23,0.77-0.48c0.26-0.26,0.58-0.64,0.97-1.16c0.39-0.51,0.84-1.29,1.35-2.32h-0.1c0.06-0.32,0.19-0.61,0.39-0.87
			c0.13-0.19,0.27-0.39,0.43-0.58s0.3-0.29,0.43-0.29c0-0.06-0.03-0.13-0.1-0.19c-0.13-0.06,0.32-0.84,1.35-2.32
			s2.38-3.44,4.06-5.89c0.19-0.19,0.43-0.47,0.72-0.82c0.29-0.35,0.58-0.72,0.87-1.11s0.55-0.77,0.77-1.16
			c0.23-0.39,0.34-0.68,0.34-0.87c0,0.07,0.24-0.19,0.72-0.77C473.46,132.96,474.15,132.22,475.05,131.32z"/>
		<path class="st1" d="M513.77,93.46c0.26,0.26,0.66,0.5,1.21,0.72c0.55,0.23,1.11,0.47,1.69,0.72c0.58,0.26,1.06,0.55,1.45,0.87
			c0.39,0.32,0.55,0.68,0.48,1.06c-0.52,0.52-1.32,1.59-2.41,3.23c-1.1,1.64-2.22,3.3-3.38,4.97c-1.35,2.06-2.8,4.25-4.35,6.57
			c0.06,0.06,0.02,0.23-0.14,0.48c-0.16,0.26-0.34,0.53-0.53,0.82c-0.19,0.29-0.48,0.69-0.87,1.21c0,0.06,0.03,0.13,0.1,0.19
			c-0.84,1.03-1.35,1.77-1.54,2.22c-0.19,0.45-0.29,0.74-0.29,0.87c0.13,0.13,0.21,0.18,0.24,0.14c0.03-0.03,0.08,0.02,0.14,0.14
			c-0.19,0-0.37,0.15-0.53,0.43c-0.16,0.29-0.31,0.6-0.43,0.92c-0.13,0.32-0.26,0.74-0.39,1.25l-0.1-0.19
			c0.06-0.06-0.02,0.19-0.24,0.77c-0.23,0.58-0.5,1.21-0.82,1.88c-0.32,0.68-0.64,1.3-0.97,1.88c-0.32,0.58-0.52,0.87-0.58,0.87
			v-0.1c0,0.13,0.1,0.23,0.29,0.29c-0.19,0-0.42,0.32-0.68,0.97c-0.26,0.64-0.42,0.97-0.48,0.97c0,0.13,0.02,0.21,0.05,0.24
			c0.03,0.03,0.05,0.11,0.05,0.24c-0.26,0.45-0.48,0.84-0.68,1.16c-0.13,0.32-0.26,0.61-0.39,0.87s-0.19,0.42-0.19,0.48l0.1-0.19
			c0,0.07,0.03,0.13,0.1,0.19c-0.19,0.13-0.4,0.52-0.63,1.16c-0.23,0.64-0.45,1.34-0.68,2.08c-0.23,0.74-0.4,1.42-0.53,2.03
			c-0.13,0.61-0.16,0.92-0.1,0.92c-0.19,0.9-0.34,1.61-0.43,2.12c-0.1,0.52-0.23,0.98-0.39,1.4c-0.16,0.42-0.27,0.63-0.34,0.63
			l0.1-0.19c-0.26,1.29-0.4,2.08-0.43,2.37s-0.06,0.45-0.1,0.48c-0.03,0.03-0.06,0.16-0.1,0.39c-0.03,0.23-0.18,0.95-0.43,2.17
			c-0.06,0.58-0.15,1.13-0.24,1.64c-0.1,0.52-0.14,1-0.14,1.45c0,0.06,0.03,0.1,0.1,0.1l0.1,0.1c-0.26,0.26-0.35,0.56-0.29,0.92
			c0.06,0.35,0.1,0.69,0.1,1.01c0.06,0.71,0.29,0.92,0.68,0.63s0.79-0.76,1.21-1.4c0.42-0.64,0.82-1.3,1.21-1.98
			s0.68-1.05,0.87-1.11c1.09-1.09,1.64-1.9,1.64-2.41c0-0.51,0.03-0.8,0.1-0.87c0.9-1.09,1.43-1.95,1.59-2.56
			c0.16-0.61,0.27-0.98,0.34-1.11c0.51-1.22,0.9-2.09,1.16-2.61c0.26-0.51,0.43-0.87,0.53-1.06s0.15-0.27,0.15-0.24
			s0.03-0.01,0.1-0.14c0.06-0.06,0.37-0.58,0.92-1.54c0.55-0.97,1.27-2,2.17-3.09c0.13-0.39,0.35-0.9,0.68-1.54
			c0.32-0.64,0.61-0.96,0.87-0.96h-0.1c0.26,0.06,0.51,0.13,0.77,0.19c0.39,0.07,0.9,0.32,1.54,0.77c0,0.52-0.26,1.18-0.77,1.98
			c-0.52,0.81-0.77,1.37-0.77,1.69c-0.77,1.22-1.43,2.22-1.98,2.99c-0.55,0.77-0.79,1.29-0.72,1.54c0,0.26-0.18,0.63-0.53,1.11
			s-0.53,0.79-0.53,0.92h0.19c-0.39,0.45-0.74,1.01-1.06,1.69c-0.32,0.68-0.6,1.32-0.82,1.93c-0.23,0.61-0.4,1.13-0.53,1.55
			s-0.19,0.6-0.19,0.53c0,0.13-0.08,0.37-0.24,0.72s-0.34,0.74-0.53,1.16c-0.19,0.42-0.37,0.81-0.53,1.16s-0.24,0.56-0.24,0.63
			c-0.45,0.58-0.74,1.03-0.87,1.35c-0.13,0.32-0.19,0.55-0.19,0.68l0.19,0.39c0,0.06-0.1,0.31-0.29,0.72
			c-0.19,0.42-0.42,0.89-0.68,1.4c-0.26,0.52-0.48,1-0.68,1.45c-0.19,0.45-0.29,0.71-0.29,0.77c0,0.45-0.19,0.81-0.58,1.06
			c-0.19,0.13-0.39,0.19-0.58,0.19h0.19h-0.19c-0.06,0-0.26,0.13-0.58,0.39s-0.74,0.39-1.26,0.39c-0.58,0-1.06-0.16-1.45-0.48
			c-0.39-0.32-0.71-0.58-0.97-0.77l-0.19,0.1c-0.19,0-0.64-0.29-1.35-0.87l-1.16-0.97c-0.19-0.19-0.45-0.51-0.77-0.96
			c-0.32-0.45-0.52-0.68-0.58-0.68c0-0.06,0.03-0.13,0.1-0.19c-0.32-0.19-0.64-0.69-0.97-1.5c-0.32-0.8-0.55-1.43-0.68-1.88
			c-0.32-1.22-0.48-2.33-0.48-3.33s0.03-1.87,0.1-2.61c0.06-0.74,0.13-1.33,0.19-1.79c0.06-0.45,0.03-0.74-0.1-0.87
			c-0.06,0-0.06-0.18,0-0.53c0.06-0.35,0.15-0.74,0.24-1.16c0.1-0.42,0.18-0.8,0.24-1.16c0.06-0.35,0.1-0.56,0.1-0.63
			c0.13-0.06,0.16-0.16,0.1-0.29s-0.03-0.26,0.1-0.39c0-0.06-0.03-0.1-0.1-0.1c-0.06,0-0.18,0.13-0.34,0.39
			c-0.16,0.26-0.34,0.56-0.53,0.92c-0.19,0.35-0.42,0.82-0.68,1.4c0,0.06,0.03,0.13,0.1,0.19c-0.13,0.19-0.26,0.29-0.39,0.29
			s-0.32,0.32-0.58,0.97c-0.19,0.32-0.31,0.64-0.34,0.97c-0.03,0.32-0.27,0.74-0.72,1.25l0.1,0.19c-0.13,0-0.19,0.02-0.19,0.05
			c0,0.03-0.03,0.05-0.1,0.05l-0.1,0.1c0,0.06,0.03,0.13,0.1,0.19c-0.26,0.26-0.39,0.35-0.39,0.29c0,0.06,0.1,0.13,0.29,0.19
			c-0.58,0.64-0.93,1.09-1.06,1.35c-0.13,0.26-0.19,0.35-0.19,0.29c0,0.06,0.02,0.1,0.05,0.1s0.05,0.03,0.05,0.1
			c-0.39,0.13-0.58,0.26-0.58,0.39c0,0.06,0.03,0.13,0.1,0.19c-0.13,0.13-0.23,0.18-0.29,0.14c-0.06-0.03-0.1,0.02-0.1,0.14
			c0.06,0.07,0.13,0.1,0.19,0.1c0.06,0,0.1,0.02,0.1,0.05c0,0.03,0.03,0.05,0.1,0.05c-1.22,0.9-2.04,1.71-2.46,2.41
			c-0.42,0.71-0.98,1.06-1.69,1.06s-1.48-0.27-2.32-0.82s-1.61-1.19-2.32-1.93s-1.32-1.5-1.83-2.27s-0.8-1.42-0.87-1.93
			c-0.19-1.16-0.29-2.24-0.29-3.24s0.03-2.04,0.1-3.14c-0.06,0-0.13-0.03-0.19-0.1c0.13-0.13,0.18-0.39,0.15-0.77
			c-0.03-0.39,0.05-0.58,0.24-0.58c0-0.13-0.03-0.18-0.1-0.14c-0.06,0.03-0.1,0.02-0.1-0.05c-0.06-0.9,0.05-1.62,0.34-2.17
			c0.29-0.55,0.4-0.79,0.34-0.72c0.13-1.29,0.34-2.53,0.63-3.72c0.29-1.19,0.63-1.79,1.01-1.79v0.1c0.39-1.42,0.63-2.2,0.72-2.37
			c0.1-0.16,0.21-0.24,0.34-0.24c0.26,0,0.74-0.55,1.45-1.64s1.71-2.16,2.99-3.19c0.06,0,0.24-0.08,0.53-0.24s0.61-0.34,0.97-0.53
			c0.35-0.19,0.66-0.39,0.92-0.58s0.39-0.32,0.39-0.39h-0.1c-0.06,0.06,0.29-0.08,1.06-0.43s1.77-0.53,2.99-0.53
			c0.32,0,0.63,0.06,0.92,0.19s0.53,0.19,0.72,0.19c0.06,0,0.13-0.03,0.19-0.1c0.64,0.58,1.17,0.98,1.59,1.21
			c0.42,0.23,0.76,0.39,1.01,0.48c0.26,0.1,0.48,0.16,0.68,0.19c0.19,0.03,0.39,0.08,0.58,0.14c0.19,0.13,0.4,0.31,0.63,0.53
			c0.22,0.23,0.47,0.43,0.72,0.63c0.45-0.13,0.76-0.53,0.92-1.21s0.27-1.01,0.34-1.01v0.1c0.45-0.51,0.79-1.01,1.01-1.5
			c0.23-0.48,0.4-0.88,0.53-1.21c0.13-0.39,0.22-0.74,0.29-1.06v0.1c-0.06-0.26-0.02-0.56,0.15-0.92c0.16-0.35,0.35-0.69,0.58-1.01
			s0.45-0.59,0.68-0.82c0.22-0.22,0.37-0.37,0.43-0.43c0.13-0.26,0.48-1,1.06-2.22c0.58-1.22,1.26-2.59,2.03-4.1
			c0.77-1.51,1.62-3.02,2.56-4.54c0.93-1.51,1.79-2.75,2.56-3.72c0.45-1.03,0.85-1.8,1.21-2.32c0.35-0.51,0.66-0.88,0.92-1.11
			c0.26-0.22,0.43-0.37,0.53-0.43s0.15-0.16,0.15-0.29c0.51-0.26,0.9-0.45,1.16-0.58s0.43-0.24,0.53-0.34
			c0.1-0.1,0.18-0.16,0.24-0.19c0.06-0.03,0.19-0.05,0.39-0.05c0.13,0,0.37,0.13,0.72,0.39C512.82,93.34,513.26,93.46,513.77,93.46z
			 M475.44,131.99c0.71-1.99,1.27-3.27,1.69-3.81c0.42-0.55,0.63-0.88,0.63-1.01c0-0.32,0.22-0.74,0.68-1.25
			c0.45-0.51,0.71-0.77,0.77-0.77l-0.1,0.1c1.48-2,2.49-3.2,3.04-3.62s0.88-0.63,1.01-0.63c0.06,0,0.1,0.02,0.1,0.05
			c0,0.03,0.03,0.05,0.1,0.05c0.06,0,0.19-0.1,0.39-0.29c0.19-0.13,0.4-0.27,0.63-0.43c0.22-0.16,0.34-0.27,0.34-0.34
			c0-0.06-0.03-0.1-0.1-0.1c-1.67,0.71-2.85,1.3-3.52,1.79c-0.68,0.48-1.14,0.93-1.4,1.35s-0.45,0.79-0.58,1.11
			s-0.45,0.61-0.97,0.87c0,0.19-0.08,0.34-0.24,0.43c-0.16,0.1-0.18,0.21-0.05,0.34l0.19,0.19c-0.45,0-0.81,0.32-1.06,0.97
			c-0.13,0.26-0.19,0.58-0.19,0.96v-0.19c-0.52,0.64-0.84,1.13-0.97,1.45s-0.19,0.58-0.19,0.77l0.19,0.19
			c0,1.29-0.19,2.06-0.58,2.32s-0.58,0.42-0.58,0.48c-0.19,0.9-0.35,1.51-0.48,1.83s-0.24,0.56-0.34,0.72s-0.14,0.32-0.14,0.48
			s0.06,0.5,0.19,1.01c0,0.13,0.03,0.23,0.1,0.29c0.06-0.97,0.24-1.88,0.53-2.75C474.81,133.68,475.12,132.83,475.44,131.99z
			 M478.92,144.83c1.29-1.48,2.12-2.49,2.51-3.04s0.58-0.88,0.58-1.01s-0.03-0.19-0.1-0.19c-0.06,0-0.1-0.06-0.1-0.19
			s0.1-0.34,0.29-0.63c0.19-0.29,0.61-0.82,1.25-1.59c0.58-0.71,1-1.32,1.26-1.83s0.39-0.84,0.39-0.97h-0.1
			c0.51-0.97,1.06-1.93,1.64-2.9c0.58-0.97,1.35-2.03,2.32-3.19c-0.06,0.06,0.05-0.1,0.34-0.48c0.29-0.39,0.53-0.93,0.72-1.64
			c0.19-0.19,0.51-0.61,0.97-1.25c0.45-0.64,0.68-1,0.68-1.06c0-0.13-0.05-0.3-0.15-0.53s-0.18-0.53-0.24-0.92
			c-0.97,0-1.67,0.08-2.12,0.24s-0.79,0.35-1.01,0.58c-0.23,0.23-0.37,0.42-0.43,0.58c-0.06,0.16-0.16,0.24-0.29,0.24
			c-0.71,0-1.16,0.27-1.35,0.82s-0.32,0.82-0.39,0.82v-0.1c-0.9,0.77-1.51,1.53-1.83,2.27s-0.55,1.11-0.68,1.11
			c-0.06,0-0.1-0.03-0.1-0.1l-0.1,0.1l0.19,0.19c-0.9,1.09-1.48,1.9-1.74,2.41c-0.26,0.52-0.39,0.84-0.39,0.96v0.19
			c0,0.07,0.03,0.1,0.1,0.1c0,0.32-0.06,0.68-0.19,1.06c-0.13,0.39-0.27,0.77-0.43,1.16c-0.16,0.39-0.31,0.72-0.43,1.01
			c-0.13,0.29-0.19,0.47-0.19,0.53v-0.1c0,0.07,0.02,0.11,0.05,0.15c0.03,0.03,0.05,0.08,0.05,0.14c-0.13,0.13-0.26,0.39-0.39,0.77
			c-0.06,0.19-0.13,0.35-0.19,0.48c0,0.07,0.03,0.13,0.1,0.19c-0.26,0.71-0.5,1.67-0.72,2.9c-0.23,1.22-0.24,2.32-0.05,3.28
			c0.13-0.06,0.18-0.14,0.15-0.24C478.74,145.08,478.79,144.96,478.92,144.83z M479.11,147.25c0.19-0.13,0.42-0.34,0.68-0.63
			s0.48-0.58,0.68-0.87c0.19-0.29,0.39-0.66,0.58-1.11c1.48-2.64,2.56-4.57,3.23-5.79c0.68-1.22,1.19-2.14,1.54-2.75
			c0.35-0.61,0.64-1.08,0.87-1.4c0.22-0.32,0.63-0.87,1.21-1.64c-0.13-0.45-0.16-0.79-0.1-1.01c0.06-0.22,0.21-0.45,0.43-0.68
			c0.23-0.23,0.53-0.5,0.92-0.82s0.84-0.8,1.35-1.45c0.19-0.19,0.4-0.51,0.63-0.97c0.22-0.45,0.43-0.93,0.63-1.45
			c-0.32,0-0.64,0.23-0.97,0.68c-0.32,0.45-0.48,0.74-0.48,0.87v0.1l0.19-0.19c-0.32,0.45-0.61,0.97-0.87,1.54
			c-0.13,0.26-0.26,0.55-0.39,0.87c-0.84,0.97-1.3,1.54-1.4,1.74s-0.16,0.35-0.19,0.48c-0.03,0.13-0.18,0.45-0.43,0.97
			c-0.26,0.52-0.9,1.64-1.93,3.38c-0.97,1.03-1.56,1.74-1.79,2.12c-0.23,0.39-0.31,0.64-0.24,0.77c0,0.07,0.02,0.1,0.05,0.1
			s0.05,0.03,0.05,0.1c0,0.19-0.19,0.48-0.58,0.87c-0.19,0.9-0.42,1.58-0.68,2.03s-0.5,0.76-0.72,0.92
			c-0.23,0.16-0.43,0.27-0.63,0.34c-0.19,0.06-0.29,0.16-0.29,0.29c-0.06,0.32-0.13,0.52-0.19,0.58c-0.06,0.06-0.14,0.14-0.24,0.24
			s-0.23,0.24-0.39,0.43s-0.37,0.55-0.63,1.06c-0.06,0.07-0.14,0.11-0.24,0.15c-0.1,0.03-0.15,0.11-0.15,0.24
			c0,0.06,0.03,0.13,0.1,0.19c0-0.13,0.05-0.19,0.15-0.19S479.04,147.31,479.11,147.25z M502.09,110.56
			c0.32-0.9,0.84-2.01,1.54-3.33c0.71-1.32,1.42-2.59,2.12-3.81c0.84-1.42,1.77-2.83,2.8-4.25c0-0.06-0.03-0.1-0.1-0.1
			c-1.1,0.97-2.06,2.12-2.9,3.48c-0.84,1.35-1.61,2.67-2.32,3.96c-0.71,1.29-1.32,2.5-1.83,3.62c-0.52,1.13-0.97,1.92-1.35,2.37
			c-0.06,0.06-0.24,0.42-0.53,1.06s-0.61,1.35-0.97,2.12c-0.35,0.77-0.66,1.48-0.92,2.12s-0.39,1-0.39,1.06l0.77-0.97
			c0.19-0.26,0.35-0.5,0.48-0.72c0.13-0.23,0.23-0.34,0.29-0.34c0.13-0.26,0.35-0.68,0.68-1.25c0.32-0.58,0.64-1.21,0.97-1.88
			c0.32-0.68,0.64-1.32,0.97-1.93C501.74,111.15,501.96,110.75,502.09,110.56z M498.03,152.27c0.64-1.03,1.13-1.88,1.45-2.56
			s0.58-1.22,0.77-1.64c0.19-0.42,0.32-0.71,0.39-0.87c0.06-0.16,0.16-0.3,0.29-0.43l0.1,0.1l-0.1-0.19
			c-0.13-0.13-0.06-0.19,0.19-0.19l-0.1-0.19c0.45-0.45,0.74-0.8,0.87-1.06s0.21-0.47,0.24-0.63c0.03-0.16,0.05-0.32,0.05-0.48
			s0.1-0.34,0.29-0.53c0-0.06,0.24-0.51,0.72-1.35c0.48-0.83,1.03-1.8,1.64-2.9c0.61-1.09,1.22-2.16,1.83-3.19s1.01-1.8,1.21-2.32
			v-0.29c-0.52,0.97-0.93,1.71-1.26,2.22c-0.32,0.52-0.64,1-0.97,1.45c-0.32,0.45-0.55,0.68-0.68,0.68l0.1,0.19
			c-0.45,0.52-0.85,1.13-1.21,1.83c-0.35,0.71-0.5,1.13-0.43,1.26c-0.19,0.52-0.48,1.13-0.87,1.83c-0.39,0.71-0.77,1.4-1.16,2.08
			s-0.71,1.29-0.97,1.83c-0.26,0.55-0.35,0.95-0.29,1.21c0,0.13-0.03,0.21-0.1,0.24c-0.06,0.03-0.13,0.11-0.19,0.24l-0.29,0.29
			c-0.06,0-0.1,0.03-0.1,0.1c-0.06,0.06-0.1,0.13-0.1,0.19c-0.71,0.9-1.14,1.53-1.3,1.88s-0.24,0.6-0.24,0.72
			c0,0.13,0.05,0.18,0.15,0.15c0.1-0.03,0.14-0.02,0.14,0.05C498.13,152.11,498.1,152.21,498.03,152.27z M508.75,131.99
			c0-0.06-0.03-0.1-0.1-0.1c-0.19,0-0.35,0.26-0.48,0.77c-0.06,0.26-0.1,0.48-0.1,0.68c0-0.13,0.08-0.35,0.24-0.68
			C508.48,132.35,508.62,132.12,508.75,131.99z"/>
		<path class="st1" d="M526.13,122.92c0.19-0.13,0.79-0.21,1.79-0.24c1-0.03,2.08-0.03,3.23,0c1.16,0.03,2.25,0.06,3.28,0.1
			c1.03,0.03,1.71,0.05,2.03,0.05c0.39,0,0.87,0.06,1.45,0.19s1.14,0.32,1.69,0.58c0.55,0.26,1,0.53,1.35,0.82s0.53,0.6,0.53,0.92
			s-0.35,0.6-1.06,0.82c-0.71,0.23-1.53,0.42-2.46,0.58c-0.93,0.16-1.83,0.28-2.7,0.34s-1.43,0.1-1.69,0.1
			c-0.39,0-1.18,0.1-2.37,0.29s-2.17,0.29-2.94,0.29c-0.06,0.06-0.1,0.13-0.1,0.19c0,0.39,0.1,0.87,0.29,1.45
			c0.19,0.58,0.29,1.58,0.29,2.99c0,1.61-0.06,2.58-0.19,2.9c-0.13,0.32-0.19,0.55-0.19,0.68s0.02,0.23,0.05,0.29
			s0.05,0.16,0.05,0.29s-0.06,0.35-0.19,0.68c-0.13,0.32-0.27,0.66-0.43,1.01c-0.16,0.35-0.31,0.71-0.43,1.06
			c-0.13,0.35-0.19,0.56-0.19,0.63s0.03,0.1,0.1,0.1l-0.1-0.1c-0.39,0.71-0.61,1.16-0.68,1.35c-0.06,0.19-0.1,0.39-0.1,0.58
			c0,0.06,0.02,0.11,0.05,0.14s0.05,0.08,0.05,0.15c-0.84,0.84-1.29,1.4-1.35,1.69c-0.06,0.29-0.1,0.56-0.1,0.82l-0.58,0.77
			c-0.39,0.52-0.58,0.84-0.58,0.97c0,0.07,0.03,0.13,0.1,0.19l-0.1,0.1l-0.1-0.1c-0.58,1.29-1.08,2.25-1.5,2.9
			c-0.42,0.64-0.74,1.1-0.97,1.35c-0.23,0.26-0.4,0.42-0.53,0.48s-0.19,0.19-0.19,0.39c-0.06,0-0.1-0.02-0.1-0.05
			c0-0.03-0.03-0.05-0.1-0.05c0,0.64-0.26,1.32-0.77,2.03c-0.52,0.71-1.08,1.35-1.69,1.93s-1.47,1.25-2.56,2.03l0.19-0.1h-0.1
			c-0.13,0-0.45,0.27-0.97,0.82s-1.58,0.82-3.19,0.82c-1.42,0-2.43-0.4-3.04-1.21c-0.61-0.8-1.24-1.56-1.88-2.27
			c0-0.06-0.06-0.1-0.19-0.1c-0.13,0-0.19-0.06-0.19-0.19c0-0.06,0.03-0.13,0.1-0.19c-0.58-0.58-1.19-1.24-1.83-1.98
			s-0.93-1.17-0.87-1.3c0.13,0,0.19-0.1,0.19-0.29c-0.19-0.13-0.39-0.61-0.58-1.45c-0.19-0.83-0.29-1.74-0.29-2.7
			c0-1.48,0.1-2.66,0.29-3.52c0.19-0.87,0.4-1.54,0.63-2.03c0.23-0.48,0.43-0.87,0.63-1.16c0.19-0.29,0.29-0.59,0.29-0.92
			c0-0.13,0.05-0.21,0.15-0.24c0.1-0.03,0.18-0.08,0.24-0.14c0-0.06-0.02-0.1-0.05-0.1s-0.05-0.03-0.05-0.1
			c0.06-0.19,0.16-0.42,0.29-0.68s0.23-0.42,0.29-0.48s0.1-0.13,0.1-0.19s-0.02-0.11-0.05-0.14s-0.05-0.08-0.05-0.15
			c0-0.39,0.24-0.84,0.72-1.35c0.48-0.51,0.69-0.77,0.63-0.77c0.26-1.22,0.74-2.43,1.45-3.62s1.43-2.27,2.17-3.23
			c0.74-0.97,1.69-2.03,2.85-3.19c0.26-0.45,0.58-0.92,0.97-1.4s0.79-0.9,1.21-1.26c0.42-0.35,0.79-0.64,1.11-0.87
			s0.51-0.34,0.58-0.34c0.77-0.77,1.32-1.19,1.64-1.26c0.32-0.06,0.48-0.16,0.48-0.29c0.19-0.13,0.39-0.24,0.58-0.34
			c0.19-0.1,0.51-0.14,0.97-0.14c1.09,0,1.85,0.11,2.27,0.34c0.42,0.23,0.71,0.45,0.87,0.68s0.31,0.45,0.43,0.68
			c0.13,0.23,0.45,0.34,0.97,0.34c0,0.06-0.02,0.11-0.05,0.14s-0.05,0.08-0.05,0.14l0.39,0.58
			C525.78,122.63,525.94,122.79,526.13,122.92z M513,130.25c0-0.13,0.05-0.23,0.15-0.29s0.14-0.19,0.14-0.39
			c1.03-1.03,1.71-1.72,2.03-2.08c0.32-0.35,0.48-0.59,0.48-0.72l-0.1-0.1h-0.1c0-0.06,0.06-0.16,0.19-0.29
			c1.8-1.8,2.99-2.99,3.57-3.57s0.9-0.87,0.97-0.87c0,0.06-0.06,0.16-0.19,0.29l-0.19,0.19c0-0.06,0.24-0.32,0.72-0.77
			s0.79-0.68,0.92-0.68h0.1c0-0.06-0.06-0.1-0.19-0.1c-0.39,0-0.72,0.15-1.01,0.43c-0.29,0.29-0.5,0.43-0.63,0.43v-0.1
			c-0.39,0.13-0.69,0.32-0.92,0.58c-0.23,0.26-0.37,0.39-0.43,0.39v-0.1c0-0.06-0.24,0.26-0.72,0.97c-0.48,0.71-1.05,1.48-1.69,2.32
			c-0.64,0.84-1.27,1.61-1.88,2.32s-1.01,1.06-1.21,1.06c-0.32,0.77-0.6,1.27-0.82,1.5c-0.23,0.23-0.4,0.4-0.53,0.53
			c-0.77,1.22-1.34,2.19-1.69,2.9s-0.63,1.27-0.82,1.69s-0.34,0.74-0.43,0.97c-0.1,0.23-0.24,0.43-0.43,0.63
			c0,0.13-0.06,0.23-0.19,0.29c-0.13,0.07-0.19,0.13-0.19,0.19s0.02,0.13,0.05,0.19s0.05,0.13,0.05,0.19
			c-0.39,0.39-0.68,0.79-0.87,1.21c-0.19,0.42-0.35,0.79-0.48,1.11c-0.13,0.39-0.19,0.77-0.19,1.16v-0.1c0,0.13,0.06,0.23,0.19,0.29
			c0.84-2.19,1.79-4.25,2.85-6.18C510.54,133.83,511.71,131.99,513,130.25z M511.26,152.95c0.13,0,0.18-0.02,0.14-0.05
			c-0.03-0.03-0.02-0.08,0.05-0.15c0.06,0,0.11,0.02,0.15,0.05c0.03,0.03,0.08,0.05,0.14,0.05c0.32,0,0.63-0.11,0.92-0.34
			c0.29-0.22,0.53-0.47,0.72-0.72c0.19-0.26,0.39-0.58,0.58-0.96c0.71-0.71,1.21-1.24,1.5-1.59c0.29-0.35,0.5-0.63,0.63-0.82
			s0.19-0.34,0.19-0.43s0.06-0.21,0.19-0.34c1.29-1.93,2.16-3.19,2.61-3.77s0.71-0.87,0.77-0.87c0,0.07-0.02,0.11-0.05,0.15
			c-0.03,0.03-0.05,0.08-0.05,0.14c-0.06,0.07-0.1,0.13-0.1,0.19l-0.1-0.1c0-0.19,0.11-0.47,0.34-0.82
			c0.22-0.35,0.45-0.69,0.68-1.01c0.22-0.32,0.45-0.63,0.68-0.92c0.23-0.29,0.34-0.5,0.34-0.63l-0.1-0.1c0-0.51,0.19-1.03,0.58-1.54
			c0.39-0.51,0.58-0.8,0.58-0.87c-0.13,0-0.16-0.03-0.1-0.1c0.06-0.06,0.03-0.1-0.1-0.1c-0.26,0.64-0.68,1.4-1.26,2.27
			s-1.16,1.71-1.74,2.51c-0.58,0.81-1.08,1.53-1.5,2.17c-0.42,0.64-0.63,1.03-0.63,1.16c-0.39,0.77-0.72,1.24-1.01,1.4
			c-0.29,0.16-0.43,0.31-0.43,0.43l0.1,0.19c-1.16,1.16-2.09,2.09-2.8,2.8c-0.71,0.71-1.26,1.24-1.64,1.59
			c-0.39,0.35-0.63,0.6-0.72,0.72c-0.1,0.13-0.15,0.23-0.15,0.29c0.06,0.07,0.1,0.13,0.1,0.19s0.03,0.1,0.1,0.1
			c0.06,0,0.13-0.03,0.19-0.1C511.13,152.98,511.2,152.95,511.26,152.95z M513.1,148.02c0-0.26,0.24-0.64,0.72-1.16
			c0.48-0.51,0.98-1.03,1.5-1.54c0-0.06-0.02-0.11-0.05-0.15c-0.03-0.03-0.05-0.08-0.05-0.14c0-0.13,0.18-0.4,0.53-0.82
			s0.76-0.87,1.21-1.35s0.85-0.95,1.21-1.4c0.35-0.45,0.53-0.74,0.53-0.87c0-0.06-0.03-0.1-0.1-0.1c0-0.13,0.06-0.26,0.19-0.39
			c0.13-0.13,0.26-0.22,0.39-0.29c0-0.06-0.02-0.11-0.05-0.15c-0.03-0.03-0.05-0.08-0.05-0.14c0-0.71,0.26-1.22,0.77-1.54
			s0.77-0.68,0.77-1.06c0.71-1.67,1.22-3.01,1.54-4.01c0.32-1,0.48-1.56,0.48-1.69c0-0.32,0.03-0.66,0.1-1.01
			c0.06-0.35,0.1-0.69,0.1-1.01c0-0.19-0.02-0.48-0.05-0.87s-0.11-0.58-0.24-0.58c-0.19,0-0.45,0.21-0.77,0.63
			c-0.32,0.42-0.63,0.9-0.92,1.45s-0.55,1.03-0.77,1.45c-0.23,0.42-0.37,0.63-0.43,0.63v-0.1c0,0.26-0.1,0.52-0.29,0.77
			c-0.19,0.26-0.39,0.48-0.58,0.68c-0.26,0.26-0.52,0.52-0.77,0.77l0.1-0.1v0.19c0,0.13-0.16,0.42-0.48,0.87s-0.52,0.68-0.58,0.68
			c0,0.06,0.02,0.11,0.05,0.14s0.05,0.08,0.05,0.14c-0.13,0.13-0.24,0.29-0.34,0.48s-0.21,0.35-0.34,0.48l-0.39,0.58
			c-0.06,0-0.1-0.03-0.1-0.1l-0.1,0.1c0,0.07,0.02,0.11,0.05,0.15c0.03,0.03,0.05,0.08,0.05,0.14c-1.03,1.03-1.66,1.82-1.88,2.37
			c-0.23,0.55-0.34,0.98-0.34,1.3v0.39c0,0.32-0.11,0.77-0.34,1.35c-0.23,0.58-0.48,1.14-0.77,1.69s-0.63,1.24-1.01,2.08
			c0.06,0,0.1,0.1,0.1,0.29c0,0.71-0.13,1.19-0.39,1.45s-0.39,0.71-0.39,1.35c0,0.19,0.06,0.29,0.19,0.29
			c0.58-0.9,1.22-1.64,1.93-2.22v-0.1H513.1z"/>
	</g>
	<g>
		<path class="st0" d="M525.78,14.16c0.08-0.08,0.12-0.16,0.12-0.24s-0.02-0.12-0.06-0.12s-0.06-0.04-0.06-0.12
			c0-0.16,0.14-0.33,0.41-0.53s0.49-0.37,0.65-0.53c0-0.08-0.02-0.14-0.06-0.17c-0.04-0.04-0.06-0.1-0.06-0.18l0.12-0.12
			c1.1-1.18,2-2.12,2.71-2.83s1.41-1.36,2.12-1.94c0.71-0.59,1.3-0.88,1.77-0.88c0.16,0,0.21-0.02,0.18-0.06
			c-0.04-0.04,0.02-0.14,0.17-0.29c1.1-0.63,1.79-0.98,2.06-1.06s0.49-0.19,0.65-0.35c0,0.05,0.02,0.08,0.05,0.1
			c-0.19,0.11-0.4,0.25-0.64,0.49c-0.32,0.23-0.77,0.55-1.36,0.94s-1.35,0.94-2.3,1.65c-2.36,1.73-4.52,3.85-6.48,6.36v-0.12H525.78
			z M522.76,13.98c0.73,0.71,1.47,1.41,2.23,2.09c0.53,0.35,1.08,0.69,1.62,1.04c2.73-0.75,5.48-1.33,8.25-1.73
			c0.42-0.48,0.81-0.93,1.17-1.34c0.47-0.55,0.75-0.83,0.82-0.83c-0.08,0.16-0.12,0.34-0.12,0.53s-0.04,0.37-0.12,0.53
			c0,0.07,0.02,0.37,0.05,0.87c0.5-0.06,0.99-0.11,1.48-0.16v-0.12c0-0.39,0.08-0.98,0.24-1.77c0.16-0.78,0.67-1.49,1.53-2.12
			c-0.71,1.65-1.1,2.96-1.18,3.94c0,0.01,0,0.01,0,0.02c0.13-0.01,0.26-0.02,0.4-0.03c0.9-0.59,1.83-1.15,2.78-1.68
			c1.3-0.87,2.63-1.69,3.98-2.46c0.73-1.04,1.33-1.79,1.79-2.26c0.16-0.39,0.28-0.81,0.35-1.24c0.08-0.43,0.12-0.84,0.12-1.24
			c0-0.08-0.08-0.27-0.23-0.59c0-0.78-0.37-1.41-1.12-1.88s-0.98-0.82-1.96-1.06s-1.78-1.21-2.76-1.29c-0.98-0.08-2.52-1.2-2.99-1.2
			c-0.87,0-2.08,1.6-2.83,1.84c-0.75,0.23-1.22,1.08-2.24,1.71c-0.08,0.08-0.14,0.18-0.18,0.29s-0.1,0.18-0.18,0.18l-0.23-0.23
			c-0.87,0.71-1.57,1.24-2.12,1.59s-1.26,0.81-2.12,1.36c-0.08,0-0.12-0.02-0.12-0.06s-0.04-0.06-0.12-0.06
			c0,0.39-0.04,0.59-0.12,0.59s-0.12-0.04-0.12-0.12l-0.12-0.12c0,0.23-0.18,0.41-0.53,0.53s-0.81,0.37-1.36,0.77
			c-0.55,0.39-1.14,0.94-1.76,1.65c-0.63,0.71-1.22,1.77-1.77,3.18c0.16,0,0.23,0.04,0.23,0.12
			C523.29,13.29,523.06,13.55,522.76,13.98"/>
	</g>
</g>
</svg>
